G75*
%MOIN*%
%OFA0B0*%
%FSLAX25Y25*%
%IPPOS*%
%LPD*%
%AMOC8*
5,1,8,0,0,1.08239X$1,22.5*
%
%ADD10C,0.00000*%
D10*
X0047941Y0019455D02*
X0047941Y0075360D01*
X0047943Y0075484D01*
X0047949Y0075607D01*
X0047958Y0075731D01*
X0047972Y0075853D01*
X0047989Y0075976D01*
X0048011Y0076098D01*
X0048036Y0076219D01*
X0048065Y0076339D01*
X0048097Y0076458D01*
X0048134Y0076577D01*
X0048174Y0076694D01*
X0048217Y0076809D01*
X0048265Y0076924D01*
X0048316Y0077036D01*
X0048370Y0077147D01*
X0048428Y0077257D01*
X0048489Y0077364D01*
X0048554Y0077470D01*
X0048622Y0077573D01*
X0048693Y0077674D01*
X0048767Y0077773D01*
X0048844Y0077870D01*
X0048925Y0077964D01*
X0049008Y0078055D01*
X0049094Y0078144D01*
X0049183Y0078230D01*
X0049274Y0078313D01*
X0049368Y0078394D01*
X0049465Y0078471D01*
X0049564Y0078545D01*
X0049665Y0078616D01*
X0049768Y0078684D01*
X0049874Y0078749D01*
X0049981Y0078810D01*
X0050091Y0078868D01*
X0050202Y0078922D01*
X0050314Y0078973D01*
X0050429Y0079021D01*
X0050544Y0079064D01*
X0050661Y0079104D01*
X0050780Y0079141D01*
X0050899Y0079173D01*
X0051019Y0079202D01*
X0051140Y0079227D01*
X0051262Y0079249D01*
X0051385Y0079266D01*
X0051507Y0079280D01*
X0051631Y0079289D01*
X0051754Y0079295D01*
X0051878Y0079297D01*
X0067626Y0079297D01*
X0067750Y0079299D01*
X0067873Y0079305D01*
X0067997Y0079314D01*
X0068119Y0079328D01*
X0068242Y0079345D01*
X0068364Y0079367D01*
X0068485Y0079392D01*
X0068605Y0079421D01*
X0068724Y0079453D01*
X0068843Y0079490D01*
X0068960Y0079530D01*
X0069075Y0079573D01*
X0069190Y0079621D01*
X0069302Y0079672D01*
X0069413Y0079726D01*
X0069523Y0079784D01*
X0069630Y0079845D01*
X0069736Y0079910D01*
X0069839Y0079978D01*
X0069940Y0080049D01*
X0070039Y0080123D01*
X0070136Y0080200D01*
X0070230Y0080281D01*
X0070321Y0080364D01*
X0070410Y0080450D01*
X0070496Y0080539D01*
X0070579Y0080630D01*
X0070660Y0080724D01*
X0070737Y0080821D01*
X0070811Y0080920D01*
X0070882Y0081021D01*
X0070950Y0081124D01*
X0071015Y0081230D01*
X0071076Y0081337D01*
X0071134Y0081447D01*
X0071188Y0081558D01*
X0071239Y0081670D01*
X0071287Y0081785D01*
X0071330Y0081900D01*
X0071370Y0082017D01*
X0071407Y0082136D01*
X0071439Y0082255D01*
X0071468Y0082375D01*
X0071493Y0082496D01*
X0071515Y0082618D01*
X0071532Y0082741D01*
X0071546Y0082863D01*
X0071555Y0082987D01*
X0071561Y0083110D01*
X0071563Y0083234D01*
X0071563Y0152132D01*
X0071561Y0152256D01*
X0071555Y0152379D01*
X0071546Y0152503D01*
X0071532Y0152625D01*
X0071515Y0152748D01*
X0071493Y0152870D01*
X0071468Y0152991D01*
X0071439Y0153111D01*
X0071407Y0153230D01*
X0071370Y0153349D01*
X0071330Y0153466D01*
X0071287Y0153581D01*
X0071239Y0153696D01*
X0071188Y0153808D01*
X0071134Y0153919D01*
X0071076Y0154029D01*
X0071015Y0154136D01*
X0070950Y0154242D01*
X0070882Y0154345D01*
X0070811Y0154446D01*
X0070737Y0154545D01*
X0070660Y0154642D01*
X0070579Y0154736D01*
X0070496Y0154827D01*
X0070410Y0154916D01*
X0070321Y0155002D01*
X0070230Y0155085D01*
X0070136Y0155166D01*
X0070039Y0155243D01*
X0069940Y0155317D01*
X0069839Y0155388D01*
X0069736Y0155456D01*
X0069630Y0155521D01*
X0069523Y0155582D01*
X0069413Y0155640D01*
X0069302Y0155694D01*
X0069190Y0155745D01*
X0069075Y0155793D01*
X0068960Y0155836D01*
X0068843Y0155876D01*
X0068724Y0155913D01*
X0068605Y0155945D01*
X0068485Y0155974D01*
X0068364Y0155999D01*
X0068242Y0156021D01*
X0068119Y0156038D01*
X0067997Y0156052D01*
X0067873Y0156061D01*
X0067750Y0156067D01*
X0067626Y0156069D01*
X0051878Y0156069D01*
X0051754Y0156071D01*
X0051631Y0156077D01*
X0051507Y0156086D01*
X0051385Y0156100D01*
X0051262Y0156117D01*
X0051140Y0156139D01*
X0051019Y0156164D01*
X0050899Y0156193D01*
X0050780Y0156225D01*
X0050661Y0156262D01*
X0050544Y0156302D01*
X0050429Y0156345D01*
X0050314Y0156393D01*
X0050202Y0156444D01*
X0050091Y0156498D01*
X0049981Y0156556D01*
X0049874Y0156617D01*
X0049768Y0156682D01*
X0049665Y0156750D01*
X0049564Y0156821D01*
X0049465Y0156895D01*
X0049368Y0156972D01*
X0049274Y0157053D01*
X0049183Y0157136D01*
X0049094Y0157222D01*
X0049008Y0157311D01*
X0048925Y0157402D01*
X0048844Y0157496D01*
X0048767Y0157593D01*
X0048693Y0157692D01*
X0048622Y0157793D01*
X0048554Y0157896D01*
X0048489Y0158002D01*
X0048428Y0158109D01*
X0048370Y0158219D01*
X0048316Y0158330D01*
X0048265Y0158442D01*
X0048217Y0158557D01*
X0048174Y0158672D01*
X0048134Y0158789D01*
X0048097Y0158908D01*
X0048065Y0159027D01*
X0048036Y0159147D01*
X0048011Y0159268D01*
X0047989Y0159390D01*
X0047972Y0159513D01*
X0047958Y0159635D01*
X0047949Y0159759D01*
X0047943Y0159882D01*
X0047941Y0160006D01*
X0047941Y0251738D01*
X0047944Y0252023D01*
X0047955Y0252309D01*
X0047972Y0252594D01*
X0047996Y0252878D01*
X0048027Y0253162D01*
X0048065Y0253445D01*
X0048110Y0253726D01*
X0048161Y0254007D01*
X0048219Y0254287D01*
X0048284Y0254565D01*
X0048356Y0254841D01*
X0048434Y0255115D01*
X0048519Y0255388D01*
X0048611Y0255658D01*
X0048709Y0255926D01*
X0048813Y0256192D01*
X0048924Y0256455D01*
X0049041Y0256715D01*
X0049164Y0256973D01*
X0049294Y0257227D01*
X0049430Y0257478D01*
X0049571Y0257726D01*
X0049719Y0257970D01*
X0049872Y0258211D01*
X0050032Y0258447D01*
X0050197Y0258680D01*
X0050367Y0258909D01*
X0050543Y0259134D01*
X0050725Y0259354D01*
X0050911Y0259570D01*
X0051103Y0259781D01*
X0051300Y0259988D01*
X0051502Y0260190D01*
X0051709Y0260387D01*
X0051920Y0260579D01*
X0052136Y0260765D01*
X0052356Y0260947D01*
X0052581Y0261123D01*
X0052810Y0261293D01*
X0053043Y0261458D01*
X0053279Y0261618D01*
X0053520Y0261771D01*
X0053764Y0261919D01*
X0054012Y0262060D01*
X0054263Y0262196D01*
X0054517Y0262326D01*
X0054775Y0262449D01*
X0055035Y0262566D01*
X0055298Y0262677D01*
X0055564Y0262781D01*
X0055832Y0262879D01*
X0056102Y0262971D01*
X0056375Y0263056D01*
X0056649Y0263134D01*
X0056925Y0263206D01*
X0057203Y0263271D01*
X0057483Y0263329D01*
X0057764Y0263380D01*
X0058045Y0263425D01*
X0058328Y0263463D01*
X0058612Y0263494D01*
X0058896Y0263518D01*
X0059181Y0263535D01*
X0059467Y0263546D01*
X0059752Y0263549D01*
X0120775Y0263549D01*
X0120899Y0263547D01*
X0121022Y0263541D01*
X0121146Y0263532D01*
X0121268Y0263518D01*
X0121391Y0263501D01*
X0121513Y0263479D01*
X0121634Y0263454D01*
X0121754Y0263425D01*
X0121873Y0263393D01*
X0121992Y0263356D01*
X0122109Y0263316D01*
X0122224Y0263273D01*
X0122339Y0263225D01*
X0122451Y0263174D01*
X0122562Y0263120D01*
X0122672Y0263062D01*
X0122779Y0263001D01*
X0122885Y0262936D01*
X0122988Y0262868D01*
X0123089Y0262797D01*
X0123188Y0262723D01*
X0123285Y0262646D01*
X0123379Y0262565D01*
X0123470Y0262482D01*
X0123559Y0262396D01*
X0123645Y0262307D01*
X0123728Y0262216D01*
X0123809Y0262122D01*
X0123886Y0262025D01*
X0123960Y0261926D01*
X0124031Y0261825D01*
X0124099Y0261722D01*
X0124164Y0261616D01*
X0124225Y0261509D01*
X0124283Y0261399D01*
X0124337Y0261288D01*
X0124388Y0261176D01*
X0124436Y0261061D01*
X0124479Y0260946D01*
X0124519Y0260829D01*
X0124556Y0260710D01*
X0124588Y0260591D01*
X0124617Y0260471D01*
X0124642Y0260350D01*
X0124664Y0260228D01*
X0124681Y0260105D01*
X0124695Y0259983D01*
X0124704Y0259859D01*
X0124710Y0259736D01*
X0124712Y0259612D01*
X0124712Y0247801D01*
X0124714Y0247677D01*
X0124720Y0247554D01*
X0124729Y0247430D01*
X0124743Y0247308D01*
X0124760Y0247185D01*
X0124782Y0247063D01*
X0124807Y0246942D01*
X0124836Y0246822D01*
X0124868Y0246703D01*
X0124905Y0246584D01*
X0124945Y0246467D01*
X0124988Y0246352D01*
X0125036Y0246237D01*
X0125087Y0246125D01*
X0125141Y0246014D01*
X0125199Y0245904D01*
X0125260Y0245797D01*
X0125325Y0245691D01*
X0125393Y0245588D01*
X0125464Y0245487D01*
X0125538Y0245388D01*
X0125615Y0245291D01*
X0125696Y0245197D01*
X0125779Y0245106D01*
X0125865Y0245017D01*
X0125954Y0244931D01*
X0126045Y0244848D01*
X0126139Y0244767D01*
X0126236Y0244690D01*
X0126335Y0244616D01*
X0126436Y0244545D01*
X0126539Y0244477D01*
X0126645Y0244412D01*
X0126752Y0244351D01*
X0126862Y0244293D01*
X0126973Y0244239D01*
X0127085Y0244188D01*
X0127200Y0244140D01*
X0127315Y0244097D01*
X0127432Y0244057D01*
X0127551Y0244020D01*
X0127670Y0243988D01*
X0127790Y0243959D01*
X0127911Y0243934D01*
X0128033Y0243912D01*
X0128156Y0243895D01*
X0128278Y0243881D01*
X0128402Y0243872D01*
X0128525Y0243866D01*
X0128649Y0243864D01*
X0187704Y0243864D01*
X0187828Y0243866D01*
X0187951Y0243872D01*
X0188075Y0243881D01*
X0188197Y0243895D01*
X0188320Y0243912D01*
X0188442Y0243934D01*
X0188563Y0243959D01*
X0188683Y0243988D01*
X0188802Y0244020D01*
X0188921Y0244057D01*
X0189038Y0244097D01*
X0189153Y0244140D01*
X0189268Y0244188D01*
X0189380Y0244239D01*
X0189491Y0244293D01*
X0189601Y0244351D01*
X0189708Y0244412D01*
X0189814Y0244477D01*
X0189917Y0244545D01*
X0190018Y0244616D01*
X0190117Y0244690D01*
X0190214Y0244767D01*
X0190308Y0244848D01*
X0190399Y0244931D01*
X0190488Y0245017D01*
X0190574Y0245106D01*
X0190657Y0245197D01*
X0190738Y0245291D01*
X0190815Y0245388D01*
X0190889Y0245487D01*
X0190960Y0245588D01*
X0191028Y0245691D01*
X0191093Y0245797D01*
X0191154Y0245904D01*
X0191212Y0246014D01*
X0191266Y0246125D01*
X0191317Y0246237D01*
X0191365Y0246352D01*
X0191408Y0246467D01*
X0191448Y0246584D01*
X0191485Y0246703D01*
X0191517Y0246822D01*
X0191546Y0246942D01*
X0191571Y0247063D01*
X0191593Y0247185D01*
X0191610Y0247308D01*
X0191624Y0247430D01*
X0191633Y0247554D01*
X0191639Y0247677D01*
X0191641Y0247801D01*
X0191641Y0259612D01*
X0191643Y0259736D01*
X0191649Y0259859D01*
X0191658Y0259983D01*
X0191672Y0260105D01*
X0191689Y0260228D01*
X0191711Y0260350D01*
X0191736Y0260471D01*
X0191765Y0260591D01*
X0191797Y0260710D01*
X0191834Y0260829D01*
X0191874Y0260946D01*
X0191917Y0261061D01*
X0191965Y0261176D01*
X0192016Y0261288D01*
X0192070Y0261399D01*
X0192128Y0261509D01*
X0192189Y0261616D01*
X0192254Y0261722D01*
X0192322Y0261825D01*
X0192393Y0261926D01*
X0192467Y0262025D01*
X0192544Y0262122D01*
X0192625Y0262216D01*
X0192708Y0262307D01*
X0192794Y0262396D01*
X0192883Y0262482D01*
X0192974Y0262565D01*
X0193068Y0262646D01*
X0193165Y0262723D01*
X0193264Y0262797D01*
X0193365Y0262868D01*
X0193468Y0262936D01*
X0193574Y0263001D01*
X0193681Y0263062D01*
X0193791Y0263120D01*
X0193902Y0263174D01*
X0194014Y0263225D01*
X0194129Y0263273D01*
X0194244Y0263316D01*
X0194361Y0263356D01*
X0194480Y0263393D01*
X0194599Y0263425D01*
X0194719Y0263454D01*
X0194840Y0263479D01*
X0194962Y0263501D01*
X0195085Y0263518D01*
X0195207Y0263532D01*
X0195331Y0263541D01*
X0195454Y0263547D01*
X0195578Y0263549D01*
X0256602Y0263549D01*
X0256887Y0263546D01*
X0257173Y0263535D01*
X0257458Y0263518D01*
X0257742Y0263494D01*
X0258026Y0263463D01*
X0258309Y0263425D01*
X0258590Y0263380D01*
X0258871Y0263329D01*
X0259151Y0263271D01*
X0259429Y0263206D01*
X0259705Y0263134D01*
X0259979Y0263056D01*
X0260252Y0262971D01*
X0260522Y0262879D01*
X0260790Y0262781D01*
X0261056Y0262677D01*
X0261319Y0262566D01*
X0261579Y0262449D01*
X0261837Y0262326D01*
X0262091Y0262196D01*
X0262342Y0262060D01*
X0262590Y0261919D01*
X0262834Y0261771D01*
X0263075Y0261618D01*
X0263311Y0261458D01*
X0263544Y0261293D01*
X0263773Y0261123D01*
X0263998Y0260947D01*
X0264218Y0260765D01*
X0264434Y0260579D01*
X0264645Y0260387D01*
X0264852Y0260190D01*
X0265054Y0259988D01*
X0265251Y0259781D01*
X0265443Y0259570D01*
X0265629Y0259354D01*
X0265811Y0259134D01*
X0265987Y0258909D01*
X0266157Y0258680D01*
X0266322Y0258447D01*
X0266482Y0258211D01*
X0266635Y0257970D01*
X0266783Y0257726D01*
X0266924Y0257478D01*
X0267060Y0257227D01*
X0267190Y0256973D01*
X0267313Y0256715D01*
X0267430Y0256455D01*
X0267541Y0256192D01*
X0267645Y0255926D01*
X0267743Y0255658D01*
X0267835Y0255388D01*
X0267920Y0255115D01*
X0267998Y0254841D01*
X0268070Y0254565D01*
X0268135Y0254287D01*
X0268193Y0254007D01*
X0268244Y0253726D01*
X0268289Y0253445D01*
X0268327Y0253162D01*
X0268358Y0252878D01*
X0268382Y0252594D01*
X0268399Y0252309D01*
X0268410Y0252023D01*
X0268413Y0251738D01*
X0268413Y0019455D01*
X0268410Y0019170D01*
X0268399Y0018884D01*
X0268382Y0018599D01*
X0268358Y0018315D01*
X0268327Y0018031D01*
X0268289Y0017748D01*
X0268244Y0017467D01*
X0268193Y0017186D01*
X0268135Y0016906D01*
X0268070Y0016628D01*
X0267998Y0016352D01*
X0267920Y0016078D01*
X0267835Y0015805D01*
X0267743Y0015535D01*
X0267645Y0015267D01*
X0267541Y0015001D01*
X0267430Y0014738D01*
X0267313Y0014478D01*
X0267190Y0014220D01*
X0267060Y0013966D01*
X0266924Y0013715D01*
X0266783Y0013467D01*
X0266635Y0013223D01*
X0266482Y0012982D01*
X0266322Y0012746D01*
X0266157Y0012513D01*
X0265987Y0012284D01*
X0265811Y0012059D01*
X0265629Y0011839D01*
X0265443Y0011623D01*
X0265251Y0011412D01*
X0265054Y0011205D01*
X0264852Y0011003D01*
X0264645Y0010806D01*
X0264434Y0010614D01*
X0264218Y0010428D01*
X0263998Y0010246D01*
X0263773Y0010070D01*
X0263544Y0009900D01*
X0263311Y0009735D01*
X0263075Y0009575D01*
X0262834Y0009422D01*
X0262590Y0009274D01*
X0262342Y0009133D01*
X0262091Y0008997D01*
X0261837Y0008867D01*
X0261579Y0008744D01*
X0261319Y0008627D01*
X0261056Y0008516D01*
X0260790Y0008412D01*
X0260522Y0008314D01*
X0260252Y0008222D01*
X0259979Y0008137D01*
X0259705Y0008059D01*
X0259429Y0007987D01*
X0259151Y0007922D01*
X0258871Y0007864D01*
X0258590Y0007813D01*
X0258309Y0007768D01*
X0258026Y0007730D01*
X0257742Y0007699D01*
X0257458Y0007675D01*
X0257173Y0007658D01*
X0256887Y0007647D01*
X0256602Y0007644D01*
X0059752Y0007644D01*
X0059467Y0007647D01*
X0059181Y0007658D01*
X0058896Y0007675D01*
X0058612Y0007699D01*
X0058328Y0007730D01*
X0058045Y0007768D01*
X0057764Y0007813D01*
X0057483Y0007864D01*
X0057203Y0007922D01*
X0056925Y0007987D01*
X0056649Y0008059D01*
X0056375Y0008137D01*
X0056102Y0008222D01*
X0055832Y0008314D01*
X0055564Y0008412D01*
X0055298Y0008516D01*
X0055035Y0008627D01*
X0054775Y0008744D01*
X0054517Y0008867D01*
X0054263Y0008997D01*
X0054012Y0009133D01*
X0053764Y0009274D01*
X0053520Y0009422D01*
X0053279Y0009575D01*
X0053043Y0009735D01*
X0052810Y0009900D01*
X0052581Y0010070D01*
X0052356Y0010246D01*
X0052136Y0010428D01*
X0051920Y0010614D01*
X0051709Y0010806D01*
X0051502Y0011003D01*
X0051300Y0011205D01*
X0051103Y0011412D01*
X0050911Y0011623D01*
X0050725Y0011839D01*
X0050543Y0012059D01*
X0050367Y0012284D01*
X0050197Y0012513D01*
X0050032Y0012746D01*
X0049872Y0012982D01*
X0049719Y0013223D01*
X0049571Y0013467D01*
X0049430Y0013715D01*
X0049294Y0013966D01*
X0049164Y0014220D01*
X0049041Y0014478D01*
X0048924Y0014738D01*
X0048813Y0015001D01*
X0048709Y0015267D01*
X0048611Y0015535D01*
X0048519Y0015805D01*
X0048434Y0016078D01*
X0048356Y0016352D01*
X0048284Y0016628D01*
X0048219Y0016906D01*
X0048161Y0017186D01*
X0048110Y0017467D01*
X0048065Y0017748D01*
X0048027Y0018031D01*
X0047996Y0018315D01*
X0047972Y0018599D01*
X0047955Y0018884D01*
X0047944Y0019170D01*
X0047941Y0019455D01*
X0056307Y0021423D02*
X0056309Y0021570D01*
X0056315Y0021716D01*
X0056325Y0021862D01*
X0056339Y0022008D01*
X0056357Y0022154D01*
X0056378Y0022299D01*
X0056404Y0022443D01*
X0056434Y0022587D01*
X0056467Y0022729D01*
X0056504Y0022871D01*
X0056545Y0023012D01*
X0056590Y0023151D01*
X0056639Y0023290D01*
X0056691Y0023427D01*
X0056748Y0023562D01*
X0056807Y0023696D01*
X0056871Y0023828D01*
X0056938Y0023958D01*
X0057008Y0024087D01*
X0057082Y0024214D01*
X0057159Y0024338D01*
X0057240Y0024461D01*
X0057324Y0024581D01*
X0057411Y0024699D01*
X0057501Y0024814D01*
X0057594Y0024927D01*
X0057691Y0025038D01*
X0057790Y0025146D01*
X0057892Y0025251D01*
X0057997Y0025353D01*
X0058105Y0025452D01*
X0058216Y0025549D01*
X0058329Y0025642D01*
X0058444Y0025732D01*
X0058562Y0025819D01*
X0058682Y0025903D01*
X0058805Y0025984D01*
X0058929Y0026061D01*
X0059056Y0026135D01*
X0059185Y0026205D01*
X0059315Y0026272D01*
X0059447Y0026336D01*
X0059581Y0026395D01*
X0059716Y0026452D01*
X0059853Y0026504D01*
X0059992Y0026553D01*
X0060131Y0026598D01*
X0060272Y0026639D01*
X0060414Y0026676D01*
X0060556Y0026709D01*
X0060700Y0026739D01*
X0060844Y0026765D01*
X0060989Y0026786D01*
X0061135Y0026804D01*
X0061281Y0026818D01*
X0061427Y0026828D01*
X0061573Y0026834D01*
X0061720Y0026836D01*
X0061867Y0026834D01*
X0062013Y0026828D01*
X0062159Y0026818D01*
X0062305Y0026804D01*
X0062451Y0026786D01*
X0062596Y0026765D01*
X0062740Y0026739D01*
X0062884Y0026709D01*
X0063026Y0026676D01*
X0063168Y0026639D01*
X0063309Y0026598D01*
X0063448Y0026553D01*
X0063587Y0026504D01*
X0063724Y0026452D01*
X0063859Y0026395D01*
X0063993Y0026336D01*
X0064125Y0026272D01*
X0064255Y0026205D01*
X0064384Y0026135D01*
X0064511Y0026061D01*
X0064635Y0025984D01*
X0064758Y0025903D01*
X0064878Y0025819D01*
X0064996Y0025732D01*
X0065111Y0025642D01*
X0065224Y0025549D01*
X0065335Y0025452D01*
X0065443Y0025353D01*
X0065548Y0025251D01*
X0065650Y0025146D01*
X0065749Y0025038D01*
X0065846Y0024927D01*
X0065939Y0024814D01*
X0066029Y0024699D01*
X0066116Y0024581D01*
X0066200Y0024461D01*
X0066281Y0024338D01*
X0066358Y0024214D01*
X0066432Y0024087D01*
X0066502Y0023958D01*
X0066569Y0023828D01*
X0066633Y0023696D01*
X0066692Y0023562D01*
X0066749Y0023427D01*
X0066801Y0023290D01*
X0066850Y0023151D01*
X0066895Y0023012D01*
X0066936Y0022871D01*
X0066973Y0022729D01*
X0067006Y0022587D01*
X0067036Y0022443D01*
X0067062Y0022299D01*
X0067083Y0022154D01*
X0067101Y0022008D01*
X0067115Y0021862D01*
X0067125Y0021716D01*
X0067131Y0021570D01*
X0067133Y0021423D01*
X0067131Y0021276D01*
X0067125Y0021130D01*
X0067115Y0020984D01*
X0067101Y0020838D01*
X0067083Y0020692D01*
X0067062Y0020547D01*
X0067036Y0020403D01*
X0067006Y0020259D01*
X0066973Y0020117D01*
X0066936Y0019975D01*
X0066895Y0019834D01*
X0066850Y0019695D01*
X0066801Y0019556D01*
X0066749Y0019419D01*
X0066692Y0019284D01*
X0066633Y0019150D01*
X0066569Y0019018D01*
X0066502Y0018888D01*
X0066432Y0018759D01*
X0066358Y0018632D01*
X0066281Y0018508D01*
X0066200Y0018385D01*
X0066116Y0018265D01*
X0066029Y0018147D01*
X0065939Y0018032D01*
X0065846Y0017919D01*
X0065749Y0017808D01*
X0065650Y0017700D01*
X0065548Y0017595D01*
X0065443Y0017493D01*
X0065335Y0017394D01*
X0065224Y0017297D01*
X0065111Y0017204D01*
X0064996Y0017114D01*
X0064878Y0017027D01*
X0064758Y0016943D01*
X0064635Y0016862D01*
X0064511Y0016785D01*
X0064384Y0016711D01*
X0064255Y0016641D01*
X0064125Y0016574D01*
X0063993Y0016510D01*
X0063859Y0016451D01*
X0063724Y0016394D01*
X0063587Y0016342D01*
X0063448Y0016293D01*
X0063309Y0016248D01*
X0063168Y0016207D01*
X0063026Y0016170D01*
X0062884Y0016137D01*
X0062740Y0016107D01*
X0062596Y0016081D01*
X0062451Y0016060D01*
X0062305Y0016042D01*
X0062159Y0016028D01*
X0062013Y0016018D01*
X0061867Y0016012D01*
X0061720Y0016010D01*
X0061573Y0016012D01*
X0061427Y0016018D01*
X0061281Y0016028D01*
X0061135Y0016042D01*
X0060989Y0016060D01*
X0060844Y0016081D01*
X0060700Y0016107D01*
X0060556Y0016137D01*
X0060414Y0016170D01*
X0060272Y0016207D01*
X0060131Y0016248D01*
X0059992Y0016293D01*
X0059853Y0016342D01*
X0059716Y0016394D01*
X0059581Y0016451D01*
X0059447Y0016510D01*
X0059315Y0016574D01*
X0059185Y0016641D01*
X0059056Y0016711D01*
X0058929Y0016785D01*
X0058805Y0016862D01*
X0058682Y0016943D01*
X0058562Y0017027D01*
X0058444Y0017114D01*
X0058329Y0017204D01*
X0058216Y0017297D01*
X0058105Y0017394D01*
X0057997Y0017493D01*
X0057892Y0017595D01*
X0057790Y0017700D01*
X0057691Y0017808D01*
X0057594Y0017919D01*
X0057501Y0018032D01*
X0057411Y0018147D01*
X0057324Y0018265D01*
X0057240Y0018385D01*
X0057159Y0018508D01*
X0057082Y0018632D01*
X0057008Y0018759D01*
X0056938Y0018888D01*
X0056871Y0019018D01*
X0056807Y0019150D01*
X0056748Y0019284D01*
X0056691Y0019419D01*
X0056639Y0019556D01*
X0056590Y0019695D01*
X0056545Y0019834D01*
X0056504Y0019975D01*
X0056467Y0020117D01*
X0056434Y0020259D01*
X0056404Y0020403D01*
X0056378Y0020547D01*
X0056357Y0020692D01*
X0056339Y0020838D01*
X0056325Y0020984D01*
X0056315Y0021130D01*
X0056309Y0021276D01*
X0056307Y0021423D01*
X0249221Y0021423D02*
X0249223Y0021570D01*
X0249229Y0021716D01*
X0249239Y0021862D01*
X0249253Y0022008D01*
X0249271Y0022154D01*
X0249292Y0022299D01*
X0249318Y0022443D01*
X0249348Y0022587D01*
X0249381Y0022729D01*
X0249418Y0022871D01*
X0249459Y0023012D01*
X0249504Y0023151D01*
X0249553Y0023290D01*
X0249605Y0023427D01*
X0249662Y0023562D01*
X0249721Y0023696D01*
X0249785Y0023828D01*
X0249852Y0023958D01*
X0249922Y0024087D01*
X0249996Y0024214D01*
X0250073Y0024338D01*
X0250154Y0024461D01*
X0250238Y0024581D01*
X0250325Y0024699D01*
X0250415Y0024814D01*
X0250508Y0024927D01*
X0250605Y0025038D01*
X0250704Y0025146D01*
X0250806Y0025251D01*
X0250911Y0025353D01*
X0251019Y0025452D01*
X0251130Y0025549D01*
X0251243Y0025642D01*
X0251358Y0025732D01*
X0251476Y0025819D01*
X0251596Y0025903D01*
X0251719Y0025984D01*
X0251843Y0026061D01*
X0251970Y0026135D01*
X0252099Y0026205D01*
X0252229Y0026272D01*
X0252361Y0026336D01*
X0252495Y0026395D01*
X0252630Y0026452D01*
X0252767Y0026504D01*
X0252906Y0026553D01*
X0253045Y0026598D01*
X0253186Y0026639D01*
X0253328Y0026676D01*
X0253470Y0026709D01*
X0253614Y0026739D01*
X0253758Y0026765D01*
X0253903Y0026786D01*
X0254049Y0026804D01*
X0254195Y0026818D01*
X0254341Y0026828D01*
X0254487Y0026834D01*
X0254634Y0026836D01*
X0254781Y0026834D01*
X0254927Y0026828D01*
X0255073Y0026818D01*
X0255219Y0026804D01*
X0255365Y0026786D01*
X0255510Y0026765D01*
X0255654Y0026739D01*
X0255798Y0026709D01*
X0255940Y0026676D01*
X0256082Y0026639D01*
X0256223Y0026598D01*
X0256362Y0026553D01*
X0256501Y0026504D01*
X0256638Y0026452D01*
X0256773Y0026395D01*
X0256907Y0026336D01*
X0257039Y0026272D01*
X0257169Y0026205D01*
X0257298Y0026135D01*
X0257425Y0026061D01*
X0257549Y0025984D01*
X0257672Y0025903D01*
X0257792Y0025819D01*
X0257910Y0025732D01*
X0258025Y0025642D01*
X0258138Y0025549D01*
X0258249Y0025452D01*
X0258357Y0025353D01*
X0258462Y0025251D01*
X0258564Y0025146D01*
X0258663Y0025038D01*
X0258760Y0024927D01*
X0258853Y0024814D01*
X0258943Y0024699D01*
X0259030Y0024581D01*
X0259114Y0024461D01*
X0259195Y0024338D01*
X0259272Y0024214D01*
X0259346Y0024087D01*
X0259416Y0023958D01*
X0259483Y0023828D01*
X0259547Y0023696D01*
X0259606Y0023562D01*
X0259663Y0023427D01*
X0259715Y0023290D01*
X0259764Y0023151D01*
X0259809Y0023012D01*
X0259850Y0022871D01*
X0259887Y0022729D01*
X0259920Y0022587D01*
X0259950Y0022443D01*
X0259976Y0022299D01*
X0259997Y0022154D01*
X0260015Y0022008D01*
X0260029Y0021862D01*
X0260039Y0021716D01*
X0260045Y0021570D01*
X0260047Y0021423D01*
X0260045Y0021276D01*
X0260039Y0021130D01*
X0260029Y0020984D01*
X0260015Y0020838D01*
X0259997Y0020692D01*
X0259976Y0020547D01*
X0259950Y0020403D01*
X0259920Y0020259D01*
X0259887Y0020117D01*
X0259850Y0019975D01*
X0259809Y0019834D01*
X0259764Y0019695D01*
X0259715Y0019556D01*
X0259663Y0019419D01*
X0259606Y0019284D01*
X0259547Y0019150D01*
X0259483Y0019018D01*
X0259416Y0018888D01*
X0259346Y0018759D01*
X0259272Y0018632D01*
X0259195Y0018508D01*
X0259114Y0018385D01*
X0259030Y0018265D01*
X0258943Y0018147D01*
X0258853Y0018032D01*
X0258760Y0017919D01*
X0258663Y0017808D01*
X0258564Y0017700D01*
X0258462Y0017595D01*
X0258357Y0017493D01*
X0258249Y0017394D01*
X0258138Y0017297D01*
X0258025Y0017204D01*
X0257910Y0017114D01*
X0257792Y0017027D01*
X0257672Y0016943D01*
X0257549Y0016862D01*
X0257425Y0016785D01*
X0257298Y0016711D01*
X0257169Y0016641D01*
X0257039Y0016574D01*
X0256907Y0016510D01*
X0256773Y0016451D01*
X0256638Y0016394D01*
X0256501Y0016342D01*
X0256362Y0016293D01*
X0256223Y0016248D01*
X0256082Y0016207D01*
X0255940Y0016170D01*
X0255798Y0016137D01*
X0255654Y0016107D01*
X0255510Y0016081D01*
X0255365Y0016060D01*
X0255219Y0016042D01*
X0255073Y0016028D01*
X0254927Y0016018D01*
X0254781Y0016012D01*
X0254634Y0016010D01*
X0254487Y0016012D01*
X0254341Y0016018D01*
X0254195Y0016028D01*
X0254049Y0016042D01*
X0253903Y0016060D01*
X0253758Y0016081D01*
X0253614Y0016107D01*
X0253470Y0016137D01*
X0253328Y0016170D01*
X0253186Y0016207D01*
X0253045Y0016248D01*
X0252906Y0016293D01*
X0252767Y0016342D01*
X0252630Y0016394D01*
X0252495Y0016451D01*
X0252361Y0016510D01*
X0252229Y0016574D01*
X0252099Y0016641D01*
X0251970Y0016711D01*
X0251843Y0016785D01*
X0251719Y0016862D01*
X0251596Y0016943D01*
X0251476Y0017027D01*
X0251358Y0017114D01*
X0251243Y0017204D01*
X0251130Y0017297D01*
X0251019Y0017394D01*
X0250911Y0017493D01*
X0250806Y0017595D01*
X0250704Y0017700D01*
X0250605Y0017808D01*
X0250508Y0017919D01*
X0250415Y0018032D01*
X0250325Y0018147D01*
X0250238Y0018265D01*
X0250154Y0018385D01*
X0250073Y0018508D01*
X0249996Y0018632D01*
X0249922Y0018759D01*
X0249852Y0018888D01*
X0249785Y0019018D01*
X0249721Y0019150D01*
X0249662Y0019284D01*
X0249605Y0019419D01*
X0249553Y0019556D01*
X0249504Y0019695D01*
X0249459Y0019834D01*
X0249418Y0019975D01*
X0249381Y0020117D01*
X0249348Y0020259D01*
X0249318Y0020403D01*
X0249292Y0020547D01*
X0249271Y0020692D01*
X0249253Y0020838D01*
X0249239Y0020984D01*
X0249229Y0021130D01*
X0249223Y0021276D01*
X0249221Y0021423D01*
X0249221Y0249770D02*
X0249223Y0249917D01*
X0249229Y0250063D01*
X0249239Y0250209D01*
X0249253Y0250355D01*
X0249271Y0250501D01*
X0249292Y0250646D01*
X0249318Y0250790D01*
X0249348Y0250934D01*
X0249381Y0251076D01*
X0249418Y0251218D01*
X0249459Y0251359D01*
X0249504Y0251498D01*
X0249553Y0251637D01*
X0249605Y0251774D01*
X0249662Y0251909D01*
X0249721Y0252043D01*
X0249785Y0252175D01*
X0249852Y0252305D01*
X0249922Y0252434D01*
X0249996Y0252561D01*
X0250073Y0252685D01*
X0250154Y0252808D01*
X0250238Y0252928D01*
X0250325Y0253046D01*
X0250415Y0253161D01*
X0250508Y0253274D01*
X0250605Y0253385D01*
X0250704Y0253493D01*
X0250806Y0253598D01*
X0250911Y0253700D01*
X0251019Y0253799D01*
X0251130Y0253896D01*
X0251243Y0253989D01*
X0251358Y0254079D01*
X0251476Y0254166D01*
X0251596Y0254250D01*
X0251719Y0254331D01*
X0251843Y0254408D01*
X0251970Y0254482D01*
X0252099Y0254552D01*
X0252229Y0254619D01*
X0252361Y0254683D01*
X0252495Y0254742D01*
X0252630Y0254799D01*
X0252767Y0254851D01*
X0252906Y0254900D01*
X0253045Y0254945D01*
X0253186Y0254986D01*
X0253328Y0255023D01*
X0253470Y0255056D01*
X0253614Y0255086D01*
X0253758Y0255112D01*
X0253903Y0255133D01*
X0254049Y0255151D01*
X0254195Y0255165D01*
X0254341Y0255175D01*
X0254487Y0255181D01*
X0254634Y0255183D01*
X0254781Y0255181D01*
X0254927Y0255175D01*
X0255073Y0255165D01*
X0255219Y0255151D01*
X0255365Y0255133D01*
X0255510Y0255112D01*
X0255654Y0255086D01*
X0255798Y0255056D01*
X0255940Y0255023D01*
X0256082Y0254986D01*
X0256223Y0254945D01*
X0256362Y0254900D01*
X0256501Y0254851D01*
X0256638Y0254799D01*
X0256773Y0254742D01*
X0256907Y0254683D01*
X0257039Y0254619D01*
X0257169Y0254552D01*
X0257298Y0254482D01*
X0257425Y0254408D01*
X0257549Y0254331D01*
X0257672Y0254250D01*
X0257792Y0254166D01*
X0257910Y0254079D01*
X0258025Y0253989D01*
X0258138Y0253896D01*
X0258249Y0253799D01*
X0258357Y0253700D01*
X0258462Y0253598D01*
X0258564Y0253493D01*
X0258663Y0253385D01*
X0258760Y0253274D01*
X0258853Y0253161D01*
X0258943Y0253046D01*
X0259030Y0252928D01*
X0259114Y0252808D01*
X0259195Y0252685D01*
X0259272Y0252561D01*
X0259346Y0252434D01*
X0259416Y0252305D01*
X0259483Y0252175D01*
X0259547Y0252043D01*
X0259606Y0251909D01*
X0259663Y0251774D01*
X0259715Y0251637D01*
X0259764Y0251498D01*
X0259809Y0251359D01*
X0259850Y0251218D01*
X0259887Y0251076D01*
X0259920Y0250934D01*
X0259950Y0250790D01*
X0259976Y0250646D01*
X0259997Y0250501D01*
X0260015Y0250355D01*
X0260029Y0250209D01*
X0260039Y0250063D01*
X0260045Y0249917D01*
X0260047Y0249770D01*
X0260045Y0249623D01*
X0260039Y0249477D01*
X0260029Y0249331D01*
X0260015Y0249185D01*
X0259997Y0249039D01*
X0259976Y0248894D01*
X0259950Y0248750D01*
X0259920Y0248606D01*
X0259887Y0248464D01*
X0259850Y0248322D01*
X0259809Y0248181D01*
X0259764Y0248042D01*
X0259715Y0247903D01*
X0259663Y0247766D01*
X0259606Y0247631D01*
X0259547Y0247497D01*
X0259483Y0247365D01*
X0259416Y0247235D01*
X0259346Y0247106D01*
X0259272Y0246979D01*
X0259195Y0246855D01*
X0259114Y0246732D01*
X0259030Y0246612D01*
X0258943Y0246494D01*
X0258853Y0246379D01*
X0258760Y0246266D01*
X0258663Y0246155D01*
X0258564Y0246047D01*
X0258462Y0245942D01*
X0258357Y0245840D01*
X0258249Y0245741D01*
X0258138Y0245644D01*
X0258025Y0245551D01*
X0257910Y0245461D01*
X0257792Y0245374D01*
X0257672Y0245290D01*
X0257549Y0245209D01*
X0257425Y0245132D01*
X0257298Y0245058D01*
X0257169Y0244988D01*
X0257039Y0244921D01*
X0256907Y0244857D01*
X0256773Y0244798D01*
X0256638Y0244741D01*
X0256501Y0244689D01*
X0256362Y0244640D01*
X0256223Y0244595D01*
X0256082Y0244554D01*
X0255940Y0244517D01*
X0255798Y0244484D01*
X0255654Y0244454D01*
X0255510Y0244428D01*
X0255365Y0244407D01*
X0255219Y0244389D01*
X0255073Y0244375D01*
X0254927Y0244365D01*
X0254781Y0244359D01*
X0254634Y0244357D01*
X0254487Y0244359D01*
X0254341Y0244365D01*
X0254195Y0244375D01*
X0254049Y0244389D01*
X0253903Y0244407D01*
X0253758Y0244428D01*
X0253614Y0244454D01*
X0253470Y0244484D01*
X0253328Y0244517D01*
X0253186Y0244554D01*
X0253045Y0244595D01*
X0252906Y0244640D01*
X0252767Y0244689D01*
X0252630Y0244741D01*
X0252495Y0244798D01*
X0252361Y0244857D01*
X0252229Y0244921D01*
X0252099Y0244988D01*
X0251970Y0245058D01*
X0251843Y0245132D01*
X0251719Y0245209D01*
X0251596Y0245290D01*
X0251476Y0245374D01*
X0251358Y0245461D01*
X0251243Y0245551D01*
X0251130Y0245644D01*
X0251019Y0245741D01*
X0250911Y0245840D01*
X0250806Y0245942D01*
X0250704Y0246047D01*
X0250605Y0246155D01*
X0250508Y0246266D01*
X0250415Y0246379D01*
X0250325Y0246494D01*
X0250238Y0246612D01*
X0250154Y0246732D01*
X0250073Y0246855D01*
X0249996Y0246979D01*
X0249922Y0247106D01*
X0249852Y0247235D01*
X0249785Y0247365D01*
X0249721Y0247497D01*
X0249662Y0247631D01*
X0249605Y0247766D01*
X0249553Y0247903D01*
X0249504Y0248042D01*
X0249459Y0248181D01*
X0249418Y0248322D01*
X0249381Y0248464D01*
X0249348Y0248606D01*
X0249318Y0248750D01*
X0249292Y0248894D01*
X0249271Y0249039D01*
X0249253Y0249185D01*
X0249239Y0249331D01*
X0249229Y0249477D01*
X0249223Y0249623D01*
X0249221Y0249770D01*
X0056307Y0249770D02*
X0056309Y0249917D01*
X0056315Y0250063D01*
X0056325Y0250209D01*
X0056339Y0250355D01*
X0056357Y0250501D01*
X0056378Y0250646D01*
X0056404Y0250790D01*
X0056434Y0250934D01*
X0056467Y0251076D01*
X0056504Y0251218D01*
X0056545Y0251359D01*
X0056590Y0251498D01*
X0056639Y0251637D01*
X0056691Y0251774D01*
X0056748Y0251909D01*
X0056807Y0252043D01*
X0056871Y0252175D01*
X0056938Y0252305D01*
X0057008Y0252434D01*
X0057082Y0252561D01*
X0057159Y0252685D01*
X0057240Y0252808D01*
X0057324Y0252928D01*
X0057411Y0253046D01*
X0057501Y0253161D01*
X0057594Y0253274D01*
X0057691Y0253385D01*
X0057790Y0253493D01*
X0057892Y0253598D01*
X0057997Y0253700D01*
X0058105Y0253799D01*
X0058216Y0253896D01*
X0058329Y0253989D01*
X0058444Y0254079D01*
X0058562Y0254166D01*
X0058682Y0254250D01*
X0058805Y0254331D01*
X0058929Y0254408D01*
X0059056Y0254482D01*
X0059185Y0254552D01*
X0059315Y0254619D01*
X0059447Y0254683D01*
X0059581Y0254742D01*
X0059716Y0254799D01*
X0059853Y0254851D01*
X0059992Y0254900D01*
X0060131Y0254945D01*
X0060272Y0254986D01*
X0060414Y0255023D01*
X0060556Y0255056D01*
X0060700Y0255086D01*
X0060844Y0255112D01*
X0060989Y0255133D01*
X0061135Y0255151D01*
X0061281Y0255165D01*
X0061427Y0255175D01*
X0061573Y0255181D01*
X0061720Y0255183D01*
X0061867Y0255181D01*
X0062013Y0255175D01*
X0062159Y0255165D01*
X0062305Y0255151D01*
X0062451Y0255133D01*
X0062596Y0255112D01*
X0062740Y0255086D01*
X0062884Y0255056D01*
X0063026Y0255023D01*
X0063168Y0254986D01*
X0063309Y0254945D01*
X0063448Y0254900D01*
X0063587Y0254851D01*
X0063724Y0254799D01*
X0063859Y0254742D01*
X0063993Y0254683D01*
X0064125Y0254619D01*
X0064255Y0254552D01*
X0064384Y0254482D01*
X0064511Y0254408D01*
X0064635Y0254331D01*
X0064758Y0254250D01*
X0064878Y0254166D01*
X0064996Y0254079D01*
X0065111Y0253989D01*
X0065224Y0253896D01*
X0065335Y0253799D01*
X0065443Y0253700D01*
X0065548Y0253598D01*
X0065650Y0253493D01*
X0065749Y0253385D01*
X0065846Y0253274D01*
X0065939Y0253161D01*
X0066029Y0253046D01*
X0066116Y0252928D01*
X0066200Y0252808D01*
X0066281Y0252685D01*
X0066358Y0252561D01*
X0066432Y0252434D01*
X0066502Y0252305D01*
X0066569Y0252175D01*
X0066633Y0252043D01*
X0066692Y0251909D01*
X0066749Y0251774D01*
X0066801Y0251637D01*
X0066850Y0251498D01*
X0066895Y0251359D01*
X0066936Y0251218D01*
X0066973Y0251076D01*
X0067006Y0250934D01*
X0067036Y0250790D01*
X0067062Y0250646D01*
X0067083Y0250501D01*
X0067101Y0250355D01*
X0067115Y0250209D01*
X0067125Y0250063D01*
X0067131Y0249917D01*
X0067133Y0249770D01*
X0067131Y0249623D01*
X0067125Y0249477D01*
X0067115Y0249331D01*
X0067101Y0249185D01*
X0067083Y0249039D01*
X0067062Y0248894D01*
X0067036Y0248750D01*
X0067006Y0248606D01*
X0066973Y0248464D01*
X0066936Y0248322D01*
X0066895Y0248181D01*
X0066850Y0248042D01*
X0066801Y0247903D01*
X0066749Y0247766D01*
X0066692Y0247631D01*
X0066633Y0247497D01*
X0066569Y0247365D01*
X0066502Y0247235D01*
X0066432Y0247106D01*
X0066358Y0246979D01*
X0066281Y0246855D01*
X0066200Y0246732D01*
X0066116Y0246612D01*
X0066029Y0246494D01*
X0065939Y0246379D01*
X0065846Y0246266D01*
X0065749Y0246155D01*
X0065650Y0246047D01*
X0065548Y0245942D01*
X0065443Y0245840D01*
X0065335Y0245741D01*
X0065224Y0245644D01*
X0065111Y0245551D01*
X0064996Y0245461D01*
X0064878Y0245374D01*
X0064758Y0245290D01*
X0064635Y0245209D01*
X0064511Y0245132D01*
X0064384Y0245058D01*
X0064255Y0244988D01*
X0064125Y0244921D01*
X0063993Y0244857D01*
X0063859Y0244798D01*
X0063724Y0244741D01*
X0063587Y0244689D01*
X0063448Y0244640D01*
X0063309Y0244595D01*
X0063168Y0244554D01*
X0063026Y0244517D01*
X0062884Y0244484D01*
X0062740Y0244454D01*
X0062596Y0244428D01*
X0062451Y0244407D01*
X0062305Y0244389D01*
X0062159Y0244375D01*
X0062013Y0244365D01*
X0061867Y0244359D01*
X0061720Y0244357D01*
X0061573Y0244359D01*
X0061427Y0244365D01*
X0061281Y0244375D01*
X0061135Y0244389D01*
X0060989Y0244407D01*
X0060844Y0244428D01*
X0060700Y0244454D01*
X0060556Y0244484D01*
X0060414Y0244517D01*
X0060272Y0244554D01*
X0060131Y0244595D01*
X0059992Y0244640D01*
X0059853Y0244689D01*
X0059716Y0244741D01*
X0059581Y0244798D01*
X0059447Y0244857D01*
X0059315Y0244921D01*
X0059185Y0244988D01*
X0059056Y0245058D01*
X0058929Y0245132D01*
X0058805Y0245209D01*
X0058682Y0245290D01*
X0058562Y0245374D01*
X0058444Y0245461D01*
X0058329Y0245551D01*
X0058216Y0245644D01*
X0058105Y0245741D01*
X0057997Y0245840D01*
X0057892Y0245942D01*
X0057790Y0246047D01*
X0057691Y0246155D01*
X0057594Y0246266D01*
X0057501Y0246379D01*
X0057411Y0246494D01*
X0057324Y0246612D01*
X0057240Y0246732D01*
X0057159Y0246855D01*
X0057082Y0246979D01*
X0057008Y0247106D01*
X0056938Y0247235D01*
X0056871Y0247365D01*
X0056807Y0247497D01*
X0056748Y0247631D01*
X0056691Y0247766D01*
X0056639Y0247903D01*
X0056590Y0248042D01*
X0056545Y0248181D01*
X0056504Y0248322D01*
X0056467Y0248464D01*
X0056434Y0248606D01*
X0056404Y0248750D01*
X0056378Y0248894D01*
X0056357Y0249039D01*
X0056339Y0249185D01*
X0056325Y0249331D01*
X0056315Y0249477D01*
X0056309Y0249623D01*
X0056307Y0249770D01*
M02*
