G75*
%MOIN*%
%OFA0B0*%
%FSLAX25Y25*%
%IPPOS*%
%LPD*%
%AMOC8*
5,1,8,0,0,1.08239X$1,22.5*
%
%ADD10C,0.01181*%
%ADD11R,0.04331X0.03937*%
%ADD12R,0.03937X0.04331*%
%ADD13R,0.08000X0.02600*%
%ADD14R,0.03543X0.03150*%
%ADD15R,0.05118X0.03937*%
%ADD16C,0.10000*%
%ADD17R,0.30000X0.08900*%
%ADD18C,0.07400*%
%ADD19R,0.11400X0.06600*%
%ADD20R,0.03937X0.01575*%
%ADD21R,0.03937X0.02362*%
%ADD22R,0.08500X0.08900*%
%ADD23R,0.07400X0.07400*%
%ADD24C,0.00800*%
%ADD25C,0.04000*%
%ADD26C,0.01600*%
%ADD27C,0.03378*%
D10*
X0098866Y0069266D02*
X0098866Y0072022D01*
X0098866Y0069266D02*
X0096110Y0069266D01*
X0096110Y0072022D01*
X0098866Y0072022D01*
X0098866Y0070446D02*
X0096110Y0070446D01*
X0096110Y0071626D02*
X0098866Y0071626D01*
X0105771Y0072022D02*
X0105771Y0069266D01*
X0103015Y0069266D01*
X0103015Y0072022D01*
X0105771Y0072022D01*
X0105771Y0070446D02*
X0103015Y0070446D01*
X0103015Y0071626D02*
X0105771Y0071626D01*
X0133110Y0137266D02*
X0133110Y0140022D01*
X0135866Y0140022D01*
X0135866Y0137266D01*
X0133110Y0137266D01*
X0133110Y0138446D02*
X0135866Y0138446D01*
X0135866Y0139626D02*
X0133110Y0139626D01*
X0140015Y0140022D02*
X0140015Y0137266D01*
X0140015Y0140022D02*
X0142771Y0140022D01*
X0142771Y0137266D01*
X0140015Y0137266D01*
X0140015Y0138446D02*
X0142771Y0138446D01*
X0142771Y0139626D02*
X0140015Y0139626D01*
X0153110Y0140022D02*
X0153110Y0137266D01*
X0153110Y0140022D02*
X0155866Y0140022D01*
X0155866Y0137266D01*
X0153110Y0137266D01*
X0153110Y0138446D02*
X0155866Y0138446D01*
X0155866Y0139626D02*
X0153110Y0139626D01*
X0160015Y0140022D02*
X0160015Y0137266D01*
X0160015Y0140022D02*
X0162771Y0140022D01*
X0162771Y0137266D01*
X0160015Y0137266D01*
X0160015Y0138446D02*
X0162771Y0138446D01*
X0162771Y0139626D02*
X0160015Y0139626D01*
X0183866Y0160266D02*
X0183866Y0163022D01*
X0183866Y0160266D02*
X0181110Y0160266D01*
X0181110Y0163022D01*
X0183866Y0163022D01*
X0183866Y0161446D02*
X0181110Y0161446D01*
X0181110Y0162626D02*
X0183866Y0162626D01*
X0190771Y0163022D02*
X0190771Y0160266D01*
X0188015Y0160266D01*
X0188015Y0163022D01*
X0190771Y0163022D01*
X0190771Y0161446D02*
X0188015Y0161446D01*
X0188015Y0162626D02*
X0190771Y0162626D01*
D11*
X0202594Y0161644D03*
X0209287Y0161644D03*
X0190287Y0145644D03*
X0183594Y0145644D03*
X0161287Y0126644D03*
X0154594Y0126644D03*
X0141287Y0126644D03*
X0134594Y0126644D03*
X0104287Y0098644D03*
X0097594Y0098644D03*
X0097594Y0084644D03*
X0104287Y0084644D03*
X0114594Y0070644D03*
X0121287Y0070644D03*
X0216594Y0189644D03*
X0223287Y0189644D03*
X0193287Y0223644D03*
X0186594Y0223644D03*
D12*
X0219941Y0220990D03*
X0219941Y0214297D03*
X0235941Y0232297D03*
X0235941Y0238990D03*
X0171941Y0151053D03*
X0171941Y0144360D03*
X0228941Y0116990D03*
X0228941Y0110297D03*
X0163941Y0073990D03*
X0163941Y0067297D03*
X0097941Y0112297D03*
X0097941Y0118990D03*
X0097941Y0133297D03*
X0097941Y0139990D03*
D13*
X0163841Y0096144D03*
X0163841Y0091144D03*
X0163841Y0086144D03*
X0163841Y0081144D03*
X0188041Y0081144D03*
X0188041Y0086144D03*
X0188041Y0091144D03*
X0188041Y0096144D03*
D14*
X0208004Y0114904D03*
X0216271Y0118644D03*
X0208004Y0122384D03*
X0162878Y0115384D03*
X0162878Y0107904D03*
X0154610Y0111644D03*
X0142878Y0115384D03*
X0134610Y0111644D03*
X0142878Y0107904D03*
X0205878Y0189904D03*
X0205878Y0197384D03*
X0197610Y0193644D03*
D15*
X0197374Y0129534D03*
X0197374Y0122644D03*
X0197374Y0115754D03*
X0176508Y0115754D03*
X0176508Y0122644D03*
X0176508Y0129534D03*
X0131618Y0091644D03*
X0116263Y0098534D03*
X0116263Y0084754D03*
D16*
X0077468Y0092644D03*
X0077468Y0112644D03*
X0077468Y0132644D03*
X0077468Y0177927D03*
X0077468Y0197927D03*
X0077468Y0217927D03*
D17*
X0092941Y0051194D03*
D18*
X0249634Y0055597D03*
X0249634Y0065597D03*
X0249634Y0075597D03*
X0249634Y0085597D03*
X0249634Y0095597D03*
X0249634Y0105597D03*
X0249634Y0115597D03*
X0249634Y0125597D03*
X0249634Y0135597D03*
X0249634Y0145597D03*
X0249634Y0155597D03*
X0249634Y0165597D03*
X0249634Y0175597D03*
X0249634Y0185597D03*
X0249634Y0195597D03*
X0249634Y0205597D03*
X0249634Y0215597D03*
X0249634Y0225597D03*
X0259634Y0225597D03*
X0259634Y0215597D03*
X0259634Y0205597D03*
X0259634Y0195597D03*
X0259634Y0185597D03*
X0259634Y0175597D03*
X0259634Y0165597D03*
X0259634Y0155597D03*
X0259634Y0145597D03*
X0259634Y0135597D03*
X0259634Y0125597D03*
X0259634Y0115597D03*
X0259634Y0105597D03*
X0259634Y0095597D03*
X0259634Y0085597D03*
X0259634Y0075597D03*
X0259634Y0065597D03*
X0259634Y0055597D03*
X0259634Y0045597D03*
X0259634Y0035597D03*
X0249634Y0035597D03*
X0249634Y0045597D03*
X0107941Y0187644D03*
X0107941Y0207644D03*
X0107941Y0217644D03*
X0107941Y0227644D03*
D19*
X0182941Y0213044D03*
X0182941Y0194244D03*
D20*
X0198429Y0210644D03*
X0209452Y0210644D03*
D21*
X0209452Y0213597D03*
X0209452Y0207691D03*
X0198429Y0207691D03*
X0198429Y0213597D03*
D22*
X0201341Y0232644D03*
X0220541Y0232644D03*
D23*
X0107941Y0197644D03*
D24*
X0049541Y0232565D02*
X0049541Y0028628D01*
X0073925Y0028628D01*
X0073925Y0004244D01*
X0242429Y0004244D01*
X0242429Y0028628D01*
X0266813Y0028628D01*
X0266813Y0232565D01*
X0259413Y0232565D01*
X0261361Y0230618D01*
X0262636Y0230090D01*
X0264127Y0228599D01*
X0264934Y0226651D01*
X0264934Y0224542D01*
X0264127Y0222594D01*
X0262636Y0221103D01*
X0261412Y0220597D01*
X0262636Y0220090D01*
X0264127Y0218599D01*
X0264934Y0216651D01*
X0264934Y0214542D01*
X0264127Y0212594D01*
X0262636Y0211103D01*
X0261121Y0210476D01*
X0261591Y0210323D01*
X0262307Y0209958D01*
X0262956Y0209487D01*
X0263524Y0208919D01*
X0263995Y0208270D01*
X0264360Y0207554D01*
X0264608Y0206791D01*
X0264734Y0205998D01*
X0264734Y0205997D01*
X0260034Y0205997D01*
X0260034Y0205197D01*
X0264734Y0205197D01*
X0264734Y0205195D01*
X0264608Y0204402D01*
X0264360Y0203639D01*
X0263995Y0202924D01*
X0263524Y0202274D01*
X0262956Y0201706D01*
X0262307Y0201235D01*
X0261591Y0200870D01*
X0261121Y0200717D01*
X0262636Y0200090D01*
X0264127Y0198599D01*
X0264934Y0196651D01*
X0264934Y0194542D01*
X0264127Y0192594D01*
X0262636Y0191103D01*
X0261412Y0190597D01*
X0262636Y0190090D01*
X0264127Y0188599D01*
X0264934Y0186651D01*
X0264934Y0184542D01*
X0264127Y0182594D01*
X0262636Y0181103D01*
X0261412Y0180597D01*
X0262636Y0180090D01*
X0264127Y0178599D01*
X0264934Y0176651D01*
X0264934Y0174542D01*
X0264127Y0172594D01*
X0262636Y0171103D01*
X0261121Y0170476D01*
X0261591Y0170323D01*
X0262307Y0169958D01*
X0262956Y0169487D01*
X0263524Y0168919D01*
X0263995Y0168270D01*
X0264360Y0167554D01*
X0264608Y0166791D01*
X0264734Y0165998D01*
X0264734Y0165997D01*
X0260034Y0165997D01*
X0260034Y0165197D01*
X0264734Y0165197D01*
X0264734Y0165195D01*
X0264608Y0164402D01*
X0264360Y0163639D01*
X0263995Y0162924D01*
X0263524Y0162274D01*
X0262956Y0161706D01*
X0262307Y0161235D01*
X0261591Y0160870D01*
X0261121Y0160717D01*
X0262636Y0160090D01*
X0264127Y0158599D01*
X0264934Y0156651D01*
X0264934Y0154542D01*
X0264127Y0152594D01*
X0262636Y0151103D01*
X0261412Y0150597D01*
X0262636Y0150090D01*
X0264127Y0148599D01*
X0264934Y0146651D01*
X0264934Y0144542D01*
X0264127Y0142594D01*
X0262636Y0141103D01*
X0261121Y0140476D01*
X0261591Y0140323D01*
X0262307Y0139958D01*
X0262956Y0139487D01*
X0263524Y0138919D01*
X0263995Y0138270D01*
X0264360Y0137554D01*
X0264608Y0136791D01*
X0264734Y0135998D01*
X0264734Y0135997D01*
X0260034Y0135997D01*
X0260034Y0135197D01*
X0266813Y0135197D01*
X0266813Y0135995D02*
X0260034Y0135995D01*
X0260034Y0135197D02*
X0264734Y0135197D01*
X0264734Y0135195D01*
X0264608Y0134402D01*
X0264360Y0133639D01*
X0263995Y0132924D01*
X0263524Y0132274D01*
X0262956Y0131706D01*
X0262307Y0131235D01*
X0261591Y0130870D01*
X0261121Y0130717D01*
X0262636Y0130090D01*
X0264127Y0128599D01*
X0264934Y0126651D01*
X0264934Y0124542D01*
X0264127Y0122594D01*
X0262636Y0121103D01*
X0261412Y0120597D01*
X0262636Y0120090D01*
X0264127Y0118599D01*
X0264934Y0116651D01*
X0264934Y0114542D01*
X0264127Y0112594D01*
X0262636Y0111103D01*
X0261412Y0110597D01*
X0262636Y0110090D01*
X0264127Y0108599D01*
X0264934Y0106651D01*
X0264934Y0104542D01*
X0264127Y0102594D01*
X0262636Y0101103D01*
X0261412Y0100597D01*
X0262636Y0100090D01*
X0264127Y0098599D01*
X0264934Y0096651D01*
X0264934Y0094542D01*
X0264127Y0092594D01*
X0262636Y0091103D01*
X0261121Y0090476D01*
X0261591Y0090323D01*
X0262307Y0089958D01*
X0262956Y0089487D01*
X0263524Y0088919D01*
X0263995Y0088270D01*
X0264360Y0087554D01*
X0264608Y0086791D01*
X0264734Y0085998D01*
X0264734Y0085997D01*
X0260034Y0085997D01*
X0260034Y0085197D01*
X0264734Y0085197D01*
X0264734Y0085195D01*
X0264608Y0084402D01*
X0264360Y0083639D01*
X0263995Y0082924D01*
X0263524Y0082274D01*
X0262956Y0081706D01*
X0262307Y0081235D01*
X0261591Y0080870D01*
X0261121Y0080717D01*
X0262636Y0080090D01*
X0264127Y0078599D01*
X0264934Y0076651D01*
X0264934Y0074542D01*
X0264127Y0072594D01*
X0262636Y0071103D01*
X0261121Y0070476D01*
X0261591Y0070323D01*
X0262307Y0069958D01*
X0262956Y0069487D01*
X0263524Y0068919D01*
X0263995Y0068270D01*
X0264360Y0067554D01*
X0264608Y0066791D01*
X0264734Y0065998D01*
X0264734Y0065997D01*
X0260034Y0065997D01*
X0260034Y0065197D01*
X0264734Y0065197D01*
X0264734Y0065195D01*
X0264608Y0064402D01*
X0264360Y0063639D01*
X0263995Y0062924D01*
X0263524Y0062274D01*
X0262956Y0061706D01*
X0262307Y0061235D01*
X0261591Y0060870D01*
X0261121Y0060717D01*
X0262636Y0060090D01*
X0264127Y0058599D01*
X0264934Y0056651D01*
X0264934Y0054542D01*
X0264127Y0052594D01*
X0262636Y0051103D01*
X0261412Y0050597D01*
X0262636Y0050090D01*
X0264127Y0048599D01*
X0264934Y0046651D01*
X0264934Y0044542D01*
X0264127Y0042594D01*
X0262636Y0041103D01*
X0261412Y0040597D01*
X0262636Y0040090D01*
X0264127Y0038599D01*
X0264934Y0036651D01*
X0264934Y0034542D01*
X0264127Y0032594D01*
X0262636Y0031103D01*
X0260688Y0030297D01*
X0258579Y0030297D01*
X0256631Y0031103D01*
X0255140Y0032594D01*
X0254513Y0034110D01*
X0254360Y0033639D01*
X0253995Y0032924D01*
X0253524Y0032274D01*
X0252956Y0031706D01*
X0252307Y0031235D01*
X0251591Y0030870D01*
X0250828Y0030622D01*
X0250035Y0030497D01*
X0250034Y0030497D01*
X0250034Y0035196D01*
X0249234Y0035196D01*
X0249234Y0030497D01*
X0249232Y0030497D01*
X0248439Y0030622D01*
X0247676Y0030870D01*
X0246961Y0031235D01*
X0246311Y0031706D01*
X0245743Y0032274D01*
X0245272Y0032924D01*
X0244907Y0033639D01*
X0244659Y0034402D01*
X0244534Y0035195D01*
X0244534Y0035197D01*
X0249233Y0035197D01*
X0249233Y0035997D01*
X0244534Y0035997D01*
X0244534Y0035998D01*
X0244659Y0036791D01*
X0244907Y0037554D01*
X0245272Y0038270D01*
X0245743Y0038919D01*
X0246311Y0039487D01*
X0246961Y0039958D01*
X0247676Y0040323D01*
X0248147Y0040476D01*
X0246631Y0041103D01*
X0245140Y0042594D01*
X0244334Y0044542D01*
X0244334Y0046651D01*
X0245140Y0048599D01*
X0246631Y0050090D01*
X0247855Y0050597D01*
X0246631Y0051103D01*
X0245140Y0052594D01*
X0244334Y0054542D01*
X0244334Y0056651D01*
X0245140Y0058599D01*
X0246631Y0060090D01*
X0247855Y0060597D01*
X0246631Y0061103D01*
X0245140Y0062594D01*
X0244334Y0064542D01*
X0244334Y0066651D01*
X0245140Y0068599D01*
X0246631Y0070090D01*
X0247855Y0070597D01*
X0246631Y0071103D01*
X0245140Y0072594D01*
X0244334Y0074542D01*
X0244334Y0076651D01*
X0245140Y0078599D01*
X0246631Y0080090D01*
X0247855Y0080597D01*
X0246631Y0081103D01*
X0245140Y0082594D01*
X0244334Y0084542D01*
X0244334Y0086651D01*
X0245140Y0088599D01*
X0246631Y0090090D01*
X0247855Y0090597D01*
X0246631Y0091103D01*
X0245140Y0092594D01*
X0244334Y0094542D01*
X0244334Y0096651D01*
X0245140Y0098599D01*
X0246631Y0100090D01*
X0248147Y0100717D01*
X0247676Y0100870D01*
X0246961Y0101235D01*
X0246311Y0101706D01*
X0245743Y0102274D01*
X0245272Y0102924D01*
X0244907Y0103639D01*
X0244659Y0104402D01*
X0244534Y0105195D01*
X0244534Y0105197D01*
X0249233Y0105197D01*
X0249233Y0105997D01*
X0244534Y0105997D01*
X0244534Y0105998D01*
X0244659Y0106791D01*
X0244907Y0107554D01*
X0245272Y0108270D01*
X0245743Y0108919D01*
X0246311Y0109487D01*
X0246961Y0109958D01*
X0247676Y0110323D01*
X0248147Y0110476D01*
X0246631Y0111103D01*
X0245140Y0112594D01*
X0244334Y0114542D01*
X0244334Y0116651D01*
X0245140Y0118599D01*
X0246631Y0120090D01*
X0247855Y0120597D01*
X0246631Y0121103D01*
X0245140Y0122594D01*
X0244334Y0124542D01*
X0244334Y0126651D01*
X0244728Y0127603D01*
X0243941Y0126815D01*
X0243941Y0105619D01*
X0220039Y0081717D01*
X0218637Y0080315D01*
X0217466Y0079144D01*
X0193603Y0079144D01*
X0192703Y0078244D01*
X0183378Y0078244D01*
X0182478Y0079144D01*
X0181612Y0079144D01*
X0176941Y0083815D01*
X0176941Y0097815D01*
X0174112Y0100644D01*
X0147309Y0100644D01*
X0146137Y0101815D01*
X0143224Y0104729D01*
X0140443Y0104729D01*
X0139506Y0105666D01*
X0139506Y0110141D01*
X0140443Y0111078D01*
X0145312Y0111078D01*
X0146249Y0110141D01*
X0146249Y0107360D01*
X0148966Y0104644D01*
X0175769Y0104644D01*
X0176941Y0103472D01*
X0179769Y0100644D01*
X0180941Y0099472D01*
X0180941Y0085472D01*
X0182873Y0083539D01*
X0182978Y0083644D01*
X0182441Y0084181D01*
X0182441Y0088107D01*
X0182978Y0088644D01*
X0182441Y0089181D01*
X0182441Y0093107D01*
X0182978Y0093644D01*
X0182441Y0094181D01*
X0182441Y0098107D01*
X0183378Y0099044D01*
X0186200Y0099044D01*
X0186200Y0105904D01*
X0166249Y0105904D01*
X0166249Y0105666D01*
X0165312Y0104729D01*
X0160443Y0104729D01*
X0159506Y0105666D01*
X0159506Y0110141D01*
X0160443Y0111078D01*
X0165312Y0111078D01*
X0166249Y0110141D01*
X0166249Y0109904D01*
X0193372Y0109904D01*
X0195374Y0111905D01*
X0195374Y0112186D01*
X0194152Y0112186D01*
X0193215Y0113123D01*
X0193215Y0113754D01*
X0189002Y0113754D01*
X0186112Y0116644D01*
X0186112Y0116644D01*
X0184941Y0117815D01*
X0184941Y0123815D01*
X0182941Y0121815D01*
X0181769Y0120644D01*
X0180667Y0120644D01*
X0180667Y0120013D01*
X0179853Y0119199D01*
X0180667Y0118385D01*
X0180667Y0113123D01*
X0179729Y0112186D01*
X0173286Y0112186D01*
X0172349Y0113123D01*
X0172349Y0118385D01*
X0173162Y0119199D01*
X0172349Y0120013D01*
X0172349Y0120644D01*
X0170112Y0120644D01*
X0167112Y0123644D01*
X0165941Y0124815D01*
X0165941Y0127815D01*
X0165052Y0126927D01*
X0165052Y0124013D01*
X0164115Y0123075D01*
X0158459Y0123075D01*
X0157941Y0123594D01*
X0157422Y0123075D01*
X0156610Y0123075D01*
X0156610Y0114819D01*
X0157044Y0114819D01*
X0157982Y0113881D01*
X0157982Y0109406D01*
X0157044Y0108469D01*
X0152176Y0108469D01*
X0151238Y0109406D01*
X0151238Y0113881D01*
X0152176Y0114819D01*
X0152610Y0114819D01*
X0152610Y0123075D01*
X0151766Y0123075D01*
X0150829Y0124013D01*
X0150829Y0129275D01*
X0151766Y0130212D01*
X0152594Y0130212D01*
X0152594Y0135075D01*
X0152203Y0135075D01*
X0150919Y0136358D01*
X0150919Y0140929D01*
X0152203Y0142212D01*
X0156773Y0142212D01*
X0158056Y0140929D01*
X0158056Y0140401D01*
X0158161Y0140790D01*
X0158423Y0141244D01*
X0158793Y0141615D01*
X0159247Y0141877D01*
X0159753Y0142012D01*
X0160993Y0142012D01*
X0160993Y0139044D01*
X0161793Y0139044D01*
X0161793Y0142012D01*
X0163033Y0142012D01*
X0163540Y0141877D01*
X0163994Y0141615D01*
X0164364Y0141244D01*
X0164626Y0140790D01*
X0164762Y0140284D01*
X0164762Y0139044D01*
X0161793Y0139044D01*
X0161793Y0138244D01*
X0161793Y0135275D01*
X0163033Y0135275D01*
X0163540Y0135411D01*
X0163994Y0135673D01*
X0164364Y0136044D01*
X0164626Y0136498D01*
X0164762Y0137004D01*
X0164762Y0138244D01*
X0161793Y0138244D01*
X0160993Y0138244D01*
X0160993Y0135275D01*
X0159753Y0135275D01*
X0159247Y0135411D01*
X0158793Y0135673D01*
X0158423Y0136044D01*
X0158161Y0136498D01*
X0158056Y0136886D01*
X0158056Y0136358D01*
X0156773Y0135075D01*
X0156594Y0135075D01*
X0156594Y0130212D01*
X0157422Y0130212D01*
X0157941Y0129694D01*
X0158459Y0130212D01*
X0162681Y0130212D01*
X0164357Y0131888D01*
X0164341Y0131928D01*
X0164341Y0133360D01*
X0164889Y0134683D01*
X0165901Y0135696D01*
X0167225Y0136244D01*
X0168657Y0136244D01*
X0169980Y0135696D01*
X0170993Y0134683D01*
X0171541Y0133360D01*
X0171541Y0131928D01*
X0170993Y0130605D01*
X0169980Y0129592D01*
X0169941Y0129576D01*
X0169941Y0126472D01*
X0171769Y0124644D01*
X0172349Y0124644D01*
X0172349Y0125275D01*
X0173162Y0126089D01*
X0172349Y0126902D01*
X0172349Y0132165D01*
X0173286Y0133102D01*
X0174508Y0133102D01*
X0174508Y0138965D01*
X0172878Y0140595D01*
X0169309Y0140595D01*
X0168372Y0141532D01*
X0168372Y0147188D01*
X0168891Y0147707D01*
X0168372Y0148225D01*
X0168372Y0153881D01*
X0169309Y0154819D01*
X0174572Y0154819D01*
X0175509Y0153881D01*
X0175509Y0153053D01*
X0218522Y0153053D01*
X0235941Y0170472D01*
X0235941Y0183472D01*
X0245112Y0192644D01*
X0245120Y0192644D01*
X0244334Y0194542D01*
X0244334Y0196651D01*
X0245140Y0198599D01*
X0246631Y0200090D01*
X0247855Y0200597D01*
X0246631Y0201103D01*
X0245140Y0202594D01*
X0244334Y0204542D01*
X0244334Y0206651D01*
X0245140Y0208599D01*
X0246631Y0210090D01*
X0247855Y0210597D01*
X0246631Y0211103D01*
X0245140Y0212594D01*
X0244334Y0214542D01*
X0244334Y0216651D01*
X0245140Y0218599D01*
X0246631Y0220090D01*
X0247855Y0220597D01*
X0246631Y0221103D01*
X0245140Y0222594D01*
X0244334Y0224542D01*
X0244334Y0226651D01*
X0245140Y0228599D01*
X0245785Y0229244D01*
X0239284Y0229244D01*
X0238572Y0228532D01*
X0235569Y0228532D01*
X0231341Y0224303D01*
X0231341Y0212166D01*
X0230975Y0211284D01*
X0230300Y0210609D01*
X0225347Y0205656D01*
X0224465Y0205291D01*
X0212465Y0205291D01*
X0212084Y0204910D01*
X0211852Y0204910D01*
X0211852Y0200481D01*
X0211487Y0199599D01*
X0211272Y0199384D01*
X0229029Y0199384D01*
X0233941Y0194472D01*
X0233941Y0176815D01*
X0232769Y0175644D01*
X0232769Y0175644D01*
X0216769Y0159644D01*
X0213052Y0159644D01*
X0213052Y0159013D01*
X0212115Y0158075D01*
X0206459Y0158075D01*
X0205941Y0158594D01*
X0205422Y0158075D01*
X0199766Y0158075D01*
X0198829Y0159013D01*
X0198829Y0159644D01*
X0192962Y0159644D01*
X0192962Y0159358D01*
X0191679Y0158075D01*
X0187108Y0158075D01*
X0185825Y0159358D01*
X0185825Y0159886D01*
X0185721Y0159498D01*
X0185459Y0159044D01*
X0185088Y0158673D01*
X0184634Y0158411D01*
X0184128Y0158275D01*
X0182888Y0158275D01*
X0182888Y0161244D01*
X0182088Y0161244D01*
X0179119Y0161244D01*
X0179119Y0160004D01*
X0179255Y0159498D01*
X0179517Y0159044D01*
X0179888Y0158673D01*
X0180342Y0158411D01*
X0180848Y0158275D01*
X0182088Y0158275D01*
X0182088Y0161244D01*
X0182088Y0162044D01*
X0182088Y0165012D01*
X0180848Y0165012D01*
X0180342Y0164877D01*
X0179888Y0164615D01*
X0179517Y0164244D01*
X0179255Y0163790D01*
X0179119Y0163284D01*
X0179119Y0162044D01*
X0182088Y0162044D01*
X0182888Y0162044D01*
X0182888Y0165012D01*
X0184128Y0165012D01*
X0184634Y0164877D01*
X0185088Y0164615D01*
X0185459Y0164244D01*
X0185721Y0163790D01*
X0185825Y0163401D01*
X0185825Y0163929D01*
X0187108Y0165212D01*
X0191679Y0165212D01*
X0192962Y0163929D01*
X0192962Y0163644D01*
X0198829Y0163644D01*
X0198829Y0164275D01*
X0199766Y0165212D01*
X0205422Y0165212D01*
X0205941Y0164694D01*
X0206459Y0165212D01*
X0212115Y0165212D01*
X0213052Y0164275D01*
X0213052Y0163644D01*
X0215112Y0163644D01*
X0229941Y0178472D01*
X0229941Y0192815D01*
X0227372Y0195384D01*
X0209249Y0195384D01*
X0209249Y0195146D01*
X0208312Y0194209D01*
X0204401Y0194209D01*
X0205531Y0193078D01*
X0208312Y0193078D01*
X0209249Y0192141D01*
X0209249Y0191904D01*
X0212829Y0191904D01*
X0212829Y0192275D01*
X0213766Y0193212D01*
X0219422Y0193212D01*
X0220082Y0192552D01*
X0220262Y0192733D01*
X0220581Y0192917D01*
X0220937Y0193012D01*
X0222887Y0193012D01*
X0222887Y0190044D01*
X0223687Y0190044D01*
X0223687Y0193012D01*
X0225637Y0193012D01*
X0225993Y0192917D01*
X0226312Y0192733D01*
X0226573Y0192472D01*
X0226757Y0192153D01*
X0226852Y0191797D01*
X0226852Y0190044D01*
X0223687Y0190044D01*
X0223687Y0189244D01*
X0226852Y0189244D01*
X0226852Y0187491D01*
X0226757Y0187135D01*
X0226573Y0186816D01*
X0226312Y0186555D01*
X0225993Y0186371D01*
X0225637Y0186275D01*
X0223687Y0186275D01*
X0223687Y0189244D01*
X0222887Y0189244D01*
X0222887Y0186275D01*
X0220937Y0186275D01*
X0220581Y0186371D01*
X0220262Y0186555D01*
X0220082Y0186735D01*
X0219422Y0186075D01*
X0213766Y0186075D01*
X0212829Y0187013D01*
X0212829Y0187904D01*
X0209249Y0187904D01*
X0209249Y0187666D01*
X0208312Y0186729D01*
X0203443Y0186729D01*
X0202506Y0187666D01*
X0202506Y0190447D01*
X0201112Y0191841D01*
X0200982Y0191971D01*
X0200982Y0191406D01*
X0200044Y0190469D01*
X0195176Y0190469D01*
X0194238Y0191406D01*
X0194238Y0193621D01*
X0190906Y0196954D01*
X0190541Y0197836D01*
X0190541Y0211197D01*
X0190241Y0211197D01*
X0190241Y0209081D01*
X0189303Y0208144D01*
X0176578Y0208144D01*
X0175641Y0209081D01*
X0175641Y0217007D01*
X0176578Y0217944D01*
X0189303Y0217944D01*
X0190241Y0217007D01*
X0190241Y0215997D01*
X0190541Y0215997D01*
X0190541Y0220075D01*
X0190459Y0220075D01*
X0189799Y0220735D01*
X0189619Y0220555D01*
X0189300Y0220371D01*
X0188944Y0220275D01*
X0186994Y0220275D01*
X0186994Y0223244D01*
X0186194Y0223244D01*
X0183029Y0223244D01*
X0183029Y0221491D01*
X0183124Y0221135D01*
X0183309Y0220816D01*
X0183569Y0220555D01*
X0183888Y0220371D01*
X0184245Y0220275D01*
X0186194Y0220275D01*
X0186194Y0223244D01*
X0186194Y0224044D01*
X0186194Y0227012D01*
X0184245Y0227012D01*
X0183888Y0226917D01*
X0183569Y0226733D01*
X0183309Y0226472D01*
X0183124Y0226153D01*
X0183029Y0225797D01*
X0183029Y0224044D01*
X0186194Y0224044D01*
X0186994Y0224044D01*
X0186994Y0227012D01*
X0188944Y0227012D01*
X0189300Y0226917D01*
X0189619Y0226733D01*
X0189799Y0226552D01*
X0190459Y0227212D01*
X0196092Y0227212D01*
X0195970Y0227334D01*
X0195786Y0227653D01*
X0195691Y0228009D01*
X0195691Y0232244D01*
X0200941Y0232244D01*
X0201741Y0232244D01*
X0201741Y0233044D01*
X0206991Y0233044D01*
X0206991Y0237278D01*
X0206895Y0237634D01*
X0206711Y0237953D01*
X0206450Y0238214D01*
X0206131Y0238398D01*
X0205775Y0238494D01*
X0201741Y0238494D01*
X0201741Y0233044D01*
X0200941Y0233044D01*
X0200941Y0238494D01*
X0196906Y0238494D01*
X0196550Y0238398D01*
X0196231Y0238214D01*
X0195970Y0237953D01*
X0195786Y0237634D01*
X0195691Y0237278D01*
X0195691Y0233044D01*
X0200941Y0233044D01*
X0200941Y0232244D01*
X0200941Y0226794D01*
X0196906Y0226794D01*
X0196550Y0226889D01*
X0196285Y0227042D01*
X0197052Y0226275D01*
X0197052Y0221013D01*
X0196115Y0220075D01*
X0195341Y0220075D01*
X0195341Y0215997D01*
X0195416Y0215997D01*
X0195798Y0216378D01*
X0201060Y0216378D01*
X0201997Y0215440D01*
X0201997Y0212644D01*
X0205884Y0212644D01*
X0205884Y0215440D01*
X0206821Y0216378D01*
X0212084Y0216378D01*
X0212865Y0215597D01*
X0216372Y0215597D01*
X0216372Y0217125D01*
X0217032Y0217785D01*
X0216852Y0217965D01*
X0216668Y0218284D01*
X0216572Y0218641D01*
X0216572Y0220590D01*
X0219541Y0220590D01*
X0219541Y0221390D01*
X0219541Y0224556D01*
X0217788Y0224556D01*
X0217432Y0224460D01*
X0217113Y0224276D01*
X0216852Y0224015D01*
X0216668Y0223696D01*
X0216572Y0223340D01*
X0216572Y0221390D01*
X0219541Y0221390D01*
X0220341Y0221390D01*
X0223309Y0221390D01*
X0223309Y0223340D01*
X0223214Y0223696D01*
X0223029Y0224015D01*
X0222769Y0224276D01*
X0222450Y0224460D01*
X0222093Y0224556D01*
X0220341Y0224556D01*
X0220341Y0221390D01*
X0220341Y0220590D01*
X0223309Y0220590D01*
X0223309Y0218641D01*
X0223214Y0218284D01*
X0223029Y0217965D01*
X0222849Y0217785D01*
X0223509Y0217125D01*
X0223509Y0211469D01*
X0222572Y0210532D01*
X0217309Y0210532D01*
X0216372Y0211469D01*
X0216372Y0211597D01*
X0213021Y0211597D01*
X0213021Y0210091D01*
X0222994Y0210091D01*
X0226541Y0213638D01*
X0226541Y0223250D01*
X0223197Y0226594D01*
X0215628Y0226594D01*
X0214691Y0227531D01*
X0214691Y0237757D01*
X0215628Y0238694D01*
X0225453Y0238694D01*
X0226391Y0237757D01*
X0226391Y0230188D01*
X0228414Y0228165D01*
X0232372Y0232123D01*
X0232372Y0235125D01*
X0233032Y0235785D01*
X0232852Y0235965D01*
X0232668Y0236284D01*
X0232572Y0236641D01*
X0232572Y0238590D01*
X0235541Y0238590D01*
X0235541Y0239390D01*
X0235541Y0242556D01*
X0233788Y0242556D01*
X0233432Y0242460D01*
X0233113Y0242276D01*
X0232852Y0242015D01*
X0232668Y0241696D01*
X0232572Y0241340D01*
X0232572Y0239390D01*
X0235541Y0239390D01*
X0236341Y0239390D01*
X0239309Y0239390D01*
X0239309Y0241340D01*
X0239214Y0241696D01*
X0239029Y0242015D01*
X0238769Y0242276D01*
X0238450Y0242460D01*
X0238093Y0242556D01*
X0236341Y0242556D01*
X0236341Y0239390D01*
X0236341Y0238590D01*
X0239309Y0238590D01*
X0239309Y0236641D01*
X0239214Y0236284D01*
X0239029Y0235965D01*
X0238849Y0235785D01*
X0239509Y0235125D01*
X0239509Y0234044D01*
X0242429Y0234044D01*
X0242429Y0256949D01*
X0195578Y0256949D01*
X0195123Y0256904D01*
X0194280Y0256555D01*
X0193635Y0255911D01*
X0193286Y0255068D01*
X0193241Y0254612D01*
X0193241Y0241700D01*
X0192398Y0239665D01*
X0192398Y0239665D01*
X0192398Y0239665D01*
X0191641Y0238908D01*
X0191641Y0238864D01*
X0191598Y0238864D01*
X0190841Y0238107D01*
X0188806Y0237264D01*
X0127548Y0237264D01*
X0125513Y0238107D01*
X0125513Y0238107D01*
X0124756Y0238864D01*
X0124712Y0238864D01*
X0124712Y0238908D01*
X0123955Y0239665D01*
X0123955Y0239665D01*
X0123112Y0241700D01*
X0123112Y0254612D01*
X0123067Y0255068D01*
X0122718Y0255911D01*
X0122074Y0256555D01*
X0121231Y0256904D01*
X0120775Y0256949D01*
X0073925Y0256949D01*
X0073925Y0232565D01*
X0049541Y0232565D01*
X0049541Y0231817D02*
X0104618Y0231817D01*
X0104938Y0232137D02*
X0103448Y0230646D01*
X0102641Y0228698D01*
X0102641Y0226590D01*
X0103448Y0224642D01*
X0104938Y0223151D01*
X0106162Y0222644D01*
X0104938Y0222137D01*
X0103448Y0220646D01*
X0102641Y0218698D01*
X0102641Y0216590D01*
X0103448Y0214642D01*
X0104938Y0213151D01*
X0106162Y0212644D01*
X0104938Y0212137D01*
X0103448Y0210646D01*
X0103198Y0210044D01*
X0099935Y0210044D01*
X0090017Y0219962D01*
X0089135Y0220327D01*
X0083618Y0220327D01*
X0083063Y0221666D01*
X0081207Y0223522D01*
X0078781Y0224527D01*
X0076155Y0224527D01*
X0073730Y0223522D01*
X0071873Y0221666D01*
X0070868Y0219240D01*
X0070868Y0216614D01*
X0071873Y0214189D01*
X0073730Y0212332D01*
X0076155Y0211327D01*
X0078781Y0211327D01*
X0081207Y0212332D01*
X0083063Y0214189D01*
X0083618Y0215527D01*
X0087663Y0215527D01*
X0096906Y0206284D01*
X0097581Y0205609D01*
X0098463Y0205244D01*
X0103198Y0205244D01*
X0103448Y0204642D01*
X0104938Y0203151D01*
X0105921Y0202744D01*
X0104056Y0202744D01*
X0103700Y0202648D01*
X0103381Y0202464D01*
X0103120Y0202203D01*
X0102936Y0201884D01*
X0102841Y0201528D01*
X0102841Y0198044D01*
X0107541Y0198044D01*
X0107541Y0197244D01*
X0102841Y0197244D01*
X0102841Y0193759D01*
X0102936Y0193403D01*
X0103120Y0193084D01*
X0103381Y0192824D01*
X0103700Y0192639D01*
X0104056Y0192544D01*
X0105921Y0192544D01*
X0104938Y0192137D01*
X0103448Y0190646D01*
X0102641Y0188698D01*
X0102641Y0186590D01*
X0103448Y0184642D01*
X0104938Y0183151D01*
X0106886Y0182344D01*
X0108995Y0182344D01*
X0110943Y0183151D01*
X0112434Y0184642D01*
X0112683Y0185244D01*
X0143418Y0185244D01*
X0144300Y0185609D01*
X0150535Y0191844D01*
X0175641Y0191844D01*
X0175641Y0190281D01*
X0176578Y0189344D01*
X0189303Y0189344D01*
X0190241Y0190281D01*
X0190241Y0198207D01*
X0189303Y0199144D01*
X0176578Y0199144D01*
X0175641Y0198207D01*
X0175641Y0196644D01*
X0149063Y0196644D01*
X0148181Y0196278D01*
X0141947Y0190044D01*
X0112683Y0190044D01*
X0112434Y0190646D01*
X0110943Y0192137D01*
X0109960Y0192544D01*
X0111825Y0192544D01*
X0112181Y0192639D01*
X0112500Y0192824D01*
X0112761Y0193084D01*
X0112945Y0193403D01*
X0113041Y0193759D01*
X0113041Y0197244D01*
X0108341Y0197244D01*
X0108341Y0198044D01*
X0113041Y0198044D01*
X0113041Y0201528D01*
X0112945Y0201884D01*
X0112761Y0202203D01*
X0112500Y0202464D01*
X0112181Y0202648D01*
X0111825Y0202744D01*
X0109960Y0202744D01*
X0110943Y0203151D01*
X0112434Y0204642D01*
X0113241Y0206590D01*
X0113241Y0208698D01*
X0112434Y0210646D01*
X0110943Y0212137D01*
X0109719Y0212644D01*
X0110943Y0213151D01*
X0112434Y0214642D01*
X0113241Y0216590D01*
X0113241Y0218698D01*
X0112434Y0220646D01*
X0110943Y0222137D01*
X0109719Y0222644D01*
X0110943Y0223151D01*
X0112434Y0224642D01*
X0113241Y0226590D01*
X0113241Y0228698D01*
X0112434Y0230646D01*
X0110943Y0232137D01*
X0108995Y0232944D01*
X0106886Y0232944D01*
X0104938Y0232137D01*
X0106093Y0232615D02*
X0073925Y0232615D01*
X0073925Y0233414D02*
X0195691Y0233414D01*
X0195691Y0234212D02*
X0073925Y0234212D01*
X0073925Y0235011D02*
X0195691Y0235011D01*
X0195691Y0235809D02*
X0073925Y0235809D01*
X0073925Y0236608D02*
X0195691Y0236608D01*
X0195725Y0237406D02*
X0189148Y0237406D01*
X0190938Y0238205D02*
X0196222Y0238205D01*
X0192455Y0239802D02*
X0232572Y0239802D01*
X0232572Y0240600D02*
X0192786Y0240600D01*
X0193117Y0241399D02*
X0232588Y0241399D01*
X0233034Y0242197D02*
X0193241Y0242197D01*
X0193241Y0242996D02*
X0242429Y0242996D01*
X0242429Y0243794D02*
X0193241Y0243794D01*
X0193241Y0244593D02*
X0242429Y0244593D01*
X0242429Y0245391D02*
X0193241Y0245391D01*
X0193241Y0246190D02*
X0242429Y0246190D01*
X0242429Y0246988D02*
X0193241Y0246988D01*
X0193241Y0247787D02*
X0242429Y0247787D01*
X0242429Y0248585D02*
X0193241Y0248585D01*
X0193241Y0249384D02*
X0242429Y0249384D01*
X0242429Y0250182D02*
X0193241Y0250182D01*
X0193241Y0250981D02*
X0242429Y0250981D01*
X0242429Y0251779D02*
X0193241Y0251779D01*
X0193241Y0252578D02*
X0242429Y0252578D01*
X0242429Y0253376D02*
X0193241Y0253376D01*
X0193241Y0254175D02*
X0242429Y0254175D01*
X0242429Y0254973D02*
X0193277Y0254973D01*
X0193578Y0255772D02*
X0242429Y0255772D01*
X0242429Y0256570D02*
X0194316Y0256570D01*
X0191737Y0239003D02*
X0235541Y0239003D01*
X0235541Y0239802D02*
X0236341Y0239802D01*
X0236341Y0240600D02*
X0235541Y0240600D01*
X0235541Y0241399D02*
X0236341Y0241399D01*
X0236341Y0242197D02*
X0235541Y0242197D01*
X0238847Y0242197D02*
X0242429Y0242197D01*
X0242429Y0241399D02*
X0239293Y0241399D01*
X0239309Y0240600D02*
X0242429Y0240600D01*
X0242429Y0239802D02*
X0239309Y0239802D01*
X0239309Y0238205D02*
X0242429Y0238205D01*
X0242429Y0239003D02*
X0236341Y0239003D01*
X0239309Y0237406D02*
X0242429Y0237406D01*
X0242429Y0236608D02*
X0239300Y0236608D01*
X0238873Y0235809D02*
X0242429Y0235809D01*
X0242429Y0235011D02*
X0239509Y0235011D01*
X0239509Y0234212D02*
X0242429Y0234212D01*
X0245164Y0228622D02*
X0238662Y0228622D01*
X0234861Y0227824D02*
X0244820Y0227824D01*
X0244489Y0227025D02*
X0234063Y0227025D01*
X0233264Y0226227D02*
X0244334Y0226227D01*
X0244334Y0225428D02*
X0232466Y0225428D01*
X0231667Y0224630D02*
X0244334Y0224630D01*
X0244628Y0223831D02*
X0231341Y0223831D01*
X0231341Y0223033D02*
X0244959Y0223033D01*
X0245500Y0222234D02*
X0231341Y0222234D01*
X0231341Y0221436D02*
X0246299Y0221436D01*
X0246381Y0219839D02*
X0231341Y0219839D01*
X0231341Y0220637D02*
X0247756Y0220637D01*
X0245582Y0219040D02*
X0231341Y0219040D01*
X0231341Y0218242D02*
X0244993Y0218242D01*
X0244662Y0217443D02*
X0231341Y0217443D01*
X0231341Y0216645D02*
X0244334Y0216645D01*
X0244334Y0215846D02*
X0231341Y0215846D01*
X0231341Y0215048D02*
X0244334Y0215048D01*
X0244455Y0214249D02*
X0231341Y0214249D01*
X0231341Y0213451D02*
X0244786Y0213451D01*
X0245116Y0212652D02*
X0231341Y0212652D01*
X0231211Y0211854D02*
X0245881Y0211854D01*
X0246748Y0211055D02*
X0230746Y0211055D01*
X0229948Y0210257D02*
X0247035Y0210257D01*
X0246000Y0209458D02*
X0229149Y0209458D01*
X0228351Y0208660D02*
X0245201Y0208660D01*
X0244835Y0207861D02*
X0227552Y0207861D01*
X0226754Y0207063D02*
X0244504Y0207063D01*
X0244334Y0206264D02*
X0225955Y0206264D01*
X0224887Y0205466D02*
X0244334Y0205466D01*
X0244334Y0204667D02*
X0211852Y0204667D01*
X0211852Y0203869D02*
X0244613Y0203869D01*
X0244943Y0203070D02*
X0211852Y0203070D01*
X0211852Y0202272D02*
X0245463Y0202272D01*
X0246262Y0201473D02*
X0211852Y0201473D01*
X0211852Y0200675D02*
X0247667Y0200675D01*
X0246418Y0199876D02*
X0211602Y0199876D01*
X0209188Y0195085D02*
X0227671Y0195085D01*
X0228469Y0194287D02*
X0208389Y0194287D01*
X0208701Y0192689D02*
X0213243Y0192689D01*
X0214334Y0189904D02*
X0216594Y0189644D01*
X0214334Y0189904D02*
X0205878Y0189904D01*
X0201941Y0193841D01*
X0201941Y0197644D01*
X0198429Y0201156D01*
X0198429Y0207691D01*
X0198429Y0210644D02*
X0209452Y0210644D01*
X0209452Y0213597D01*
X0219240Y0213597D01*
X0219941Y0214297D01*
X0223509Y0214249D02*
X0226541Y0214249D01*
X0226541Y0215048D02*
X0223509Y0215048D01*
X0223509Y0215846D02*
X0226541Y0215846D01*
X0226541Y0216645D02*
X0223509Y0216645D01*
X0223191Y0217443D02*
X0226541Y0217443D01*
X0226541Y0218242D02*
X0223189Y0218242D01*
X0223309Y0219040D02*
X0226541Y0219040D01*
X0226541Y0219839D02*
X0223309Y0219839D01*
X0223309Y0221436D02*
X0226541Y0221436D01*
X0226541Y0222234D02*
X0223309Y0222234D01*
X0223309Y0223033D02*
X0226541Y0223033D01*
X0225959Y0223831D02*
X0223136Y0223831D01*
X0224362Y0225428D02*
X0197052Y0225428D01*
X0197052Y0224630D02*
X0225160Y0224630D01*
X0223563Y0226227D02*
X0197052Y0226227D01*
X0196314Y0227025D02*
X0196302Y0227025D01*
X0195740Y0227824D02*
X0113241Y0227824D01*
X0113241Y0228622D02*
X0195691Y0228622D01*
X0195691Y0229421D02*
X0112941Y0229421D01*
X0112610Y0230220D02*
X0195691Y0230220D01*
X0195691Y0231018D02*
X0112062Y0231018D01*
X0111263Y0231817D02*
X0195691Y0231817D01*
X0200941Y0231817D02*
X0201741Y0231817D01*
X0201741Y0232244D02*
X0201741Y0226794D01*
X0205775Y0226794D01*
X0206131Y0226889D01*
X0206450Y0227074D01*
X0206711Y0227334D01*
X0206895Y0227653D01*
X0206991Y0228009D01*
X0206991Y0232244D01*
X0201741Y0232244D01*
X0201741Y0232615D02*
X0214691Y0232615D01*
X0214691Y0231817D02*
X0206991Y0231817D01*
X0206991Y0231018D02*
X0214691Y0231018D01*
X0214691Y0230220D02*
X0206991Y0230220D01*
X0206991Y0229421D02*
X0214691Y0229421D01*
X0214691Y0228622D02*
X0206991Y0228622D01*
X0206941Y0227824D02*
X0214691Y0227824D01*
X0215196Y0227025D02*
X0206367Y0227025D01*
X0201741Y0227025D02*
X0200941Y0227025D01*
X0200941Y0227824D02*
X0201741Y0227824D01*
X0201741Y0228622D02*
X0200941Y0228622D01*
X0200941Y0229421D02*
X0201741Y0229421D01*
X0201741Y0230220D02*
X0200941Y0230220D01*
X0200941Y0231018D02*
X0201741Y0231018D01*
X0200941Y0232615D02*
X0109788Y0232615D01*
X0103820Y0231018D02*
X0049541Y0231018D01*
X0049541Y0230220D02*
X0103271Y0230220D01*
X0102940Y0229421D02*
X0049541Y0229421D01*
X0049541Y0228622D02*
X0102641Y0228622D01*
X0102641Y0227824D02*
X0049541Y0227824D01*
X0049541Y0227025D02*
X0102641Y0227025D01*
X0102791Y0226227D02*
X0049541Y0226227D01*
X0049541Y0225428D02*
X0103122Y0225428D01*
X0103459Y0224630D02*
X0049541Y0224630D01*
X0049541Y0223831D02*
X0074476Y0223831D01*
X0073240Y0223033D02*
X0049541Y0223033D01*
X0049541Y0222234D02*
X0072442Y0222234D01*
X0071778Y0221436D02*
X0049541Y0221436D01*
X0049541Y0220637D02*
X0071447Y0220637D01*
X0071116Y0219839D02*
X0049541Y0219839D01*
X0049541Y0219040D02*
X0070868Y0219040D01*
X0070868Y0218242D02*
X0049541Y0218242D01*
X0049541Y0217443D02*
X0070868Y0217443D01*
X0070868Y0216645D02*
X0049541Y0216645D01*
X0049541Y0215846D02*
X0071186Y0215846D01*
X0071517Y0215048D02*
X0049541Y0215048D01*
X0049541Y0214249D02*
X0071848Y0214249D01*
X0072611Y0213451D02*
X0049541Y0213451D01*
X0049541Y0212652D02*
X0073409Y0212652D01*
X0074884Y0211854D02*
X0049541Y0211854D01*
X0049541Y0211055D02*
X0092135Y0211055D01*
X0092934Y0210257D02*
X0049541Y0210257D01*
X0049541Y0209458D02*
X0093732Y0209458D01*
X0094531Y0208660D02*
X0049541Y0208660D01*
X0049541Y0207861D02*
X0095329Y0207861D01*
X0096128Y0207063D02*
X0049541Y0207063D01*
X0049541Y0206264D02*
X0096926Y0206264D01*
X0097928Y0205466D02*
X0049541Y0205466D01*
X0049541Y0204667D02*
X0103437Y0204667D01*
X0104220Y0203869D02*
X0079848Y0203869D01*
X0079530Y0204001D02*
X0078719Y0204218D01*
X0077888Y0204327D01*
X0077868Y0204327D01*
X0077868Y0198327D01*
X0083868Y0198327D01*
X0083868Y0198347D01*
X0083759Y0199179D01*
X0083542Y0199989D01*
X0083220Y0200764D01*
X0082801Y0201491D01*
X0082290Y0202156D01*
X0081697Y0202749D01*
X0081031Y0203260D01*
X0080305Y0203680D01*
X0079530Y0204001D01*
X0077868Y0203869D02*
X0077068Y0203869D01*
X0077068Y0204327D02*
X0077049Y0204327D01*
X0076217Y0204218D01*
X0075407Y0204001D01*
X0074631Y0203680D01*
X0073905Y0203260D01*
X0073239Y0202749D01*
X0072646Y0202156D01*
X0072135Y0201491D01*
X0071716Y0200764D01*
X0071395Y0199989D01*
X0071178Y0199179D01*
X0071068Y0198347D01*
X0071068Y0198327D01*
X0077068Y0198327D01*
X0077068Y0197527D01*
X0077868Y0197527D01*
X0077868Y0191527D01*
X0077888Y0191527D01*
X0078719Y0191637D01*
X0079530Y0191854D01*
X0080305Y0192175D01*
X0081031Y0192594D01*
X0081697Y0193105D01*
X0082290Y0193698D01*
X0082801Y0194364D01*
X0083220Y0195091D01*
X0083542Y0195866D01*
X0083759Y0196676D01*
X0083868Y0197508D01*
X0083868Y0197527D01*
X0077868Y0197527D01*
X0077868Y0198327D01*
X0077068Y0198327D01*
X0077068Y0204327D01*
X0077068Y0203070D02*
X0077868Y0203070D01*
X0077868Y0202272D02*
X0077068Y0202272D01*
X0077068Y0201473D02*
X0077868Y0201473D01*
X0077868Y0200675D02*
X0077068Y0200675D01*
X0077068Y0199876D02*
X0077868Y0199876D01*
X0077868Y0199078D02*
X0077068Y0199078D01*
X0077068Y0198279D02*
X0049541Y0198279D01*
X0049541Y0197481D02*
X0071072Y0197481D01*
X0071068Y0197508D02*
X0071178Y0196676D01*
X0071395Y0195866D01*
X0071716Y0195091D01*
X0072135Y0194364D01*
X0072646Y0193698D01*
X0073239Y0193105D01*
X0073905Y0192594D01*
X0074631Y0192175D01*
X0075407Y0191854D01*
X0076217Y0191637D01*
X0077049Y0191527D01*
X0077068Y0191527D01*
X0077068Y0197527D01*
X0071068Y0197527D01*
X0071068Y0197508D01*
X0071177Y0196682D02*
X0049541Y0196682D01*
X0049541Y0195884D02*
X0071390Y0195884D01*
X0071719Y0195085D02*
X0049541Y0195085D01*
X0049541Y0194287D02*
X0072195Y0194287D01*
X0072856Y0193488D02*
X0049541Y0193488D01*
X0049541Y0192689D02*
X0073781Y0192689D01*
X0075317Y0191891D02*
X0049541Y0191891D01*
X0049541Y0191092D02*
X0103894Y0191092D01*
X0103302Y0190294D02*
X0049541Y0190294D01*
X0049541Y0189495D02*
X0102971Y0189495D01*
X0102641Y0188697D02*
X0049541Y0188697D01*
X0049541Y0187898D02*
X0102641Y0187898D01*
X0102641Y0187100D02*
X0049541Y0187100D01*
X0049541Y0186301D02*
X0102760Y0186301D01*
X0103091Y0185503D02*
X0049541Y0185503D01*
X0049541Y0184704D02*
X0103421Y0184704D01*
X0104183Y0183906D02*
X0079759Y0183906D01*
X0079530Y0184001D02*
X0078719Y0184218D01*
X0077888Y0184327D01*
X0077868Y0184327D01*
X0077868Y0178327D01*
X0083868Y0178327D01*
X0083868Y0178347D01*
X0083759Y0179179D01*
X0083542Y0179989D01*
X0083220Y0180764D01*
X0082801Y0181491D01*
X0082290Y0182156D01*
X0081697Y0182749D01*
X0081031Y0183260D01*
X0080305Y0183680D01*
X0079530Y0184001D01*
X0077868Y0183906D02*
X0077068Y0183906D01*
X0077068Y0184327D02*
X0077049Y0184327D01*
X0076217Y0184218D01*
X0075407Y0184001D01*
X0074631Y0183680D01*
X0073905Y0183260D01*
X0073239Y0182749D01*
X0072646Y0182156D01*
X0072135Y0181491D01*
X0071716Y0180764D01*
X0071395Y0179989D01*
X0071178Y0179179D01*
X0071068Y0178347D01*
X0071068Y0178327D01*
X0077068Y0178327D01*
X0077068Y0177527D01*
X0077868Y0177527D01*
X0077868Y0171527D01*
X0077888Y0171527D01*
X0078719Y0171637D01*
X0079530Y0171854D01*
X0080305Y0172175D01*
X0081031Y0172594D01*
X0081697Y0173105D01*
X0082290Y0173698D01*
X0082801Y0174364D01*
X0083220Y0175091D01*
X0083542Y0175866D01*
X0083759Y0176676D01*
X0083868Y0177508D01*
X0083868Y0177527D01*
X0077868Y0177527D01*
X0077868Y0178327D01*
X0077068Y0178327D01*
X0077068Y0184327D01*
X0077068Y0183107D02*
X0077868Y0183107D01*
X0077868Y0182309D02*
X0077068Y0182309D01*
X0077068Y0181510D02*
X0077868Y0181510D01*
X0077868Y0180712D02*
X0077068Y0180712D01*
X0077068Y0179913D02*
X0077868Y0179913D01*
X0077868Y0179115D02*
X0077068Y0179115D01*
X0077068Y0178316D02*
X0049541Y0178316D01*
X0049541Y0177518D02*
X0071068Y0177518D01*
X0071068Y0177527D02*
X0071068Y0177508D01*
X0071178Y0176676D01*
X0071395Y0175866D01*
X0071716Y0175091D01*
X0072135Y0174364D01*
X0072646Y0173698D01*
X0073239Y0173105D01*
X0073905Y0172594D01*
X0074631Y0172175D01*
X0075407Y0171854D01*
X0076217Y0171637D01*
X0077049Y0171527D01*
X0077068Y0171527D01*
X0077068Y0177527D01*
X0071068Y0177527D01*
X0071172Y0176719D02*
X0049541Y0176719D01*
X0049541Y0175921D02*
X0071380Y0175921D01*
X0071703Y0175122D02*
X0049541Y0175122D01*
X0049541Y0174324D02*
X0072166Y0174324D01*
X0072819Y0173525D02*
X0049541Y0173525D01*
X0049541Y0172727D02*
X0073733Y0172727D01*
X0075227Y0171928D02*
X0049541Y0171928D01*
X0049541Y0171130D02*
X0222598Y0171130D01*
X0223397Y0171928D02*
X0079709Y0171928D01*
X0081204Y0172727D02*
X0224195Y0172727D01*
X0224994Y0173525D02*
X0082117Y0173525D01*
X0082770Y0174324D02*
X0225792Y0174324D01*
X0226591Y0175122D02*
X0083234Y0175122D01*
X0083556Y0175921D02*
X0227389Y0175921D01*
X0228188Y0176719D02*
X0083764Y0176719D01*
X0083868Y0177518D02*
X0228986Y0177518D01*
X0229785Y0178316D02*
X0077868Y0178316D01*
X0077868Y0177518D02*
X0077068Y0177518D01*
X0077068Y0176719D02*
X0077868Y0176719D01*
X0077868Y0175921D02*
X0077068Y0175921D01*
X0077068Y0175122D02*
X0077868Y0175122D01*
X0077868Y0174324D02*
X0077068Y0174324D01*
X0077068Y0173525D02*
X0077868Y0173525D01*
X0077868Y0172727D02*
X0077068Y0172727D01*
X0077068Y0171928D02*
X0077868Y0171928D01*
X0083767Y0179115D02*
X0229941Y0179115D01*
X0229941Y0179913D02*
X0083562Y0179913D01*
X0083242Y0180712D02*
X0229941Y0180712D01*
X0229941Y0181510D02*
X0082786Y0181510D01*
X0082138Y0182309D02*
X0229941Y0182309D01*
X0229941Y0183107D02*
X0110838Y0183107D01*
X0111698Y0183906D02*
X0229941Y0183906D01*
X0229941Y0184704D02*
X0112460Y0184704D01*
X0112580Y0190294D02*
X0142197Y0190294D01*
X0142995Y0191092D02*
X0111987Y0191092D01*
X0111189Y0191891D02*
X0143794Y0191891D01*
X0144592Y0192689D02*
X0112268Y0192689D01*
X0112968Y0193488D02*
X0145391Y0193488D01*
X0146189Y0194287D02*
X0113041Y0194287D01*
X0113041Y0195085D02*
X0146988Y0195085D01*
X0147786Y0195884D02*
X0113041Y0195884D01*
X0113041Y0196682D02*
X0175641Y0196682D01*
X0175641Y0197481D02*
X0108341Y0197481D01*
X0107541Y0197481D02*
X0083865Y0197481D01*
X0083759Y0196682D02*
X0102841Y0196682D01*
X0102841Y0195884D02*
X0083546Y0195884D01*
X0083217Y0195085D02*
X0102841Y0195085D01*
X0102841Y0194287D02*
X0082742Y0194287D01*
X0082080Y0193488D02*
X0102913Y0193488D01*
X0103613Y0192689D02*
X0081155Y0192689D01*
X0079619Y0191891D02*
X0104692Y0191891D01*
X0102841Y0198279D02*
X0077868Y0198279D01*
X0077868Y0197481D02*
X0077068Y0197481D01*
X0077068Y0196682D02*
X0077868Y0196682D01*
X0077868Y0195884D02*
X0077068Y0195884D01*
X0077068Y0195085D02*
X0077868Y0195085D01*
X0077868Y0194287D02*
X0077068Y0194287D01*
X0077068Y0193488D02*
X0077868Y0193488D01*
X0077868Y0192689D02*
X0077068Y0192689D01*
X0077068Y0191891D02*
X0077868Y0191891D01*
X0075178Y0183906D02*
X0049541Y0183906D01*
X0049541Y0183107D02*
X0073706Y0183107D01*
X0072799Y0182309D02*
X0049541Y0182309D01*
X0049541Y0181510D02*
X0072151Y0181510D01*
X0071694Y0180712D02*
X0049541Y0180712D01*
X0049541Y0179913D02*
X0071375Y0179913D01*
X0071169Y0179115D02*
X0049541Y0179115D01*
X0049541Y0170331D02*
X0221800Y0170331D01*
X0221001Y0169533D02*
X0049541Y0169533D01*
X0049541Y0168734D02*
X0220203Y0168734D01*
X0219404Y0167936D02*
X0049541Y0167936D01*
X0049541Y0167137D02*
X0218606Y0167137D01*
X0217807Y0166339D02*
X0049541Y0166339D01*
X0049541Y0165540D02*
X0217009Y0165540D01*
X0216210Y0164742D02*
X0212586Y0164742D01*
X0213052Y0163943D02*
X0215412Y0163943D01*
X0215941Y0161644D02*
X0231941Y0177644D01*
X0231941Y0193644D01*
X0228200Y0197384D01*
X0205878Y0197384D01*
X0205122Y0193488D02*
X0229268Y0193488D01*
X0229941Y0192689D02*
X0226355Y0192689D01*
X0226827Y0191891D02*
X0229941Y0191891D01*
X0229941Y0191092D02*
X0226852Y0191092D01*
X0226852Y0190294D02*
X0229941Y0190294D01*
X0229941Y0189495D02*
X0223687Y0189495D01*
X0223687Y0188697D02*
X0222887Y0188697D01*
X0222887Y0187898D02*
X0223687Y0187898D01*
X0223687Y0187100D02*
X0222887Y0187100D01*
X0222887Y0186301D02*
X0223687Y0186301D01*
X0225734Y0186301D02*
X0229941Y0186301D01*
X0229941Y0185503D02*
X0144044Y0185503D01*
X0144992Y0186301D02*
X0213540Y0186301D01*
X0212829Y0187100D02*
X0208683Y0187100D01*
X0209249Y0187898D02*
X0212829Y0187898D01*
X0219648Y0186301D02*
X0220840Y0186301D01*
X0222887Y0190294D02*
X0223687Y0190294D01*
X0223687Y0191092D02*
X0222887Y0191092D01*
X0222887Y0191891D02*
X0223687Y0191891D01*
X0223687Y0192689D02*
X0222887Y0192689D01*
X0220219Y0192689D02*
X0219945Y0192689D01*
X0226852Y0188697D02*
X0229941Y0188697D01*
X0229941Y0187898D02*
X0226852Y0187898D01*
X0226737Y0187100D02*
X0229941Y0187100D01*
X0233941Y0187100D02*
X0239568Y0187100D01*
X0238770Y0186301D02*
X0233941Y0186301D01*
X0233941Y0185503D02*
X0237971Y0185503D01*
X0237173Y0184704D02*
X0233941Y0184704D01*
X0233941Y0183906D02*
X0236374Y0183906D01*
X0235941Y0183107D02*
X0233941Y0183107D01*
X0233941Y0182309D02*
X0235941Y0182309D01*
X0235941Y0181510D02*
X0233941Y0181510D01*
X0233941Y0180712D02*
X0235941Y0180712D01*
X0235941Y0179913D02*
X0233941Y0179913D01*
X0233941Y0179115D02*
X0235941Y0179115D01*
X0235941Y0178316D02*
X0233941Y0178316D01*
X0233941Y0177518D02*
X0235941Y0177518D01*
X0235941Y0176719D02*
X0233845Y0176719D01*
X0233046Y0175921D02*
X0235941Y0175921D01*
X0235941Y0175122D02*
X0232247Y0175122D01*
X0231449Y0174324D02*
X0235941Y0174324D01*
X0235941Y0173525D02*
X0230650Y0173525D01*
X0229852Y0172727D02*
X0235941Y0172727D01*
X0235941Y0171928D02*
X0229053Y0171928D01*
X0228255Y0171130D02*
X0235941Y0171130D01*
X0235800Y0170331D02*
X0227456Y0170331D01*
X0226658Y0169533D02*
X0235001Y0169533D01*
X0234203Y0168734D02*
X0225859Y0168734D01*
X0225061Y0167936D02*
X0233404Y0167936D01*
X0232606Y0167137D02*
X0224262Y0167137D01*
X0223464Y0166339D02*
X0231807Y0166339D01*
X0231009Y0165540D02*
X0222665Y0165540D01*
X0221867Y0164742D02*
X0230210Y0164742D01*
X0229412Y0163943D02*
X0221068Y0163943D01*
X0220270Y0163145D02*
X0228613Y0163145D01*
X0227814Y0162346D02*
X0219471Y0162346D01*
X0218673Y0161548D02*
X0227016Y0161548D01*
X0226217Y0160749D02*
X0217874Y0160749D01*
X0217076Y0159951D02*
X0225419Y0159951D01*
X0224620Y0159152D02*
X0213052Y0159152D01*
X0212393Y0158353D02*
X0223822Y0158353D01*
X0223023Y0157555D02*
X0049541Y0157555D01*
X0049541Y0158353D02*
X0180556Y0158353D01*
X0179455Y0159152D02*
X0049541Y0159152D01*
X0049541Y0159951D02*
X0179134Y0159951D01*
X0179119Y0160749D02*
X0049541Y0160749D01*
X0049541Y0161548D02*
X0182088Y0161548D01*
X0182088Y0162346D02*
X0182888Y0162346D01*
X0182888Y0163145D02*
X0182088Y0163145D01*
X0182088Y0163943D02*
X0182888Y0163943D01*
X0182888Y0164742D02*
X0182088Y0164742D01*
X0180108Y0164742D02*
X0049541Y0164742D01*
X0049541Y0163943D02*
X0179343Y0163943D01*
X0179119Y0163145D02*
X0049541Y0163145D01*
X0049541Y0162346D02*
X0179119Y0162346D01*
X0182088Y0160749D02*
X0182888Y0160749D01*
X0182888Y0159951D02*
X0182088Y0159951D01*
X0182088Y0159152D02*
X0182888Y0159152D01*
X0182888Y0158353D02*
X0182088Y0158353D01*
X0184420Y0158353D02*
X0186830Y0158353D01*
X0186031Y0159152D02*
X0185521Y0159152D01*
X0189393Y0161644D02*
X0202594Y0161644D01*
X0198829Y0163943D02*
X0192948Y0163943D01*
X0192149Y0164742D02*
X0199295Y0164742D01*
X0198829Y0159152D02*
X0192755Y0159152D01*
X0191957Y0158353D02*
X0199488Y0158353D01*
X0205700Y0158353D02*
X0206181Y0158353D01*
X0209287Y0161644D02*
X0215941Y0161644D01*
X0222225Y0156756D02*
X0049541Y0156756D01*
X0049541Y0155958D02*
X0221426Y0155958D01*
X0220628Y0155159D02*
X0049541Y0155159D01*
X0049541Y0154361D02*
X0168852Y0154361D01*
X0168372Y0153562D02*
X0049541Y0153562D01*
X0049541Y0152764D02*
X0168372Y0152764D01*
X0168372Y0151965D02*
X0049541Y0151965D01*
X0049541Y0151167D02*
X0168372Y0151167D01*
X0168372Y0150368D02*
X0049541Y0150368D01*
X0049541Y0149570D02*
X0168372Y0149570D01*
X0168372Y0148771D02*
X0049541Y0148771D01*
X0049541Y0147973D02*
X0168624Y0147973D01*
X0168372Y0147174D02*
X0146238Y0147174D01*
X0145769Y0147644D02*
X0120112Y0147644D01*
X0114459Y0141990D01*
X0101509Y0141990D01*
X0101509Y0142818D01*
X0100572Y0143756D01*
X0095309Y0143756D01*
X0094372Y0142818D01*
X0094372Y0137162D01*
X0094891Y0136644D01*
X0094372Y0136125D01*
X0094372Y0134644D01*
X0083784Y0134644D01*
X0083063Y0136382D01*
X0081207Y0138239D01*
X0078781Y0139244D01*
X0076155Y0139244D01*
X0073730Y0138239D01*
X0071873Y0136382D01*
X0070868Y0133957D01*
X0070868Y0131331D01*
X0071873Y0128905D01*
X0073730Y0127049D01*
X0076155Y0126044D01*
X0078781Y0126044D01*
X0081207Y0127049D01*
X0083063Y0128905D01*
X0083784Y0130644D01*
X0094372Y0130644D01*
X0094372Y0130469D01*
X0095309Y0129532D01*
X0100572Y0129532D01*
X0101509Y0130469D01*
X0101509Y0131297D01*
X0118459Y0131297D01*
X0121941Y0127815D01*
X0121941Y0092815D01*
X0123112Y0091644D01*
X0125112Y0089644D01*
X0127459Y0089644D01*
X0127459Y0089013D01*
X0128396Y0088075D01*
X0134840Y0088075D01*
X0135777Y0089013D01*
X0135777Y0089144D01*
X0158278Y0089144D01*
X0158778Y0088644D01*
X0158278Y0088144D01*
X0135612Y0088144D01*
X0127112Y0079644D01*
X0101769Y0079644D01*
X0100338Y0081075D01*
X0100422Y0081075D01*
X0100941Y0081594D01*
X0101459Y0081075D01*
X0107115Y0081075D01*
X0108052Y0082013D01*
X0108052Y0082754D01*
X0112104Y0082754D01*
X0112104Y0082123D01*
X0113042Y0081186D01*
X0119485Y0081186D01*
X0120423Y0082123D01*
X0120423Y0087385D01*
X0119485Y0088323D01*
X0113042Y0088323D01*
X0112104Y0087385D01*
X0112104Y0086754D01*
X0108052Y0086754D01*
X0108052Y0087275D01*
X0107115Y0088212D01*
X0101459Y0088212D01*
X0100941Y0087694D01*
X0100422Y0088212D01*
X0099594Y0088212D01*
X0099594Y0095075D01*
X0100422Y0095075D01*
X0100941Y0095594D01*
X0101459Y0095075D01*
X0107115Y0095075D01*
X0108052Y0096013D01*
X0108052Y0096534D01*
X0112104Y0096534D01*
X0112104Y0095902D01*
X0113042Y0094965D01*
X0119485Y0094965D01*
X0120423Y0095902D01*
X0120423Y0101165D01*
X0119485Y0102102D01*
X0113042Y0102102D01*
X0112104Y0101165D01*
X0112104Y0100534D01*
X0108052Y0100534D01*
X0108052Y0101275D01*
X0107115Y0102212D01*
X0101459Y0102212D01*
X0100941Y0101694D01*
X0100422Y0102212D01*
X0099594Y0102212D01*
X0099594Y0108532D01*
X0100572Y0108532D01*
X0101509Y0109469D01*
X0101509Y0115125D01*
X0100849Y0115785D01*
X0101029Y0115965D01*
X0101214Y0116284D01*
X0101309Y0116641D01*
X0101309Y0118590D01*
X0098341Y0118590D01*
X0098341Y0119390D01*
X0101309Y0119390D01*
X0101309Y0121340D01*
X0101214Y0121696D01*
X0101029Y0122015D01*
X0100769Y0122276D01*
X0100450Y0122460D01*
X0100093Y0122556D01*
X0098341Y0122556D01*
X0098341Y0119390D01*
X0097541Y0119390D01*
X0097541Y0122556D01*
X0095788Y0122556D01*
X0095432Y0122460D01*
X0095113Y0122276D01*
X0094852Y0122015D01*
X0094668Y0121696D01*
X0094572Y0121340D01*
X0094572Y0119390D01*
X0097541Y0119390D01*
X0097541Y0118590D01*
X0094572Y0118590D01*
X0094572Y0116641D01*
X0094668Y0116284D01*
X0094852Y0115965D01*
X0095032Y0115785D01*
X0094372Y0115125D01*
X0094372Y0114644D01*
X0083784Y0114644D01*
X0083063Y0116382D01*
X0081207Y0118239D01*
X0078781Y0119244D01*
X0076155Y0119244D01*
X0073730Y0118239D01*
X0071873Y0116382D01*
X0070868Y0113957D01*
X0070868Y0111331D01*
X0071873Y0108905D01*
X0073730Y0107049D01*
X0076155Y0106044D01*
X0078781Y0106044D01*
X0081207Y0107049D01*
X0083063Y0108905D01*
X0083784Y0110644D01*
X0094372Y0110644D01*
X0094372Y0109469D01*
X0095309Y0108532D01*
X0095594Y0108532D01*
X0095594Y0102212D01*
X0094766Y0102212D01*
X0093829Y0101275D01*
X0093829Y0096013D01*
X0094766Y0095075D01*
X0095594Y0095075D01*
X0095594Y0088212D01*
X0094766Y0088212D01*
X0093829Y0087275D01*
X0093829Y0082013D01*
X0094766Y0081075D01*
X0095594Y0081075D01*
X0095594Y0080162D01*
X0100112Y0075644D01*
X0128769Y0075644D01*
X0129941Y0076815D01*
X0137269Y0084144D01*
X0158278Y0084144D01*
X0158778Y0083644D01*
X0158241Y0083107D01*
X0158241Y0079181D01*
X0159178Y0078244D01*
X0161941Y0078244D01*
X0161941Y0077756D01*
X0161309Y0077756D01*
X0160372Y0076818D01*
X0160372Y0076644D01*
X0156009Y0076644D01*
X0155993Y0076683D01*
X0154980Y0077696D01*
X0153657Y0078244D01*
X0152225Y0078244D01*
X0150901Y0077696D01*
X0149889Y0076683D01*
X0149341Y0075360D01*
X0149341Y0073928D01*
X0149889Y0072605D01*
X0150901Y0071592D01*
X0152225Y0071044D01*
X0153657Y0071044D01*
X0154980Y0071592D01*
X0155993Y0072605D01*
X0156009Y0072644D01*
X0160372Y0072644D01*
X0160372Y0071162D01*
X0161032Y0070502D01*
X0160852Y0070322D01*
X0160668Y0070003D01*
X0160572Y0069647D01*
X0160572Y0067697D01*
X0163541Y0067697D01*
X0163541Y0066897D01*
X0164341Y0066897D01*
X0164341Y0067697D01*
X0167309Y0067697D01*
X0167309Y0069647D01*
X0167214Y0070003D01*
X0167029Y0070322D01*
X0166849Y0070502D01*
X0167509Y0071162D01*
X0167509Y0076818D01*
X0166572Y0077756D01*
X0165941Y0077756D01*
X0165941Y0078244D01*
X0168503Y0078244D01*
X0169441Y0079181D01*
X0169441Y0083107D01*
X0168903Y0083644D01*
X0169441Y0084181D01*
X0169441Y0088107D01*
X0168903Y0088644D01*
X0169441Y0089181D01*
X0169441Y0093107D01*
X0168762Y0093785D01*
X0168961Y0093984D01*
X0169145Y0094303D01*
X0169241Y0094659D01*
X0169241Y0095894D01*
X0164091Y0095894D01*
X0164091Y0096394D01*
X0169241Y0096394D01*
X0169241Y0097628D01*
X0169145Y0097984D01*
X0168961Y0098303D01*
X0168700Y0098564D01*
X0168381Y0098748D01*
X0168025Y0098844D01*
X0164091Y0098844D01*
X0164091Y0096394D01*
X0163591Y0096394D01*
X0163591Y0098844D01*
X0159656Y0098844D01*
X0159300Y0098748D01*
X0158981Y0098564D01*
X0158720Y0098303D01*
X0158536Y0097984D01*
X0158441Y0097628D01*
X0158441Y0096394D01*
X0163591Y0096394D01*
X0163591Y0095894D01*
X0158441Y0095894D01*
X0158441Y0094659D01*
X0158536Y0094303D01*
X0158720Y0093984D01*
X0158919Y0093785D01*
X0158278Y0093144D01*
X0135777Y0093144D01*
X0135777Y0094275D01*
X0134840Y0095212D01*
X0128396Y0095212D01*
X0127459Y0094275D01*
X0127459Y0093644D01*
X0126769Y0093644D01*
X0125941Y0094472D01*
X0125941Y0129472D01*
X0120116Y0135297D01*
X0101509Y0135297D01*
X0101509Y0136125D01*
X0100991Y0136644D01*
X0101509Y0137162D01*
X0101509Y0137990D01*
X0116116Y0137990D01*
X0121769Y0143644D01*
X0144112Y0143644D01*
X0145941Y0141815D01*
X0145941Y0135712D01*
X0145901Y0135696D01*
X0144889Y0134683D01*
X0144341Y0133360D01*
X0144341Y0131928D01*
X0144357Y0131888D01*
X0142681Y0130212D01*
X0138459Y0130212D01*
X0137941Y0129694D01*
X0137422Y0130212D01*
X0136488Y0130212D01*
X0136488Y0135075D01*
X0136773Y0135075D01*
X0138056Y0136358D01*
X0138056Y0136886D01*
X0138161Y0136498D01*
X0138423Y0136044D01*
X0138793Y0135673D01*
X0139247Y0135411D01*
X0139753Y0135275D01*
X0140993Y0135275D01*
X0140993Y0138244D01*
X0141793Y0138244D01*
X0141793Y0135275D01*
X0143033Y0135275D01*
X0143540Y0135411D01*
X0143994Y0135673D01*
X0144364Y0136044D01*
X0144626Y0136498D01*
X0144762Y0137004D01*
X0144762Y0138244D01*
X0141793Y0138244D01*
X0141793Y0139044D01*
X0140993Y0139044D01*
X0140993Y0142012D01*
X0139753Y0142012D01*
X0139247Y0141877D01*
X0138793Y0141615D01*
X0138423Y0141244D01*
X0138161Y0140790D01*
X0138056Y0140401D01*
X0138056Y0140929D01*
X0136773Y0142212D01*
X0132203Y0142212D01*
X0130919Y0140929D01*
X0130919Y0136358D01*
X0132203Y0135075D01*
X0132488Y0135075D01*
X0132488Y0130212D01*
X0131766Y0130212D01*
X0130829Y0129275D01*
X0130829Y0124013D01*
X0131766Y0123075D01*
X0132610Y0123075D01*
X0132610Y0114819D01*
X0132176Y0114819D01*
X0131238Y0113881D01*
X0131238Y0109406D01*
X0132176Y0108469D01*
X0137044Y0108469D01*
X0137982Y0109406D01*
X0137982Y0113881D01*
X0137044Y0114819D01*
X0136610Y0114819D01*
X0136610Y0123075D01*
X0137422Y0123075D01*
X0137941Y0123594D01*
X0138459Y0123075D01*
X0144115Y0123075D01*
X0145052Y0124013D01*
X0145052Y0126927D01*
X0147185Y0129060D01*
X0147225Y0129044D01*
X0148657Y0129044D01*
X0149980Y0129592D01*
X0150993Y0130605D01*
X0151541Y0131928D01*
X0151541Y0133360D01*
X0150993Y0134683D01*
X0149980Y0135696D01*
X0149941Y0135712D01*
X0149941Y0143472D01*
X0146941Y0146472D01*
X0145769Y0147644D01*
X0147037Y0146376D02*
X0168372Y0146376D01*
X0168372Y0145577D02*
X0147836Y0145577D01*
X0148634Y0144779D02*
X0168372Y0144779D01*
X0168372Y0143980D02*
X0149433Y0143980D01*
X0149941Y0143182D02*
X0168372Y0143182D01*
X0168372Y0142383D02*
X0149941Y0142383D01*
X0149941Y0141585D02*
X0151575Y0141585D01*
X0150919Y0140786D02*
X0149941Y0140786D01*
X0149941Y0139988D02*
X0150919Y0139988D01*
X0150919Y0139189D02*
X0149941Y0139189D01*
X0149941Y0138391D02*
X0150919Y0138391D01*
X0150919Y0137592D02*
X0149941Y0137592D01*
X0149941Y0136794D02*
X0150919Y0136794D01*
X0151283Y0135995D02*
X0149941Y0135995D01*
X0150479Y0135197D02*
X0152081Y0135197D01*
X0152594Y0134398D02*
X0151111Y0134398D01*
X0151441Y0133600D02*
X0152594Y0133600D01*
X0152594Y0132801D02*
X0151541Y0132801D01*
X0151541Y0132003D02*
X0152594Y0132003D01*
X0152594Y0131204D02*
X0151241Y0131204D01*
X0150794Y0130406D02*
X0152594Y0130406D01*
X0151161Y0129607D02*
X0149995Y0129607D01*
X0150829Y0128809D02*
X0146934Y0128809D01*
X0146135Y0128010D02*
X0150829Y0128010D01*
X0150829Y0127212D02*
X0145337Y0127212D01*
X0145052Y0126413D02*
X0150829Y0126413D01*
X0150829Y0125615D02*
X0145052Y0125615D01*
X0145052Y0124816D02*
X0150829Y0124816D01*
X0150829Y0124018D02*
X0145052Y0124018D01*
X0144259Y0123219D02*
X0151622Y0123219D01*
X0152610Y0122420D02*
X0136610Y0122420D01*
X0136610Y0121622D02*
X0152610Y0121622D01*
X0152610Y0120823D02*
X0136610Y0120823D01*
X0136610Y0120025D02*
X0152610Y0120025D01*
X0152610Y0119226D02*
X0136610Y0119226D01*
X0136610Y0118428D02*
X0152610Y0118428D01*
X0152610Y0117629D02*
X0145879Y0117629D01*
X0145954Y0117499D02*
X0145770Y0117818D01*
X0145509Y0118079D01*
X0145190Y0118263D01*
X0144834Y0118359D01*
X0143265Y0118359D01*
X0143265Y0115771D01*
X0146049Y0115771D01*
X0146049Y0117143D01*
X0145954Y0117499D01*
X0146049Y0116831D02*
X0152610Y0116831D01*
X0152610Y0116032D02*
X0146049Y0116032D01*
X0146049Y0114997D02*
X0143265Y0114997D01*
X0143265Y0115771D01*
X0142490Y0115771D01*
X0142490Y0114997D01*
X0139706Y0114997D01*
X0139706Y0113625D01*
X0139801Y0113269D01*
X0139986Y0112950D01*
X0140246Y0112689D01*
X0140566Y0112505D01*
X0140922Y0112409D01*
X0142490Y0112409D01*
X0142490Y0114996D01*
X0143265Y0114996D01*
X0143265Y0112409D01*
X0144834Y0112409D01*
X0145190Y0112505D01*
X0145509Y0112689D01*
X0145770Y0112950D01*
X0145954Y0113269D01*
X0146049Y0113625D01*
X0146049Y0114997D01*
X0146049Y0114435D02*
X0151792Y0114435D01*
X0151238Y0113637D02*
X0146049Y0113637D01*
X0145658Y0112838D02*
X0151238Y0112838D01*
X0151238Y0112040D02*
X0137982Y0112040D01*
X0137982Y0112838D02*
X0140097Y0112838D01*
X0139706Y0113637D02*
X0137982Y0113637D01*
X0137428Y0114435D02*
X0139706Y0114435D01*
X0139706Y0115771D02*
X0139706Y0117143D01*
X0139801Y0117499D01*
X0139986Y0117818D01*
X0140246Y0118079D01*
X0140566Y0118263D01*
X0140922Y0118359D01*
X0142490Y0118359D01*
X0142490Y0115771D01*
X0139706Y0115771D01*
X0139706Y0116032D02*
X0136610Y0116032D01*
X0136610Y0115234D02*
X0142490Y0115234D01*
X0143265Y0115234D02*
X0152610Y0115234D01*
X0156610Y0115234D02*
X0162490Y0115234D01*
X0162490Y0114997D02*
X0159706Y0114997D01*
X0159706Y0113625D01*
X0159801Y0113269D01*
X0159986Y0112950D01*
X0160246Y0112689D01*
X0160566Y0112505D01*
X0160922Y0112409D01*
X0162490Y0112409D01*
X0162490Y0114996D01*
X0163265Y0114996D01*
X0163265Y0112409D01*
X0164834Y0112409D01*
X0165190Y0112505D01*
X0165509Y0112689D01*
X0165770Y0112950D01*
X0165954Y0113269D01*
X0166049Y0113625D01*
X0166049Y0114997D01*
X0163265Y0114997D01*
X0163265Y0115771D01*
X0166049Y0115771D01*
X0166049Y0117143D01*
X0165954Y0117499D01*
X0165770Y0117818D01*
X0165509Y0118079D01*
X0165190Y0118263D01*
X0164834Y0118359D01*
X0163265Y0118359D01*
X0163265Y0115771D01*
X0162490Y0115771D01*
X0162490Y0114997D01*
X0162490Y0114435D02*
X0163265Y0114435D01*
X0163265Y0113637D02*
X0162490Y0113637D01*
X0162490Y0112838D02*
X0163265Y0112838D01*
X0165658Y0112838D02*
X0172633Y0112838D01*
X0172349Y0113637D02*
X0166049Y0113637D01*
X0166049Y0114435D02*
X0172349Y0114435D01*
X0172349Y0115234D02*
X0163265Y0115234D01*
X0163265Y0116032D02*
X0162490Y0116032D01*
X0162490Y0115771D02*
X0162490Y0118359D01*
X0160922Y0118359D01*
X0160566Y0118263D01*
X0160246Y0118079D01*
X0159986Y0117818D01*
X0159801Y0117499D01*
X0159706Y0117143D01*
X0159706Y0115771D01*
X0162490Y0115771D01*
X0162490Y0116831D02*
X0163265Y0116831D01*
X0163265Y0117629D02*
X0162490Y0117629D01*
X0159877Y0117629D02*
X0156610Y0117629D01*
X0156610Y0116831D02*
X0159706Y0116831D01*
X0159706Y0116032D02*
X0156610Y0116032D01*
X0157428Y0114435D02*
X0159706Y0114435D01*
X0159706Y0113637D02*
X0157982Y0113637D01*
X0157982Y0112838D02*
X0160097Y0112838D01*
X0157982Y0112040D02*
X0195374Y0112040D01*
X0194710Y0111241D02*
X0157982Y0111241D01*
X0157982Y0110443D02*
X0159808Y0110443D01*
X0159506Y0109644D02*
X0157982Y0109644D01*
X0157421Y0108846D02*
X0159506Y0108846D01*
X0159506Y0108047D02*
X0146249Y0108047D01*
X0146249Y0108846D02*
X0151799Y0108846D01*
X0151238Y0109644D02*
X0146249Y0109644D01*
X0145948Y0110443D02*
X0151238Y0110443D01*
X0151238Y0111241D02*
X0137982Y0111241D01*
X0137982Y0110443D02*
X0139808Y0110443D01*
X0139506Y0109644D02*
X0137982Y0109644D01*
X0137421Y0108846D02*
X0139506Y0108846D01*
X0139506Y0108047D02*
X0125941Y0108047D01*
X0125941Y0107249D02*
X0139506Y0107249D01*
X0139506Y0106450D02*
X0125941Y0106450D01*
X0125941Y0105652D02*
X0139520Y0105652D01*
X0140319Y0104853D02*
X0125941Y0104853D01*
X0125941Y0104055D02*
X0143898Y0104055D01*
X0144697Y0103256D02*
X0125941Y0103256D01*
X0125941Y0102458D02*
X0145495Y0102458D01*
X0146294Y0101659D02*
X0125941Y0101659D01*
X0125941Y0100861D02*
X0147092Y0100861D01*
X0148137Y0102644D02*
X0174941Y0102644D01*
X0178941Y0098644D01*
X0178941Y0084644D01*
X0182441Y0081144D01*
X0188041Y0081144D01*
X0216637Y0081144D01*
X0218039Y0082545D01*
X0217086Y0081593D01*
X0218039Y0082545D02*
X0241941Y0106447D01*
X0241941Y0127644D01*
X0244941Y0130644D01*
X0252941Y0130644D01*
X0254634Y0132337D01*
X0254634Y0180597D01*
X0259634Y0185597D01*
X0264934Y0185503D02*
X0266813Y0185503D01*
X0266813Y0186301D02*
X0264934Y0186301D01*
X0264748Y0187100D02*
X0266813Y0187100D01*
X0266813Y0187898D02*
X0264417Y0187898D01*
X0264028Y0188697D02*
X0266813Y0188697D01*
X0266813Y0189495D02*
X0263230Y0189495D01*
X0262143Y0190294D02*
X0266813Y0190294D01*
X0266813Y0191092D02*
X0262609Y0191092D01*
X0263423Y0191891D02*
X0266813Y0191891D01*
X0266813Y0192689D02*
X0264166Y0192689D01*
X0264497Y0193488D02*
X0266813Y0193488D01*
X0266813Y0194287D02*
X0264828Y0194287D01*
X0264934Y0195085D02*
X0266813Y0195085D01*
X0266813Y0195884D02*
X0264934Y0195884D01*
X0264921Y0196682D02*
X0266813Y0196682D01*
X0266813Y0197481D02*
X0264590Y0197481D01*
X0264259Y0198279D02*
X0266813Y0198279D01*
X0266813Y0199078D02*
X0263648Y0199078D01*
X0262849Y0199876D02*
X0266813Y0199876D01*
X0266813Y0200675D02*
X0261224Y0200675D01*
X0262635Y0201473D02*
X0266813Y0201473D01*
X0266813Y0202272D02*
X0263521Y0202272D01*
X0264070Y0203070D02*
X0266813Y0203070D01*
X0266813Y0203869D02*
X0264435Y0203869D01*
X0264650Y0204667D02*
X0266813Y0204667D01*
X0266813Y0205466D02*
X0260034Y0205466D01*
X0264691Y0206264D02*
X0266813Y0206264D01*
X0266813Y0207063D02*
X0264520Y0207063D01*
X0264204Y0207861D02*
X0266813Y0207861D01*
X0266813Y0208660D02*
X0263712Y0208660D01*
X0262984Y0209458D02*
X0266813Y0209458D01*
X0266813Y0210257D02*
X0261721Y0210257D01*
X0262519Y0211055D02*
X0266813Y0211055D01*
X0266813Y0211854D02*
X0263386Y0211854D01*
X0264151Y0212652D02*
X0266813Y0212652D01*
X0266813Y0213451D02*
X0264481Y0213451D01*
X0264812Y0214249D02*
X0266813Y0214249D01*
X0266813Y0215048D02*
X0264934Y0215048D01*
X0264934Y0215846D02*
X0266813Y0215846D01*
X0266813Y0216645D02*
X0264934Y0216645D01*
X0264605Y0217443D02*
X0266813Y0217443D01*
X0266813Y0218242D02*
X0264274Y0218242D01*
X0263685Y0219040D02*
X0266813Y0219040D01*
X0266813Y0219839D02*
X0262887Y0219839D01*
X0261511Y0220637D02*
X0266813Y0220637D01*
X0266813Y0221436D02*
X0262968Y0221436D01*
X0263767Y0222234D02*
X0266813Y0222234D01*
X0266813Y0223033D02*
X0264308Y0223033D01*
X0264639Y0223831D02*
X0266813Y0223831D01*
X0266813Y0224630D02*
X0264934Y0224630D01*
X0264934Y0225428D02*
X0266813Y0225428D01*
X0266813Y0226227D02*
X0264934Y0226227D01*
X0264778Y0227025D02*
X0266813Y0227025D01*
X0266813Y0227824D02*
X0264448Y0227824D01*
X0264103Y0228622D02*
X0266813Y0228622D01*
X0266813Y0229421D02*
X0263304Y0229421D01*
X0262322Y0230220D02*
X0266813Y0230220D01*
X0266813Y0231018D02*
X0260960Y0231018D01*
X0260162Y0231817D02*
X0266813Y0231817D01*
X0233008Y0235809D02*
X0226391Y0235809D01*
X0226391Y0235011D02*
X0232372Y0235011D01*
X0232372Y0234212D02*
X0226391Y0234212D01*
X0226391Y0233414D02*
X0232372Y0233414D01*
X0232372Y0232615D02*
X0226391Y0232615D01*
X0226391Y0231817D02*
X0232066Y0231817D01*
X0231267Y0231018D02*
X0226391Y0231018D01*
X0226391Y0230220D02*
X0230469Y0230220D01*
X0229670Y0229421D02*
X0227158Y0229421D01*
X0227956Y0228622D02*
X0228872Y0228622D01*
X0226541Y0220637D02*
X0220341Y0220637D01*
X0220341Y0221436D02*
X0219541Y0221436D01*
X0219541Y0222234D02*
X0220341Y0222234D01*
X0220341Y0223033D02*
X0219541Y0223033D01*
X0219541Y0223831D02*
X0220341Y0223831D01*
X0216746Y0223831D02*
X0197052Y0223831D01*
X0197052Y0223033D02*
X0216572Y0223033D01*
X0216572Y0222234D02*
X0197052Y0222234D01*
X0197052Y0221436D02*
X0216572Y0221436D01*
X0216572Y0219839D02*
X0195341Y0219839D01*
X0195341Y0219040D02*
X0216572Y0219040D01*
X0216692Y0218242D02*
X0195341Y0218242D01*
X0195341Y0217443D02*
X0216690Y0217443D01*
X0216372Y0216645D02*
X0195341Y0216645D01*
X0196677Y0220637D02*
X0219541Y0220637D01*
X0216372Y0215846D02*
X0212615Y0215846D01*
X0209500Y0213644D02*
X0209452Y0213597D01*
X0205884Y0213451D02*
X0201997Y0213451D01*
X0201997Y0214249D02*
X0205884Y0214249D01*
X0205884Y0215048D02*
X0201997Y0215048D01*
X0201591Y0215846D02*
X0206290Y0215846D01*
X0205884Y0212652D02*
X0201997Y0212652D01*
X0213021Y0211055D02*
X0216786Y0211055D01*
X0213021Y0210257D02*
X0223159Y0210257D01*
X0223095Y0211055D02*
X0223958Y0211055D01*
X0223509Y0211854D02*
X0224756Y0211854D01*
X0225555Y0212652D02*
X0223509Y0212652D01*
X0223509Y0213451D02*
X0226354Y0213451D01*
X0229335Y0199078D02*
X0245619Y0199078D01*
X0245008Y0198279D02*
X0230134Y0198279D01*
X0230932Y0197481D02*
X0244677Y0197481D01*
X0244347Y0196682D02*
X0231731Y0196682D01*
X0232529Y0195884D02*
X0244334Y0195884D01*
X0244334Y0195085D02*
X0233328Y0195085D01*
X0233941Y0194287D02*
X0244440Y0194287D01*
X0244770Y0193488D02*
X0233941Y0193488D01*
X0233941Y0192689D02*
X0245101Y0192689D01*
X0244359Y0191891D02*
X0233941Y0191891D01*
X0233941Y0191092D02*
X0243561Y0191092D01*
X0242762Y0190294D02*
X0233941Y0190294D01*
X0233941Y0189495D02*
X0241964Y0189495D01*
X0241165Y0188697D02*
X0233941Y0188697D01*
X0233941Y0187898D02*
X0240367Y0187898D01*
X0242830Y0184704D02*
X0244611Y0184704D01*
X0244659Y0184402D02*
X0244534Y0185195D01*
X0244534Y0185197D01*
X0249233Y0185197D01*
X0249233Y0185997D01*
X0244534Y0185997D01*
X0244534Y0185998D01*
X0244611Y0186486D01*
X0239941Y0181815D01*
X0239941Y0170472D01*
X0239941Y0168815D01*
X0221350Y0150225D01*
X0220179Y0149053D01*
X0193274Y0149053D01*
X0194052Y0148275D01*
X0194052Y0143013D01*
X0193115Y0142075D01*
X0192287Y0142075D01*
X0192287Y0126126D01*
X0193215Y0125198D01*
X0193215Y0125275D01*
X0194028Y0126089D01*
X0193215Y0126902D01*
X0193215Y0132165D01*
X0194152Y0133102D01*
X0200595Y0133102D01*
X0201533Y0132165D01*
X0201533Y0131534D01*
X0217309Y0131534D01*
X0243372Y0157597D01*
X0244725Y0157597D01*
X0245140Y0158599D01*
X0246631Y0160090D01*
X0247855Y0160597D01*
X0246631Y0161103D01*
X0245140Y0162594D01*
X0244334Y0164542D01*
X0244334Y0166651D01*
X0245140Y0168599D01*
X0246631Y0170090D01*
X0247855Y0170597D01*
X0246631Y0171103D01*
X0245140Y0172594D01*
X0244334Y0174542D01*
X0244334Y0176651D01*
X0245140Y0178599D01*
X0246631Y0180090D01*
X0248147Y0180717D01*
X0247676Y0180870D01*
X0246961Y0181235D01*
X0246311Y0181706D01*
X0245743Y0182274D01*
X0245272Y0182924D01*
X0244907Y0183639D01*
X0244659Y0184402D01*
X0244820Y0183906D02*
X0242031Y0183906D01*
X0241233Y0183107D02*
X0245178Y0183107D01*
X0245718Y0182309D02*
X0240434Y0182309D01*
X0239941Y0181510D02*
X0246581Y0181510D01*
X0246455Y0179913D02*
X0239941Y0179913D01*
X0239941Y0179115D02*
X0245656Y0179115D01*
X0245023Y0178316D02*
X0239941Y0178316D01*
X0239941Y0177518D02*
X0244693Y0177518D01*
X0244362Y0176719D02*
X0239941Y0176719D01*
X0239941Y0175921D02*
X0244334Y0175921D01*
X0244334Y0175122D02*
X0239941Y0175122D01*
X0239941Y0174324D02*
X0244424Y0174324D01*
X0244755Y0173525D02*
X0239941Y0173525D01*
X0239941Y0172727D02*
X0245086Y0172727D01*
X0245807Y0171928D02*
X0239941Y0171928D01*
X0239941Y0171130D02*
X0246605Y0171130D01*
X0247214Y0170331D02*
X0239941Y0170331D01*
X0239941Y0169533D02*
X0246074Y0169533D01*
X0245276Y0168734D02*
X0239859Y0168734D01*
X0239061Y0167936D02*
X0244866Y0167936D01*
X0244535Y0167137D02*
X0238262Y0167137D01*
X0237464Y0166339D02*
X0244334Y0166339D01*
X0244334Y0165540D02*
X0236665Y0165540D01*
X0235867Y0164742D02*
X0244334Y0164742D01*
X0244582Y0163943D02*
X0235068Y0163943D01*
X0234270Y0163145D02*
X0244913Y0163145D01*
X0245389Y0162346D02*
X0233471Y0162346D01*
X0232673Y0161548D02*
X0246187Y0161548D01*
X0247487Y0160749D02*
X0231874Y0160749D01*
X0231076Y0159951D02*
X0246492Y0159951D01*
X0245694Y0159152D02*
X0230277Y0159152D01*
X0229479Y0158353D02*
X0245039Y0158353D01*
X0243330Y0157555D02*
X0228680Y0157555D01*
X0227882Y0156756D02*
X0242532Y0156756D01*
X0241733Y0155958D02*
X0227083Y0155958D01*
X0226285Y0155159D02*
X0240935Y0155159D01*
X0240136Y0154361D02*
X0225486Y0154361D01*
X0224688Y0153562D02*
X0239338Y0153562D01*
X0238539Y0152764D02*
X0223889Y0152764D01*
X0223091Y0151965D02*
X0237741Y0151965D01*
X0236942Y0151167D02*
X0222292Y0151167D01*
X0221494Y0150368D02*
X0236144Y0150368D01*
X0235345Y0149570D02*
X0220695Y0149570D01*
X0219350Y0151053D02*
X0186941Y0151053D01*
X0186941Y0118644D01*
X0189830Y0115754D01*
X0197374Y0115754D01*
X0197374Y0111077D01*
X0194200Y0107904D01*
X0188200Y0107904D01*
X0188200Y0096882D01*
X0188041Y0096144D01*
X0188041Y0091144D02*
X0218441Y0091144D01*
X0228941Y0101644D01*
X0228941Y0110297D01*
X0228626Y0109982D01*
X0224933Y0109982D01*
X0216271Y0118644D01*
X0216618Y0115469D02*
X0213837Y0115469D01*
X0212900Y0116406D01*
X0212900Y0120881D01*
X0213837Y0121819D01*
X0218706Y0121819D01*
X0219643Y0120881D01*
X0219643Y0118101D01*
X0225372Y0112371D01*
X0225372Y0113125D01*
X0225891Y0113644D01*
X0225372Y0114162D01*
X0225372Y0119818D01*
X0226309Y0120756D01*
X0226941Y0120756D01*
X0226941Y0131472D01*
X0243065Y0147597D01*
X0244725Y0147597D01*
X0245140Y0148599D01*
X0246631Y0150090D01*
X0247855Y0150597D01*
X0246631Y0151103D01*
X0245140Y0152594D01*
X0244814Y0153382D01*
X0220137Y0128705D01*
X0218966Y0127534D01*
X0201533Y0127534D01*
X0201533Y0126902D01*
X0200719Y0126089D01*
X0201533Y0125275D01*
X0201533Y0124384D01*
X0204632Y0124384D01*
X0204632Y0124621D01*
X0205569Y0125559D01*
X0210438Y0125559D01*
X0211375Y0124621D01*
X0211375Y0120146D01*
X0210438Y0119209D01*
X0205569Y0119209D01*
X0204632Y0120146D01*
X0204632Y0120384D01*
X0201533Y0120384D01*
X0201533Y0120013D01*
X0200719Y0119199D01*
X0201533Y0118385D01*
X0201533Y0113123D01*
X0200595Y0112186D01*
X0199374Y0112186D01*
X0199374Y0111905D01*
X0199374Y0110248D01*
X0195029Y0105904D01*
X0190200Y0105904D01*
X0190200Y0099044D01*
X0192703Y0099044D01*
X0193641Y0098107D01*
X0193641Y0094181D01*
X0193103Y0093644D01*
X0193603Y0093144D01*
X0217612Y0093144D01*
X0226941Y0102472D01*
X0226941Y0106532D01*
X0226309Y0106532D01*
X0225372Y0107469D01*
X0225372Y0107982D01*
X0224104Y0107982D01*
X0222933Y0109154D01*
X0216618Y0115469D01*
X0216853Y0115234D02*
X0208391Y0115234D01*
X0208391Y0115291D02*
X0211175Y0115291D01*
X0211175Y0116663D01*
X0211080Y0117019D01*
X0210896Y0117338D01*
X0210635Y0117599D01*
X0210316Y0117783D01*
X0209960Y0117878D01*
X0208391Y0117878D01*
X0208391Y0115291D01*
X0207616Y0115291D01*
X0207616Y0114516D01*
X0208391Y0114516D01*
X0208391Y0111929D01*
X0209960Y0111929D01*
X0210316Y0112024D01*
X0210635Y0112209D01*
X0210896Y0112469D01*
X0211080Y0112788D01*
X0211175Y0113145D01*
X0211175Y0114516D01*
X0208391Y0114516D01*
X0208391Y0115291D01*
X0208391Y0116032D02*
X0207616Y0116032D01*
X0207616Y0115291D02*
X0207616Y0117878D01*
X0206048Y0117878D01*
X0205692Y0117783D01*
X0205372Y0117599D01*
X0205112Y0117338D01*
X0204927Y0117019D01*
X0204832Y0116663D01*
X0204832Y0115291D01*
X0207616Y0115291D01*
X0207616Y0115234D02*
X0201533Y0115234D01*
X0201533Y0116032D02*
X0204832Y0116032D01*
X0204877Y0116831D02*
X0201533Y0116831D01*
X0201533Y0117629D02*
X0205426Y0117629D01*
X0205552Y0119226D02*
X0200747Y0119226D01*
X0201490Y0118428D02*
X0212900Y0118428D01*
X0212900Y0119226D02*
X0210455Y0119226D01*
X0211254Y0120025D02*
X0212900Y0120025D01*
X0212900Y0120823D02*
X0211375Y0120823D01*
X0211375Y0121622D02*
X0213640Y0121622D01*
X0211375Y0122420D02*
X0226941Y0122420D01*
X0226941Y0121622D02*
X0218902Y0121622D01*
X0219643Y0120823D02*
X0226941Y0120823D01*
X0225579Y0120025D02*
X0219643Y0120025D01*
X0219643Y0119226D02*
X0225372Y0119226D01*
X0225372Y0118428D02*
X0219643Y0118428D01*
X0220114Y0117629D02*
X0225372Y0117629D01*
X0225372Y0116831D02*
X0220913Y0116831D01*
X0221711Y0116032D02*
X0225372Y0116032D01*
X0225372Y0115234D02*
X0222510Y0115234D01*
X0223308Y0114435D02*
X0225372Y0114435D01*
X0225884Y0113637D02*
X0224107Y0113637D01*
X0224905Y0112838D02*
X0225372Y0112838D01*
X0222442Y0109644D02*
X0198770Y0109644D01*
X0199374Y0110443D02*
X0221644Y0110443D01*
X0220845Y0111241D02*
X0199374Y0111241D01*
X0199374Y0112040D02*
X0205665Y0112040D01*
X0205692Y0112024D02*
X0206048Y0111929D01*
X0207616Y0111929D01*
X0207616Y0114516D01*
X0204832Y0114516D01*
X0204832Y0113145D01*
X0204927Y0112788D01*
X0205112Y0112469D01*
X0205372Y0112209D01*
X0205692Y0112024D01*
X0204914Y0112838D02*
X0201248Y0112838D01*
X0201533Y0113637D02*
X0204832Y0113637D01*
X0204832Y0114435D02*
X0201533Y0114435D01*
X0201533Y0120025D02*
X0204753Y0120025D01*
X0207616Y0117629D02*
X0208391Y0117629D01*
X0208391Y0116831D02*
X0207616Y0116831D01*
X0207616Y0114435D02*
X0208391Y0114435D01*
X0208391Y0113637D02*
X0207616Y0113637D01*
X0207616Y0112838D02*
X0208391Y0112838D01*
X0208391Y0112040D02*
X0207616Y0112040D01*
X0210343Y0112040D02*
X0220047Y0112040D01*
X0219248Y0112838D02*
X0211093Y0112838D01*
X0211175Y0113637D02*
X0218450Y0113637D01*
X0217651Y0114435D02*
X0211175Y0114435D01*
X0211175Y0116032D02*
X0213274Y0116032D01*
X0212900Y0116831D02*
X0211130Y0116831D01*
X0210582Y0117629D02*
X0212900Y0117629D01*
X0211375Y0123219D02*
X0226941Y0123219D01*
X0226941Y0124018D02*
X0211375Y0124018D01*
X0211181Y0124816D02*
X0226941Y0124816D01*
X0226941Y0125615D02*
X0201193Y0125615D01*
X0201043Y0126413D02*
X0226941Y0126413D01*
X0226941Y0127212D02*
X0201533Y0127212D01*
X0201533Y0124816D02*
X0204827Y0124816D01*
X0208004Y0122384D02*
X0197941Y0122384D01*
X0197681Y0122644D01*
X0192941Y0122644D01*
X0190287Y0125297D01*
X0190287Y0145644D01*
X0194052Y0145577D02*
X0231353Y0145577D01*
X0230554Y0144779D02*
X0194052Y0144779D01*
X0194052Y0143980D02*
X0229756Y0143980D01*
X0228957Y0143182D02*
X0194052Y0143182D01*
X0193423Y0142383D02*
X0228159Y0142383D01*
X0227360Y0141585D02*
X0192287Y0141585D01*
X0192287Y0140786D02*
X0226562Y0140786D01*
X0225763Y0139988D02*
X0192287Y0139988D01*
X0192287Y0139189D02*
X0224965Y0139189D01*
X0224166Y0138391D02*
X0192287Y0138391D01*
X0192287Y0137592D02*
X0223368Y0137592D01*
X0222569Y0136794D02*
X0192287Y0136794D01*
X0192287Y0135995D02*
X0221771Y0135995D01*
X0220972Y0135197D02*
X0192287Y0135197D01*
X0192287Y0134398D02*
X0220174Y0134398D01*
X0219375Y0133600D02*
X0192287Y0133600D01*
X0192287Y0132801D02*
X0193851Y0132801D01*
X0193215Y0132003D02*
X0192287Y0132003D01*
X0192287Y0131204D02*
X0193215Y0131204D01*
X0193215Y0130406D02*
X0192287Y0130406D01*
X0192287Y0129607D02*
X0193215Y0129607D01*
X0193215Y0128809D02*
X0192287Y0128809D01*
X0192287Y0128010D02*
X0193215Y0128010D01*
X0193215Y0127212D02*
X0192287Y0127212D01*
X0192287Y0126413D02*
X0193704Y0126413D01*
X0193554Y0125615D02*
X0192798Y0125615D01*
X0197374Y0122644D02*
X0197634Y0122384D01*
X0197941Y0122384D01*
X0197374Y0129534D02*
X0218137Y0129534D01*
X0244200Y0155597D01*
X0249634Y0155597D01*
X0245769Y0151965D02*
X0243398Y0151965D01*
X0242599Y0151167D02*
X0246568Y0151167D01*
X0247304Y0150368D02*
X0241801Y0150368D01*
X0241002Y0149570D02*
X0246112Y0149570D01*
X0245313Y0148771D02*
X0240204Y0148771D01*
X0239405Y0147973D02*
X0244881Y0147973D01*
X0242643Y0147174D02*
X0238607Y0147174D01*
X0237808Y0146376D02*
X0241844Y0146376D01*
X0241046Y0145577D02*
X0237010Y0145577D01*
X0236211Y0144779D02*
X0240247Y0144779D01*
X0239449Y0143980D02*
X0235413Y0143980D01*
X0234614Y0143182D02*
X0238650Y0143182D01*
X0237852Y0142383D02*
X0233816Y0142383D01*
X0233017Y0141585D02*
X0237053Y0141585D01*
X0236255Y0140786D02*
X0232219Y0140786D01*
X0231420Y0139988D02*
X0235456Y0139988D01*
X0234658Y0139189D02*
X0230622Y0139189D01*
X0229823Y0138391D02*
X0233859Y0138391D01*
X0233061Y0137592D02*
X0229025Y0137592D01*
X0228226Y0136794D02*
X0232262Y0136794D01*
X0231464Y0135995D02*
X0227428Y0135995D01*
X0226629Y0135197D02*
X0230665Y0135197D01*
X0229867Y0134398D02*
X0225830Y0134398D01*
X0225032Y0133600D02*
X0229068Y0133600D01*
X0228270Y0132801D02*
X0224233Y0132801D01*
X0223435Y0132003D02*
X0227471Y0132003D01*
X0226941Y0131204D02*
X0222636Y0131204D01*
X0221838Y0130406D02*
X0226941Y0130406D01*
X0226941Y0129607D02*
X0221039Y0129607D01*
X0220241Y0128809D02*
X0226941Y0128809D01*
X0226941Y0128010D02*
X0219442Y0128010D01*
X0217778Y0132003D02*
X0201533Y0132003D01*
X0200896Y0132801D02*
X0218577Y0132801D01*
X0228941Y0130644D02*
X0243893Y0145597D01*
X0249634Y0145597D01*
X0245070Y0152764D02*
X0244196Y0152764D01*
X0234547Y0148771D02*
X0193556Y0148771D01*
X0194052Y0147973D02*
X0233748Y0147973D01*
X0232950Y0147174D02*
X0194052Y0147174D01*
X0194052Y0146376D02*
X0232151Y0146376D01*
X0219829Y0154361D02*
X0175030Y0154361D01*
X0175509Y0153562D02*
X0219031Y0153562D01*
X0219350Y0151053D02*
X0237941Y0169644D01*
X0237941Y0182644D01*
X0245941Y0190644D01*
X0254681Y0190644D01*
X0259634Y0195597D01*
X0264934Y0184704D02*
X0266813Y0184704D01*
X0266813Y0183906D02*
X0264670Y0183906D01*
X0264339Y0183107D02*
X0266813Y0183107D01*
X0266813Y0182309D02*
X0263841Y0182309D01*
X0263043Y0181510D02*
X0266813Y0181510D01*
X0266813Y0180712D02*
X0261690Y0180712D01*
X0262812Y0179913D02*
X0266813Y0179913D01*
X0266813Y0179115D02*
X0263611Y0179115D01*
X0264244Y0178316D02*
X0266813Y0178316D01*
X0266813Y0177518D02*
X0264574Y0177518D01*
X0264905Y0176719D02*
X0266813Y0176719D01*
X0266813Y0175921D02*
X0264934Y0175921D01*
X0264934Y0175122D02*
X0266813Y0175122D01*
X0266813Y0174324D02*
X0264843Y0174324D01*
X0264512Y0173525D02*
X0266813Y0173525D01*
X0266813Y0172727D02*
X0264181Y0172727D01*
X0263461Y0171928D02*
X0266813Y0171928D01*
X0266813Y0171130D02*
X0262662Y0171130D01*
X0261566Y0170331D02*
X0266813Y0170331D01*
X0266813Y0169533D02*
X0262893Y0169533D01*
X0263658Y0168734D02*
X0266813Y0168734D01*
X0266813Y0167936D02*
X0264166Y0167936D01*
X0264495Y0167137D02*
X0266813Y0167137D01*
X0266813Y0166339D02*
X0264680Y0166339D01*
X0264662Y0164742D02*
X0266813Y0164742D01*
X0266813Y0165540D02*
X0260034Y0165540D01*
X0264459Y0163943D02*
X0266813Y0163943D01*
X0266813Y0163145D02*
X0264108Y0163145D01*
X0263576Y0162346D02*
X0266813Y0162346D01*
X0266813Y0161548D02*
X0262737Y0161548D01*
X0262775Y0159951D02*
X0266813Y0159951D01*
X0266813Y0160749D02*
X0261218Y0160749D01*
X0263573Y0159152D02*
X0266813Y0159152D01*
X0266813Y0158353D02*
X0264228Y0158353D01*
X0264559Y0157555D02*
X0266813Y0157555D01*
X0266813Y0156756D02*
X0264890Y0156756D01*
X0264934Y0155958D02*
X0266813Y0155958D01*
X0266813Y0155159D02*
X0264934Y0155159D01*
X0264858Y0154361D02*
X0266813Y0154361D01*
X0266813Y0153562D02*
X0264528Y0153562D01*
X0264197Y0152764D02*
X0266813Y0152764D01*
X0266813Y0151965D02*
X0263498Y0151965D01*
X0262699Y0151167D02*
X0266813Y0151167D01*
X0266813Y0150368D02*
X0261963Y0150368D01*
X0263156Y0149570D02*
X0266813Y0149570D01*
X0266813Y0148771D02*
X0263954Y0148771D01*
X0264386Y0147973D02*
X0266813Y0147973D01*
X0266813Y0147174D02*
X0264717Y0147174D01*
X0264934Y0146376D02*
X0266813Y0146376D01*
X0266813Y0145577D02*
X0264934Y0145577D01*
X0264934Y0144779D02*
X0266813Y0144779D01*
X0266813Y0143980D02*
X0264701Y0143980D01*
X0264370Y0143182D02*
X0266813Y0143182D01*
X0266813Y0142383D02*
X0263916Y0142383D01*
X0263117Y0141585D02*
X0266813Y0141585D01*
X0266813Y0140786D02*
X0261870Y0140786D01*
X0262249Y0139988D02*
X0266813Y0139988D01*
X0266813Y0139189D02*
X0263253Y0139189D01*
X0263907Y0138391D02*
X0266813Y0138391D01*
X0266813Y0137592D02*
X0264341Y0137592D01*
X0264607Y0136794D02*
X0266813Y0136794D01*
X0266813Y0134398D02*
X0264607Y0134398D01*
X0264340Y0133600D02*
X0266813Y0133600D01*
X0266813Y0132801D02*
X0263906Y0132801D01*
X0263252Y0132003D02*
X0266813Y0132003D01*
X0266813Y0131204D02*
X0262247Y0131204D01*
X0261873Y0130406D02*
X0266813Y0130406D01*
X0266813Y0129607D02*
X0263118Y0129607D01*
X0263917Y0128809D02*
X0266813Y0128809D01*
X0266813Y0128010D02*
X0264371Y0128010D01*
X0264701Y0127212D02*
X0266813Y0127212D01*
X0266813Y0126413D02*
X0264934Y0126413D01*
X0264934Y0125615D02*
X0266813Y0125615D01*
X0266813Y0124816D02*
X0264934Y0124816D01*
X0264716Y0124018D02*
X0266813Y0124018D01*
X0266813Y0123219D02*
X0264385Y0123219D01*
X0263953Y0122420D02*
X0266813Y0122420D01*
X0266813Y0121622D02*
X0263154Y0121622D01*
X0261960Y0120823D02*
X0266813Y0120823D01*
X0266813Y0120025D02*
X0262700Y0120025D01*
X0263499Y0119226D02*
X0266813Y0119226D01*
X0266813Y0118428D02*
X0264197Y0118428D01*
X0264528Y0117629D02*
X0266813Y0117629D01*
X0266813Y0116831D02*
X0264859Y0116831D01*
X0264934Y0116032D02*
X0266813Y0116032D01*
X0266813Y0115234D02*
X0264934Y0115234D01*
X0264889Y0114435D02*
X0266813Y0114435D01*
X0266813Y0113637D02*
X0264558Y0113637D01*
X0264228Y0112838D02*
X0266813Y0112838D01*
X0266813Y0112040D02*
X0263572Y0112040D01*
X0262774Y0111241D02*
X0266813Y0111241D01*
X0266813Y0110443D02*
X0261783Y0110443D01*
X0263081Y0109644D02*
X0266813Y0109644D01*
X0266813Y0108846D02*
X0263880Y0108846D01*
X0264355Y0108047D02*
X0266813Y0108047D01*
X0266813Y0107249D02*
X0264686Y0107249D01*
X0264934Y0106450D02*
X0266813Y0106450D01*
X0266813Y0105652D02*
X0264934Y0105652D01*
X0264934Y0104853D02*
X0266813Y0104853D01*
X0266813Y0104055D02*
X0264732Y0104055D01*
X0264401Y0103256D02*
X0266813Y0103256D01*
X0266813Y0102458D02*
X0263990Y0102458D01*
X0263192Y0101659D02*
X0266813Y0101659D01*
X0266813Y0100861D02*
X0262050Y0100861D01*
X0262663Y0100062D02*
X0266813Y0100062D01*
X0266813Y0099264D02*
X0263462Y0099264D01*
X0264182Y0098465D02*
X0266813Y0098465D01*
X0266813Y0097667D02*
X0264513Y0097667D01*
X0264844Y0096868D02*
X0266813Y0096868D01*
X0266813Y0096070D02*
X0264934Y0096070D01*
X0264934Y0095271D02*
X0266813Y0095271D01*
X0266813Y0094473D02*
X0264905Y0094473D01*
X0264574Y0093674D02*
X0266813Y0093674D01*
X0266813Y0092876D02*
X0264243Y0092876D01*
X0263609Y0092077D02*
X0266813Y0092077D01*
X0266813Y0091279D02*
X0262811Y0091279D01*
X0262688Y0089682D02*
X0266813Y0089682D01*
X0266813Y0090480D02*
X0261131Y0090480D01*
X0263550Y0088883D02*
X0266813Y0088883D01*
X0266813Y0088084D02*
X0264090Y0088084D01*
X0264447Y0087286D02*
X0266813Y0087286D01*
X0266813Y0086487D02*
X0264656Y0086487D01*
X0264685Y0084890D02*
X0266813Y0084890D01*
X0266813Y0084092D02*
X0264507Y0084092D01*
X0264184Y0083293D02*
X0266813Y0083293D01*
X0266813Y0082495D02*
X0263684Y0082495D01*
X0262942Y0081696D02*
X0266813Y0081696D01*
X0266813Y0080898D02*
X0261646Y0080898D01*
X0262612Y0080099D02*
X0266813Y0080099D01*
X0266813Y0079301D02*
X0263425Y0079301D01*
X0264167Y0078502D02*
X0266813Y0078502D01*
X0266813Y0077704D02*
X0264497Y0077704D01*
X0264828Y0076905D02*
X0266813Y0076905D01*
X0266813Y0076107D02*
X0264934Y0076107D01*
X0264934Y0075308D02*
X0266813Y0075308D01*
X0266813Y0074510D02*
X0264920Y0074510D01*
X0264589Y0073711D02*
X0266813Y0073711D01*
X0266813Y0072913D02*
X0264259Y0072913D01*
X0263647Y0072114D02*
X0266813Y0072114D01*
X0266813Y0071316D02*
X0262848Y0071316D01*
X0262636Y0069719D02*
X0266813Y0069719D01*
X0266813Y0070517D02*
X0261221Y0070517D01*
X0263522Y0068920D02*
X0266813Y0068920D01*
X0266813Y0068122D02*
X0264071Y0068122D01*
X0264435Y0067323D02*
X0266813Y0067323D01*
X0266813Y0066525D02*
X0264650Y0066525D01*
X0264691Y0064928D02*
X0266813Y0064928D01*
X0266813Y0065726D02*
X0260034Y0065726D01*
X0264519Y0064129D02*
X0266813Y0064129D01*
X0266813Y0063331D02*
X0264203Y0063331D01*
X0263711Y0062532D02*
X0266813Y0062532D01*
X0266813Y0061734D02*
X0262983Y0061734D01*
X0261719Y0060935D02*
X0266813Y0060935D01*
X0266813Y0060137D02*
X0262522Y0060137D01*
X0263387Y0059338D02*
X0266813Y0059338D01*
X0266813Y0058540D02*
X0264151Y0058540D01*
X0264482Y0057741D02*
X0266813Y0057741D01*
X0266813Y0056943D02*
X0264813Y0056943D01*
X0264934Y0056144D02*
X0266813Y0056144D01*
X0266813Y0055346D02*
X0264934Y0055346D01*
X0264934Y0054547D02*
X0266813Y0054547D01*
X0266813Y0053749D02*
X0264605Y0053749D01*
X0264274Y0052950D02*
X0266813Y0052950D01*
X0266813Y0052151D02*
X0263684Y0052151D01*
X0262885Y0051353D02*
X0266813Y0051353D01*
X0266813Y0050554D02*
X0261514Y0050554D01*
X0262969Y0049756D02*
X0266813Y0049756D01*
X0266813Y0048957D02*
X0263768Y0048957D01*
X0264309Y0048159D02*
X0266813Y0048159D01*
X0266813Y0047360D02*
X0264640Y0047360D01*
X0264934Y0046562D02*
X0266813Y0046562D01*
X0266813Y0045763D02*
X0264934Y0045763D01*
X0264934Y0044965D02*
X0266813Y0044965D01*
X0266813Y0044166D02*
X0264778Y0044166D01*
X0264447Y0043368D02*
X0266813Y0043368D01*
X0266813Y0042569D02*
X0264102Y0042569D01*
X0263303Y0041771D02*
X0266813Y0041771D01*
X0266813Y0040972D02*
X0262319Y0040972D01*
X0262433Y0040174D02*
X0266813Y0040174D01*
X0266813Y0039375D02*
X0263350Y0039375D01*
X0264136Y0038577D02*
X0266813Y0038577D01*
X0266813Y0037778D02*
X0264467Y0037778D01*
X0264797Y0036980D02*
X0266813Y0036980D01*
X0266813Y0036181D02*
X0264934Y0036181D01*
X0264934Y0035383D02*
X0266813Y0035383D01*
X0266813Y0034584D02*
X0264934Y0034584D01*
X0264620Y0033786D02*
X0266813Y0033786D01*
X0266813Y0032987D02*
X0264289Y0032987D01*
X0263721Y0032189D02*
X0266813Y0032189D01*
X0266813Y0031390D02*
X0262923Y0031390D01*
X0261400Y0030592D02*
X0266813Y0030592D01*
X0266813Y0029793D02*
X0049541Y0029793D01*
X0049541Y0028995D02*
X0266813Y0028995D01*
X0257867Y0030592D02*
X0250636Y0030592D01*
X0250034Y0030592D02*
X0249234Y0030592D01*
X0248631Y0030592D02*
X0049541Y0030592D01*
X0049541Y0031390D02*
X0246746Y0031390D01*
X0245829Y0032189D02*
X0049541Y0032189D01*
X0049541Y0032987D02*
X0245239Y0032987D01*
X0244859Y0033786D02*
X0049541Y0033786D01*
X0049541Y0034584D02*
X0244630Y0034584D01*
X0244563Y0036181D02*
X0049541Y0036181D01*
X0049541Y0035383D02*
X0249233Y0035383D01*
X0249234Y0034584D02*
X0250034Y0034584D01*
X0250034Y0033786D02*
X0249234Y0033786D01*
X0249234Y0032987D02*
X0250034Y0032987D01*
X0250034Y0032189D02*
X0249234Y0032189D01*
X0249234Y0031390D02*
X0250034Y0031390D01*
X0252521Y0031390D02*
X0256345Y0031390D01*
X0255546Y0032189D02*
X0253438Y0032189D01*
X0254028Y0032987D02*
X0254978Y0032987D01*
X0254647Y0033786D02*
X0254408Y0033786D01*
X0247383Y0040174D02*
X0049541Y0040174D01*
X0049541Y0040972D02*
X0246948Y0040972D01*
X0245964Y0041771D02*
X0049541Y0041771D01*
X0049541Y0042569D02*
X0245165Y0042569D01*
X0244820Y0043368D02*
X0049541Y0043368D01*
X0049541Y0044166D02*
X0244489Y0044166D01*
X0244334Y0044965D02*
X0049541Y0044965D01*
X0049541Y0045763D02*
X0076658Y0045763D01*
X0076341Y0046081D02*
X0077278Y0045144D01*
X0108603Y0045144D01*
X0109541Y0046081D01*
X0109541Y0056307D01*
X0108603Y0057244D01*
X0077278Y0057244D01*
X0076341Y0056307D01*
X0076341Y0046081D01*
X0076341Y0046562D02*
X0049541Y0046562D01*
X0049541Y0047360D02*
X0076341Y0047360D01*
X0076341Y0048159D02*
X0049541Y0048159D01*
X0049541Y0048957D02*
X0076341Y0048957D01*
X0076341Y0049756D02*
X0049541Y0049756D01*
X0049541Y0050554D02*
X0076341Y0050554D01*
X0076341Y0051353D02*
X0049541Y0051353D01*
X0049541Y0052151D02*
X0076341Y0052151D01*
X0076341Y0052950D02*
X0049541Y0052950D01*
X0049541Y0053749D02*
X0076341Y0053749D01*
X0076341Y0054547D02*
X0049541Y0054547D01*
X0049541Y0055346D02*
X0076341Y0055346D01*
X0076341Y0056144D02*
X0049541Y0056144D01*
X0049541Y0056943D02*
X0076977Y0056943D01*
X0094517Y0068044D02*
X0094888Y0067673D01*
X0095342Y0067411D01*
X0095848Y0067275D01*
X0097088Y0067275D01*
X0097088Y0070244D01*
X0094119Y0070244D01*
X0094119Y0069004D01*
X0094255Y0068498D01*
X0094517Y0068044D01*
X0094472Y0068122D02*
X0049541Y0068122D01*
X0049541Y0068920D02*
X0094142Y0068920D01*
X0094119Y0069719D02*
X0049541Y0069719D01*
X0049541Y0070517D02*
X0097088Y0070517D01*
X0097088Y0070244D02*
X0097088Y0071044D01*
X0097088Y0074012D01*
X0095848Y0074012D01*
X0095342Y0073877D01*
X0094888Y0073615D01*
X0094517Y0073244D01*
X0094255Y0072790D01*
X0094119Y0072284D01*
X0094119Y0071044D01*
X0097088Y0071044D01*
X0097888Y0071044D01*
X0097888Y0074012D01*
X0099128Y0074012D01*
X0099634Y0073877D01*
X0100088Y0073615D01*
X0100459Y0073244D01*
X0100721Y0072790D01*
X0100825Y0072401D01*
X0100825Y0072929D01*
X0102108Y0074212D01*
X0106679Y0074212D01*
X0107962Y0072929D01*
X0107962Y0072644D01*
X0110829Y0072644D01*
X0110829Y0073275D01*
X0111766Y0074212D01*
X0117422Y0074212D01*
X0117941Y0073694D01*
X0118459Y0074212D01*
X0124115Y0074212D01*
X0125052Y0073275D01*
X0125052Y0072644D01*
X0131112Y0072644D01*
X0133652Y0075183D01*
X0133652Y0076298D01*
X0134152Y0077507D01*
X0135078Y0078432D01*
X0136286Y0078933D01*
X0137595Y0078933D01*
X0138804Y0078432D01*
X0139729Y0077507D01*
X0140230Y0076298D01*
X0140230Y0074990D01*
X0139729Y0073781D01*
X0138804Y0072856D01*
X0137595Y0072355D01*
X0136480Y0072355D01*
X0132769Y0068644D01*
X0125052Y0068644D01*
X0125052Y0068013D01*
X0124115Y0067075D01*
X0118459Y0067075D01*
X0117941Y0067594D01*
X0117422Y0067075D01*
X0111766Y0067075D01*
X0110829Y0068013D01*
X0110829Y0068644D01*
X0107962Y0068644D01*
X0107962Y0068358D01*
X0106679Y0067075D01*
X0102108Y0067075D01*
X0100825Y0068358D01*
X0100825Y0068886D01*
X0100721Y0068498D01*
X0100459Y0068044D01*
X0100088Y0067673D01*
X0099634Y0067411D01*
X0099128Y0067275D01*
X0097888Y0067275D01*
X0097888Y0070244D01*
X0097088Y0070244D01*
X0097088Y0069719D02*
X0097888Y0069719D01*
X0097888Y0068920D02*
X0097088Y0068920D01*
X0097088Y0068122D02*
X0097888Y0068122D01*
X0097888Y0067323D02*
X0097088Y0067323D01*
X0095669Y0067323D02*
X0049541Y0067323D01*
X0049541Y0066525D02*
X0160572Y0066525D01*
X0160572Y0066897D02*
X0160572Y0064948D01*
X0160668Y0064592D01*
X0160852Y0064272D01*
X0161113Y0064012D01*
X0161432Y0063827D01*
X0161788Y0063732D01*
X0163541Y0063732D01*
X0163541Y0066897D01*
X0160572Y0066897D01*
X0160572Y0065726D02*
X0049541Y0065726D01*
X0049541Y0064928D02*
X0160577Y0064928D01*
X0160995Y0064129D02*
X0049541Y0064129D01*
X0049541Y0063331D02*
X0244835Y0063331D01*
X0244505Y0064129D02*
X0166886Y0064129D01*
X0166769Y0064012D02*
X0167029Y0064272D01*
X0167214Y0064592D01*
X0167309Y0064948D01*
X0167309Y0066897D01*
X0164341Y0066897D01*
X0164341Y0063732D01*
X0166093Y0063732D01*
X0166450Y0063827D01*
X0166769Y0064012D01*
X0167304Y0064928D02*
X0244334Y0064928D01*
X0244334Y0065726D02*
X0167309Y0065726D01*
X0167309Y0066525D02*
X0244334Y0066525D01*
X0244612Y0067323D02*
X0164341Y0067323D01*
X0164341Y0066525D02*
X0163541Y0066525D01*
X0163541Y0067323D02*
X0124363Y0067323D01*
X0125052Y0068122D02*
X0160572Y0068122D01*
X0160572Y0068920D02*
X0133045Y0068920D01*
X0133844Y0069719D02*
X0160591Y0069719D01*
X0161017Y0070517D02*
X0134643Y0070517D01*
X0135441Y0071316D02*
X0151568Y0071316D01*
X0150379Y0072114D02*
X0136240Y0072114D01*
X0138861Y0072913D02*
X0149761Y0072913D01*
X0149430Y0073711D02*
X0139659Y0073711D01*
X0140031Y0074510D02*
X0149341Y0074510D01*
X0149341Y0075308D02*
X0140230Y0075308D01*
X0140230Y0076107D02*
X0149650Y0076107D01*
X0150111Y0076905D02*
X0139978Y0076905D01*
X0139532Y0077704D02*
X0150921Y0077704D01*
X0152941Y0074644D02*
X0163287Y0074644D01*
X0163941Y0073990D01*
X0163941Y0081044D01*
X0163841Y0081144D01*
X0158919Y0078502D02*
X0138634Y0078502D01*
X0136941Y0075644D02*
X0131941Y0070644D01*
X0121287Y0070644D01*
X0125052Y0072913D02*
X0131381Y0072913D01*
X0132180Y0073711D02*
X0124616Y0073711D01*
X0127941Y0077644D02*
X0100941Y0077644D01*
X0097594Y0080990D01*
X0097594Y0084644D01*
X0097594Y0098644D01*
X0097594Y0111951D01*
X0097940Y0112297D02*
X0097938Y0112333D01*
X0097932Y0112369D01*
X0097923Y0112404D01*
X0097910Y0112438D01*
X0097894Y0112470D01*
X0097874Y0112500D01*
X0097851Y0112529D01*
X0097826Y0112554D01*
X0097797Y0112577D01*
X0097767Y0112597D01*
X0097735Y0112613D01*
X0097701Y0112626D01*
X0097666Y0112635D01*
X0097630Y0112641D01*
X0097594Y0112643D01*
X0097594Y0112644D02*
X0077468Y0112644D01*
X0071397Y0115234D02*
X0049541Y0115234D01*
X0049541Y0116032D02*
X0071728Y0116032D01*
X0072322Y0116831D02*
X0049541Y0116831D01*
X0049541Y0117629D02*
X0073120Y0117629D01*
X0074186Y0118428D02*
X0049541Y0118428D01*
X0049541Y0119226D02*
X0076114Y0119226D01*
X0078823Y0119226D02*
X0097541Y0119226D01*
X0097541Y0120025D02*
X0098341Y0120025D01*
X0098341Y0120823D02*
X0097541Y0120823D01*
X0097541Y0121622D02*
X0098341Y0121622D01*
X0098341Y0122420D02*
X0097541Y0122420D01*
X0095363Y0122420D02*
X0049541Y0122420D01*
X0049541Y0121622D02*
X0094648Y0121622D01*
X0094572Y0120823D02*
X0049541Y0120823D01*
X0049541Y0120025D02*
X0094572Y0120025D01*
X0094572Y0118428D02*
X0080751Y0118428D01*
X0081816Y0117629D02*
X0094572Y0117629D01*
X0094572Y0116831D02*
X0082615Y0116831D01*
X0083208Y0116032D02*
X0094813Y0116032D01*
X0094481Y0115234D02*
X0083539Y0115234D01*
X0083700Y0110443D02*
X0094372Y0110443D01*
X0094372Y0109644D02*
X0083370Y0109644D01*
X0083004Y0108846D02*
X0094996Y0108846D01*
X0095594Y0108047D02*
X0082205Y0108047D01*
X0081407Y0107249D02*
X0095594Y0107249D01*
X0095594Y0106450D02*
X0079762Y0106450D01*
X0075174Y0106450D02*
X0049541Y0106450D01*
X0049541Y0105652D02*
X0095594Y0105652D01*
X0095594Y0104853D02*
X0049541Y0104853D01*
X0049541Y0104055D02*
X0095594Y0104055D01*
X0095594Y0103256D02*
X0049541Y0103256D01*
X0049541Y0102458D02*
X0095594Y0102458D01*
X0094213Y0101659D02*
X0049541Y0101659D01*
X0049541Y0100861D02*
X0093829Y0100861D01*
X0093829Y0100062D02*
X0049541Y0100062D01*
X0049541Y0099264D02*
X0093829Y0099264D01*
X0093829Y0098465D02*
X0080138Y0098465D01*
X0080305Y0098396D02*
X0079530Y0098717D01*
X0078719Y0098934D01*
X0077888Y0099044D01*
X0077868Y0099044D01*
X0077868Y0093044D01*
X0077068Y0093044D01*
X0077068Y0099044D01*
X0077049Y0099044D01*
X0076217Y0098934D01*
X0075407Y0098717D01*
X0074631Y0098396D01*
X0073905Y0097977D01*
X0073239Y0097466D01*
X0072646Y0096873D01*
X0072135Y0096207D01*
X0071716Y0095480D01*
X0071395Y0094705D01*
X0071178Y0093895D01*
X0071068Y0093063D01*
X0071068Y0093044D01*
X0077068Y0093044D01*
X0077068Y0092244D01*
X0071068Y0092244D01*
X0071068Y0092224D01*
X0071178Y0091393D01*
X0071395Y0090582D01*
X0071716Y0089807D01*
X0072135Y0089080D01*
X0072646Y0088415D01*
X0073239Y0087822D01*
X0073905Y0087311D01*
X0074631Y0086891D01*
X0075407Y0086570D01*
X0076217Y0086353D01*
X0077049Y0086244D01*
X0077068Y0086244D01*
X0077068Y0092244D01*
X0077868Y0092244D01*
X0077868Y0093044D01*
X0083868Y0093044D01*
X0083868Y0093063D01*
X0083759Y0093895D01*
X0083542Y0094705D01*
X0083220Y0095480D01*
X0082801Y0096207D01*
X0082290Y0096873D01*
X0081697Y0097466D01*
X0081031Y0097977D01*
X0080305Y0098396D01*
X0081435Y0097667D02*
X0093829Y0097667D01*
X0093829Y0096868D02*
X0082294Y0096868D01*
X0082880Y0096070D02*
X0093829Y0096070D01*
X0094570Y0095271D02*
X0083307Y0095271D01*
X0083604Y0094473D02*
X0095594Y0094473D01*
X0095594Y0093674D02*
X0083788Y0093674D01*
X0083868Y0092244D02*
X0077868Y0092244D01*
X0077868Y0086244D01*
X0077888Y0086244D01*
X0078719Y0086353D01*
X0079530Y0086570D01*
X0080305Y0086891D01*
X0081031Y0087311D01*
X0081697Y0087822D01*
X0082290Y0088415D01*
X0082801Y0089080D01*
X0083220Y0089807D01*
X0083542Y0090582D01*
X0083759Y0091393D01*
X0083868Y0092224D01*
X0083868Y0092244D01*
X0083849Y0092077D02*
X0095594Y0092077D01*
X0095594Y0091279D02*
X0083728Y0091279D01*
X0083499Y0090480D02*
X0095594Y0090480D01*
X0095594Y0089682D02*
X0083148Y0089682D01*
X0082649Y0088883D02*
X0095594Y0088883D01*
X0094638Y0088084D02*
X0081960Y0088084D01*
X0080988Y0087286D02*
X0093840Y0087286D01*
X0093829Y0086487D02*
X0079220Y0086487D01*
X0077868Y0086487D02*
X0077068Y0086487D01*
X0077068Y0087286D02*
X0077868Y0087286D01*
X0077868Y0088084D02*
X0077068Y0088084D01*
X0077068Y0088883D02*
X0077868Y0088883D01*
X0077868Y0089682D02*
X0077068Y0089682D01*
X0077068Y0090480D02*
X0077868Y0090480D01*
X0077868Y0091279D02*
X0077068Y0091279D01*
X0077068Y0092077D02*
X0077868Y0092077D01*
X0077868Y0092876D02*
X0095594Y0092876D01*
X0099594Y0092876D02*
X0121941Y0092876D01*
X0121941Y0093674D02*
X0099594Y0093674D01*
X0099594Y0094473D02*
X0121941Y0094473D01*
X0121941Y0095271D02*
X0119791Y0095271D01*
X0120423Y0096070D02*
X0121941Y0096070D01*
X0121941Y0096868D02*
X0120423Y0096868D01*
X0120423Y0097667D02*
X0121941Y0097667D01*
X0121941Y0098465D02*
X0120423Y0098465D01*
X0120423Y0099264D02*
X0121941Y0099264D01*
X0121941Y0100062D02*
X0120423Y0100062D01*
X0120423Y0100861D02*
X0121941Y0100861D01*
X0121941Y0101659D02*
X0119928Y0101659D01*
X0121941Y0102458D02*
X0099594Y0102458D01*
X0099594Y0103256D02*
X0121941Y0103256D01*
X0121941Y0104055D02*
X0099594Y0104055D01*
X0099594Y0104853D02*
X0121941Y0104853D01*
X0121941Y0105652D02*
X0099594Y0105652D01*
X0099594Y0106450D02*
X0121941Y0106450D01*
X0121941Y0107249D02*
X0099594Y0107249D01*
X0099594Y0108047D02*
X0121941Y0108047D01*
X0121941Y0108846D02*
X0100886Y0108846D01*
X0101509Y0109644D02*
X0121941Y0109644D01*
X0121941Y0110443D02*
X0101509Y0110443D01*
X0101509Y0111241D02*
X0121941Y0111241D01*
X0121941Y0112040D02*
X0101509Y0112040D01*
X0101509Y0112838D02*
X0121941Y0112838D01*
X0121941Y0113637D02*
X0101509Y0113637D01*
X0101509Y0114435D02*
X0121941Y0114435D01*
X0121941Y0115234D02*
X0101401Y0115234D01*
X0101068Y0116032D02*
X0121941Y0116032D01*
X0121941Y0116831D02*
X0101309Y0116831D01*
X0101309Y0117629D02*
X0121941Y0117629D01*
X0121941Y0118428D02*
X0101309Y0118428D01*
X0101309Y0120025D02*
X0121941Y0120025D01*
X0121941Y0120823D02*
X0101309Y0120823D01*
X0101234Y0121622D02*
X0121941Y0121622D01*
X0121941Y0122420D02*
X0100518Y0122420D01*
X0098341Y0119226D02*
X0121941Y0119226D01*
X0121941Y0123219D02*
X0049541Y0123219D01*
X0049541Y0124018D02*
X0121941Y0124018D01*
X0121941Y0124816D02*
X0049541Y0124816D01*
X0049541Y0125615D02*
X0121941Y0125615D01*
X0121941Y0126413D02*
X0079672Y0126413D01*
X0081370Y0127212D02*
X0121941Y0127212D01*
X0121746Y0128010D02*
X0082168Y0128010D01*
X0082967Y0128809D02*
X0120947Y0128809D01*
X0120149Y0129607D02*
X0100647Y0129607D01*
X0101445Y0130406D02*
X0119350Y0130406D01*
X0118552Y0131204D02*
X0101509Y0131204D01*
X0097941Y0133297D02*
X0097287Y0132644D01*
X0077468Y0132644D01*
X0081854Y0137592D02*
X0094372Y0137592D01*
X0094372Y0138391D02*
X0080841Y0138391D01*
X0078913Y0139189D02*
X0094372Y0139189D01*
X0094372Y0139988D02*
X0049541Y0139988D01*
X0049541Y0140786D02*
X0094372Y0140786D01*
X0094372Y0141585D02*
X0049541Y0141585D01*
X0049541Y0142383D02*
X0094372Y0142383D01*
X0094736Y0143182D02*
X0049541Y0143182D01*
X0049541Y0143980D02*
X0116449Y0143980D01*
X0115650Y0143182D02*
X0101146Y0143182D01*
X0101509Y0142383D02*
X0114852Y0142383D01*
X0115287Y0139990D02*
X0120941Y0145644D01*
X0144941Y0145644D01*
X0147941Y0142644D01*
X0147941Y0132644D01*
X0141941Y0126644D01*
X0141287Y0126644D01*
X0138315Y0123219D02*
X0137566Y0123219D01*
X0134610Y0126628D02*
X0134594Y0126644D01*
X0134488Y0126750D01*
X0134488Y0138644D01*
X0138056Y0136794D02*
X0138081Y0136794D01*
X0137693Y0135995D02*
X0138471Y0135995D01*
X0136895Y0135197D02*
X0145402Y0135197D01*
X0145941Y0135995D02*
X0144316Y0135995D01*
X0144706Y0136794D02*
X0145941Y0136794D01*
X0145941Y0137592D02*
X0144762Y0137592D01*
X0145941Y0138391D02*
X0141793Y0138391D01*
X0141793Y0139044D02*
X0144762Y0139044D01*
X0144762Y0140284D01*
X0144626Y0140790D01*
X0144364Y0141244D01*
X0143994Y0141615D01*
X0143540Y0141877D01*
X0143033Y0142012D01*
X0141793Y0142012D01*
X0141793Y0139044D01*
X0141793Y0139189D02*
X0140993Y0139189D01*
X0140993Y0139988D02*
X0141793Y0139988D01*
X0141793Y0140786D02*
X0140993Y0140786D01*
X0140993Y0141585D02*
X0141793Y0141585D01*
X0144023Y0141585D02*
X0145941Y0141585D01*
X0145941Y0140786D02*
X0144627Y0140786D01*
X0144762Y0139988D02*
X0145941Y0139988D01*
X0145941Y0139189D02*
X0144762Y0139189D01*
X0145373Y0142383D02*
X0120509Y0142383D01*
X0121307Y0143182D02*
X0144574Y0143182D01*
X0138763Y0141585D02*
X0137401Y0141585D01*
X0138056Y0140786D02*
X0138160Y0140786D01*
X0140993Y0137592D02*
X0141793Y0137592D01*
X0141793Y0136794D02*
X0140993Y0136794D01*
X0140993Y0135995D02*
X0141793Y0135995D01*
X0144771Y0134398D02*
X0136488Y0134398D01*
X0136488Y0133600D02*
X0144440Y0133600D01*
X0144341Y0132801D02*
X0136488Y0132801D01*
X0136488Y0132003D02*
X0144341Y0132003D01*
X0143673Y0131204D02*
X0136488Y0131204D01*
X0136488Y0130406D02*
X0142874Y0130406D01*
X0134610Y0126628D02*
X0134610Y0111644D01*
X0131238Y0112040D02*
X0125941Y0112040D01*
X0125941Y0112838D02*
X0131238Y0112838D01*
X0131238Y0113637D02*
X0125941Y0113637D01*
X0125941Y0114435D02*
X0131792Y0114435D01*
X0132610Y0115234D02*
X0125941Y0115234D01*
X0125941Y0116032D02*
X0132610Y0116032D01*
X0132610Y0116831D02*
X0125941Y0116831D01*
X0125941Y0117629D02*
X0132610Y0117629D01*
X0132610Y0118428D02*
X0125941Y0118428D01*
X0125941Y0119226D02*
X0132610Y0119226D01*
X0132610Y0120025D02*
X0125941Y0120025D01*
X0125941Y0120823D02*
X0132610Y0120823D01*
X0132610Y0121622D02*
X0125941Y0121622D01*
X0125941Y0122420D02*
X0132610Y0122420D01*
X0131622Y0123219D02*
X0125941Y0123219D01*
X0125941Y0124018D02*
X0130829Y0124018D01*
X0130829Y0124816D02*
X0125941Y0124816D01*
X0125941Y0125615D02*
X0130829Y0125615D01*
X0130829Y0126413D02*
X0125941Y0126413D01*
X0125941Y0127212D02*
X0130829Y0127212D01*
X0130829Y0128010D02*
X0125941Y0128010D01*
X0125941Y0128809D02*
X0130829Y0128809D01*
X0131161Y0129607D02*
X0125806Y0129607D01*
X0125007Y0130406D02*
X0132488Y0130406D01*
X0132488Y0131204D02*
X0124209Y0131204D01*
X0123410Y0132003D02*
X0132488Y0132003D01*
X0132488Y0132801D02*
X0122612Y0132801D01*
X0121813Y0133600D02*
X0132488Y0133600D01*
X0132488Y0134398D02*
X0121015Y0134398D01*
X0120216Y0135197D02*
X0132081Y0135197D01*
X0131283Y0135995D02*
X0101509Y0135995D01*
X0101141Y0136794D02*
X0130919Y0136794D01*
X0130919Y0137592D02*
X0101509Y0137592D01*
X0097941Y0139990D02*
X0115287Y0139990D01*
X0116516Y0138391D02*
X0130919Y0138391D01*
X0130919Y0139189D02*
X0117314Y0139189D01*
X0118113Y0139988D02*
X0130919Y0139988D01*
X0130919Y0140786D02*
X0118912Y0140786D01*
X0119710Y0141585D02*
X0131575Y0141585D01*
X0119643Y0147174D02*
X0049541Y0147174D01*
X0049541Y0146376D02*
X0118844Y0146376D01*
X0118046Y0145577D02*
X0049541Y0145577D01*
X0049541Y0144779D02*
X0117247Y0144779D01*
X0119287Y0133297D02*
X0123941Y0128644D01*
X0123941Y0093644D01*
X0125941Y0091644D01*
X0131618Y0091644D01*
X0132118Y0091144D01*
X0163841Y0091144D01*
X0164091Y0096070D02*
X0176941Y0096070D01*
X0176941Y0096868D02*
X0169241Y0096868D01*
X0169230Y0097667D02*
X0176941Y0097667D01*
X0176291Y0098465D02*
X0168799Y0098465D01*
X0169241Y0095271D02*
X0176941Y0095271D01*
X0176941Y0094473D02*
X0169191Y0094473D01*
X0168873Y0093674D02*
X0176941Y0093674D01*
X0176941Y0092876D02*
X0169441Y0092876D01*
X0169441Y0092077D02*
X0176941Y0092077D01*
X0176941Y0091279D02*
X0169441Y0091279D01*
X0169441Y0090480D02*
X0176941Y0090480D01*
X0176941Y0089682D02*
X0169441Y0089682D01*
X0169143Y0088883D02*
X0176941Y0088883D01*
X0176941Y0088084D02*
X0169441Y0088084D01*
X0169441Y0087286D02*
X0176941Y0087286D01*
X0176941Y0086487D02*
X0169441Y0086487D01*
X0169441Y0085689D02*
X0176941Y0085689D01*
X0176941Y0084890D02*
X0169441Y0084890D01*
X0169352Y0084092D02*
X0176941Y0084092D01*
X0177463Y0083293D02*
X0169254Y0083293D01*
X0169441Y0082495D02*
X0178261Y0082495D01*
X0179060Y0081696D02*
X0169441Y0081696D01*
X0169441Y0080898D02*
X0179858Y0080898D01*
X0180657Y0080099D02*
X0169441Y0080099D01*
X0169441Y0079301D02*
X0181455Y0079301D01*
X0183119Y0078502D02*
X0168762Y0078502D01*
X0167422Y0076905D02*
X0244439Y0076905D01*
X0244334Y0076107D02*
X0167509Y0076107D01*
X0167509Y0075308D02*
X0244334Y0075308D01*
X0244347Y0074510D02*
X0167509Y0074510D01*
X0167509Y0073711D02*
X0244678Y0073711D01*
X0245009Y0072913D02*
X0167509Y0072913D01*
X0167509Y0072114D02*
X0245620Y0072114D01*
X0246419Y0071316D02*
X0167509Y0071316D01*
X0166864Y0070517D02*
X0247664Y0070517D01*
X0246260Y0069719D02*
X0167290Y0069719D01*
X0167309Y0068920D02*
X0245462Y0068920D01*
X0244943Y0068122D02*
X0167309Y0068122D01*
X0164341Y0065726D02*
X0163541Y0065726D01*
X0163541Y0064928D02*
X0164341Y0064928D01*
X0164341Y0064129D02*
X0163541Y0064129D01*
X0160372Y0071316D02*
X0154313Y0071316D01*
X0155502Y0072114D02*
X0160372Y0072114D01*
X0160459Y0076905D02*
X0155770Y0076905D01*
X0154960Y0077704D02*
X0161258Y0077704D01*
X0158241Y0079301D02*
X0132426Y0079301D01*
X0131628Y0078502D02*
X0135247Y0078502D01*
X0134349Y0077704D02*
X0130829Y0077704D01*
X0130031Y0076905D02*
X0133903Y0076905D01*
X0133652Y0076107D02*
X0129232Y0076107D01*
X0127941Y0077644D02*
X0136441Y0086144D01*
X0163841Y0086144D01*
X0158330Y0084092D02*
X0137217Y0084092D01*
X0136419Y0083293D02*
X0158428Y0083293D01*
X0158241Y0082495D02*
X0135620Y0082495D01*
X0134822Y0081696D02*
X0158241Y0081696D01*
X0158241Y0080898D02*
X0134023Y0080898D01*
X0133225Y0080099D02*
X0158241Y0080099D01*
X0166624Y0077704D02*
X0244770Y0077704D01*
X0245101Y0078502D02*
X0192962Y0078502D01*
X0188438Y0081644D02*
X0188041Y0081144D01*
X0188041Y0086144D02*
X0188041Y0091144D01*
X0182441Y0091279D02*
X0180941Y0091279D01*
X0180941Y0092077D02*
X0182441Y0092077D01*
X0182441Y0092876D02*
X0180941Y0092876D01*
X0180941Y0093674D02*
X0182948Y0093674D01*
X0182441Y0094473D02*
X0180941Y0094473D01*
X0180941Y0095271D02*
X0182441Y0095271D01*
X0182441Y0096070D02*
X0180941Y0096070D01*
X0180941Y0096868D02*
X0182441Y0096868D01*
X0182441Y0097667D02*
X0180941Y0097667D01*
X0180941Y0098465D02*
X0182799Y0098465D01*
X0180941Y0099264D02*
X0186200Y0099264D01*
X0186200Y0100062D02*
X0180351Y0100062D01*
X0179552Y0100861D02*
X0186200Y0100861D01*
X0186200Y0101659D02*
X0178754Y0101659D01*
X0177955Y0102458D02*
X0186200Y0102458D01*
X0186200Y0103256D02*
X0177157Y0103256D01*
X0176358Y0104055D02*
X0186200Y0104055D01*
X0186200Y0104853D02*
X0165436Y0104853D01*
X0166235Y0105652D02*
X0186200Y0105652D01*
X0188200Y0107904D02*
X0162878Y0107904D01*
X0159506Y0107249D02*
X0146361Y0107249D01*
X0147159Y0106450D02*
X0159506Y0106450D01*
X0159520Y0105652D02*
X0147958Y0105652D01*
X0148756Y0104853D02*
X0160319Y0104853D01*
X0165948Y0110443D02*
X0193911Y0110443D01*
X0193499Y0112838D02*
X0180382Y0112838D01*
X0180667Y0113637D02*
X0193215Y0113637D01*
X0188321Y0114435D02*
X0180667Y0114435D01*
X0180667Y0115234D02*
X0187522Y0115234D01*
X0186724Y0116032D02*
X0180667Y0116032D01*
X0180667Y0116831D02*
X0185925Y0116831D01*
X0185127Y0117629D02*
X0180667Y0117629D01*
X0180624Y0118428D02*
X0184941Y0118428D01*
X0184941Y0119226D02*
X0179880Y0119226D01*
X0180667Y0120025D02*
X0184941Y0120025D01*
X0184941Y0120823D02*
X0181949Y0120823D01*
X0182747Y0121622D02*
X0184941Y0121622D01*
X0184941Y0122420D02*
X0183546Y0122420D01*
X0184344Y0123219D02*
X0184941Y0123219D01*
X0183594Y0125297D02*
X0180941Y0122644D01*
X0176508Y0122644D01*
X0170941Y0122644D01*
X0167941Y0125644D01*
X0167941Y0132644D01*
X0161941Y0126644D01*
X0161287Y0126644D01*
X0158315Y0123219D02*
X0157566Y0123219D01*
X0156610Y0122420D02*
X0168336Y0122420D01*
X0169134Y0121622D02*
X0156610Y0121622D01*
X0156610Y0120823D02*
X0169933Y0120823D01*
X0172349Y0120025D02*
X0156610Y0120025D01*
X0156610Y0119226D02*
X0173135Y0119226D01*
X0172391Y0118428D02*
X0156610Y0118428D01*
X0164259Y0123219D02*
X0167537Y0123219D01*
X0166738Y0124018D02*
X0165052Y0124018D01*
X0165052Y0124816D02*
X0165941Y0124816D01*
X0165941Y0125615D02*
X0165052Y0125615D01*
X0165052Y0126413D02*
X0165941Y0126413D01*
X0165941Y0127212D02*
X0165337Y0127212D01*
X0169941Y0127212D02*
X0172349Y0127212D01*
X0172349Y0128010D02*
X0169941Y0128010D01*
X0169941Y0128809D02*
X0172349Y0128809D01*
X0172349Y0129607D02*
X0169995Y0129607D01*
X0170794Y0130406D02*
X0172349Y0130406D01*
X0172349Y0131204D02*
X0171241Y0131204D01*
X0171541Y0132003D02*
X0172349Y0132003D01*
X0172985Y0132801D02*
X0171541Y0132801D01*
X0171441Y0133600D02*
X0174508Y0133600D01*
X0174508Y0134398D02*
X0171111Y0134398D01*
X0170479Y0135197D02*
X0174508Y0135197D01*
X0174508Y0135995D02*
X0169257Y0135995D01*
X0166624Y0135995D02*
X0164316Y0135995D01*
X0164706Y0136794D02*
X0174508Y0136794D01*
X0174508Y0137592D02*
X0164762Y0137592D01*
X0164762Y0139189D02*
X0174283Y0139189D01*
X0174508Y0138391D02*
X0161793Y0138391D01*
X0161793Y0139189D02*
X0160993Y0139189D01*
X0160993Y0139988D02*
X0161793Y0139988D01*
X0161793Y0140786D02*
X0160993Y0140786D01*
X0160993Y0141585D02*
X0161793Y0141585D01*
X0164023Y0141585D02*
X0168372Y0141585D01*
X0169118Y0140786D02*
X0164627Y0140786D01*
X0164762Y0139988D02*
X0173485Y0139988D01*
X0176508Y0139793D02*
X0171941Y0144360D01*
X0176508Y0139793D02*
X0176508Y0129534D01*
X0172838Y0126413D02*
X0170000Y0126413D01*
X0170798Y0125615D02*
X0172688Y0125615D01*
X0172349Y0124816D02*
X0171597Y0124816D01*
X0172349Y0117629D02*
X0165879Y0117629D01*
X0166049Y0116831D02*
X0172349Y0116831D01*
X0172349Y0116032D02*
X0166049Y0116032D01*
X0154610Y0111644D02*
X0154610Y0126628D01*
X0154594Y0126644D01*
X0154594Y0138537D01*
X0154488Y0138644D01*
X0158056Y0136794D02*
X0158081Y0136794D01*
X0157693Y0135995D02*
X0158471Y0135995D01*
X0156895Y0135197D02*
X0165402Y0135197D01*
X0164771Y0134398D02*
X0156594Y0134398D01*
X0156594Y0133600D02*
X0164440Y0133600D01*
X0164341Y0132801D02*
X0156594Y0132801D01*
X0156594Y0132003D02*
X0164341Y0132003D01*
X0163673Y0131204D02*
X0156594Y0131204D01*
X0156594Y0130406D02*
X0162874Y0130406D01*
X0161793Y0135995D02*
X0160993Y0135995D01*
X0160993Y0136794D02*
X0161793Y0136794D01*
X0161793Y0137592D02*
X0160993Y0137592D01*
X0158160Y0140786D02*
X0158056Y0140786D01*
X0157401Y0141585D02*
X0158763Y0141585D01*
X0171941Y0151053D02*
X0186941Y0151053D01*
X0183594Y0145644D02*
X0183594Y0125297D01*
X0197971Y0108846D02*
X0223241Y0108846D01*
X0224039Y0108047D02*
X0197173Y0108047D01*
X0196374Y0107249D02*
X0225593Y0107249D01*
X0226941Y0106450D02*
X0195576Y0106450D01*
X0190200Y0105652D02*
X0226941Y0105652D01*
X0226941Y0104853D02*
X0190200Y0104853D01*
X0190200Y0104055D02*
X0226941Y0104055D01*
X0226941Y0103256D02*
X0190200Y0103256D01*
X0190200Y0102458D02*
X0226926Y0102458D01*
X0226128Y0101659D02*
X0190200Y0101659D01*
X0190200Y0100861D02*
X0225329Y0100861D01*
X0224531Y0100062D02*
X0190200Y0100062D01*
X0190200Y0099264D02*
X0223732Y0099264D01*
X0222934Y0098465D02*
X0193282Y0098465D01*
X0193641Y0097667D02*
X0222135Y0097667D01*
X0221337Y0096868D02*
X0193641Y0096868D01*
X0193641Y0096070D02*
X0220538Y0096070D01*
X0219740Y0095271D02*
X0193641Y0095271D01*
X0193641Y0094473D02*
X0218941Y0094473D01*
X0218143Y0093674D02*
X0193134Y0093674D01*
X0182441Y0090480D02*
X0180941Y0090480D01*
X0180941Y0089682D02*
X0182441Y0089682D01*
X0182739Y0088883D02*
X0180941Y0088883D01*
X0180941Y0088084D02*
X0182441Y0088084D01*
X0182441Y0087286D02*
X0180941Y0087286D01*
X0180941Y0086487D02*
X0182441Y0086487D01*
X0182441Y0085689D02*
X0180941Y0085689D01*
X0181522Y0084890D02*
X0182441Y0084890D01*
X0182530Y0084092D02*
X0182321Y0084092D01*
X0175492Y0099264D02*
X0125941Y0099264D01*
X0125941Y0100062D02*
X0174694Y0100062D01*
X0164091Y0098465D02*
X0163591Y0098465D01*
X0163591Y0097667D02*
X0164091Y0097667D01*
X0164091Y0096868D02*
X0163591Y0096868D01*
X0163591Y0096070D02*
X0125941Y0096070D01*
X0125941Y0096868D02*
X0158441Y0096868D01*
X0158451Y0097667D02*
X0125941Y0097667D01*
X0125941Y0098465D02*
X0158882Y0098465D01*
X0158441Y0095271D02*
X0125941Y0095271D01*
X0125941Y0094473D02*
X0127656Y0094473D01*
X0127459Y0093674D02*
X0126739Y0093674D01*
X0123477Y0091279D02*
X0099594Y0091279D01*
X0099594Y0092077D02*
X0122679Y0092077D01*
X0124276Y0090480D02*
X0099594Y0090480D01*
X0099594Y0089682D02*
X0125074Y0089682D01*
X0127588Y0088883D02*
X0099594Y0088883D01*
X0100550Y0088084D02*
X0101331Y0088084D01*
X0104397Y0084754D02*
X0104287Y0084644D01*
X0104397Y0084754D02*
X0116263Y0084754D01*
X0120423Y0084890D02*
X0132359Y0084890D01*
X0131560Y0084092D02*
X0120423Y0084092D01*
X0120423Y0083293D02*
X0130762Y0083293D01*
X0129963Y0082495D02*
X0120423Y0082495D01*
X0119996Y0081696D02*
X0129165Y0081696D01*
X0128366Y0080898D02*
X0100515Y0080898D01*
X0101313Y0080099D02*
X0127568Y0080099D01*
X0133652Y0075308D02*
X0049541Y0075308D01*
X0049541Y0074510D02*
X0132978Y0074510D01*
X0133157Y0085689D02*
X0120423Y0085689D01*
X0120423Y0086487D02*
X0133956Y0086487D01*
X0134754Y0087286D02*
X0120423Y0087286D01*
X0119723Y0088084D02*
X0128387Y0088084D01*
X0134849Y0088084D02*
X0135553Y0088084D01*
X0135647Y0088883D02*
X0158539Y0088883D01*
X0158808Y0093674D02*
X0135777Y0093674D01*
X0135579Y0094473D02*
X0158491Y0094473D01*
X0148137Y0102644D02*
X0142878Y0107904D01*
X0142490Y0112838D02*
X0143265Y0112838D01*
X0143265Y0113637D02*
X0142490Y0113637D01*
X0142490Y0114435D02*
X0143265Y0114435D01*
X0143265Y0116032D02*
X0142490Y0116032D01*
X0142490Y0116831D02*
X0143265Y0116831D01*
X0143265Y0117629D02*
X0142490Y0117629D01*
X0139877Y0117629D02*
X0136610Y0117629D01*
X0136610Y0116831D02*
X0139706Y0116831D01*
X0131238Y0111241D02*
X0125941Y0111241D01*
X0125941Y0110443D02*
X0131238Y0110443D01*
X0131238Y0109644D02*
X0125941Y0109644D01*
X0125941Y0108846D02*
X0131799Y0108846D01*
X0116263Y0098534D02*
X0104397Y0098534D01*
X0104287Y0098644D01*
X0108052Y0100861D02*
X0112104Y0100861D01*
X0112599Y0101659D02*
X0107668Y0101659D01*
X0108052Y0096070D02*
X0112104Y0096070D01*
X0112736Y0095271D02*
X0107311Y0095271D01*
X0101263Y0095271D02*
X0100618Y0095271D01*
X0107243Y0088084D02*
X0112804Y0088084D01*
X0112104Y0087286D02*
X0108041Y0087286D01*
X0108052Y0082495D02*
X0112104Y0082495D01*
X0112531Y0081696D02*
X0107736Y0081696D01*
X0107180Y0073711D02*
X0111265Y0073711D01*
X0110829Y0072913D02*
X0107962Y0072913D01*
X0104393Y0070644D02*
X0114594Y0070644D01*
X0117923Y0073711D02*
X0117958Y0073711D01*
X0110829Y0068122D02*
X0107725Y0068122D01*
X0106927Y0067323D02*
X0111518Y0067323D01*
X0117670Y0067323D02*
X0118211Y0067323D01*
X0108905Y0056943D02*
X0244454Y0056943D01*
X0244334Y0056144D02*
X0109541Y0056144D01*
X0109541Y0055346D02*
X0244334Y0055346D01*
X0244334Y0054547D02*
X0109541Y0054547D01*
X0109541Y0053749D02*
X0244662Y0053749D01*
X0244993Y0052950D02*
X0109541Y0052950D01*
X0109541Y0052151D02*
X0245583Y0052151D01*
X0246382Y0051353D02*
X0109541Y0051353D01*
X0109541Y0050554D02*
X0247754Y0050554D01*
X0246298Y0049756D02*
X0109541Y0049756D01*
X0109541Y0048957D02*
X0245499Y0048957D01*
X0244958Y0048159D02*
X0109541Y0048159D01*
X0109541Y0047360D02*
X0244627Y0047360D01*
X0244334Y0046562D02*
X0109541Y0046562D01*
X0109223Y0045763D02*
X0244334Y0045763D01*
X0246200Y0039375D02*
X0049541Y0039375D01*
X0049541Y0038577D02*
X0245495Y0038577D01*
X0245021Y0037778D02*
X0049541Y0037778D01*
X0049541Y0036980D02*
X0244721Y0036980D01*
X0242429Y0028196D02*
X0073925Y0028196D01*
X0073925Y0027398D02*
X0242429Y0027398D01*
X0242429Y0026599D02*
X0073925Y0026599D01*
X0073925Y0025801D02*
X0242429Y0025801D01*
X0242429Y0025002D02*
X0073925Y0025002D01*
X0073925Y0024204D02*
X0242429Y0024204D01*
X0242429Y0023405D02*
X0073925Y0023405D01*
X0073925Y0022607D02*
X0242429Y0022607D01*
X0242429Y0021808D02*
X0073925Y0021808D01*
X0073925Y0021010D02*
X0242429Y0021010D01*
X0242429Y0020211D02*
X0073925Y0020211D01*
X0073925Y0019413D02*
X0242429Y0019413D01*
X0242429Y0018614D02*
X0073925Y0018614D01*
X0073925Y0017816D02*
X0242429Y0017816D01*
X0242429Y0017017D02*
X0073925Y0017017D01*
X0073925Y0016218D02*
X0242429Y0016218D01*
X0242429Y0015420D02*
X0073925Y0015420D01*
X0073925Y0014621D02*
X0242429Y0014621D01*
X0242429Y0013823D02*
X0073925Y0013823D01*
X0073925Y0013024D02*
X0242429Y0013024D01*
X0242429Y0012226D02*
X0073925Y0012226D01*
X0073925Y0011427D02*
X0242429Y0011427D01*
X0242429Y0010629D02*
X0073925Y0010629D01*
X0073925Y0009830D02*
X0242429Y0009830D01*
X0242429Y0009032D02*
X0073925Y0009032D01*
X0073925Y0008233D02*
X0242429Y0008233D01*
X0242429Y0007435D02*
X0073925Y0007435D01*
X0073925Y0006636D02*
X0242429Y0006636D01*
X0242429Y0005838D02*
X0073925Y0005838D01*
X0073925Y0005039D02*
X0242429Y0005039D01*
X0244785Y0057741D02*
X0049541Y0057741D01*
X0049541Y0058540D02*
X0245116Y0058540D01*
X0245880Y0059338D02*
X0049541Y0059338D01*
X0049541Y0060137D02*
X0246745Y0060137D01*
X0247038Y0060935D02*
X0049541Y0060935D01*
X0049541Y0061734D02*
X0246001Y0061734D01*
X0245203Y0062532D02*
X0049541Y0062532D01*
X0049541Y0071316D02*
X0094119Y0071316D01*
X0094119Y0072114D02*
X0049541Y0072114D01*
X0049541Y0072913D02*
X0094326Y0072913D01*
X0095055Y0073711D02*
X0049541Y0073711D01*
X0049541Y0076107D02*
X0099649Y0076107D01*
X0098851Y0076905D02*
X0049541Y0076905D01*
X0049541Y0077704D02*
X0098052Y0077704D01*
X0097254Y0078502D02*
X0049541Y0078502D01*
X0049541Y0079301D02*
X0096455Y0079301D01*
X0095657Y0080099D02*
X0049541Y0080099D01*
X0049541Y0080898D02*
X0095594Y0080898D01*
X0094145Y0081696D02*
X0049541Y0081696D01*
X0049541Y0082495D02*
X0093829Y0082495D01*
X0093829Y0083293D02*
X0049541Y0083293D01*
X0049541Y0084092D02*
X0093829Y0084092D01*
X0093829Y0084890D02*
X0049541Y0084890D01*
X0049541Y0085689D02*
X0093829Y0085689D01*
X0097088Y0073711D02*
X0097888Y0073711D01*
X0097888Y0072913D02*
X0097088Y0072913D01*
X0097088Y0072114D02*
X0097888Y0072114D01*
X0097888Y0071316D02*
X0097088Y0071316D01*
X0099921Y0073711D02*
X0101607Y0073711D01*
X0100825Y0072913D02*
X0100650Y0072913D01*
X0100504Y0068122D02*
X0101062Y0068122D01*
X0101860Y0067323D02*
X0099307Y0067323D01*
X0075716Y0086487D02*
X0049541Y0086487D01*
X0049541Y0087286D02*
X0073948Y0087286D01*
X0072977Y0088084D02*
X0049541Y0088084D01*
X0049541Y0088883D02*
X0072287Y0088883D01*
X0071788Y0089682D02*
X0049541Y0089682D01*
X0049541Y0090480D02*
X0071437Y0090480D01*
X0071208Y0091279D02*
X0049541Y0091279D01*
X0049541Y0092077D02*
X0071088Y0092077D01*
X0071149Y0093674D02*
X0049541Y0093674D01*
X0049541Y0092876D02*
X0077068Y0092876D01*
X0077068Y0093674D02*
X0077868Y0093674D01*
X0077868Y0094473D02*
X0077068Y0094473D01*
X0077068Y0095271D02*
X0077868Y0095271D01*
X0077868Y0096070D02*
X0077068Y0096070D01*
X0077068Y0096868D02*
X0077868Y0096868D01*
X0077868Y0097667D02*
X0077068Y0097667D01*
X0077068Y0098465D02*
X0077868Y0098465D01*
X0074798Y0098465D02*
X0049541Y0098465D01*
X0049541Y0097667D02*
X0073501Y0097667D01*
X0072643Y0096868D02*
X0049541Y0096868D01*
X0049541Y0096070D02*
X0072056Y0096070D01*
X0071629Y0095271D02*
X0049541Y0095271D01*
X0049541Y0094473D02*
X0071332Y0094473D01*
X0073529Y0107249D02*
X0049541Y0107249D01*
X0049541Y0108047D02*
X0072731Y0108047D01*
X0071932Y0108846D02*
X0049541Y0108846D01*
X0049541Y0109644D02*
X0071567Y0109644D01*
X0071236Y0110443D02*
X0049541Y0110443D01*
X0049541Y0111241D02*
X0070905Y0111241D01*
X0070868Y0112040D02*
X0049541Y0112040D01*
X0049541Y0112838D02*
X0070868Y0112838D01*
X0070868Y0113637D02*
X0049541Y0113637D01*
X0049541Y0114435D02*
X0071067Y0114435D01*
X0075264Y0126413D02*
X0049541Y0126413D01*
X0049541Y0127212D02*
X0073567Y0127212D01*
X0072768Y0128010D02*
X0049541Y0128010D01*
X0049541Y0128809D02*
X0071970Y0128809D01*
X0071582Y0129607D02*
X0049541Y0129607D01*
X0049541Y0130406D02*
X0071251Y0130406D01*
X0070921Y0131204D02*
X0049541Y0131204D01*
X0049541Y0132003D02*
X0070868Y0132003D01*
X0070868Y0132801D02*
X0049541Y0132801D01*
X0049541Y0133600D02*
X0070868Y0133600D01*
X0071051Y0134398D02*
X0049541Y0134398D01*
X0049541Y0135197D02*
X0071382Y0135197D01*
X0071713Y0135995D02*
X0049541Y0135995D01*
X0049541Y0136794D02*
X0072284Y0136794D01*
X0073083Y0137592D02*
X0049541Y0137592D01*
X0049541Y0138391D02*
X0074096Y0138391D01*
X0076024Y0139189D02*
X0049541Y0139189D01*
X0082652Y0136794D02*
X0094741Y0136794D01*
X0094372Y0135995D02*
X0083224Y0135995D01*
X0083555Y0135197D02*
X0094372Y0135197D01*
X0097941Y0133297D02*
X0119287Y0133297D01*
X0095234Y0129607D02*
X0083354Y0129607D01*
X0083685Y0130406D02*
X0094436Y0130406D01*
X0097941Y0112297D02*
X0097905Y0112295D01*
X0097869Y0112289D01*
X0097834Y0112280D01*
X0097800Y0112267D01*
X0097768Y0112251D01*
X0097738Y0112231D01*
X0097709Y0112208D01*
X0097684Y0112183D01*
X0097661Y0112154D01*
X0097641Y0112124D01*
X0097625Y0112092D01*
X0097612Y0112058D01*
X0097603Y0112023D01*
X0097597Y0111987D01*
X0097595Y0111951D01*
X0105043Y0183107D02*
X0081230Y0183107D01*
X0083772Y0199078D02*
X0102841Y0199078D01*
X0102841Y0199876D02*
X0083572Y0199876D01*
X0083258Y0200675D02*
X0102841Y0200675D01*
X0102841Y0201473D02*
X0082811Y0201473D01*
X0082175Y0202272D02*
X0103189Y0202272D01*
X0105133Y0203070D02*
X0081279Y0203070D01*
X0075088Y0203869D02*
X0049541Y0203869D01*
X0049541Y0203070D02*
X0073657Y0203070D01*
X0072762Y0202272D02*
X0049541Y0202272D01*
X0049541Y0201473D02*
X0072125Y0201473D01*
X0071679Y0200675D02*
X0049541Y0200675D01*
X0049541Y0199876D02*
X0071365Y0199876D01*
X0071164Y0199078D02*
X0049541Y0199078D01*
X0080052Y0211854D02*
X0091337Y0211854D01*
X0090538Y0212652D02*
X0081527Y0212652D01*
X0082326Y0213451D02*
X0089740Y0213451D01*
X0088941Y0214249D02*
X0083089Y0214249D01*
X0083419Y0215048D02*
X0088143Y0215048D01*
X0091737Y0218242D02*
X0102641Y0218242D01*
X0102641Y0217443D02*
X0092535Y0217443D01*
X0093334Y0216645D02*
X0102641Y0216645D01*
X0102948Y0215846D02*
X0094132Y0215846D01*
X0094931Y0215048D02*
X0103279Y0215048D01*
X0103840Y0214249D02*
X0095729Y0214249D01*
X0096528Y0213451D02*
X0104638Y0213451D01*
X0104655Y0211854D02*
X0098125Y0211854D01*
X0097326Y0212652D02*
X0106142Y0212652D01*
X0103857Y0211055D02*
X0098923Y0211055D01*
X0099722Y0210257D02*
X0103286Y0210257D01*
X0109740Y0212652D02*
X0175641Y0212652D01*
X0175641Y0211854D02*
X0111226Y0211854D01*
X0112024Y0211055D02*
X0175641Y0211055D01*
X0175641Y0210257D02*
X0112595Y0210257D01*
X0112926Y0209458D02*
X0175641Y0209458D01*
X0176062Y0208660D02*
X0113241Y0208660D01*
X0113241Y0207861D02*
X0190541Y0207861D01*
X0190541Y0207063D02*
X0113241Y0207063D01*
X0113106Y0206264D02*
X0190541Y0206264D01*
X0190541Y0205466D02*
X0112775Y0205466D01*
X0112444Y0204667D02*
X0190541Y0204667D01*
X0190541Y0203869D02*
X0111661Y0203869D01*
X0110748Y0203070D02*
X0190541Y0203070D01*
X0190541Y0202272D02*
X0112693Y0202272D01*
X0113041Y0201473D02*
X0190541Y0201473D01*
X0190541Y0200675D02*
X0113041Y0200675D01*
X0113041Y0199876D02*
X0190541Y0199876D01*
X0190541Y0199078D02*
X0189370Y0199078D01*
X0190168Y0198279D02*
X0190541Y0198279D01*
X0190688Y0197481D02*
X0190241Y0197481D01*
X0190241Y0196682D02*
X0191178Y0196682D01*
X0191976Y0195884D02*
X0190241Y0195884D01*
X0190241Y0195085D02*
X0192775Y0195085D01*
X0193573Y0194287D02*
X0190241Y0194287D01*
X0190241Y0193488D02*
X0194238Y0193488D01*
X0194238Y0192689D02*
X0190241Y0192689D01*
X0190241Y0191891D02*
X0194238Y0191891D01*
X0194552Y0191092D02*
X0190241Y0191092D01*
X0190241Y0190294D02*
X0202506Y0190294D01*
X0202506Y0189495D02*
X0189455Y0189495D01*
X0200668Y0191092D02*
X0201860Y0191092D01*
X0201062Y0191891D02*
X0200982Y0191891D01*
X0202506Y0188697D02*
X0147388Y0188697D01*
X0148186Y0189495D02*
X0176426Y0189495D01*
X0175641Y0190294D02*
X0148985Y0190294D01*
X0149783Y0191092D02*
X0175641Y0191092D01*
X0175713Y0198279D02*
X0113041Y0198279D01*
X0113041Y0199078D02*
X0176512Y0199078D01*
X0182941Y0213044D02*
X0183493Y0213597D01*
X0183487Y0220637D02*
X0112437Y0220637D01*
X0112768Y0219839D02*
X0190541Y0219839D01*
X0190541Y0219040D02*
X0113099Y0219040D01*
X0113241Y0218242D02*
X0190541Y0218242D01*
X0190541Y0217443D02*
X0189804Y0217443D01*
X0190241Y0216645D02*
X0190541Y0216645D01*
X0189897Y0220637D02*
X0189702Y0220637D01*
X0186994Y0220637D02*
X0186194Y0220637D01*
X0186194Y0221436D02*
X0186994Y0221436D01*
X0186994Y0222234D02*
X0186194Y0222234D01*
X0186194Y0223033D02*
X0186994Y0223033D01*
X0186194Y0223831D02*
X0111624Y0223831D01*
X0112422Y0224630D02*
X0183029Y0224630D01*
X0183029Y0225428D02*
X0112760Y0225428D01*
X0113090Y0226227D02*
X0183167Y0226227D01*
X0186194Y0226227D02*
X0186994Y0226227D01*
X0186994Y0225428D02*
X0186194Y0225428D01*
X0186194Y0224630D02*
X0186994Y0224630D01*
X0190272Y0227025D02*
X0113241Y0227025D01*
X0110659Y0223033D02*
X0183029Y0223033D01*
X0183029Y0222234D02*
X0110707Y0222234D01*
X0111644Y0221436D02*
X0183044Y0221436D01*
X0176077Y0217443D02*
X0113241Y0217443D01*
X0113241Y0216645D02*
X0175641Y0216645D01*
X0175641Y0215846D02*
X0112933Y0215846D01*
X0112602Y0215048D02*
X0175641Y0215048D01*
X0175641Y0214249D02*
X0112041Y0214249D01*
X0111243Y0213451D02*
X0175641Y0213451D01*
X0190241Y0211055D02*
X0190541Y0211055D01*
X0190541Y0210257D02*
X0190241Y0210257D01*
X0190241Y0209458D02*
X0190541Y0209458D01*
X0190541Y0208660D02*
X0189819Y0208660D01*
X0202506Y0187898D02*
X0146589Y0187898D01*
X0145791Y0187100D02*
X0203072Y0187100D01*
X0205893Y0164742D02*
X0205988Y0164742D01*
X0186637Y0164742D02*
X0184868Y0164742D01*
X0185632Y0163943D02*
X0185839Y0163943D01*
X0228941Y0130644D02*
X0228941Y0116990D01*
X0243941Y0116831D02*
X0244408Y0116831D01*
X0244334Y0116032D02*
X0243941Y0116032D01*
X0243941Y0115234D02*
X0244334Y0115234D01*
X0244378Y0114435D02*
X0243941Y0114435D01*
X0243941Y0113637D02*
X0244709Y0113637D01*
X0245039Y0112838D02*
X0243941Y0112838D01*
X0243941Y0112040D02*
X0245695Y0112040D01*
X0246493Y0111241D02*
X0243941Y0111241D01*
X0243941Y0110443D02*
X0248045Y0110443D01*
X0246528Y0109644D02*
X0243941Y0109644D01*
X0243941Y0108846D02*
X0245690Y0108846D01*
X0245158Y0108047D02*
X0243941Y0108047D01*
X0243941Y0107249D02*
X0244808Y0107249D01*
X0244605Y0106450D02*
X0243941Y0106450D01*
X0243941Y0105652D02*
X0249233Y0105652D01*
X0244588Y0104853D02*
X0243175Y0104853D01*
X0242377Y0104055D02*
X0244772Y0104055D01*
X0245102Y0103256D02*
X0241578Y0103256D01*
X0240780Y0102458D02*
X0245610Y0102458D01*
X0246376Y0101659D02*
X0239981Y0101659D01*
X0239183Y0100861D02*
X0247705Y0100861D01*
X0246604Y0100062D02*
X0238384Y0100062D01*
X0237586Y0099264D02*
X0245805Y0099264D01*
X0245085Y0098465D02*
X0236787Y0098465D01*
X0235989Y0097667D02*
X0244754Y0097667D01*
X0244424Y0096868D02*
X0235190Y0096868D01*
X0234392Y0096070D02*
X0244334Y0096070D01*
X0244334Y0095271D02*
X0233593Y0095271D01*
X0232795Y0094473D02*
X0244362Y0094473D01*
X0244693Y0093674D02*
X0231996Y0093674D01*
X0231198Y0092876D02*
X0245024Y0092876D01*
X0245658Y0092077D02*
X0230399Y0092077D01*
X0229601Y0091279D02*
X0246456Y0091279D01*
X0247574Y0090480D02*
X0228802Y0090480D01*
X0228004Y0089682D02*
X0246223Y0089682D01*
X0245425Y0088883D02*
X0227205Y0088883D01*
X0226407Y0088084D02*
X0244927Y0088084D01*
X0244597Y0087286D02*
X0225608Y0087286D01*
X0224810Y0086487D02*
X0244334Y0086487D01*
X0244334Y0085689D02*
X0224011Y0085689D01*
X0223213Y0084890D02*
X0244334Y0084890D01*
X0244520Y0084092D02*
X0222414Y0084092D01*
X0221616Y0083293D02*
X0244851Y0083293D01*
X0245240Y0082495D02*
X0220817Y0082495D01*
X0220019Y0081696D02*
X0246038Y0081696D01*
X0247128Y0080898D02*
X0219220Y0080898D01*
X0218422Y0080099D02*
X0246655Y0080099D01*
X0245843Y0079301D02*
X0217623Y0079301D01*
X0260034Y0085689D02*
X0266813Y0085689D01*
X0244739Y0117629D02*
X0243941Y0117629D01*
X0243941Y0118428D02*
X0245070Y0118428D01*
X0245768Y0119226D02*
X0243941Y0119226D01*
X0243941Y0120025D02*
X0246567Y0120025D01*
X0247307Y0120823D02*
X0243941Y0120823D01*
X0243941Y0121622D02*
X0246113Y0121622D01*
X0245314Y0122420D02*
X0243941Y0122420D01*
X0243941Y0123219D02*
X0244882Y0123219D01*
X0244551Y0124018D02*
X0243941Y0124018D01*
X0243941Y0124816D02*
X0244334Y0124816D01*
X0244334Y0125615D02*
X0243941Y0125615D01*
X0243941Y0126413D02*
X0244334Y0126413D01*
X0244337Y0127212D02*
X0244566Y0127212D01*
X0248133Y0180712D02*
X0239941Y0180712D01*
X0243628Y0185503D02*
X0249233Y0185503D01*
X0244582Y0186301D02*
X0244427Y0186301D01*
X0214691Y0233414D02*
X0206991Y0233414D01*
X0206991Y0234212D02*
X0214691Y0234212D01*
X0214691Y0235011D02*
X0206991Y0235011D01*
X0206991Y0235809D02*
X0214691Y0235809D01*
X0214691Y0236608D02*
X0206991Y0236608D01*
X0206956Y0237406D02*
X0214691Y0237406D01*
X0215139Y0238205D02*
X0206460Y0238205D01*
X0201741Y0238205D02*
X0200941Y0238205D01*
X0200941Y0237406D02*
X0201741Y0237406D01*
X0201741Y0236608D02*
X0200941Y0236608D01*
X0200941Y0235809D02*
X0201741Y0235809D01*
X0201741Y0235011D02*
X0200941Y0235011D01*
X0200941Y0234212D02*
X0201741Y0234212D01*
X0201741Y0233414D02*
X0200941Y0233414D01*
X0225943Y0238205D02*
X0232572Y0238205D01*
X0232572Y0237406D02*
X0226391Y0237406D01*
X0226391Y0236608D02*
X0232581Y0236608D01*
X0127205Y0237406D02*
X0073925Y0237406D01*
X0073925Y0238205D02*
X0125415Y0238205D01*
X0124617Y0239003D02*
X0073925Y0239003D01*
X0073925Y0239802D02*
X0123899Y0239802D01*
X0123568Y0240600D02*
X0073925Y0240600D01*
X0073925Y0241399D02*
X0123237Y0241399D01*
X0123112Y0242197D02*
X0073925Y0242197D01*
X0073925Y0242996D02*
X0123112Y0242996D01*
X0123112Y0243794D02*
X0073925Y0243794D01*
X0073925Y0244593D02*
X0123112Y0244593D01*
X0123112Y0245391D02*
X0073925Y0245391D01*
X0073925Y0246190D02*
X0123112Y0246190D01*
X0123112Y0246988D02*
X0073925Y0246988D01*
X0073925Y0247787D02*
X0123112Y0247787D01*
X0123112Y0248585D02*
X0073925Y0248585D01*
X0073925Y0249384D02*
X0123112Y0249384D01*
X0123112Y0250182D02*
X0073925Y0250182D01*
X0073925Y0250981D02*
X0123112Y0250981D01*
X0123112Y0251779D02*
X0073925Y0251779D01*
X0073925Y0252578D02*
X0123112Y0252578D01*
X0123112Y0253376D02*
X0073925Y0253376D01*
X0073925Y0254175D02*
X0123112Y0254175D01*
X0123077Y0254973D02*
X0073925Y0254973D01*
X0073925Y0255772D02*
X0122776Y0255772D01*
X0122038Y0256570D02*
X0073925Y0256570D01*
X0080461Y0223831D02*
X0104258Y0223831D01*
X0105223Y0223033D02*
X0081696Y0223033D01*
X0082495Y0222234D02*
X0105174Y0222234D01*
X0104237Y0221436D02*
X0083159Y0221436D01*
X0083489Y0220637D02*
X0103444Y0220637D01*
X0103113Y0219839D02*
X0090140Y0219839D01*
X0090938Y0219040D02*
X0102782Y0219040D01*
D25*
X0147941Y0132644D03*
X0167941Y0132644D03*
X0207941Y0107644D03*
X0152941Y0074644D03*
D26*
X0142941Y0187644D02*
X0107941Y0187644D01*
X0107941Y0207644D02*
X0098941Y0207644D01*
X0088657Y0217927D01*
X0077468Y0217927D01*
X0142941Y0187644D02*
X0149541Y0194244D01*
X0182941Y0194244D01*
X0182341Y0193644D01*
X0192941Y0198313D02*
X0192941Y0213597D01*
X0192941Y0223297D01*
X0193287Y0223644D01*
X0192941Y0213597D02*
X0183493Y0213597D01*
X0192941Y0213597D02*
X0198429Y0213597D01*
X0209452Y0207691D02*
X0223988Y0207691D01*
X0228941Y0212644D01*
X0228941Y0224244D01*
X0228941Y0225297D01*
X0235941Y0232297D01*
X0236594Y0231644D01*
X0256941Y0231644D01*
X0259634Y0228951D01*
X0259634Y0225597D01*
X0228941Y0224244D02*
X0220541Y0232644D01*
X0209452Y0207691D02*
X0209452Y0200959D01*
X0205878Y0197384D01*
X0197610Y0193644D02*
X0192941Y0198313D01*
D27*
X0136941Y0075644D03*
M02*
