G75*
%MOIN*%
%OFA0B0*%
%FSLAX25Y25*%
%IPPOS*%
%LPD*%
%AMOC8*
5,1,8,0,0,1.08239X$1,22.5*
%
%ADD10C,0.11627*%
%ADD11C,0.10800*%
%ADD12C,0.08200*%
%ADD13R,0.08200X0.08200*%
D10*
X0061720Y0016423D03*
X0254634Y0016423D03*
X0254634Y0244770D03*
X0061720Y0244770D03*
D11*
X0077468Y0217927D03*
X0077468Y0197927D03*
X0077468Y0177927D03*
X0077468Y0132644D03*
X0077468Y0112644D03*
X0077468Y0092644D03*
D12*
X0107941Y0187644D03*
X0107941Y0207644D03*
X0107941Y0217644D03*
X0107941Y0227644D03*
X0249634Y0225597D03*
X0259634Y0225597D03*
X0259634Y0215597D03*
X0259634Y0205597D03*
X0259634Y0195597D03*
X0259634Y0185597D03*
X0259634Y0175597D03*
X0259634Y0165597D03*
X0259634Y0155597D03*
X0259634Y0145597D03*
X0259634Y0135597D03*
X0259634Y0125597D03*
X0259634Y0115597D03*
X0259634Y0105597D03*
X0259634Y0095597D03*
X0259634Y0085597D03*
X0259634Y0075597D03*
X0259634Y0065597D03*
X0259634Y0055597D03*
X0259634Y0045597D03*
X0259634Y0035597D03*
X0249634Y0035597D03*
X0249634Y0045597D03*
X0249634Y0055597D03*
X0249634Y0065597D03*
X0249634Y0075597D03*
X0249634Y0085597D03*
X0249634Y0095597D03*
X0249634Y0105597D03*
X0249634Y0115597D03*
X0249634Y0125597D03*
X0249634Y0135597D03*
X0249634Y0145597D03*
X0249634Y0155597D03*
X0249634Y0165597D03*
X0249634Y0175597D03*
X0249634Y0185597D03*
X0249634Y0195597D03*
X0249634Y0205597D03*
X0249634Y0215597D03*
D13*
X0107941Y0197644D03*
M02*
