%
M48
M72
T01C0.0138
T02C0.0200
T03C0.0400
T04C0.0600
T05C0.1083
%
T01
X13694Y7564
T02
X15294Y7464
X20794Y10764
X16794Y13264
X14794Y13264
T03
X10794Y18764
X10794Y19764
X10794Y20764
X10794Y21764
X10794Y22764
X24963Y22560
X24963Y21560
X24963Y20560
X24963Y19560
X24963Y18560
X24963Y17560
X24963Y16560
X24963Y15560
X24963Y14560
X24963Y13560
X24963Y12560
X24963Y11560
X24963Y10560
X24963Y9560
X24963Y8560
X24963Y7560
X24963Y6560
X24963Y5560
X24963Y4560
X24963Y3560
X25963Y3560
X25963Y4560
X25963Y5560
X25963Y6560
X25963Y7560
X25963Y8560
X25963Y9560
X25963Y10560
X25963Y11560
X25963Y12560
X25963Y13560
X25963Y14560
X25963Y15560
X25963Y16560
X25963Y17560
X25963Y18560
X25963Y19560
X25963Y20560
X25963Y21560
X25963Y22560
T04
X7747Y21793
X7747Y19793
X7747Y17793
X7747Y13264
X7747Y11264
X7747Y9264
T05
X6172Y1642
X25463Y1642
X25463Y24477
X6172Y24477
M30
