G75*
%MOIN*%
%OFA0B0*%
%FSLAX25Y25*%
%IPPOS*%
%LPD*%
%AMOC8*
5,1,8,0,0,1.08239X$1,22.5*
%
%ADD10C,0.00500*%
%ADD11C,0.01100*%
%ADD12C,0.00800*%
%ADD13C,0.02828*%
%ADD14C,0.00600*%
%ADD15C,0.00200*%
%ADD16C,0.02000*%
%ADD17C,0.04400*%
%ADD18C,0.02000*%
%ADD19R,0.02000X0.16200*%
%ADD20R,0.34000X0.02000*%
%ADD21C,0.01181*%
D10*
X0111691Y0068769D02*
X0111691Y0072519D01*
X0111745Y0074894D02*
X0111745Y0077396D01*
X0112996Y0077396D01*
X0113413Y0076979D01*
X0113413Y0076145D01*
X0112996Y0075728D01*
X0111745Y0075728D01*
X0114507Y0074894D02*
X0115342Y0074894D01*
X0114925Y0074894D02*
X0114925Y0077396D01*
X0115342Y0077396D02*
X0114507Y0077396D01*
X0116349Y0077396D02*
X0118017Y0074894D01*
X0118017Y0077396D01*
X0119111Y0076562D02*
X0119945Y0077396D01*
X0119945Y0074894D01*
X0119111Y0074894D02*
X0120780Y0074894D01*
X0121874Y0074894D02*
X0123542Y0074894D01*
X0122708Y0074894D02*
X0122708Y0077396D01*
X0121874Y0076562D01*
X0116349Y0077396D02*
X0116349Y0074894D01*
X0132428Y0074894D02*
X0132428Y0077396D01*
X0133679Y0077396D01*
X0134096Y0076979D01*
X0134096Y0076145D01*
X0133679Y0075728D01*
X0132428Y0075728D01*
X0133262Y0075728D02*
X0134096Y0074894D01*
X0135191Y0074894D02*
X0136859Y0076562D01*
X0136859Y0076979D01*
X0136442Y0077396D01*
X0135608Y0077396D01*
X0135191Y0076979D01*
X0135191Y0074894D02*
X0136859Y0074894D01*
X0150019Y0079833D02*
X0159862Y0079833D01*
X0159862Y0087904D01*
X0159862Y0095384D02*
X0159862Y0103455D01*
X0150019Y0103455D01*
X0151047Y0104894D02*
X0152715Y0104894D01*
X0151881Y0104894D02*
X0151881Y0107396D01*
X0151047Y0106562D01*
X0153809Y0106979D02*
X0154226Y0107396D01*
X0155061Y0107396D01*
X0155478Y0106979D01*
X0155478Y0106562D01*
X0153809Y0104894D01*
X0155478Y0104894D01*
X0156572Y0105311D02*
X0158240Y0106979D01*
X0158240Y0105311D01*
X0157823Y0104894D01*
X0156989Y0104894D01*
X0156572Y0105311D01*
X0156572Y0106979D01*
X0156989Y0107396D01*
X0157823Y0107396D01*
X0158240Y0106979D01*
X0150019Y0094793D02*
X0150019Y0088494D01*
X0147691Y0089548D02*
X0147691Y0090382D01*
X0147274Y0090800D01*
X0146857Y0090800D01*
X0146440Y0090382D01*
X0146440Y0089548D01*
X0146023Y0089131D01*
X0145606Y0089131D01*
X0145189Y0089548D01*
X0145189Y0090382D01*
X0145606Y0090800D01*
X0145606Y0091894D02*
X0145189Y0092311D01*
X0145189Y0093145D01*
X0145606Y0093562D01*
X0146023Y0093562D01*
X0147691Y0091894D01*
X0147691Y0093562D01*
X0147691Y0089548D02*
X0147274Y0089131D01*
X0151881Y0078396D02*
X0151881Y0075894D01*
X0151047Y0075894D02*
X0152715Y0075894D01*
X0153809Y0076311D02*
X0153809Y0076728D01*
X0154226Y0077145D01*
X0155061Y0077145D01*
X0155478Y0076728D01*
X0155478Y0076311D01*
X0155061Y0075894D01*
X0154226Y0075894D01*
X0153809Y0076311D01*
X0154226Y0077145D02*
X0153809Y0077562D01*
X0153809Y0077979D01*
X0154226Y0078396D01*
X0155061Y0078396D01*
X0155478Y0077979D01*
X0155478Y0077562D01*
X0155061Y0077145D01*
X0156572Y0076311D02*
X0156572Y0077979D01*
X0156989Y0078396D01*
X0157823Y0078396D01*
X0158240Y0077979D01*
X0156572Y0076311D01*
X0156989Y0075894D01*
X0157823Y0075894D01*
X0158240Y0076311D01*
X0158240Y0077979D01*
X0151881Y0078396D02*
X0151047Y0077562D01*
X0134823Y0088894D02*
X0134823Y0091396D01*
X0133572Y0090145D01*
X0135240Y0090145D01*
X0132478Y0088894D02*
X0130809Y0088894D01*
X0131643Y0088894D02*
X0131643Y0091396D01*
X0130809Y0090562D01*
X0129715Y0090979D02*
X0129715Y0090145D01*
X0129298Y0089728D01*
X0128047Y0089728D01*
X0128881Y0089728D02*
X0129715Y0088894D01*
X0128047Y0088894D02*
X0128047Y0091396D01*
X0129298Y0091396D01*
X0129715Y0090979D01*
X0129715Y0102894D02*
X0128881Y0103728D01*
X0129298Y0103728D02*
X0128047Y0103728D01*
X0128047Y0102894D02*
X0128047Y0105396D01*
X0129298Y0105396D01*
X0129715Y0104979D01*
X0129715Y0104145D01*
X0129298Y0103728D01*
X0130809Y0104562D02*
X0131643Y0105396D01*
X0131643Y0102894D01*
X0130809Y0102894D02*
X0132478Y0102894D01*
X0133572Y0103311D02*
X0133989Y0102894D01*
X0134823Y0102894D01*
X0135240Y0103311D01*
X0135240Y0103728D01*
X0134823Y0104145D01*
X0134406Y0104145D01*
X0134823Y0104145D02*
X0135240Y0104562D01*
X0135240Y0104979D01*
X0134823Y0105396D01*
X0133989Y0105396D01*
X0133572Y0104979D01*
X0133189Y0116750D02*
X0133189Y0118001D01*
X0133606Y0118418D01*
X0134440Y0118418D01*
X0134857Y0118001D01*
X0134857Y0116750D01*
X0135691Y0116750D02*
X0133189Y0116750D01*
X0134857Y0117584D02*
X0135691Y0118418D01*
X0135691Y0119513D02*
X0135691Y0121181D01*
X0135691Y0120347D02*
X0133189Y0120347D01*
X0134023Y0119513D01*
X0133606Y0122275D02*
X0133189Y0122692D01*
X0133189Y0123526D01*
X0133606Y0123943D01*
X0134023Y0123943D01*
X0135691Y0122275D01*
X0135691Y0123943D01*
X0135691Y0137750D02*
X0133189Y0137750D01*
X0133189Y0139001D01*
X0133606Y0139418D01*
X0134440Y0139418D01*
X0134857Y0139001D01*
X0134857Y0137750D01*
X0134857Y0138584D02*
X0135691Y0139418D01*
X0135691Y0140513D02*
X0135691Y0142181D01*
X0135691Y0141347D02*
X0133189Y0141347D01*
X0134023Y0140513D01*
X0134023Y0143275D02*
X0133189Y0144109D01*
X0135691Y0144109D01*
X0135691Y0143275D02*
X0135691Y0144943D01*
X0151428Y0147894D02*
X0151428Y0150396D01*
X0152679Y0150396D01*
X0153096Y0149979D01*
X0153096Y0149145D01*
X0152679Y0148728D01*
X0151428Y0148728D01*
X0152262Y0148728D02*
X0153096Y0147894D01*
X0154191Y0147894D02*
X0155859Y0150396D01*
X0154191Y0150396D02*
X0155859Y0147894D01*
X0160191Y0145519D02*
X0160191Y0141769D01*
X0155859Y0137979D02*
X0155859Y0137562D01*
X0155442Y0137145D01*
X0154608Y0137145D01*
X0154191Y0137562D01*
X0154191Y0137979D01*
X0154608Y0138396D01*
X0155442Y0138396D01*
X0155859Y0137979D01*
X0155442Y0137145D02*
X0155859Y0136728D01*
X0155859Y0136311D01*
X0155442Y0135894D01*
X0154608Y0135894D01*
X0154191Y0136311D01*
X0154191Y0136728D01*
X0154608Y0137145D01*
X0153096Y0137145D02*
X0152679Y0136728D01*
X0151428Y0136728D01*
X0151428Y0135894D02*
X0151428Y0138396D01*
X0152679Y0138396D01*
X0153096Y0137979D01*
X0153096Y0137145D01*
X0152262Y0136728D02*
X0153096Y0135894D01*
X0152845Y0126396D02*
X0152428Y0125979D01*
X0152428Y0124311D01*
X0152845Y0123894D01*
X0153679Y0123894D01*
X0154096Y0124311D01*
X0154096Y0125979D01*
X0153679Y0126396D01*
X0152845Y0126396D01*
X0153262Y0124728D02*
X0154096Y0123894D01*
X0155191Y0124311D02*
X0155608Y0123894D01*
X0156442Y0123894D01*
X0156859Y0124311D01*
X0156859Y0124728D01*
X0156442Y0125145D01*
X0156025Y0125145D01*
X0156442Y0125145D02*
X0156859Y0125562D01*
X0156859Y0125979D01*
X0156442Y0126396D01*
X0155608Y0126396D01*
X0155191Y0125979D01*
X0172428Y0125979D02*
X0172428Y0124311D01*
X0172845Y0123894D01*
X0173679Y0123894D01*
X0174096Y0124311D01*
X0174096Y0125979D01*
X0173679Y0126396D01*
X0172845Y0126396D01*
X0172428Y0125979D01*
X0173262Y0124728D02*
X0174096Y0123894D01*
X0175191Y0123894D02*
X0176859Y0125562D01*
X0176859Y0125979D01*
X0176442Y0126396D01*
X0175608Y0126396D01*
X0175191Y0125979D01*
X0175191Y0123894D02*
X0176859Y0123894D01*
X0185189Y0125548D02*
X0185606Y0125131D01*
X0186023Y0125131D01*
X0186440Y0125548D01*
X0186440Y0126382D01*
X0186857Y0126800D01*
X0187274Y0126800D01*
X0187691Y0126382D01*
X0187691Y0125548D01*
X0187274Y0125131D01*
X0185189Y0125548D02*
X0185189Y0126382D01*
X0185606Y0126800D01*
X0186023Y0127894D02*
X0185189Y0128728D01*
X0187691Y0128728D01*
X0187691Y0127894D02*
X0187691Y0129562D01*
X0195263Y0138274D02*
X0210618Y0138274D01*
X0211017Y0140894D02*
X0211017Y0143396D01*
X0212268Y0143396D01*
X0212685Y0142979D01*
X0212685Y0142145D01*
X0212268Y0141728D01*
X0211017Y0141728D01*
X0211851Y0141728D02*
X0212685Y0140894D01*
X0213780Y0140894D02*
X0213780Y0143396D01*
X0213780Y0140894D02*
X0215448Y0140894D01*
X0217189Y0143750D02*
X0217189Y0145001D01*
X0217606Y0145418D01*
X0218440Y0145418D01*
X0218857Y0145001D01*
X0218857Y0143750D01*
X0219691Y0143750D02*
X0217189Y0143750D01*
X0218857Y0144584D02*
X0219691Y0145418D01*
X0219691Y0146513D02*
X0219691Y0148181D01*
X0219691Y0147347D02*
X0217189Y0147347D01*
X0218023Y0146513D01*
X0217606Y0149275D02*
X0217189Y0149692D01*
X0217189Y0150526D01*
X0217606Y0150943D01*
X0219274Y0149275D01*
X0219691Y0149692D01*
X0219691Y0150526D01*
X0219274Y0150943D01*
X0217606Y0150943D01*
X0217606Y0149275D02*
X0219274Y0149275D01*
X0209923Y0143396D02*
X0208255Y0143396D01*
X0209089Y0143396D02*
X0209089Y0140894D01*
X0207161Y0141311D02*
X0206744Y0140894D01*
X0205910Y0140894D01*
X0205493Y0141311D01*
X0205493Y0142979D01*
X0205910Y0143396D01*
X0206744Y0143396D01*
X0207161Y0142979D01*
X0204398Y0140477D02*
X0202730Y0140477D01*
X0201636Y0141311D02*
X0201219Y0140894D01*
X0200385Y0140894D01*
X0199968Y0141311D01*
X0199968Y0142145D02*
X0200802Y0142562D01*
X0201219Y0142562D01*
X0201636Y0142145D01*
X0201636Y0141311D01*
X0199968Y0142145D02*
X0199968Y0143396D01*
X0201636Y0143396D01*
X0198874Y0140894D02*
X0197206Y0140894D01*
X0198040Y0140894D02*
X0198040Y0143396D01*
X0197206Y0142562D01*
X0196111Y0143396D02*
X0196111Y0140894D01*
X0194443Y0143396D01*
X0194443Y0140894D01*
X0193436Y0140894D02*
X0192602Y0140894D01*
X0193019Y0140894D02*
X0193019Y0143396D01*
X0192602Y0143396D02*
X0193436Y0143396D01*
X0191507Y0142979D02*
X0191507Y0142145D01*
X0191090Y0141728D01*
X0189839Y0141728D01*
X0189839Y0140894D02*
X0189839Y0143396D01*
X0191090Y0143396D01*
X0191507Y0142979D01*
X0180191Y0141769D02*
X0180191Y0145519D01*
X0175859Y0147894D02*
X0174191Y0150396D01*
X0173096Y0150396D02*
X0171428Y0150396D01*
X0172262Y0150396D02*
X0172262Y0147894D01*
X0174191Y0147894D02*
X0175859Y0150396D01*
X0175859Y0138396D02*
X0175859Y0137979D01*
X0174191Y0136311D01*
X0174191Y0135894D01*
X0173096Y0135894D02*
X0172262Y0136728D01*
X0172679Y0136728D02*
X0171428Y0136728D01*
X0171428Y0135894D02*
X0171428Y0138396D01*
X0172679Y0138396D01*
X0173096Y0137979D01*
X0173096Y0137145D01*
X0172679Y0136728D01*
X0174191Y0138396D02*
X0175859Y0138396D01*
X0192047Y0154894D02*
X0192047Y0157396D01*
X0193298Y0157396D01*
X0193715Y0156979D01*
X0193715Y0156145D01*
X0193298Y0155728D01*
X0192047Y0155728D01*
X0192881Y0155728D02*
X0193715Y0154894D01*
X0194809Y0154894D02*
X0196478Y0154894D01*
X0195643Y0154894D02*
X0195643Y0157396D01*
X0194809Y0156562D01*
X0197572Y0156145D02*
X0198406Y0156562D01*
X0198823Y0156562D01*
X0199240Y0156145D01*
X0199240Y0155311D01*
X0198823Y0154894D01*
X0197989Y0154894D01*
X0197572Y0155311D01*
X0197572Y0156145D02*
X0197572Y0157396D01*
X0199240Y0157396D01*
X0192442Y0170894D02*
X0191608Y0170894D01*
X0191191Y0171311D01*
X0191191Y0172145D01*
X0192442Y0172145D01*
X0192859Y0171728D01*
X0192859Y0171311D01*
X0192442Y0170894D01*
X0191191Y0172145D02*
X0192025Y0172979D01*
X0192859Y0173396D01*
X0190096Y0172979D02*
X0190096Y0172145D01*
X0189679Y0171728D01*
X0188428Y0171728D01*
X0188428Y0170894D02*
X0188428Y0173396D01*
X0189679Y0173396D01*
X0190096Y0172979D01*
X0189262Y0171728D02*
X0190096Y0170894D01*
X0174240Y0170894D02*
X0173406Y0171728D01*
X0173823Y0171728D02*
X0172572Y0171728D01*
X0172572Y0170894D02*
X0172572Y0173396D01*
X0173823Y0173396D01*
X0174240Y0172979D01*
X0174240Y0172145D01*
X0173823Y0171728D01*
X0171478Y0170894D02*
X0171478Y0173396D01*
X0169809Y0173396D02*
X0169809Y0170894D01*
X0170643Y0171728D01*
X0171478Y0170894D01*
X0168715Y0172145D02*
X0168715Y0172979D01*
X0168298Y0173396D01*
X0167047Y0173396D01*
X0167047Y0170894D01*
X0167047Y0171728D02*
X0168298Y0171728D01*
X0168715Y0172145D01*
X0164691Y0168519D02*
X0164691Y0164769D01*
X0160941Y0202644D02*
X0160941Y0214644D01*
X0158691Y0210562D02*
X0158691Y0208894D01*
X0158691Y0209728D02*
X0156189Y0209728D01*
X0157023Y0208894D01*
X0156189Y0207800D02*
X0156189Y0206131D01*
X0158691Y0206131D01*
X0157440Y0206131D02*
X0157440Y0206965D01*
X0174941Y0202644D02*
X0174941Y0214644D01*
X0187845Y0232894D02*
X0188679Y0232894D01*
X0189096Y0233311D01*
X0190191Y0232894D02*
X0191859Y0234562D01*
X0191859Y0234979D01*
X0191442Y0235396D01*
X0190608Y0235396D01*
X0190191Y0234979D01*
X0189096Y0234979D02*
X0188679Y0235396D01*
X0187845Y0235396D01*
X0187428Y0234979D01*
X0187428Y0233311D01*
X0187845Y0232894D01*
X0190191Y0232894D02*
X0191859Y0232894D01*
X0201428Y0223979D02*
X0201428Y0222311D01*
X0201845Y0221894D01*
X0202679Y0221894D01*
X0203096Y0222311D01*
X0203096Y0223979D01*
X0202679Y0224396D01*
X0201845Y0224396D01*
X0201428Y0223979D01*
X0202262Y0222728D02*
X0203096Y0221894D01*
X0204191Y0222311D02*
X0204608Y0221894D01*
X0205442Y0221894D01*
X0205859Y0222311D01*
X0205859Y0223145D01*
X0205442Y0223562D01*
X0205025Y0223562D01*
X0204191Y0223145D01*
X0204191Y0224396D01*
X0205859Y0224396D01*
X0206303Y0219974D02*
X0201578Y0219974D01*
X0213189Y0220131D02*
X0213189Y0221382D01*
X0213606Y0221800D01*
X0214440Y0221800D01*
X0214857Y0221382D01*
X0214857Y0220131D01*
X0215691Y0220131D02*
X0213189Y0220131D01*
X0214857Y0220965D02*
X0215691Y0221800D01*
X0215691Y0222894D02*
X0215691Y0224562D01*
X0215691Y0223728D02*
X0213189Y0223728D01*
X0214023Y0222894D01*
X0210941Y0231144D02*
X0228941Y0231144D01*
X0229189Y0230894D02*
X0230857Y0230894D01*
X0231691Y0231728D01*
X0230857Y0232562D01*
X0229189Y0232562D01*
X0229189Y0229800D02*
X0229189Y0228131D01*
X0230440Y0228131D01*
X0230023Y0228965D01*
X0230023Y0229382D01*
X0230440Y0229800D01*
X0231274Y0229800D01*
X0231691Y0229382D01*
X0231691Y0228548D01*
X0231274Y0228131D01*
X0222941Y0234644D02*
X0222941Y0242644D01*
X0220981Y0239950D02*
X0216941Y0239950D01*
X0216941Y0239452D02*
X0221729Y0239452D01*
X0222477Y0238953D02*
X0216941Y0238953D01*
X0216941Y0238455D02*
X0222657Y0238455D01*
X0222941Y0238644D02*
X0216941Y0242644D01*
X0216941Y0234644D01*
X0222941Y0238644D01*
X0221909Y0237956D02*
X0216941Y0237956D01*
X0216941Y0237458D02*
X0221161Y0237458D01*
X0220413Y0236959D02*
X0216941Y0236959D01*
X0216941Y0236460D02*
X0219666Y0236460D01*
X0218918Y0235962D02*
X0216941Y0235962D01*
X0216941Y0235463D02*
X0218170Y0235463D01*
X0217422Y0234965D02*
X0216941Y0234965D01*
X0216941Y0240449D02*
X0220233Y0240449D01*
X0219486Y0240947D02*
X0216941Y0240947D01*
X0216941Y0241446D02*
X0218738Y0241446D01*
X0217990Y0241944D02*
X0216941Y0241944D01*
X0216941Y0242443D02*
X0217242Y0242443D01*
X0217428Y0247894D02*
X0218679Y0247894D01*
X0219096Y0248311D01*
X0219096Y0249979D01*
X0218679Y0250396D01*
X0217428Y0250396D01*
X0217428Y0247894D01*
X0220191Y0247894D02*
X0221859Y0247894D01*
X0221025Y0247894D02*
X0221025Y0250396D01*
X0220191Y0249562D01*
X0228941Y0246144D02*
X0210941Y0246144D01*
X0230845Y0220396D02*
X0230428Y0219979D01*
X0230428Y0218311D01*
X0230845Y0217894D01*
X0231679Y0217894D01*
X0232096Y0218311D01*
X0233191Y0218311D02*
X0233608Y0217894D01*
X0234442Y0217894D01*
X0234859Y0218311D01*
X0234859Y0218728D01*
X0234442Y0219145D01*
X0234025Y0219145D01*
X0234442Y0219145D02*
X0234859Y0219562D01*
X0234859Y0219979D01*
X0234442Y0220396D01*
X0233608Y0220396D01*
X0233191Y0219979D01*
X0232096Y0219979D02*
X0231679Y0220396D01*
X0230845Y0220396D01*
X0231691Y0202562D02*
X0229189Y0200894D01*
X0229189Y0199800D02*
X0229189Y0198131D01*
X0229189Y0198965D02*
X0231691Y0198965D01*
X0231691Y0200894D02*
X0229189Y0202562D01*
X0221859Y0200979D02*
X0221859Y0200562D01*
X0221442Y0200145D01*
X0221859Y0199728D01*
X0221859Y0199311D01*
X0221442Y0198894D01*
X0220608Y0198894D01*
X0220191Y0199311D01*
X0219096Y0198894D02*
X0218262Y0199728D01*
X0218679Y0199728D02*
X0217428Y0199728D01*
X0217428Y0198894D02*
X0217428Y0201396D01*
X0218679Y0201396D01*
X0219096Y0200979D01*
X0219096Y0200145D01*
X0218679Y0199728D01*
X0220191Y0200979D02*
X0220608Y0201396D01*
X0221442Y0201396D01*
X0221859Y0200979D01*
X0221442Y0200145D02*
X0221025Y0200145D01*
X0229189Y0192562D02*
X0231691Y0190894D01*
X0231691Y0189800D02*
X0230857Y0188965D01*
X0230857Y0189382D02*
X0230857Y0188131D01*
X0231691Y0188131D02*
X0229189Y0188131D01*
X0229189Y0189382D01*
X0229606Y0189800D01*
X0230440Y0189800D01*
X0230857Y0189382D01*
X0229189Y0190894D02*
X0231691Y0192562D01*
X0234904Y0191479D02*
X0234904Y0189811D01*
X0235321Y0189394D01*
X0236155Y0189394D01*
X0236572Y0189811D01*
X0236572Y0190645D01*
X0235738Y0190645D01*
X0236572Y0191479D02*
X0236155Y0191896D01*
X0235321Y0191896D01*
X0234904Y0191479D01*
X0237666Y0191896D02*
X0239334Y0189394D01*
X0239334Y0191896D01*
X0240428Y0191896D02*
X0241679Y0191896D01*
X0242096Y0191479D01*
X0242096Y0189811D01*
X0241679Y0189394D01*
X0240428Y0189394D01*
X0240428Y0191896D01*
X0237666Y0191896D02*
X0237666Y0189394D01*
X0238500Y0181896D02*
X0237666Y0181062D01*
X0238500Y0181896D02*
X0238500Y0179394D01*
X0237666Y0179394D02*
X0239334Y0179394D01*
X0240428Y0179394D02*
X0242096Y0179394D01*
X0241262Y0179394D02*
X0241262Y0181896D01*
X0240428Y0181062D01*
X0236572Y0181896D02*
X0236572Y0179394D01*
X0234904Y0181896D01*
X0234904Y0179394D01*
X0233896Y0179394D02*
X0233062Y0179394D01*
X0233479Y0179394D02*
X0233479Y0181896D01*
X0233062Y0181896D02*
X0233896Y0181896D01*
X0231968Y0181479D02*
X0231968Y0180645D01*
X0231551Y0180228D01*
X0230300Y0180228D01*
X0230300Y0179394D02*
X0230300Y0181896D01*
X0231551Y0181896D01*
X0231968Y0181479D01*
X0231551Y0161896D02*
X0231968Y0161479D01*
X0231968Y0160645D01*
X0231551Y0160228D01*
X0230300Y0160228D01*
X0230300Y0159394D02*
X0230300Y0161896D01*
X0231551Y0161896D01*
X0233062Y0161896D02*
X0233896Y0161896D01*
X0233479Y0161896D02*
X0233479Y0159394D01*
X0233062Y0159394D02*
X0233896Y0159394D01*
X0234904Y0159394D02*
X0234904Y0161896D01*
X0236572Y0159394D01*
X0236572Y0161896D01*
X0237666Y0161062D02*
X0238500Y0161896D01*
X0238500Y0159394D01*
X0237666Y0159394D02*
X0239334Y0159394D01*
X0240428Y0159811D02*
X0240845Y0159394D01*
X0241679Y0159394D01*
X0242096Y0159811D01*
X0242096Y0160645D01*
X0241679Y0161062D01*
X0241262Y0161062D01*
X0240428Y0160645D01*
X0240428Y0161896D01*
X0242096Y0161896D01*
X0241679Y0151896D02*
X0240845Y0151896D01*
X0240428Y0151479D01*
X0239334Y0151896D02*
X0239334Y0150228D01*
X0238500Y0149394D01*
X0237666Y0150228D01*
X0237666Y0151896D01*
X0236572Y0151479D02*
X0236572Y0151062D01*
X0236155Y0150645D01*
X0236572Y0150228D01*
X0236572Y0149811D01*
X0236155Y0149394D01*
X0235321Y0149394D01*
X0234904Y0149811D01*
X0235738Y0150645D02*
X0236155Y0150645D01*
X0236572Y0151479D02*
X0236155Y0151896D01*
X0235321Y0151896D01*
X0234904Y0151479D01*
X0240428Y0149811D02*
X0240845Y0149394D01*
X0241679Y0149394D01*
X0242096Y0149811D01*
X0242096Y0150228D01*
X0241679Y0150645D01*
X0241262Y0150645D01*
X0241679Y0150645D02*
X0242096Y0151062D01*
X0242096Y0151479D01*
X0241679Y0151896D01*
X0229025Y0134396D02*
X0228191Y0133562D01*
X0227096Y0133979D02*
X0227096Y0132311D01*
X0226679Y0131894D01*
X0225845Y0131894D01*
X0225428Y0132311D01*
X0225428Y0133979D01*
X0225845Y0134396D01*
X0226679Y0134396D01*
X0227096Y0133979D01*
X0226262Y0132728D02*
X0227096Y0131894D01*
X0228191Y0131894D02*
X0229859Y0131894D01*
X0229025Y0131894D02*
X0229025Y0134396D01*
X0210618Y0117014D02*
X0195263Y0117014D01*
X0195190Y0114396D02*
X0193522Y0114396D01*
X0194356Y0114396D02*
X0194356Y0111894D01*
X0196285Y0111894D02*
X0197953Y0114396D01*
X0196285Y0114396D02*
X0197953Y0111894D01*
X0199047Y0111477D02*
X0200715Y0111477D01*
X0201809Y0112311D02*
X0201809Y0113979D01*
X0202226Y0114396D01*
X0203060Y0114396D01*
X0203478Y0113979D01*
X0204572Y0114396D02*
X0206240Y0114396D01*
X0205406Y0114396D02*
X0205406Y0111894D01*
X0207334Y0111894D02*
X0207334Y0114396D01*
X0208585Y0114396D01*
X0209002Y0113979D01*
X0209002Y0113145D01*
X0208585Y0112728D01*
X0207334Y0112728D01*
X0208168Y0112728D02*
X0209002Y0111894D01*
X0210096Y0111894D02*
X0211765Y0111894D01*
X0210096Y0111894D02*
X0210096Y0114396D01*
X0203478Y0112311D02*
X0203060Y0111894D01*
X0202226Y0111894D01*
X0201809Y0112311D01*
X0193025Y0107396D02*
X0193025Y0104894D01*
X0192191Y0104894D02*
X0193859Y0104894D01*
X0192191Y0106562D02*
X0193025Y0107396D01*
X0191096Y0107396D02*
X0191096Y0105311D01*
X0190679Y0104894D01*
X0189845Y0104894D01*
X0189428Y0105311D01*
X0189428Y0107396D01*
X0222428Y0103396D02*
X0222428Y0100894D01*
X0222428Y0101728D02*
X0223679Y0101728D01*
X0224096Y0102145D01*
X0224096Y0102979D01*
X0223679Y0103396D01*
X0222428Y0103396D01*
X0223262Y0101728D02*
X0224096Y0100894D01*
X0225191Y0101311D02*
X0225608Y0100894D01*
X0226442Y0100894D01*
X0226859Y0101311D01*
X0226859Y0102979D01*
X0226442Y0103396D01*
X0225608Y0103396D01*
X0225191Y0102979D01*
X0225191Y0102562D01*
X0225608Y0102145D01*
X0226859Y0102145D01*
X0234904Y0109811D02*
X0235321Y0109394D01*
X0236155Y0109394D01*
X0236572Y0109811D01*
X0236572Y0110645D01*
X0235738Y0110645D01*
X0236572Y0111479D02*
X0236155Y0111896D01*
X0235321Y0111896D01*
X0234904Y0111479D01*
X0234904Y0109811D01*
X0237666Y0109394D02*
X0237666Y0111896D01*
X0239334Y0109394D01*
X0239334Y0111896D01*
X0240428Y0111896D02*
X0241679Y0111896D01*
X0242096Y0111479D01*
X0242096Y0109811D01*
X0241679Y0109394D01*
X0240428Y0109394D01*
X0240428Y0111896D01*
X0175691Y0077562D02*
X0175691Y0075894D01*
X0175691Y0076728D02*
X0173189Y0076728D01*
X0174023Y0075894D01*
X0173606Y0074800D02*
X0173189Y0074382D01*
X0173189Y0073548D01*
X0173606Y0073131D01*
X0175274Y0073131D01*
X0175691Y0073548D01*
X0175691Y0074382D01*
X0175274Y0074800D01*
X0234904Y0041479D02*
X0234904Y0039811D01*
X0235321Y0039394D01*
X0236155Y0039394D01*
X0236572Y0039811D01*
X0236572Y0040645D01*
X0235738Y0040645D01*
X0236572Y0041479D02*
X0236155Y0041896D01*
X0235321Y0041896D01*
X0234904Y0041479D01*
X0237666Y0041896D02*
X0239334Y0039394D01*
X0239334Y0041896D01*
X0240428Y0041896D02*
X0241679Y0041896D01*
X0242096Y0041479D01*
X0242096Y0039811D01*
X0241679Y0039394D01*
X0240428Y0039394D01*
X0240428Y0041896D01*
X0237666Y0041896D02*
X0237666Y0039394D01*
X0104857Y0187369D02*
X0103189Y0187369D01*
X0104857Y0187369D02*
X0105691Y0188203D01*
X0104857Y0189037D01*
X0103189Y0189037D01*
X0103606Y0190131D02*
X0105274Y0190131D01*
X0105691Y0190548D01*
X0105691Y0191382D01*
X0105274Y0191800D01*
X0103606Y0191800D01*
X0103189Y0191382D01*
X0103189Y0190548D01*
X0103606Y0190131D01*
X0103189Y0192894D02*
X0105274Y0192894D01*
X0105691Y0193311D01*
X0105691Y0194145D01*
X0105274Y0194562D01*
X0103189Y0194562D01*
X0103189Y0195656D02*
X0103189Y0197324D01*
X0103189Y0196490D02*
X0105691Y0196490D01*
X0105274Y0198750D02*
X0103606Y0198750D01*
X0103189Y0199167D01*
X0103189Y0200001D01*
X0103606Y0200418D01*
X0104440Y0200418D02*
X0104440Y0199584D01*
X0104440Y0200418D02*
X0105274Y0200418D01*
X0105691Y0200001D01*
X0105691Y0199167D01*
X0105274Y0198750D01*
X0105691Y0201513D02*
X0103189Y0201513D01*
X0105691Y0203181D01*
X0103189Y0203181D01*
X0103189Y0204275D02*
X0103189Y0205526D01*
X0103606Y0205943D01*
X0105274Y0205943D01*
X0105691Y0205526D01*
X0105691Y0204275D01*
X0103189Y0204275D01*
X0103189Y0209211D02*
X0104857Y0209211D01*
X0105691Y0210045D01*
X0104857Y0210879D01*
X0103189Y0210879D01*
X0103189Y0211973D02*
X0103189Y0212807D01*
X0103189Y0212390D02*
X0105691Y0212390D01*
X0105691Y0211973D02*
X0105691Y0212807D01*
X0105691Y0213815D02*
X0103189Y0213815D01*
X0105691Y0215483D01*
X0103189Y0215483D01*
X0199428Y0207979D02*
X0199428Y0206311D01*
X0199845Y0205894D01*
X0200679Y0205894D01*
X0201096Y0206311D01*
X0201096Y0207979D01*
X0200679Y0208396D01*
X0199845Y0208396D01*
X0199428Y0207979D01*
X0200262Y0206728D02*
X0201096Y0205894D01*
X0202191Y0207145D02*
X0203859Y0207145D01*
X0203442Y0208396D02*
X0202191Y0207145D01*
X0203442Y0205894D02*
X0203442Y0208396D01*
X0201578Y0211313D02*
X0206303Y0211313D01*
D11*
X0093406Y0222939D02*
X0089470Y0222939D01*
X0091438Y0220971D02*
X0091438Y0224908D01*
X0091438Y0203908D02*
X0091438Y0199971D01*
X0091438Y0183908D02*
X0091438Y0181939D01*
X0091438Y0183908D02*
X0093406Y0183908D01*
X0094391Y0182924D01*
X0094391Y0180955D01*
X0093406Y0179971D01*
X0089470Y0179971D01*
X0088486Y0180955D01*
X0088486Y0182924D01*
X0089470Y0183908D01*
X0082241Y0165953D02*
X0079288Y0165953D01*
X0079288Y0160048D01*
X0079288Y0162016D02*
X0082241Y0162016D01*
X0083225Y0163001D01*
X0083225Y0164969D01*
X0082241Y0165953D01*
X0081257Y0162016D02*
X0083225Y0160048D01*
X0076780Y0160048D02*
X0072843Y0160048D01*
X0072843Y0165953D01*
X0076780Y0165953D01*
X0074811Y0163001D02*
X0072843Y0163001D01*
X0070334Y0160048D02*
X0070334Y0165953D01*
X0068366Y0162016D02*
X0070334Y0160048D01*
X0068366Y0162016D02*
X0066397Y0160048D01*
X0066397Y0165953D01*
X0063889Y0164969D02*
X0062904Y0165953D01*
X0060936Y0165953D01*
X0059952Y0164969D01*
X0059952Y0161032D01*
X0060936Y0160048D01*
X0062904Y0160048D01*
X0063889Y0161032D01*
X0063889Y0164969D01*
X0057443Y0164969D02*
X0057443Y0163001D01*
X0056459Y0162016D01*
X0053506Y0162016D01*
X0053506Y0160048D02*
X0053506Y0165953D01*
X0056459Y0165953D01*
X0057443Y0164969D01*
X0080105Y0080418D02*
X0077152Y0077465D01*
X0081089Y0077465D01*
X0083598Y0076481D02*
X0084582Y0077465D01*
X0086550Y0077465D01*
X0087534Y0076481D01*
X0087534Y0075497D01*
X0086550Y0074513D01*
X0084582Y0074513D01*
X0083598Y0075497D01*
X0083598Y0076481D01*
X0084582Y0077465D02*
X0083598Y0078449D01*
X0083598Y0079434D01*
X0084582Y0080418D01*
X0086550Y0080418D01*
X0087534Y0079434D01*
X0087534Y0078449D01*
X0086550Y0077465D01*
X0090043Y0077465D02*
X0090043Y0080418D01*
X0093980Y0080418D01*
X0092996Y0078449D02*
X0093980Y0077465D01*
X0093980Y0075497D01*
X0092996Y0074513D01*
X0091027Y0074513D01*
X0090043Y0075497D01*
X0090043Y0077465D02*
X0092011Y0078449D01*
X0092996Y0078449D01*
X0080105Y0080418D02*
X0080105Y0074513D01*
D12*
X0114341Y0062247D02*
X0114341Y0058744D01*
X0115041Y0058044D01*
X0116442Y0058044D01*
X0117143Y0058744D01*
X0117143Y0062247D01*
X0118945Y0060846D02*
X0121046Y0060846D01*
X0121747Y0060146D01*
X0121747Y0058044D01*
X0123548Y0058044D02*
X0124950Y0058044D01*
X0124249Y0058044D02*
X0124249Y0060846D01*
X0123548Y0060846D01*
X0124249Y0062247D02*
X0124249Y0062948D01*
X0126618Y0060846D02*
X0128019Y0058044D01*
X0129420Y0060846D01*
X0131222Y0058744D02*
X0131222Y0058044D01*
X0131922Y0058044D01*
X0131922Y0058744D01*
X0131222Y0058744D01*
X0138128Y0058744D02*
X0138828Y0058044D01*
X0140229Y0058044D01*
X0140930Y0058744D01*
X0140930Y0060146D01*
X0140229Y0060846D01*
X0138828Y0060846D01*
X0138128Y0060146D01*
X0138128Y0058744D01*
X0142731Y0060146D02*
X0144133Y0060146D01*
X0143432Y0061547D02*
X0143432Y0058044D01*
X0145033Y0054247D02*
X0146435Y0052846D01*
X0147836Y0054247D01*
X0147836Y0050044D01*
X0149637Y0050744D02*
X0150338Y0050044D01*
X0151739Y0050044D01*
X0152440Y0050744D01*
X0152440Y0052146D01*
X0151739Y0052846D01*
X0150338Y0052846D01*
X0149637Y0052146D01*
X0149637Y0050744D01*
X0154241Y0050744D02*
X0154942Y0050044D01*
X0157044Y0050044D01*
X0157044Y0054247D01*
X0157044Y0052846D02*
X0154942Y0052846D01*
X0154241Y0052146D01*
X0154241Y0050744D01*
X0158845Y0050044D02*
X0160947Y0050044D01*
X0161648Y0050744D01*
X0161648Y0052146D01*
X0160947Y0052846D01*
X0158845Y0052846D01*
X0158845Y0054247D02*
X0158845Y0050044D01*
X0163449Y0050744D02*
X0164150Y0050044D01*
X0166252Y0050044D01*
X0166252Y0052846D01*
X0168053Y0052146D02*
X0168754Y0052846D01*
X0170855Y0052846D01*
X0170155Y0051445D02*
X0170855Y0050744D01*
X0170155Y0050044D01*
X0168053Y0050044D01*
X0168754Y0051445D02*
X0168053Y0052146D01*
X0168754Y0051445D02*
X0170155Y0051445D01*
X0170922Y0058044D02*
X0168820Y0058044D01*
X0169521Y0059445D02*
X0168820Y0060146D01*
X0169521Y0060846D01*
X0171623Y0060846D01*
X0170922Y0059445D02*
X0169521Y0059445D01*
X0170922Y0059445D02*
X0171623Y0058744D01*
X0170922Y0058044D01*
X0173424Y0058744D02*
X0174125Y0058044D01*
X0176227Y0058044D01*
X0176227Y0057343D02*
X0175526Y0056643D01*
X0174826Y0056643D01*
X0176227Y0057343D02*
X0176227Y0060846D01*
X0178028Y0062247D02*
X0178729Y0062247D01*
X0178729Y0058044D01*
X0179429Y0058044D02*
X0178028Y0058044D01*
X0177962Y0054247D02*
X0177261Y0053547D01*
X0177261Y0050744D01*
X0177962Y0050044D01*
X0179363Y0050044D01*
X0180063Y0050744D01*
X0180063Y0052146D01*
X0178662Y0052146D01*
X0180063Y0053547D02*
X0179363Y0054247D01*
X0177962Y0054247D01*
X0182565Y0052846D02*
X0183967Y0052846D01*
X0184667Y0052146D01*
X0184667Y0050044D01*
X0182565Y0050044D01*
X0181865Y0050744D01*
X0182565Y0051445D01*
X0184667Y0051445D01*
X0186469Y0052846D02*
X0187870Y0052846D01*
X0187169Y0053547D02*
X0187169Y0050744D01*
X0187870Y0050044D01*
X0189538Y0050744D02*
X0189538Y0052146D01*
X0190239Y0052846D01*
X0191640Y0052846D01*
X0192340Y0052146D01*
X0192340Y0051445D01*
X0189538Y0051445D01*
X0189538Y0050744D02*
X0190239Y0050044D01*
X0191640Y0050044D01*
X0194142Y0050744D02*
X0194843Y0050044D01*
X0195543Y0050744D01*
X0196244Y0050044D01*
X0196944Y0050744D01*
X0196944Y0052846D01*
X0199447Y0052846D02*
X0200848Y0052846D01*
X0201548Y0052146D01*
X0201548Y0050044D01*
X0199447Y0050044D01*
X0198746Y0050744D01*
X0199447Y0051445D01*
X0201548Y0051445D01*
X0203350Y0050744D02*
X0204050Y0050044D01*
X0206152Y0050044D01*
X0206152Y0049343D02*
X0205452Y0048643D01*
X0204751Y0048643D01*
X0206152Y0049343D02*
X0206152Y0052846D01*
X0203350Y0052846D02*
X0203350Y0050744D01*
X0200781Y0058044D02*
X0198679Y0058044D01*
X0197979Y0058744D01*
X0198679Y0059445D01*
X0200781Y0059445D01*
X0200781Y0060146D02*
X0200781Y0058044D01*
X0200781Y0060146D02*
X0200080Y0060846D01*
X0198679Y0060846D01*
X0195610Y0060846D02*
X0195610Y0058044D01*
X0196310Y0058044D02*
X0194909Y0058044D01*
X0193108Y0058044D02*
X0193108Y0060146D01*
X0192407Y0060846D01*
X0190305Y0060846D01*
X0190305Y0058044D01*
X0188504Y0058044D02*
X0188504Y0060146D01*
X0187803Y0060846D01*
X0186402Y0060846D01*
X0186402Y0059445D02*
X0188504Y0059445D01*
X0188504Y0058044D02*
X0186402Y0058044D01*
X0185701Y0058744D01*
X0186402Y0059445D01*
X0183900Y0060846D02*
X0182499Y0058044D01*
X0181098Y0060846D01*
X0173424Y0060846D02*
X0173424Y0058744D01*
X0167019Y0058044D02*
X0167019Y0060146D01*
X0166318Y0060846D01*
X0164216Y0060846D01*
X0164216Y0058044D01*
X0162415Y0058044D02*
X0162415Y0060146D01*
X0161714Y0060846D01*
X0159613Y0060846D01*
X0159613Y0058044D01*
X0157811Y0059445D02*
X0155009Y0059445D01*
X0155009Y0060146D02*
X0155709Y0060846D01*
X0157110Y0060846D01*
X0157811Y0060146D01*
X0157811Y0059445D01*
X0157110Y0058044D02*
X0155709Y0058044D01*
X0155009Y0058744D01*
X0155009Y0060146D01*
X0153207Y0060146D02*
X0152506Y0059445D01*
X0150405Y0059445D01*
X0150405Y0058044D02*
X0150405Y0062247D01*
X0152506Y0062247D01*
X0153207Y0061547D01*
X0153207Y0060146D01*
X0144133Y0062247D02*
X0143432Y0061547D01*
X0145033Y0054247D02*
X0145033Y0050044D01*
X0143232Y0052146D02*
X0140430Y0052146D01*
X0138761Y0052846D02*
X0137360Y0052846D01*
X0138061Y0053547D02*
X0138061Y0050744D01*
X0138761Y0050044D01*
X0135559Y0051445D02*
X0132756Y0051445D01*
X0132756Y0052146D02*
X0133457Y0052846D01*
X0134858Y0052846D01*
X0135559Y0052146D01*
X0135559Y0051445D01*
X0134858Y0050044D02*
X0133457Y0050044D01*
X0132756Y0050744D01*
X0132756Y0052146D01*
X0130955Y0052146D02*
X0130955Y0050044D01*
X0130955Y0052146D02*
X0130254Y0052846D01*
X0128152Y0052846D01*
X0128152Y0050044D01*
X0126351Y0050744D02*
X0125650Y0050044D01*
X0124249Y0050044D01*
X0123548Y0050744D01*
X0123548Y0053547D01*
X0124249Y0054247D01*
X0125650Y0054247D01*
X0126351Y0053547D01*
X0121747Y0052846D02*
X0121747Y0050044D01*
X0121747Y0052146D02*
X0118945Y0052146D01*
X0118945Y0052846D02*
X0120346Y0054247D01*
X0121747Y0052846D01*
X0118945Y0052846D02*
X0118945Y0050044D01*
X0117143Y0050744D02*
X0116442Y0050044D01*
X0114341Y0050044D01*
X0114341Y0054247D01*
X0116442Y0054247D01*
X0117143Y0053547D01*
X0117143Y0052846D01*
X0116442Y0052146D01*
X0114341Y0052146D01*
X0116442Y0052146D02*
X0117143Y0051445D01*
X0117143Y0050744D01*
X0118945Y0058044D02*
X0118945Y0060846D01*
X0118840Y0091138D02*
X0119541Y0091838D01*
X0119541Y0093240D01*
X0118840Y0093940D01*
X0117439Y0093940D01*
X0117439Y0092539D01*
X0116038Y0091138D02*
X0118840Y0091138D01*
X0116038Y0091138D02*
X0115337Y0091838D01*
X0115337Y0093240D01*
X0116038Y0093940D01*
X0115337Y0095742D02*
X0119541Y0098544D01*
X0115337Y0098544D01*
X0115337Y0100346D02*
X0115337Y0102448D01*
X0116038Y0103148D01*
X0118840Y0103148D01*
X0119541Y0102448D01*
X0119541Y0100346D01*
X0115337Y0100346D01*
X0115337Y0095742D02*
X0119541Y0095742D01*
X0115337Y0111138D02*
X0115337Y0113940D01*
X0115337Y0112539D02*
X0119541Y0112539D01*
X0119541Y0115742D02*
X0115337Y0118544D01*
X0117439Y0120346D02*
X0117439Y0123148D01*
X0119541Y0118544D02*
X0115337Y0115742D01*
X0115337Y0131138D02*
X0115337Y0133940D01*
X0115337Y0132539D02*
X0119541Y0132539D01*
X0119541Y0135742D02*
X0115337Y0138544D01*
X0117439Y0140346D02*
X0117439Y0143148D01*
X0116038Y0141747D02*
X0118840Y0141747D01*
X0119541Y0138544D02*
X0115337Y0135742D01*
X0152185Y0122156D02*
X0152185Y0119793D01*
X0152185Y0122156D02*
X0155334Y0122156D01*
X0152185Y0113494D02*
X0152185Y0111132D01*
X0155334Y0111132D01*
X0172185Y0111132D02*
X0175334Y0111132D01*
X0172185Y0111132D02*
X0172185Y0113494D01*
X0172185Y0119793D02*
X0172185Y0122156D01*
X0175334Y0122156D01*
X0227547Y0118132D02*
X0230697Y0118132D01*
X0230697Y0120494D01*
X0230697Y0126793D02*
X0230697Y0129156D01*
X0227547Y0129156D01*
X0244634Y0128097D02*
X0244634Y0133097D01*
X0247134Y0135597D01*
X0262134Y0135597D01*
X0264634Y0133097D01*
X0264634Y0128097D01*
X0262134Y0125597D01*
X0247134Y0125597D01*
X0244634Y0123097D01*
X0244634Y0118097D01*
X0247134Y0115597D01*
X0262134Y0115597D01*
X0264634Y0118097D01*
X0264634Y0123097D01*
X0262134Y0125597D01*
X0262134Y0135597D02*
X0264634Y0138097D01*
X0264634Y0143097D01*
X0262134Y0145597D01*
X0247134Y0145597D01*
X0244634Y0148097D01*
X0244634Y0153097D01*
X0247134Y0155597D01*
X0262134Y0155597D01*
X0264634Y0153097D01*
X0264634Y0148097D01*
X0262134Y0145597D01*
X0262134Y0155597D02*
X0264634Y0158097D01*
X0264634Y0163097D01*
X0262134Y0165597D01*
X0247134Y0165597D01*
X0244634Y0163097D01*
X0244634Y0158097D01*
X0247134Y0155597D01*
X0247134Y0165597D02*
X0244634Y0168097D01*
X0244634Y0173097D01*
X0247134Y0175597D01*
X0262134Y0175597D01*
X0264634Y0173097D01*
X0264634Y0168097D01*
X0262134Y0165597D01*
X0262134Y0175597D02*
X0264634Y0178097D01*
X0264634Y0183097D01*
X0262134Y0185597D01*
X0247134Y0185597D01*
X0244634Y0188097D01*
X0244634Y0193097D01*
X0247134Y0195597D01*
X0262134Y0195597D01*
X0264634Y0193097D01*
X0264634Y0188097D01*
X0262134Y0185597D01*
X0262134Y0195597D02*
X0264634Y0198097D01*
X0264634Y0203097D01*
X0262134Y0205597D01*
X0247134Y0205597D01*
X0244634Y0203097D01*
X0244634Y0198097D01*
X0247134Y0195597D01*
X0247134Y0185597D02*
X0244634Y0183097D01*
X0244634Y0178097D01*
X0247134Y0175597D01*
X0247134Y0205597D02*
X0244634Y0208097D01*
X0244634Y0213097D01*
X0247134Y0215597D01*
X0262134Y0215597D01*
X0264634Y0218097D01*
X0264634Y0223097D01*
X0262134Y0225597D01*
X0247134Y0225597D01*
X0244634Y0223097D01*
X0244634Y0218097D01*
X0247134Y0215597D01*
X0247134Y0225597D02*
X0244634Y0228097D01*
X0244634Y0233097D01*
X0247134Y0235597D01*
X0252134Y0235597D01*
X0254634Y0233097D01*
X0257134Y0235597D01*
X0262134Y0235597D01*
X0264634Y0233097D01*
X0264634Y0228097D01*
X0262134Y0225597D01*
X0262134Y0215597D02*
X0264634Y0213097D01*
X0264634Y0208097D01*
X0262134Y0205597D01*
X0243134Y0227597D02*
X0243134Y0234097D01*
X0202334Y0204156D02*
X0199185Y0204156D01*
X0199185Y0201793D01*
X0199185Y0195494D02*
X0199185Y0193132D01*
X0202334Y0193132D01*
X0247134Y0145597D02*
X0244634Y0143097D01*
X0244634Y0138097D01*
X0247134Y0135597D01*
X0244634Y0128097D02*
X0247134Y0125597D01*
X0247134Y0115597D02*
X0244634Y0113097D01*
X0244634Y0108097D01*
X0247134Y0105597D01*
X0244634Y0103097D01*
X0244634Y0098097D01*
X0247134Y0095597D01*
X0244634Y0093097D01*
X0244634Y0088097D01*
X0247134Y0085597D01*
X0244634Y0083097D01*
X0244634Y0078097D01*
X0247134Y0075597D01*
X0244634Y0073097D01*
X0244634Y0068097D01*
X0247134Y0065597D01*
X0244634Y0063097D01*
X0244634Y0058097D01*
X0247134Y0055597D01*
X0244634Y0053097D01*
X0244634Y0048097D01*
X0247134Y0045597D01*
X0244634Y0043097D01*
X0244634Y0038097D01*
X0247134Y0035597D01*
X0252134Y0035597D01*
X0254634Y0038097D01*
X0257134Y0035597D01*
X0262134Y0035597D01*
X0264634Y0038097D01*
X0264634Y0043097D01*
X0262134Y0045597D01*
X0247134Y0045597D01*
X0247134Y0055597D02*
X0262134Y0055597D01*
X0264634Y0053097D01*
X0264634Y0048097D01*
X0262134Y0045597D01*
X0262134Y0055597D02*
X0264634Y0058097D01*
X0264634Y0063097D01*
X0262134Y0065597D01*
X0247134Y0065597D01*
X0247134Y0075597D02*
X0262134Y0075597D01*
X0264634Y0078097D01*
X0264634Y0083097D01*
X0262134Y0085597D01*
X0247134Y0085597D01*
X0247134Y0095597D02*
X0262134Y0095597D01*
X0264634Y0093097D01*
X0264634Y0088097D01*
X0262134Y0085597D01*
X0262134Y0095597D02*
X0264634Y0098097D01*
X0264634Y0103097D01*
X0262134Y0105597D01*
X0247134Y0105597D01*
X0262134Y0105597D02*
X0264634Y0108097D01*
X0264634Y0113097D01*
X0262134Y0115597D01*
X0262134Y0075597D02*
X0264634Y0073097D01*
X0264634Y0068097D01*
X0262134Y0065597D01*
X0229172Y0050044D02*
X0226369Y0050044D01*
X0227771Y0050044D02*
X0227771Y0054247D01*
X0226369Y0052846D01*
X0224768Y0050744D02*
X0224768Y0050044D01*
X0224067Y0050044D01*
X0224067Y0050744D01*
X0224768Y0050744D01*
X0222266Y0050744D02*
X0221565Y0050044D01*
X0220164Y0050044D01*
X0219464Y0050744D01*
X0222266Y0053547D01*
X0222266Y0050744D01*
X0219464Y0050744D02*
X0219464Y0053547D01*
X0220164Y0054247D01*
X0221565Y0054247D01*
X0222266Y0053547D01*
X0221699Y0058044D02*
X0220998Y0058744D01*
X0221699Y0058044D02*
X0223100Y0058044D01*
X0223801Y0058744D01*
X0223801Y0059445D01*
X0223100Y0060146D01*
X0221699Y0060146D01*
X0220998Y0060846D01*
X0220998Y0061547D01*
X0221699Y0062247D01*
X0223100Y0062247D01*
X0223801Y0061547D01*
X0219197Y0062247D02*
X0216394Y0062247D01*
X0216394Y0058044D01*
X0219197Y0058044D01*
X0217795Y0060146D02*
X0216394Y0060146D01*
X0214593Y0060146D02*
X0213892Y0059445D01*
X0211790Y0059445D01*
X0211790Y0058044D02*
X0211790Y0062247D01*
X0213892Y0062247D01*
X0214593Y0061547D01*
X0214593Y0060146D01*
X0213192Y0059445D02*
X0214593Y0058044D01*
X0214659Y0054247D02*
X0213258Y0054247D01*
X0212558Y0053547D01*
X0214659Y0054247D02*
X0215360Y0053547D01*
X0215360Y0052846D01*
X0212558Y0050044D01*
X0215360Y0050044D01*
X0217162Y0050044D02*
X0217162Y0050744D01*
X0217862Y0050744D01*
X0217862Y0050044D01*
X0217162Y0050044D01*
X0207186Y0058044D02*
X0207186Y0062247D01*
X0209989Y0062247D01*
X0208588Y0060146D02*
X0207186Y0060146D01*
X0195610Y0060846D02*
X0194909Y0060846D01*
X0195610Y0062247D02*
X0195610Y0062948D01*
X0194142Y0052846D02*
X0194142Y0050744D01*
X0163449Y0050744D02*
X0163449Y0052846D01*
X0143531Y0179612D02*
X0110067Y0179612D01*
X0110067Y0225282D01*
X0143531Y0225282D01*
X0143531Y0179612D01*
D13*
X0196389Y0087093D03*
D14*
X0079241Y0046444D02*
X0079641Y0043544D01*
X0080341Y0041144D01*
X0092941Y0052444D01*
X0105541Y0041144D01*
X0106241Y0043544D01*
X0106641Y0046444D01*
X0106641Y0052444D01*
X0092941Y0052444D01*
X0079241Y0052444D01*
X0079241Y0046444D01*
X0079241Y0046547D02*
X0086365Y0046547D01*
X0085698Y0045949D02*
X0079309Y0045949D01*
X0079392Y0045350D02*
X0085031Y0045350D01*
X0084363Y0044751D02*
X0079474Y0044751D01*
X0079557Y0044153D02*
X0083696Y0044153D01*
X0083029Y0043554D02*
X0079639Y0043554D01*
X0079812Y0042956D02*
X0082361Y0042956D01*
X0081694Y0042357D02*
X0079987Y0042357D01*
X0080161Y0041759D02*
X0081027Y0041759D01*
X0080359Y0041160D02*
X0080336Y0041160D01*
X0079241Y0047146D02*
X0087033Y0047146D01*
X0087700Y0047744D02*
X0079241Y0047744D01*
X0079241Y0048343D02*
X0088368Y0048343D01*
X0089035Y0048941D02*
X0079241Y0048941D01*
X0079241Y0049540D02*
X0089702Y0049540D01*
X0090370Y0050138D02*
X0079241Y0050138D01*
X0079241Y0050737D02*
X0091037Y0050737D01*
X0091704Y0051335D02*
X0079241Y0051335D01*
X0079241Y0051934D02*
X0092372Y0051934D01*
X0093509Y0051934D02*
X0106641Y0051934D01*
X0106641Y0051335D02*
X0094177Y0051335D01*
X0094844Y0050737D02*
X0106641Y0050737D01*
X0106641Y0050138D02*
X0095512Y0050138D01*
X0096179Y0049540D02*
X0106641Y0049540D01*
X0106641Y0048941D02*
X0096846Y0048941D01*
X0097514Y0048343D02*
X0106641Y0048343D01*
X0106641Y0047744D02*
X0098181Y0047744D01*
X0098848Y0047146D02*
X0106641Y0047146D01*
X0106641Y0046547D02*
X0099516Y0046547D01*
X0100183Y0045949D02*
X0106572Y0045949D01*
X0106490Y0045350D02*
X0100851Y0045350D01*
X0101518Y0044751D02*
X0106407Y0044751D01*
X0106325Y0044153D02*
X0102185Y0044153D01*
X0102853Y0043554D02*
X0106242Y0043554D01*
X0106069Y0042956D02*
X0103520Y0042956D01*
X0104187Y0042357D02*
X0105895Y0042357D01*
X0105720Y0041759D02*
X0104855Y0041759D01*
X0105522Y0041160D02*
X0105545Y0041160D01*
X0099968Y0035774D02*
X0085828Y0035774D01*
X0086457Y0036372D02*
X0099346Y0036372D01*
X0098725Y0036971D02*
X0087086Y0036971D01*
X0087714Y0037569D02*
X0098104Y0037569D01*
X0097483Y0038168D02*
X0088343Y0038168D01*
X0088972Y0038766D02*
X0096861Y0038766D01*
X0096240Y0039365D02*
X0089601Y0039365D01*
X0090230Y0039963D02*
X0095619Y0039963D01*
X0094998Y0040562D02*
X0090858Y0040562D01*
X0091487Y0041160D02*
X0094377Y0041160D01*
X0093755Y0041759D02*
X0092116Y0041759D01*
X0092745Y0042357D02*
X0093134Y0042357D01*
X0092941Y0042544D02*
X0084641Y0034644D01*
X0087341Y0032544D01*
X0090041Y0031144D01*
X0092941Y0030244D01*
X0095841Y0031144D01*
X0098541Y0032544D01*
X0101141Y0034644D01*
X0092941Y0042544D01*
X0100589Y0035175D02*
X0085199Y0035175D01*
X0084727Y0034577D02*
X0101058Y0034577D01*
X0100317Y0033978D02*
X0085496Y0033978D01*
X0086266Y0033380D02*
X0099576Y0033380D01*
X0098835Y0032781D02*
X0087035Y0032781D01*
X0088037Y0032183D02*
X0097844Y0032183D01*
X0096690Y0031584D02*
X0089191Y0031584D01*
X0090550Y0030986D02*
X0095331Y0030986D01*
X0093403Y0030387D02*
X0092478Y0030387D01*
X0184241Y0085144D02*
X0184241Y0102144D01*
X0184243Y0102220D01*
X0184249Y0102296D01*
X0184258Y0102371D01*
X0184272Y0102446D01*
X0184289Y0102520D01*
X0184310Y0102593D01*
X0184334Y0102665D01*
X0184363Y0102736D01*
X0184394Y0102805D01*
X0184429Y0102872D01*
X0184468Y0102937D01*
X0184510Y0103001D01*
X0184555Y0103062D01*
X0184603Y0103121D01*
X0184654Y0103177D01*
X0184708Y0103231D01*
X0184764Y0103282D01*
X0184823Y0103330D01*
X0184884Y0103375D01*
X0184948Y0103417D01*
X0185013Y0103456D01*
X0185080Y0103491D01*
X0185149Y0103522D01*
X0185220Y0103551D01*
X0185292Y0103575D01*
X0185365Y0103596D01*
X0185439Y0103613D01*
X0185514Y0103627D01*
X0185589Y0103636D01*
X0185665Y0103642D01*
X0185741Y0103644D01*
X0198141Y0103644D01*
X0198217Y0103642D01*
X0198293Y0103636D01*
X0198368Y0103627D01*
X0198443Y0103613D01*
X0198517Y0103596D01*
X0198590Y0103575D01*
X0198662Y0103551D01*
X0198733Y0103522D01*
X0198802Y0103491D01*
X0198869Y0103456D01*
X0198934Y0103417D01*
X0198998Y0103375D01*
X0199059Y0103330D01*
X0199118Y0103282D01*
X0199174Y0103231D01*
X0199228Y0103177D01*
X0199279Y0103121D01*
X0199327Y0103062D01*
X0199372Y0103001D01*
X0199414Y0102937D01*
X0199453Y0102872D01*
X0199488Y0102805D01*
X0199519Y0102736D01*
X0199548Y0102665D01*
X0199572Y0102593D01*
X0199593Y0102520D01*
X0199610Y0102446D01*
X0199624Y0102371D01*
X0199633Y0102296D01*
X0199639Y0102220D01*
X0199641Y0102144D01*
X0199641Y0085144D01*
X0199639Y0085068D01*
X0199633Y0084992D01*
X0199624Y0084917D01*
X0199610Y0084842D01*
X0199593Y0084768D01*
X0199572Y0084695D01*
X0199548Y0084623D01*
X0199519Y0084552D01*
X0199488Y0084483D01*
X0199453Y0084416D01*
X0199414Y0084351D01*
X0199372Y0084287D01*
X0199327Y0084226D01*
X0199279Y0084167D01*
X0199228Y0084111D01*
X0199174Y0084057D01*
X0199118Y0084006D01*
X0199059Y0083958D01*
X0198998Y0083913D01*
X0198934Y0083871D01*
X0198869Y0083832D01*
X0198802Y0083797D01*
X0198733Y0083766D01*
X0198662Y0083737D01*
X0198590Y0083713D01*
X0198517Y0083692D01*
X0198443Y0083675D01*
X0198368Y0083661D01*
X0198293Y0083652D01*
X0198217Y0083646D01*
X0198141Y0083644D01*
X0193941Y0083644D01*
X0189941Y0083644D01*
X0185741Y0083644D01*
X0185665Y0083646D01*
X0185589Y0083652D01*
X0185514Y0083661D01*
X0185439Y0083675D01*
X0185365Y0083692D01*
X0185292Y0083713D01*
X0185220Y0083737D01*
X0185149Y0083766D01*
X0185080Y0083797D01*
X0185013Y0083832D01*
X0184948Y0083871D01*
X0184884Y0083913D01*
X0184823Y0083958D01*
X0184764Y0084006D01*
X0184708Y0084057D01*
X0184654Y0084111D01*
X0184603Y0084167D01*
X0184555Y0084226D01*
X0184510Y0084287D01*
X0184468Y0084351D01*
X0184429Y0084416D01*
X0184394Y0084483D01*
X0184363Y0084552D01*
X0184334Y0084623D01*
X0184310Y0084695D01*
X0184289Y0084768D01*
X0184272Y0084842D01*
X0184258Y0084917D01*
X0184249Y0084992D01*
X0184243Y0085068D01*
X0184241Y0085144D01*
X0189941Y0083644D02*
X0189943Y0083732D01*
X0189949Y0083821D01*
X0189959Y0083909D01*
X0189972Y0083996D01*
X0189990Y0084083D01*
X0190011Y0084169D01*
X0190036Y0084254D01*
X0190065Y0084337D01*
X0190098Y0084420D01*
X0190134Y0084500D01*
X0190173Y0084579D01*
X0190216Y0084657D01*
X0190263Y0084732D01*
X0190313Y0084805D01*
X0190366Y0084876D01*
X0190422Y0084945D01*
X0190481Y0085011D01*
X0190543Y0085074D01*
X0190607Y0085134D01*
X0190674Y0085192D01*
X0190744Y0085246D01*
X0190816Y0085298D01*
X0190890Y0085346D01*
X0190967Y0085391D01*
X0191045Y0085432D01*
X0191125Y0085470D01*
X0191206Y0085504D01*
X0191289Y0085535D01*
X0191374Y0085562D01*
X0191459Y0085585D01*
X0191545Y0085604D01*
X0191633Y0085620D01*
X0191720Y0085632D01*
X0191808Y0085640D01*
X0191897Y0085644D01*
X0191985Y0085644D01*
X0192074Y0085640D01*
X0192162Y0085632D01*
X0192249Y0085620D01*
X0192337Y0085604D01*
X0192423Y0085585D01*
X0192508Y0085562D01*
X0192593Y0085535D01*
X0192676Y0085504D01*
X0192757Y0085470D01*
X0192837Y0085432D01*
X0192915Y0085391D01*
X0192992Y0085346D01*
X0193066Y0085298D01*
X0193138Y0085246D01*
X0193208Y0085192D01*
X0193275Y0085134D01*
X0193339Y0085074D01*
X0193401Y0085011D01*
X0193460Y0084945D01*
X0193516Y0084876D01*
X0193569Y0084805D01*
X0193619Y0084732D01*
X0193666Y0084657D01*
X0193709Y0084579D01*
X0193748Y0084500D01*
X0193784Y0084420D01*
X0193817Y0084337D01*
X0193846Y0084254D01*
X0193871Y0084169D01*
X0193892Y0084083D01*
X0193910Y0083996D01*
X0193923Y0083909D01*
X0193933Y0083821D01*
X0193939Y0083732D01*
X0193941Y0083644D01*
D15*
X0198241Y0083644D02*
X0198241Y0103644D01*
D16*
X0197941Y0135144D03*
D17*
X0092941Y0046744D03*
X0100241Y0041044D03*
X0085641Y0041044D03*
D18*
X0092941Y0027944D02*
X0093416Y0028049D01*
X0093890Y0028164D01*
X0094360Y0028291D01*
X0094827Y0028429D01*
X0095290Y0028579D01*
X0095750Y0028740D01*
X0096205Y0028912D01*
X0096656Y0029095D01*
X0097103Y0029288D01*
X0097545Y0029493D01*
X0097982Y0029708D01*
X0098413Y0029934D01*
X0098839Y0030170D01*
X0099259Y0030416D01*
X0099673Y0030673D01*
X0100081Y0030939D01*
X0100482Y0031216D01*
X0100876Y0031502D01*
X0101263Y0031797D01*
X0101643Y0032102D01*
X0102016Y0032415D01*
X0102380Y0032738D01*
X0102737Y0033069D01*
X0103086Y0033409D01*
X0103426Y0033758D01*
X0103758Y0034114D01*
X0104081Y0034479D01*
X0104395Y0034851D01*
X0104700Y0035231D01*
X0104995Y0035617D01*
X0105281Y0036011D01*
X0105558Y0036412D01*
X0105825Y0036820D01*
X0106082Y0037233D01*
X0106328Y0037653D01*
X0106565Y0038079D01*
X0106791Y0038510D01*
X0107006Y0038947D01*
X0107211Y0039389D01*
X0107405Y0039835D01*
X0107589Y0040286D01*
X0107761Y0040742D01*
X0107922Y0041201D01*
X0108072Y0041665D01*
X0108211Y0042131D01*
X0108338Y0042601D01*
X0108454Y0043074D01*
X0108558Y0043550D01*
X0108651Y0044028D01*
X0108733Y0044508D01*
X0108802Y0044990D01*
X0108860Y0045474D01*
X0108906Y0045958D01*
X0108941Y0046444D01*
X0092940Y0027944D02*
X0092465Y0028049D01*
X0091991Y0028164D01*
X0091521Y0028291D01*
X0091054Y0028429D01*
X0090591Y0028579D01*
X0090131Y0028740D01*
X0089676Y0028912D01*
X0089225Y0029095D01*
X0088778Y0029288D01*
X0088336Y0029493D01*
X0087899Y0029708D01*
X0087468Y0029934D01*
X0087042Y0030170D01*
X0086622Y0030416D01*
X0086208Y0030673D01*
X0085800Y0030939D01*
X0085399Y0031216D01*
X0085005Y0031502D01*
X0084618Y0031797D01*
X0084238Y0032102D01*
X0083865Y0032415D01*
X0083501Y0032738D01*
X0083144Y0033069D01*
X0082795Y0033409D01*
X0082455Y0033758D01*
X0082123Y0034114D01*
X0081800Y0034479D01*
X0081486Y0034851D01*
X0081181Y0035231D01*
X0080886Y0035617D01*
X0080600Y0036011D01*
X0080323Y0036412D01*
X0080056Y0036820D01*
X0079799Y0037233D01*
X0079553Y0037653D01*
X0079316Y0038079D01*
X0079090Y0038510D01*
X0078875Y0038947D01*
X0078670Y0039389D01*
X0078476Y0039835D01*
X0078292Y0040286D01*
X0078120Y0040742D01*
X0077959Y0041201D01*
X0077809Y0041665D01*
X0077670Y0042131D01*
X0077543Y0042601D01*
X0077427Y0043074D01*
X0077323Y0043550D01*
X0077230Y0044028D01*
X0077148Y0044508D01*
X0077079Y0044990D01*
X0077021Y0045474D01*
X0076975Y0045958D01*
X0076940Y0046444D01*
D19*
X0076941Y0054544D03*
X0108941Y0054544D03*
D20*
X0092941Y0061644D03*
D21*
X0202760Y0218400D03*
M02*
