G75*
%MOIN*%
%OFA0B0*%
%FSLAX25Y25*%
%IPPOS*%
%LPD*%
%AMOC8*
5,1,8,0,0,1.08239X$1,22.5*
%
%ADD10C,0.11627*%
%ADD11C,0.01421*%
%ADD12R,0.05131X0.04737*%
%ADD13R,0.04737X0.05131*%
%ADD14R,0.08800X0.03400*%
%ADD15R,0.04343X0.03950*%
%ADD16R,0.05918X0.04737*%
%ADD17C,0.10800*%
%ADD18R,0.28000X0.06900*%
%ADD19C,0.08200*%
%ADD20R,0.12200X0.07400*%
%ADD21R,0.04737X0.02375*%
%ADD22R,0.04737X0.03162*%
%ADD23R,0.09300X0.09700*%
%ADD24R,0.08200X0.08200*%
D10*
X0061720Y0016423D03*
X0254634Y0016423D03*
X0254634Y0244770D03*
X0061720Y0244770D03*
D11*
X0184146Y0163302D02*
X0184146Y0159986D01*
X0180830Y0159986D01*
X0180830Y0163302D01*
X0184146Y0163302D01*
X0184146Y0161406D02*
X0180830Y0161406D01*
X0180830Y0162826D02*
X0184146Y0162826D01*
X0191051Y0163302D02*
X0191051Y0159986D01*
X0187735Y0159986D01*
X0187735Y0163302D01*
X0191051Y0163302D01*
X0191051Y0161406D02*
X0187735Y0161406D01*
X0187735Y0162826D02*
X0191051Y0162826D01*
X0159735Y0140302D02*
X0159735Y0136986D01*
X0159735Y0140302D02*
X0163051Y0140302D01*
X0163051Y0136986D01*
X0159735Y0136986D01*
X0159735Y0138406D02*
X0163051Y0138406D01*
X0163051Y0139826D02*
X0159735Y0139826D01*
X0152830Y0140302D02*
X0152830Y0136986D01*
X0152830Y0140302D02*
X0156146Y0140302D01*
X0156146Y0136986D01*
X0152830Y0136986D01*
X0152830Y0138406D02*
X0156146Y0138406D01*
X0156146Y0139826D02*
X0152830Y0139826D01*
X0139735Y0140302D02*
X0139735Y0136986D01*
X0139735Y0140302D02*
X0143051Y0140302D01*
X0143051Y0136986D01*
X0139735Y0136986D01*
X0139735Y0138406D02*
X0143051Y0138406D01*
X0143051Y0139826D02*
X0139735Y0139826D01*
X0132830Y0140302D02*
X0132830Y0136986D01*
X0132830Y0140302D02*
X0136146Y0140302D01*
X0136146Y0136986D01*
X0132830Y0136986D01*
X0132830Y0138406D02*
X0136146Y0138406D01*
X0136146Y0139826D02*
X0132830Y0139826D01*
X0106051Y0072302D02*
X0106051Y0068986D01*
X0102735Y0068986D01*
X0102735Y0072302D01*
X0106051Y0072302D01*
X0106051Y0070406D02*
X0102735Y0070406D01*
X0102735Y0071826D02*
X0106051Y0071826D01*
X0099146Y0072302D02*
X0099146Y0068986D01*
X0095830Y0068986D01*
X0095830Y0072302D01*
X0099146Y0072302D01*
X0099146Y0070406D02*
X0095830Y0070406D01*
X0095830Y0071826D02*
X0099146Y0071826D01*
D12*
X0097594Y0084644D03*
X0104287Y0084644D03*
X0104287Y0098644D03*
X0097594Y0098644D03*
X0114594Y0070644D03*
X0121287Y0070644D03*
X0134594Y0126644D03*
X0141287Y0126644D03*
X0154594Y0126644D03*
X0161287Y0126644D03*
X0183594Y0145644D03*
X0190287Y0145644D03*
X0202594Y0161644D03*
X0209287Y0161644D03*
X0216594Y0189644D03*
X0223287Y0189644D03*
X0193287Y0223644D03*
X0186594Y0223644D03*
D13*
X0219941Y0220990D03*
X0219941Y0214297D03*
X0235941Y0232297D03*
X0235941Y0238990D03*
X0171941Y0151053D03*
X0171941Y0144360D03*
X0228941Y0116990D03*
X0228941Y0110297D03*
X0163941Y0073990D03*
X0163941Y0067297D03*
X0097941Y0112297D03*
X0097941Y0118990D03*
X0097941Y0133297D03*
X0097941Y0139990D03*
D14*
X0163841Y0096144D03*
X0163841Y0091144D03*
X0163841Y0086144D03*
X0163841Y0081144D03*
X0188041Y0081144D03*
X0188041Y0086144D03*
X0188041Y0091144D03*
X0188041Y0096144D03*
D15*
X0208004Y0114904D03*
X0216271Y0118644D03*
X0208004Y0122384D03*
X0162878Y0115384D03*
X0162878Y0107904D03*
X0154610Y0111644D03*
X0142878Y0115384D03*
X0134610Y0111644D03*
X0142878Y0107904D03*
X0205878Y0189904D03*
X0205878Y0197384D03*
X0197610Y0193644D03*
D16*
X0197374Y0129534D03*
X0197374Y0122644D03*
X0197374Y0115754D03*
X0176508Y0115754D03*
X0176508Y0122644D03*
X0176508Y0129534D03*
X0131618Y0091644D03*
X0116263Y0098534D03*
X0116263Y0084754D03*
D17*
X0077468Y0092644D03*
X0077468Y0112644D03*
X0077468Y0132644D03*
X0077468Y0177927D03*
X0077468Y0197927D03*
X0077468Y0217927D03*
D18*
X0092941Y0051194D03*
D19*
X0249634Y0055597D03*
X0249634Y0065597D03*
X0249634Y0075597D03*
X0249634Y0085597D03*
X0249634Y0095597D03*
X0249634Y0105597D03*
X0249634Y0115597D03*
X0249634Y0125597D03*
X0249634Y0135597D03*
X0249634Y0145597D03*
X0249634Y0155597D03*
X0249634Y0165597D03*
X0249634Y0175597D03*
X0249634Y0185597D03*
X0249634Y0195597D03*
X0249634Y0205597D03*
X0249634Y0215597D03*
X0249634Y0225597D03*
X0259634Y0225597D03*
X0259634Y0215597D03*
X0259634Y0205597D03*
X0259634Y0195597D03*
X0259634Y0185597D03*
X0259634Y0175597D03*
X0259634Y0165597D03*
X0259634Y0155597D03*
X0259634Y0145597D03*
X0259634Y0135597D03*
X0259634Y0125597D03*
X0259634Y0115597D03*
X0259634Y0105597D03*
X0259634Y0095597D03*
X0259634Y0085597D03*
X0259634Y0075597D03*
X0259634Y0065597D03*
X0259634Y0055597D03*
X0259634Y0045597D03*
X0259634Y0035597D03*
X0249634Y0035597D03*
X0249634Y0045597D03*
X0107941Y0187644D03*
X0107941Y0207644D03*
X0107941Y0217644D03*
X0107941Y0227644D03*
D20*
X0182941Y0213044D03*
X0182941Y0194244D03*
D21*
X0198429Y0210644D03*
X0209452Y0210644D03*
D22*
X0209452Y0213597D03*
X0209452Y0207691D03*
X0198429Y0207691D03*
X0198429Y0213597D03*
D23*
X0201341Y0232644D03*
X0220541Y0232644D03*
D24*
X0107941Y0197644D03*
M02*
