G75*
%MOIN*%
%OFA0B0*%
%FSLAX25Y25*%
%IPPOS*%
%LPD*%
%AMOC8*
5,1,8,0,0,1.08239X$1,22.5*
%
%ADD10C,0.00500*%
%ADD11C,0.00600*%
%ADD12C,0.00800*%
%ADD13C,0.01100*%
%ADD14C,0.02828*%
%ADD15C,0.00200*%
%ADD16C,0.02000*%
%ADD17C,0.04400*%
%ADD18C,0.02000*%
%ADD19R,0.02000X0.16200*%
%ADD20R,0.34000X0.02000*%
%ADD21C,0.01181*%
D10*
X0092998Y0064429D02*
X0093415Y0064012D01*
X0094249Y0064012D01*
X0094666Y0064429D01*
X0094666Y0065263D01*
X0093832Y0065263D01*
X0094666Y0066097D02*
X0094249Y0066514D01*
X0093415Y0066514D01*
X0092998Y0066097D01*
X0092998Y0064429D01*
X0095760Y0064846D02*
X0097011Y0064846D01*
X0097428Y0065263D01*
X0097428Y0066097D01*
X0097011Y0066514D01*
X0095760Y0066514D01*
X0095760Y0064012D01*
X0098523Y0064012D02*
X0099357Y0064012D01*
X0098940Y0064012D02*
X0098940Y0066514D01*
X0098523Y0066514D02*
X0099357Y0066514D01*
X0100364Y0066097D02*
X0100364Y0064429D01*
X0100781Y0064012D01*
X0101615Y0064012D01*
X0102032Y0064429D01*
X0102032Y0066097D01*
X0101615Y0066514D01*
X0100781Y0066514D01*
X0100364Y0066097D01*
X0103126Y0065680D02*
X0103960Y0066514D01*
X0103960Y0064012D01*
X0103126Y0064012D02*
X0104795Y0064012D01*
X0105889Y0064012D02*
X0105889Y0064429D01*
X0107557Y0066097D01*
X0107557Y0066514D01*
X0105889Y0066514D01*
X0115428Y0066396D02*
X0115428Y0063894D01*
X0115428Y0064728D02*
X0116679Y0064728D01*
X0117096Y0065145D01*
X0117096Y0065979D01*
X0116679Y0066396D01*
X0115428Y0066396D01*
X0116262Y0064728D02*
X0117096Y0063894D01*
X0118191Y0063894D02*
X0119859Y0065562D01*
X0119859Y0065979D01*
X0119442Y0066396D01*
X0118608Y0066396D01*
X0118191Y0065979D01*
X0118191Y0063894D02*
X0119859Y0063894D01*
X0120047Y0075894D02*
X0121715Y0077562D01*
X0121715Y0077979D01*
X0121298Y0078396D01*
X0120464Y0078396D01*
X0120047Y0077979D01*
X0120047Y0075894D02*
X0121715Y0075894D01*
X0122809Y0075894D02*
X0122809Y0076311D01*
X0124478Y0077979D01*
X0124478Y0078396D01*
X0122809Y0078396D01*
X0125572Y0077979D02*
X0125989Y0078396D01*
X0126823Y0078396D01*
X0127240Y0077979D01*
X0125572Y0076311D01*
X0125989Y0075894D01*
X0126823Y0075894D01*
X0127240Y0076311D01*
X0127240Y0077979D01*
X0125572Y0077979D02*
X0125572Y0076311D01*
X0128862Y0079833D02*
X0128862Y0087904D01*
X0128862Y0095384D02*
X0128862Y0103455D01*
X0119019Y0103455D01*
X0120047Y0104894D02*
X0121715Y0104894D01*
X0120881Y0104894D02*
X0120881Y0107396D01*
X0120047Y0106562D01*
X0122809Y0106979D02*
X0123226Y0107396D01*
X0124061Y0107396D01*
X0124478Y0106979D01*
X0124478Y0106562D01*
X0122809Y0104894D01*
X0124478Y0104894D01*
X0125572Y0105311D02*
X0127240Y0106979D01*
X0127240Y0105311D01*
X0126823Y0104894D01*
X0125989Y0104894D01*
X0125572Y0105311D01*
X0125572Y0106979D01*
X0125989Y0107396D01*
X0126823Y0107396D01*
X0127240Y0106979D01*
X0136845Y0118894D02*
X0136428Y0119311D01*
X0136428Y0120979D01*
X0136845Y0121396D01*
X0137679Y0121396D01*
X0138096Y0120979D01*
X0138096Y0119311D01*
X0137679Y0118894D01*
X0136845Y0118894D01*
X0137262Y0119728D02*
X0138096Y0118894D01*
X0139191Y0119311D02*
X0139608Y0118894D01*
X0140442Y0118894D01*
X0140859Y0119311D01*
X0140859Y0119728D01*
X0140442Y0120145D01*
X0140025Y0120145D01*
X0140442Y0120145D02*
X0140859Y0120562D01*
X0140859Y0120979D01*
X0140442Y0121396D01*
X0139608Y0121396D01*
X0139191Y0120979D01*
X0139442Y0130894D02*
X0138608Y0130894D01*
X0138191Y0131311D01*
X0138191Y0131728D01*
X0138608Y0132145D01*
X0139442Y0132145D01*
X0139859Y0131728D01*
X0139859Y0131311D01*
X0139442Y0130894D01*
X0139442Y0132145D02*
X0139859Y0132562D01*
X0139859Y0132979D01*
X0139442Y0133396D01*
X0138608Y0133396D01*
X0138191Y0132979D01*
X0138191Y0132562D01*
X0138608Y0132145D01*
X0137096Y0132145D02*
X0137096Y0132979D01*
X0136679Y0133396D01*
X0135428Y0133396D01*
X0135428Y0130894D01*
X0135428Y0131728D02*
X0136679Y0131728D01*
X0137096Y0132145D01*
X0136262Y0131728D02*
X0137096Y0130894D01*
X0144191Y0136769D02*
X0144191Y0140519D01*
X0139859Y0142894D02*
X0138191Y0145396D01*
X0137096Y0144979D02*
X0137096Y0144145D01*
X0136679Y0143728D01*
X0135428Y0143728D01*
X0135428Y0142894D02*
X0135428Y0145396D01*
X0136679Y0145396D01*
X0137096Y0144979D01*
X0136262Y0143728D02*
X0137096Y0142894D01*
X0138191Y0142894D02*
X0139859Y0145396D01*
X0155428Y0145396D02*
X0157096Y0145396D01*
X0156262Y0145396D02*
X0156262Y0142894D01*
X0158191Y0142894D02*
X0159859Y0145396D01*
X0158191Y0145396D02*
X0159859Y0142894D01*
X0164191Y0140519D02*
X0164191Y0136769D01*
X0159859Y0133396D02*
X0159859Y0132979D01*
X0158191Y0131311D01*
X0158191Y0130894D01*
X0157096Y0130894D02*
X0156262Y0131728D01*
X0156679Y0131728D02*
X0155428Y0131728D01*
X0155428Y0130894D02*
X0155428Y0133396D01*
X0156679Y0133396D01*
X0157096Y0132979D01*
X0157096Y0132145D01*
X0156679Y0131728D01*
X0158191Y0133396D02*
X0159859Y0133396D01*
X0165189Y0143750D02*
X0165189Y0145001D01*
X0165606Y0145418D01*
X0166440Y0145418D01*
X0166857Y0145001D01*
X0166857Y0143750D01*
X0167691Y0143750D02*
X0165189Y0143750D01*
X0166857Y0144584D02*
X0167691Y0145418D01*
X0167691Y0146513D02*
X0167691Y0148181D01*
X0167691Y0147347D02*
X0165189Y0147347D01*
X0166023Y0146513D01*
X0166440Y0149275D02*
X0166023Y0150109D01*
X0166023Y0150526D01*
X0166440Y0150943D01*
X0167274Y0150943D01*
X0167691Y0150526D01*
X0167691Y0149692D01*
X0167274Y0149275D01*
X0166440Y0149275D02*
X0165189Y0149275D01*
X0165189Y0150943D01*
X0179691Y0159769D02*
X0179691Y0163519D01*
X0182047Y0165894D02*
X0182047Y0168396D01*
X0183298Y0168396D01*
X0183715Y0167979D01*
X0183715Y0167145D01*
X0183298Y0166728D01*
X0182047Y0166728D01*
X0184809Y0165894D02*
X0185643Y0166728D01*
X0186478Y0165894D01*
X0186478Y0168396D01*
X0187572Y0168396D02*
X0188823Y0168396D01*
X0189240Y0167979D01*
X0189240Y0167145D01*
X0188823Y0166728D01*
X0187572Y0166728D01*
X0188406Y0166728D02*
X0189240Y0165894D01*
X0187572Y0165894D02*
X0187572Y0168396D01*
X0184809Y0168396D02*
X0184809Y0165894D01*
X0184298Y0152396D02*
X0184715Y0151979D01*
X0184715Y0151145D01*
X0184298Y0150728D01*
X0183047Y0150728D01*
X0183881Y0150728D02*
X0184715Y0149894D01*
X0185809Y0149894D02*
X0187478Y0149894D01*
X0186643Y0149894D02*
X0186643Y0152396D01*
X0185809Y0151562D01*
X0184298Y0152396D02*
X0183047Y0152396D01*
X0183047Y0149894D01*
X0188572Y0150311D02*
X0188572Y0151979D01*
X0188989Y0152396D01*
X0189823Y0152396D01*
X0190240Y0151979D01*
X0188572Y0150311D01*
X0188989Y0149894D01*
X0189823Y0149894D01*
X0190240Y0150311D01*
X0190240Y0151979D01*
X0190327Y0138396D02*
X0190327Y0135894D01*
X0192255Y0135894D02*
X0192255Y0138396D01*
X0193506Y0138396D01*
X0193923Y0137979D01*
X0193923Y0137145D01*
X0193506Y0136728D01*
X0192255Y0136728D01*
X0193089Y0136728D02*
X0193923Y0135894D01*
X0195017Y0135894D02*
X0196685Y0135894D01*
X0195017Y0135894D02*
X0195017Y0138396D01*
X0191161Y0138396D02*
X0189493Y0138396D01*
X0188398Y0137979D02*
X0187981Y0138396D01*
X0187147Y0138396D01*
X0186730Y0137979D01*
X0186730Y0136311D01*
X0187147Y0135894D01*
X0187981Y0135894D01*
X0188398Y0136311D01*
X0185636Y0135477D02*
X0183968Y0135477D01*
X0182874Y0135894D02*
X0182874Y0138396D01*
X0181206Y0138396D02*
X0182874Y0135894D01*
X0181206Y0135894D02*
X0181206Y0138396D01*
X0180198Y0138396D02*
X0179364Y0138396D01*
X0179781Y0138396D02*
X0179781Y0135894D01*
X0179364Y0135894D02*
X0180198Y0135894D01*
X0178270Y0137145D02*
X0178270Y0137979D01*
X0177853Y0138396D01*
X0176602Y0138396D01*
X0176602Y0135894D01*
X0176602Y0136728D02*
X0177853Y0136728D01*
X0178270Y0137145D01*
X0179263Y0133274D02*
X0194618Y0133274D01*
X0209428Y0128979D02*
X0209428Y0127311D01*
X0209845Y0126894D01*
X0210679Y0126894D01*
X0211096Y0127311D01*
X0211096Y0128979D01*
X0210679Y0129396D01*
X0209845Y0129396D01*
X0209428Y0128979D01*
X0210262Y0127728D02*
X0211096Y0126894D01*
X0212191Y0126894D02*
X0213859Y0126894D01*
X0213025Y0126894D02*
X0213025Y0129396D01*
X0212191Y0128562D01*
X0222606Y0115562D02*
X0222189Y0115145D01*
X0222189Y0114311D01*
X0222606Y0113894D01*
X0223023Y0113894D01*
X0223440Y0114311D01*
X0223440Y0115562D01*
X0224274Y0115562D02*
X0222606Y0115562D01*
X0224274Y0115562D02*
X0224691Y0115145D01*
X0224691Y0114311D01*
X0224274Y0113894D01*
X0224691Y0112800D02*
X0223857Y0111965D01*
X0223857Y0112382D02*
X0223857Y0111131D01*
X0224691Y0111131D02*
X0222189Y0111131D01*
X0222189Y0112382D01*
X0222606Y0112800D01*
X0223440Y0112800D01*
X0223857Y0112382D01*
X0234904Y0106479D02*
X0234904Y0104811D01*
X0235321Y0104394D01*
X0236155Y0104394D01*
X0236572Y0104811D01*
X0236572Y0105645D01*
X0235738Y0105645D01*
X0236572Y0106479D02*
X0236155Y0106896D01*
X0235321Y0106896D01*
X0234904Y0106479D01*
X0237666Y0106896D02*
X0237666Y0104394D01*
X0239334Y0104394D02*
X0237666Y0106896D01*
X0239334Y0106896D02*
X0239334Y0104394D01*
X0240428Y0104394D02*
X0241679Y0104394D01*
X0242096Y0104811D01*
X0242096Y0106479D01*
X0241679Y0106896D01*
X0240428Y0106896D01*
X0240428Y0104394D01*
X0195765Y0106894D02*
X0194096Y0106894D01*
X0194096Y0109396D01*
X0193002Y0108979D02*
X0192585Y0109396D01*
X0191334Y0109396D01*
X0191334Y0106894D01*
X0191334Y0107728D02*
X0192585Y0107728D01*
X0193002Y0108145D01*
X0193002Y0108979D01*
X0192168Y0107728D02*
X0193002Y0106894D01*
X0189406Y0106894D02*
X0189406Y0109396D01*
X0188572Y0109396D02*
X0190240Y0109396D01*
X0187478Y0108979D02*
X0187060Y0109396D01*
X0186226Y0109396D01*
X0185809Y0108979D01*
X0185809Y0107311D01*
X0186226Y0106894D01*
X0187060Y0106894D01*
X0187478Y0107311D01*
X0184715Y0106477D02*
X0183047Y0106477D01*
X0181953Y0106894D02*
X0180285Y0109396D01*
X0179190Y0109396D02*
X0177522Y0109396D01*
X0178356Y0109396D02*
X0178356Y0106894D01*
X0180285Y0106894D02*
X0181953Y0109396D01*
X0179263Y0112014D02*
X0194618Y0112014D01*
X0177025Y0102396D02*
X0177025Y0099894D01*
X0176191Y0099894D02*
X0177859Y0099894D01*
X0176191Y0101562D02*
X0177025Y0102396D01*
X0175096Y0102396D02*
X0175096Y0100311D01*
X0174679Y0099894D01*
X0173845Y0099894D01*
X0173428Y0100311D01*
X0173428Y0102396D01*
X0160859Y0118894D02*
X0159191Y0118894D01*
X0160859Y0120562D01*
X0160859Y0120979D01*
X0160442Y0121396D01*
X0159608Y0121396D01*
X0159191Y0120979D01*
X0158096Y0120979D02*
X0158096Y0119311D01*
X0157679Y0118894D01*
X0156845Y0118894D01*
X0156428Y0119311D01*
X0156428Y0120979D01*
X0156845Y0121396D01*
X0157679Y0121396D01*
X0158096Y0120979D01*
X0157262Y0119728D02*
X0158096Y0118894D01*
X0169189Y0120548D02*
X0169606Y0120131D01*
X0170023Y0120131D01*
X0170440Y0120548D01*
X0170440Y0121382D01*
X0170857Y0121800D01*
X0171274Y0121800D01*
X0171691Y0121382D01*
X0171691Y0120548D01*
X0171274Y0120131D01*
X0169189Y0120548D02*
X0169189Y0121382D01*
X0169606Y0121800D01*
X0170023Y0122894D02*
X0169189Y0123728D01*
X0171691Y0123728D01*
X0171691Y0122894D02*
X0171691Y0124562D01*
X0203428Y0165894D02*
X0203428Y0168396D01*
X0204679Y0168396D01*
X0205096Y0167979D01*
X0205096Y0167145D01*
X0204679Y0166728D01*
X0203428Y0166728D01*
X0204262Y0166728D02*
X0205096Y0165894D01*
X0206191Y0166311D02*
X0206608Y0165894D01*
X0207442Y0165894D01*
X0207859Y0166311D01*
X0207859Y0166728D01*
X0207442Y0167145D01*
X0206191Y0167145D01*
X0206191Y0166311D01*
X0206191Y0167145D02*
X0207025Y0167979D01*
X0207859Y0168396D01*
X0227537Y0174811D02*
X0227954Y0174394D01*
X0228788Y0174394D01*
X0229205Y0174811D01*
X0229205Y0175645D01*
X0228371Y0175645D01*
X0227537Y0176479D02*
X0227537Y0174811D01*
X0227537Y0176479D02*
X0227954Y0176896D01*
X0228788Y0176896D01*
X0229205Y0176479D01*
X0230300Y0176896D02*
X0230300Y0174394D01*
X0230300Y0175228D02*
X0231551Y0175228D01*
X0231968Y0175645D01*
X0231968Y0176479D01*
X0231551Y0176896D01*
X0230300Y0176896D01*
X0233062Y0176896D02*
X0233896Y0176896D01*
X0233479Y0176896D02*
X0233479Y0174394D01*
X0233062Y0174394D02*
X0233896Y0174394D01*
X0234904Y0174811D02*
X0235321Y0174394D01*
X0236155Y0174394D01*
X0236572Y0174811D01*
X0236572Y0176479D01*
X0236155Y0176896D01*
X0235321Y0176896D01*
X0234904Y0176479D01*
X0234904Y0174811D01*
X0237666Y0174394D02*
X0239334Y0174394D01*
X0238500Y0174394D02*
X0238500Y0176896D01*
X0237666Y0176062D01*
X0240428Y0176896D02*
X0242096Y0176896D01*
X0242096Y0176479D01*
X0240428Y0174811D01*
X0240428Y0174394D01*
X0240428Y0184394D02*
X0241679Y0184394D01*
X0242096Y0184811D01*
X0242096Y0186479D01*
X0241679Y0186896D01*
X0240428Y0186896D01*
X0240428Y0184394D01*
X0239334Y0184394D02*
X0239334Y0186896D01*
X0237666Y0186896D02*
X0237666Y0184394D01*
X0236572Y0184811D02*
X0236155Y0184394D01*
X0235321Y0184394D01*
X0234904Y0184811D01*
X0234904Y0186479D01*
X0235321Y0186896D01*
X0236155Y0186896D01*
X0236572Y0186479D01*
X0236572Y0185645D02*
X0235738Y0185645D01*
X0236572Y0185645D02*
X0236572Y0184811D01*
X0237666Y0186896D02*
X0239334Y0184394D01*
X0231691Y0184800D02*
X0230857Y0183965D01*
X0230857Y0184382D02*
X0230857Y0183131D01*
X0231691Y0183131D02*
X0229189Y0183131D01*
X0229189Y0184382D01*
X0229606Y0184800D01*
X0230440Y0184800D01*
X0230857Y0184382D01*
X0231691Y0185894D02*
X0229189Y0187562D01*
X0229189Y0185894D02*
X0231691Y0187562D01*
X0229189Y0193131D02*
X0229189Y0194800D01*
X0229189Y0193965D02*
X0231691Y0193965D01*
X0231691Y0195894D02*
X0229189Y0197562D01*
X0229189Y0195894D02*
X0231691Y0197562D01*
X0221859Y0195979D02*
X0221859Y0195562D01*
X0221442Y0195145D01*
X0221859Y0194728D01*
X0221859Y0194311D01*
X0221442Y0193894D01*
X0220608Y0193894D01*
X0220191Y0194311D01*
X0219096Y0193894D02*
X0218262Y0194728D01*
X0218679Y0194728D02*
X0217428Y0194728D01*
X0217428Y0193894D02*
X0217428Y0196396D01*
X0218679Y0196396D01*
X0219096Y0195979D01*
X0219096Y0195145D01*
X0218679Y0194728D01*
X0220191Y0195979D02*
X0220608Y0196396D01*
X0221442Y0196396D01*
X0221859Y0195979D01*
X0221442Y0195145D02*
X0221025Y0195145D01*
X0206303Y0206313D02*
X0201578Y0206313D01*
X0200679Y0203396D02*
X0201096Y0202979D01*
X0201096Y0201311D01*
X0200679Y0200894D01*
X0199845Y0200894D01*
X0199428Y0201311D01*
X0199428Y0202979D01*
X0199845Y0203396D01*
X0200679Y0203396D01*
X0200262Y0201728D02*
X0201096Y0200894D01*
X0202191Y0202145D02*
X0203442Y0203396D01*
X0203442Y0200894D01*
X0203859Y0202145D02*
X0202191Y0202145D01*
X0189941Y0197644D02*
X0189941Y0209644D01*
X0201578Y0214974D02*
X0206303Y0214974D01*
X0205442Y0216894D02*
X0204608Y0216894D01*
X0204191Y0217311D01*
X0204191Y0218145D02*
X0205025Y0218562D01*
X0205442Y0218562D01*
X0205859Y0218145D01*
X0205859Y0217311D01*
X0205442Y0216894D01*
X0204191Y0218145D02*
X0204191Y0219396D01*
X0205859Y0219396D01*
X0203096Y0218979D02*
X0203096Y0217311D01*
X0202679Y0216894D01*
X0201845Y0216894D01*
X0201428Y0217311D01*
X0201428Y0218979D01*
X0201845Y0219396D01*
X0202679Y0219396D01*
X0203096Y0218979D01*
X0202262Y0217728D02*
X0203096Y0216894D01*
X0213189Y0216382D02*
X0213189Y0215131D01*
X0215691Y0215131D01*
X0214857Y0215131D02*
X0214857Y0216382D01*
X0214440Y0216800D01*
X0213606Y0216800D01*
X0213189Y0216382D01*
X0214857Y0215965D02*
X0215691Y0216800D01*
X0215691Y0217894D02*
X0215691Y0219562D01*
X0215691Y0218728D02*
X0213189Y0218728D01*
X0214023Y0217894D01*
X0213941Y0228644D02*
X0213941Y0236644D01*
X0212859Y0239894D02*
X0211191Y0239894D01*
X0212025Y0239894D02*
X0212025Y0242396D01*
X0211191Y0241562D01*
X0210096Y0241979D02*
X0209679Y0242396D01*
X0208428Y0242396D01*
X0208428Y0239894D01*
X0209679Y0239894D01*
X0210096Y0240311D01*
X0210096Y0241979D01*
X0207941Y0236644D02*
X0207941Y0228644D01*
X0213941Y0232644D01*
X0207941Y0236644D01*
X0207941Y0236446D02*
X0208238Y0236446D01*
X0207941Y0235947D02*
X0208986Y0235947D01*
X0209733Y0235449D02*
X0207941Y0235449D01*
X0207941Y0234950D02*
X0210481Y0234950D01*
X0211229Y0234452D02*
X0207941Y0234452D01*
X0207941Y0233953D02*
X0211977Y0233953D01*
X0212725Y0233455D02*
X0207941Y0233455D01*
X0207941Y0232956D02*
X0213472Y0232956D01*
X0213661Y0232458D02*
X0207941Y0232458D01*
X0207941Y0231959D02*
X0212913Y0231959D01*
X0212166Y0231460D02*
X0207941Y0231460D01*
X0207941Y0230962D02*
X0211418Y0230962D01*
X0210670Y0230463D02*
X0207941Y0230463D01*
X0207941Y0229965D02*
X0209922Y0229965D01*
X0209175Y0229466D02*
X0207941Y0229466D01*
X0207941Y0228968D02*
X0208427Y0228968D01*
X0191859Y0229562D02*
X0190191Y0227894D01*
X0191859Y0227894D01*
X0191859Y0229562D02*
X0191859Y0229979D01*
X0191442Y0230396D01*
X0190608Y0230396D01*
X0190191Y0229979D01*
X0189096Y0229979D02*
X0188679Y0230396D01*
X0187845Y0230396D01*
X0187428Y0229979D01*
X0187428Y0228311D01*
X0187845Y0227894D01*
X0188679Y0227894D01*
X0189096Y0228311D01*
X0175941Y0209644D02*
X0175941Y0197644D01*
X0180428Y0188396D02*
X0182096Y0188396D01*
X0183191Y0187562D02*
X0184025Y0188396D01*
X0184025Y0185894D01*
X0183191Y0185894D02*
X0184859Y0185894D01*
X0181262Y0187145D02*
X0180428Y0187145D01*
X0180428Y0185894D02*
X0180428Y0188396D01*
X0227537Y0156479D02*
X0227537Y0154811D01*
X0227954Y0154394D01*
X0228788Y0154394D01*
X0229205Y0154811D01*
X0229205Y0155645D01*
X0228371Y0155645D01*
X0227537Y0156479D02*
X0227954Y0156896D01*
X0228788Y0156896D01*
X0229205Y0156479D01*
X0230300Y0156896D02*
X0231551Y0156896D01*
X0231968Y0156479D01*
X0231968Y0155645D01*
X0231551Y0155228D01*
X0230300Y0155228D01*
X0230300Y0154394D02*
X0230300Y0156896D01*
X0233062Y0156896D02*
X0233896Y0156896D01*
X0233479Y0156896D02*
X0233479Y0154394D01*
X0233062Y0154394D02*
X0233896Y0154394D01*
X0234904Y0154811D02*
X0234904Y0156479D01*
X0235321Y0156896D01*
X0236155Y0156896D01*
X0236572Y0156479D01*
X0236572Y0154811D01*
X0236155Y0154394D01*
X0235321Y0154394D01*
X0234904Y0154811D01*
X0237666Y0154394D02*
X0239334Y0156062D01*
X0239334Y0156479D01*
X0238917Y0156896D01*
X0238083Y0156896D01*
X0237666Y0156479D01*
X0237666Y0154394D02*
X0239334Y0154394D01*
X0240428Y0154394D02*
X0242096Y0156062D01*
X0242096Y0156479D01*
X0241679Y0156896D01*
X0240845Y0156896D01*
X0240428Y0156479D01*
X0240428Y0154394D02*
X0242096Y0154394D01*
X0241679Y0146896D02*
X0240845Y0146896D01*
X0240428Y0146479D01*
X0239334Y0146896D02*
X0239334Y0145228D01*
X0238500Y0144394D01*
X0237666Y0145228D01*
X0237666Y0146896D01*
X0236572Y0146479D02*
X0236572Y0146062D01*
X0236155Y0145645D01*
X0236572Y0145228D01*
X0236572Y0144811D01*
X0236155Y0144394D01*
X0235321Y0144394D01*
X0234904Y0144811D01*
X0235738Y0145645D02*
X0236155Y0145645D01*
X0236572Y0146479D02*
X0236155Y0146896D01*
X0235321Y0146896D01*
X0234904Y0146479D01*
X0240428Y0144811D02*
X0240845Y0144394D01*
X0241679Y0144394D01*
X0242096Y0144811D01*
X0242096Y0145228D01*
X0241679Y0145645D01*
X0241262Y0145645D01*
X0241679Y0145645D02*
X0242096Y0146062D01*
X0242096Y0146479D01*
X0241679Y0146896D01*
X0231274Y0223131D02*
X0231691Y0223548D01*
X0231691Y0224382D01*
X0231274Y0224800D01*
X0230440Y0224800D01*
X0230023Y0224382D01*
X0230023Y0223965D01*
X0230440Y0223131D01*
X0229189Y0223131D01*
X0229189Y0224800D01*
X0229189Y0225894D02*
X0230857Y0225894D01*
X0231691Y0226728D01*
X0230857Y0227562D01*
X0229189Y0227562D01*
X0229606Y0233131D02*
X0231274Y0233131D01*
X0231691Y0233548D01*
X0231691Y0234382D01*
X0231274Y0234800D01*
X0231274Y0235894D02*
X0231691Y0236311D01*
X0231691Y0237145D01*
X0231274Y0237562D01*
X0230857Y0237562D01*
X0230440Y0237145D01*
X0230440Y0236728D01*
X0230440Y0237145D02*
X0230023Y0237562D01*
X0229606Y0237562D01*
X0229189Y0237145D01*
X0229189Y0236311D01*
X0229606Y0235894D01*
X0229606Y0234800D02*
X0229189Y0234382D01*
X0229189Y0233548D01*
X0229606Y0233131D01*
X0104691Y0139943D02*
X0104691Y0138275D01*
X0104691Y0139109D02*
X0102189Y0139109D01*
X0103023Y0138275D01*
X0104691Y0137181D02*
X0104691Y0135513D01*
X0104691Y0136347D02*
X0102189Y0136347D01*
X0103023Y0135513D01*
X0103440Y0134418D02*
X0103857Y0134001D01*
X0103857Y0132750D01*
X0104691Y0132750D02*
X0102189Y0132750D01*
X0102189Y0134001D01*
X0102606Y0134418D01*
X0103440Y0134418D01*
X0103857Y0133584D02*
X0104691Y0134418D01*
X0104691Y0118943D02*
X0104691Y0117275D01*
X0103023Y0118943D01*
X0102606Y0118943D01*
X0102189Y0118526D01*
X0102189Y0117692D01*
X0102606Y0117275D01*
X0102189Y0115347D02*
X0104691Y0115347D01*
X0104691Y0114513D02*
X0104691Y0116181D01*
X0103023Y0114513D02*
X0102189Y0115347D01*
X0102606Y0113418D02*
X0103440Y0113418D01*
X0103857Y0113001D01*
X0103857Y0111750D01*
X0104691Y0111750D02*
X0102189Y0111750D01*
X0102189Y0113001D01*
X0102606Y0113418D01*
X0103857Y0112584D02*
X0104691Y0113418D01*
X0103823Y0105396D02*
X0102989Y0105396D01*
X0102572Y0104979D01*
X0103406Y0104145D02*
X0103823Y0104145D01*
X0104240Y0103728D01*
X0104240Y0103311D01*
X0103823Y0102894D01*
X0102989Y0102894D01*
X0102572Y0103311D01*
X0101478Y0102894D02*
X0099809Y0102894D01*
X0100643Y0102894D02*
X0100643Y0105396D01*
X0099809Y0104562D01*
X0098715Y0104979D02*
X0098715Y0104145D01*
X0098298Y0103728D01*
X0097047Y0103728D01*
X0097881Y0103728D02*
X0098715Y0102894D01*
X0097047Y0102894D02*
X0097047Y0105396D01*
X0098298Y0105396D01*
X0098715Y0104979D01*
X0103823Y0105396D02*
X0104240Y0104979D01*
X0104240Y0104562D01*
X0103823Y0104145D01*
X0103823Y0091396D02*
X0102572Y0090145D01*
X0104240Y0090145D01*
X0103823Y0088894D02*
X0103823Y0091396D01*
X0101478Y0088894D02*
X0099809Y0088894D01*
X0100643Y0088894D02*
X0100643Y0091396D01*
X0099809Y0090562D01*
X0098715Y0090979D02*
X0098715Y0090145D01*
X0098298Y0089728D01*
X0097047Y0089728D01*
X0097881Y0089728D02*
X0098715Y0088894D01*
X0097047Y0088894D02*
X0097047Y0091396D01*
X0098298Y0091396D01*
X0098715Y0090979D01*
X0114189Y0090382D02*
X0114189Y0089548D01*
X0114606Y0089131D01*
X0115023Y0089131D01*
X0115440Y0089548D01*
X0115440Y0090382D01*
X0115857Y0090800D01*
X0116274Y0090800D01*
X0116691Y0090382D01*
X0116691Y0089548D01*
X0116274Y0089131D01*
X0114606Y0090800D02*
X0114189Y0090382D01*
X0114606Y0091894D02*
X0114189Y0092311D01*
X0114189Y0093145D01*
X0114606Y0093562D01*
X0115023Y0093562D01*
X0116691Y0091894D01*
X0116691Y0093562D01*
X0119019Y0094793D02*
X0119019Y0088494D01*
X0119019Y0079833D02*
X0128862Y0079833D01*
X0157189Y0071728D02*
X0159691Y0071728D01*
X0159691Y0070894D02*
X0159691Y0072562D01*
X0158023Y0070894D02*
X0157189Y0071728D01*
X0157606Y0069800D02*
X0157189Y0069382D01*
X0157189Y0068548D01*
X0157606Y0068131D01*
X0159274Y0068131D01*
X0159691Y0068548D01*
X0159691Y0069382D01*
X0159274Y0069800D01*
X0094691Y0068769D02*
X0094691Y0072519D01*
X0098189Y0182369D02*
X0099857Y0182369D01*
X0100691Y0183203D01*
X0099857Y0184037D01*
X0098189Y0184037D01*
X0098606Y0185131D02*
X0100274Y0185131D01*
X0100691Y0185548D01*
X0100691Y0186382D01*
X0100274Y0186800D01*
X0098606Y0186800D01*
X0098189Y0186382D01*
X0098189Y0185548D01*
X0098606Y0185131D01*
X0098189Y0187894D02*
X0100274Y0187894D01*
X0100691Y0188311D01*
X0100691Y0189145D01*
X0100274Y0189562D01*
X0098189Y0189562D01*
X0098189Y0190656D02*
X0098189Y0192324D01*
X0098189Y0191490D02*
X0100691Y0191490D01*
X0100274Y0193750D02*
X0100691Y0194167D01*
X0100691Y0195001D01*
X0100274Y0195418D01*
X0099440Y0195418D01*
X0099440Y0194584D01*
X0098606Y0193750D02*
X0100274Y0193750D01*
X0098606Y0193750D02*
X0098189Y0194167D01*
X0098189Y0195001D01*
X0098606Y0195418D01*
X0098189Y0196513D02*
X0100691Y0198181D01*
X0098189Y0198181D01*
X0098189Y0199275D02*
X0098189Y0200526D01*
X0098606Y0200943D01*
X0100274Y0200943D01*
X0100691Y0200526D01*
X0100691Y0199275D01*
X0098189Y0199275D01*
X0098189Y0196513D02*
X0100691Y0196513D01*
X0099857Y0204211D02*
X0100691Y0205045D01*
X0099857Y0205879D01*
X0098189Y0205879D01*
X0098189Y0206973D02*
X0098189Y0207807D01*
X0098189Y0207390D02*
X0100691Y0207390D01*
X0100691Y0206973D02*
X0100691Y0207807D01*
X0100691Y0208815D02*
X0098189Y0208815D01*
X0100691Y0210483D01*
X0098189Y0210483D01*
X0098189Y0215131D02*
X0100691Y0215131D01*
X0100691Y0216800D01*
X0100691Y0217894D02*
X0098189Y0217894D01*
X0100691Y0219562D01*
X0098189Y0219562D01*
X0098189Y0216800D02*
X0098189Y0215131D01*
X0099440Y0215131D02*
X0099440Y0215965D01*
X0099857Y0225131D02*
X0099857Y0226382D01*
X0099440Y0226800D01*
X0098606Y0226800D01*
X0098189Y0226382D01*
X0098189Y0225131D01*
X0100691Y0225131D01*
X0100274Y0227894D02*
X0100691Y0228311D01*
X0100691Y0229145D01*
X0100274Y0229562D01*
X0099440Y0229562D01*
X0099440Y0228728D01*
X0098606Y0227894D02*
X0100274Y0227894D01*
X0098606Y0227894D02*
X0098189Y0228311D01*
X0098189Y0229145D01*
X0098606Y0229562D01*
X0098189Y0204211D02*
X0099857Y0204211D01*
X0235321Y0036896D02*
X0234904Y0036479D01*
X0234904Y0034811D01*
X0235321Y0034394D01*
X0236155Y0034394D01*
X0236572Y0034811D01*
X0236572Y0035645D01*
X0235738Y0035645D01*
X0236572Y0036479D02*
X0236155Y0036896D01*
X0235321Y0036896D01*
X0237666Y0036896D02*
X0239334Y0034394D01*
X0239334Y0036896D01*
X0240428Y0036896D02*
X0241679Y0036896D01*
X0242096Y0036479D01*
X0242096Y0034811D01*
X0241679Y0034394D01*
X0240428Y0034394D01*
X0240428Y0036896D01*
X0237666Y0036896D02*
X0237666Y0034394D01*
D11*
X0079641Y0038544D02*
X0079241Y0041444D01*
X0079241Y0047444D01*
X0092941Y0047444D01*
X0105541Y0036144D01*
X0106241Y0038544D01*
X0106641Y0041444D01*
X0106641Y0047444D01*
X0092941Y0047444D01*
X0080341Y0036144D01*
X0079641Y0038544D01*
X0079639Y0038554D02*
X0083029Y0038554D01*
X0082361Y0037956D02*
X0079812Y0037956D01*
X0079987Y0037357D02*
X0081694Y0037357D01*
X0081027Y0036759D02*
X0080161Y0036759D01*
X0080336Y0036160D02*
X0080359Y0036160D01*
X0079557Y0039153D02*
X0083696Y0039153D01*
X0084363Y0039751D02*
X0079474Y0039751D01*
X0079392Y0040350D02*
X0085031Y0040350D01*
X0085698Y0040949D02*
X0079309Y0040949D01*
X0079241Y0041547D02*
X0086365Y0041547D01*
X0087033Y0042146D02*
X0079241Y0042146D01*
X0079241Y0042744D02*
X0087700Y0042744D01*
X0088368Y0043343D02*
X0079241Y0043343D01*
X0079241Y0043941D02*
X0089035Y0043941D01*
X0089702Y0044540D02*
X0079241Y0044540D01*
X0079241Y0045138D02*
X0090370Y0045138D01*
X0091037Y0045737D02*
X0079241Y0045737D01*
X0079241Y0046335D02*
X0091704Y0046335D01*
X0092372Y0046934D02*
X0079241Y0046934D01*
X0093509Y0046934D02*
X0106641Y0046934D01*
X0106641Y0046335D02*
X0094177Y0046335D01*
X0094844Y0045737D02*
X0106641Y0045737D01*
X0106641Y0045138D02*
X0095512Y0045138D01*
X0096179Y0044540D02*
X0106641Y0044540D01*
X0106641Y0043941D02*
X0096846Y0043941D01*
X0097514Y0043343D02*
X0106641Y0043343D01*
X0106641Y0042744D02*
X0098181Y0042744D01*
X0098848Y0042146D02*
X0106641Y0042146D01*
X0106641Y0041547D02*
X0099516Y0041547D01*
X0100183Y0040949D02*
X0106572Y0040949D01*
X0106490Y0040350D02*
X0100851Y0040350D01*
X0101518Y0039751D02*
X0106407Y0039751D01*
X0106325Y0039153D02*
X0102185Y0039153D01*
X0102853Y0038554D02*
X0106242Y0038554D01*
X0106069Y0037956D02*
X0103520Y0037956D01*
X0104187Y0037357D02*
X0105895Y0037357D01*
X0105720Y0036759D02*
X0104855Y0036759D01*
X0105522Y0036160D02*
X0105545Y0036160D01*
X0099968Y0030774D02*
X0085828Y0030774D01*
X0086457Y0031372D02*
X0099346Y0031372D01*
X0098725Y0031971D02*
X0087086Y0031971D01*
X0087714Y0032569D02*
X0098104Y0032569D01*
X0097483Y0033168D02*
X0088343Y0033168D01*
X0088972Y0033766D02*
X0096861Y0033766D01*
X0096240Y0034365D02*
X0089601Y0034365D01*
X0090230Y0034963D02*
X0095619Y0034963D01*
X0094998Y0035562D02*
X0090858Y0035562D01*
X0091487Y0036160D02*
X0094377Y0036160D01*
X0093755Y0036759D02*
X0092116Y0036759D01*
X0092745Y0037357D02*
X0093134Y0037357D01*
X0092941Y0037544D02*
X0084641Y0029644D01*
X0087341Y0027544D01*
X0090041Y0026144D01*
X0092941Y0025244D01*
X0095841Y0026144D01*
X0098541Y0027544D01*
X0101141Y0029644D01*
X0092941Y0037544D01*
X0100589Y0030175D02*
X0085199Y0030175D01*
X0084727Y0029577D02*
X0101058Y0029577D01*
X0100317Y0028978D02*
X0085496Y0028978D01*
X0086266Y0028380D02*
X0099576Y0028380D01*
X0098835Y0027781D02*
X0087035Y0027781D01*
X0088037Y0027183D02*
X0097844Y0027183D01*
X0096690Y0026584D02*
X0089191Y0026584D01*
X0090550Y0025986D02*
X0095331Y0025986D01*
X0093403Y0025387D02*
X0092478Y0025387D01*
X0091573Y0089721D02*
X0087303Y0089721D01*
X0086235Y0090789D01*
X0086235Y0092924D01*
X0087303Y0093991D01*
X0091573Y0093991D02*
X0092641Y0092924D01*
X0092641Y0090789D01*
X0091573Y0089721D01*
X0089438Y0109721D02*
X0089438Y0113991D01*
X0089438Y0129721D02*
X0089438Y0133991D01*
X0087303Y0131856D02*
X0091573Y0131856D01*
X0091573Y0174721D02*
X0087303Y0174721D01*
X0086235Y0175789D01*
X0086235Y0177924D01*
X0087303Y0178991D01*
X0089438Y0178991D02*
X0089438Y0176856D01*
X0089438Y0178991D02*
X0091573Y0178991D01*
X0092641Y0177924D01*
X0092641Y0175789D01*
X0091573Y0174721D01*
X0089438Y0194721D02*
X0089438Y0198991D01*
X0089438Y0215721D02*
X0089438Y0219991D01*
X0087303Y0217856D02*
X0091573Y0217856D01*
X0169741Y0098644D02*
X0182141Y0098644D01*
X0182217Y0098642D01*
X0182293Y0098636D01*
X0182368Y0098627D01*
X0182443Y0098613D01*
X0182517Y0098596D01*
X0182590Y0098575D01*
X0182662Y0098551D01*
X0182733Y0098522D01*
X0182802Y0098491D01*
X0182869Y0098456D01*
X0182934Y0098417D01*
X0182998Y0098375D01*
X0183059Y0098330D01*
X0183118Y0098282D01*
X0183174Y0098231D01*
X0183228Y0098177D01*
X0183279Y0098121D01*
X0183327Y0098062D01*
X0183372Y0098001D01*
X0183414Y0097937D01*
X0183453Y0097872D01*
X0183488Y0097805D01*
X0183519Y0097736D01*
X0183548Y0097665D01*
X0183572Y0097593D01*
X0183593Y0097520D01*
X0183610Y0097446D01*
X0183624Y0097371D01*
X0183633Y0097296D01*
X0183639Y0097220D01*
X0183641Y0097144D01*
X0183641Y0080144D01*
X0183639Y0080068D01*
X0183633Y0079992D01*
X0183624Y0079917D01*
X0183610Y0079842D01*
X0183593Y0079768D01*
X0183572Y0079695D01*
X0183548Y0079623D01*
X0183519Y0079552D01*
X0183488Y0079483D01*
X0183453Y0079416D01*
X0183414Y0079351D01*
X0183372Y0079287D01*
X0183327Y0079226D01*
X0183279Y0079167D01*
X0183228Y0079111D01*
X0183174Y0079057D01*
X0183118Y0079006D01*
X0183059Y0078958D01*
X0182998Y0078913D01*
X0182934Y0078871D01*
X0182869Y0078832D01*
X0182802Y0078797D01*
X0182733Y0078766D01*
X0182662Y0078737D01*
X0182590Y0078713D01*
X0182517Y0078692D01*
X0182443Y0078675D01*
X0182368Y0078661D01*
X0182293Y0078652D01*
X0182217Y0078646D01*
X0182141Y0078644D01*
X0177941Y0078644D01*
X0173941Y0078644D01*
X0169741Y0078644D01*
X0169665Y0078646D01*
X0169589Y0078652D01*
X0169514Y0078661D01*
X0169439Y0078675D01*
X0169365Y0078692D01*
X0169292Y0078713D01*
X0169220Y0078737D01*
X0169149Y0078766D01*
X0169080Y0078797D01*
X0169013Y0078832D01*
X0168948Y0078871D01*
X0168884Y0078913D01*
X0168823Y0078958D01*
X0168764Y0079006D01*
X0168708Y0079057D01*
X0168654Y0079111D01*
X0168603Y0079167D01*
X0168555Y0079226D01*
X0168510Y0079287D01*
X0168468Y0079351D01*
X0168429Y0079416D01*
X0168394Y0079483D01*
X0168363Y0079552D01*
X0168334Y0079623D01*
X0168310Y0079695D01*
X0168289Y0079768D01*
X0168272Y0079842D01*
X0168258Y0079917D01*
X0168249Y0079992D01*
X0168243Y0080068D01*
X0168241Y0080144D01*
X0168241Y0097144D01*
X0168243Y0097220D01*
X0168249Y0097296D01*
X0168258Y0097371D01*
X0168272Y0097446D01*
X0168289Y0097520D01*
X0168310Y0097593D01*
X0168334Y0097665D01*
X0168363Y0097736D01*
X0168394Y0097805D01*
X0168429Y0097872D01*
X0168468Y0097937D01*
X0168510Y0098001D01*
X0168555Y0098062D01*
X0168603Y0098121D01*
X0168654Y0098177D01*
X0168708Y0098231D01*
X0168764Y0098282D01*
X0168823Y0098330D01*
X0168884Y0098375D01*
X0168948Y0098417D01*
X0169013Y0098456D01*
X0169080Y0098491D01*
X0169149Y0098522D01*
X0169220Y0098551D01*
X0169292Y0098575D01*
X0169365Y0098596D01*
X0169439Y0098613D01*
X0169514Y0098627D01*
X0169589Y0098636D01*
X0169665Y0098642D01*
X0169741Y0098644D01*
X0173941Y0078644D02*
X0173943Y0078732D01*
X0173949Y0078821D01*
X0173959Y0078909D01*
X0173972Y0078996D01*
X0173990Y0079083D01*
X0174011Y0079169D01*
X0174036Y0079254D01*
X0174065Y0079337D01*
X0174098Y0079420D01*
X0174134Y0079500D01*
X0174173Y0079579D01*
X0174216Y0079657D01*
X0174263Y0079732D01*
X0174313Y0079805D01*
X0174366Y0079876D01*
X0174422Y0079945D01*
X0174481Y0080011D01*
X0174543Y0080074D01*
X0174607Y0080134D01*
X0174674Y0080192D01*
X0174744Y0080246D01*
X0174816Y0080298D01*
X0174890Y0080346D01*
X0174967Y0080391D01*
X0175045Y0080432D01*
X0175125Y0080470D01*
X0175206Y0080504D01*
X0175289Y0080535D01*
X0175374Y0080562D01*
X0175459Y0080585D01*
X0175545Y0080604D01*
X0175633Y0080620D01*
X0175720Y0080632D01*
X0175808Y0080640D01*
X0175897Y0080644D01*
X0175985Y0080644D01*
X0176074Y0080640D01*
X0176162Y0080632D01*
X0176249Y0080620D01*
X0176337Y0080604D01*
X0176423Y0080585D01*
X0176508Y0080562D01*
X0176593Y0080535D01*
X0176676Y0080504D01*
X0176757Y0080470D01*
X0176837Y0080432D01*
X0176915Y0080391D01*
X0176992Y0080346D01*
X0177066Y0080298D01*
X0177138Y0080246D01*
X0177208Y0080192D01*
X0177275Y0080134D01*
X0177339Y0080074D01*
X0177401Y0080011D01*
X0177460Y0079945D01*
X0177516Y0079876D01*
X0177569Y0079805D01*
X0177619Y0079732D01*
X0177666Y0079657D01*
X0177709Y0079579D01*
X0177748Y0079500D01*
X0177784Y0079420D01*
X0177817Y0079337D01*
X0177846Y0079254D01*
X0177871Y0079169D01*
X0177892Y0079083D01*
X0177910Y0078996D01*
X0177923Y0078909D01*
X0177933Y0078821D01*
X0177939Y0078732D01*
X0177941Y0078644D01*
D12*
X0178028Y0057247D02*
X0178729Y0057247D01*
X0178729Y0053044D01*
X0179429Y0053044D02*
X0178028Y0053044D01*
X0176227Y0053044D02*
X0174125Y0053044D01*
X0173424Y0053744D01*
X0173424Y0055846D01*
X0171623Y0055846D02*
X0169521Y0055846D01*
X0168820Y0055146D01*
X0169521Y0054445D01*
X0170922Y0054445D01*
X0171623Y0053744D01*
X0170922Y0053044D01*
X0168820Y0053044D01*
X0167019Y0053044D02*
X0167019Y0055146D01*
X0166318Y0055846D01*
X0164216Y0055846D01*
X0164216Y0053044D01*
X0162415Y0053044D02*
X0162415Y0055146D01*
X0161714Y0055846D01*
X0159613Y0055846D01*
X0159613Y0053044D01*
X0157811Y0054445D02*
X0157811Y0055146D01*
X0157110Y0055846D01*
X0155709Y0055846D01*
X0155009Y0055146D01*
X0155009Y0053744D01*
X0155709Y0053044D01*
X0157110Y0053044D01*
X0157811Y0054445D02*
X0155009Y0054445D01*
X0153207Y0055146D02*
X0152506Y0054445D01*
X0150405Y0054445D01*
X0150405Y0053044D02*
X0150405Y0057247D01*
X0152506Y0057247D01*
X0153207Y0056547D01*
X0153207Y0055146D01*
X0157044Y0049247D02*
X0157044Y0045044D01*
X0154942Y0045044D01*
X0154241Y0045744D01*
X0154241Y0047146D01*
X0154942Y0047846D01*
X0157044Y0047846D01*
X0158845Y0047846D02*
X0160947Y0047846D01*
X0161648Y0047146D01*
X0161648Y0045744D01*
X0160947Y0045044D01*
X0158845Y0045044D01*
X0158845Y0049247D01*
X0163449Y0047846D02*
X0163449Y0045744D01*
X0164150Y0045044D01*
X0166252Y0045044D01*
X0166252Y0047846D01*
X0168053Y0047146D02*
X0168754Y0046445D01*
X0170155Y0046445D01*
X0170855Y0045744D01*
X0170155Y0045044D01*
X0168053Y0045044D01*
X0168053Y0047146D02*
X0168754Y0047846D01*
X0170855Y0047846D01*
X0174826Y0051643D02*
X0175526Y0051643D01*
X0176227Y0052343D01*
X0176227Y0055846D01*
X0181098Y0055846D02*
X0182499Y0053044D01*
X0183900Y0055846D01*
X0186402Y0055846D02*
X0187803Y0055846D01*
X0188504Y0055146D01*
X0188504Y0053044D01*
X0186402Y0053044D01*
X0185701Y0053744D01*
X0186402Y0054445D01*
X0188504Y0054445D01*
X0190305Y0055846D02*
X0192407Y0055846D01*
X0193108Y0055146D01*
X0193108Y0053044D01*
X0194909Y0053044D02*
X0196310Y0053044D01*
X0195610Y0053044D02*
X0195610Y0055846D01*
X0194909Y0055846D01*
X0195610Y0057247D02*
X0195610Y0057948D01*
X0198679Y0055846D02*
X0200080Y0055846D01*
X0200781Y0055146D01*
X0200781Y0053044D01*
X0198679Y0053044D01*
X0197979Y0053744D01*
X0198679Y0054445D01*
X0200781Y0054445D01*
X0207186Y0055146D02*
X0208588Y0055146D01*
X0207186Y0057247D02*
X0209989Y0057247D01*
X0211790Y0057247D02*
X0213892Y0057247D01*
X0214593Y0056547D01*
X0214593Y0055146D01*
X0213892Y0054445D01*
X0211790Y0054445D01*
X0211790Y0053044D02*
X0211790Y0057247D01*
X0216394Y0057247D02*
X0216394Y0053044D01*
X0219197Y0053044D01*
X0220998Y0053744D02*
X0221699Y0053044D01*
X0223100Y0053044D01*
X0223801Y0053744D01*
X0223801Y0054445D01*
X0223100Y0055146D01*
X0221699Y0055146D01*
X0220998Y0055846D01*
X0220998Y0056547D01*
X0221699Y0057247D01*
X0223100Y0057247D01*
X0223801Y0056547D01*
X0219197Y0057247D02*
X0216394Y0057247D01*
X0216394Y0055146D02*
X0217795Y0055146D01*
X0214593Y0053044D02*
X0213192Y0054445D01*
X0212558Y0049247D02*
X0214659Y0049247D01*
X0215360Y0048547D01*
X0215360Y0047146D01*
X0214659Y0046445D01*
X0212558Y0046445D01*
X0213959Y0046445D02*
X0215360Y0045044D01*
X0217162Y0045744D02*
X0217162Y0047146D01*
X0217862Y0047846D01*
X0219263Y0047846D01*
X0219964Y0047146D01*
X0219964Y0046445D01*
X0217162Y0046445D01*
X0217162Y0045744D02*
X0217862Y0045044D01*
X0219263Y0045044D01*
X0221766Y0047846D02*
X0223167Y0045044D01*
X0224568Y0047846D01*
X0230973Y0047846D02*
X0232375Y0049247D01*
X0232375Y0045044D01*
X0233776Y0045044D02*
X0230973Y0045044D01*
X0235577Y0045044D02*
X0236278Y0045044D01*
X0236278Y0045744D01*
X0235577Y0045744D01*
X0235577Y0045044D01*
X0237879Y0045744D02*
X0240682Y0048547D01*
X0240682Y0045744D01*
X0239981Y0045044D01*
X0238580Y0045044D01*
X0237879Y0045744D01*
X0237879Y0048547D01*
X0238580Y0049247D01*
X0239981Y0049247D01*
X0240682Y0048547D01*
X0244634Y0048097D02*
X0244634Y0043097D01*
X0247134Y0040597D01*
X0244634Y0038097D01*
X0244634Y0033097D01*
X0247134Y0030597D01*
X0252134Y0030597D01*
X0254634Y0033097D01*
X0257134Y0030597D01*
X0262134Y0030597D01*
X0264634Y0033097D01*
X0264634Y0038097D01*
X0262134Y0040597D01*
X0247134Y0040597D01*
X0244634Y0048097D02*
X0247134Y0050597D01*
X0244634Y0053097D01*
X0244634Y0058097D01*
X0247134Y0060597D01*
X0244634Y0063097D01*
X0244634Y0068097D01*
X0247134Y0070597D01*
X0244634Y0073097D01*
X0244634Y0078097D01*
X0247134Y0080597D01*
X0244634Y0083097D01*
X0244634Y0088097D01*
X0247134Y0090597D01*
X0244634Y0093097D01*
X0244634Y0098097D01*
X0247134Y0100597D01*
X0262134Y0100597D01*
X0264634Y0098097D01*
X0264634Y0093097D01*
X0262134Y0090597D01*
X0247134Y0090597D01*
X0247134Y0080597D02*
X0262134Y0080597D01*
X0264634Y0078097D01*
X0264634Y0073097D01*
X0262134Y0070597D01*
X0247134Y0070597D01*
X0247134Y0060597D02*
X0262134Y0060597D01*
X0264634Y0058097D01*
X0264634Y0053097D01*
X0262134Y0050597D01*
X0247134Y0050597D01*
X0262134Y0050597D02*
X0264634Y0048097D01*
X0264634Y0043097D01*
X0262134Y0040597D01*
X0262134Y0060597D02*
X0264634Y0063097D01*
X0264634Y0068097D01*
X0262134Y0070597D01*
X0262134Y0080597D02*
X0264634Y0083097D01*
X0264634Y0088097D01*
X0262134Y0090597D01*
X0262134Y0100597D02*
X0264634Y0103097D01*
X0264634Y0108097D01*
X0262134Y0110597D01*
X0247134Y0110597D01*
X0244634Y0113097D01*
X0244634Y0118097D01*
X0247134Y0120597D01*
X0262134Y0120597D01*
X0264634Y0118097D01*
X0264634Y0113097D01*
X0262134Y0110597D01*
X0262134Y0120597D02*
X0264634Y0123097D01*
X0264634Y0128097D01*
X0262134Y0130597D01*
X0247134Y0130597D01*
X0244634Y0128097D01*
X0244634Y0123097D01*
X0247134Y0120597D01*
X0247134Y0130597D02*
X0244634Y0133097D01*
X0244634Y0138097D01*
X0247134Y0140597D01*
X0262134Y0140597D01*
X0264634Y0143097D01*
X0264634Y0148097D01*
X0262134Y0150597D01*
X0247134Y0150597D01*
X0244634Y0148097D01*
X0244634Y0143097D01*
X0247134Y0140597D01*
X0247134Y0150597D02*
X0244634Y0153097D01*
X0244634Y0158097D01*
X0247134Y0160597D01*
X0262134Y0160597D01*
X0264634Y0158097D01*
X0264634Y0153097D01*
X0262134Y0150597D01*
X0262134Y0140597D02*
X0264634Y0138097D01*
X0264634Y0133097D01*
X0262134Y0130597D01*
X0247134Y0110597D02*
X0244634Y0108097D01*
X0244634Y0103097D01*
X0247134Y0100597D01*
X0214697Y0113132D02*
X0211547Y0113132D01*
X0214697Y0113132D02*
X0214697Y0115494D01*
X0214697Y0121793D02*
X0214697Y0124156D01*
X0211547Y0124156D01*
X0247134Y0160597D02*
X0244634Y0163097D01*
X0244634Y0168097D01*
X0247134Y0170597D01*
X0262134Y0170597D01*
X0264634Y0168097D01*
X0264634Y0163097D01*
X0262134Y0160597D01*
X0262134Y0170597D02*
X0264634Y0173097D01*
X0264634Y0178097D01*
X0262134Y0180597D01*
X0247134Y0180597D01*
X0244634Y0183097D01*
X0244634Y0188097D01*
X0247134Y0190597D01*
X0262134Y0190597D01*
X0264634Y0188097D01*
X0264634Y0183097D01*
X0262134Y0180597D01*
X0262134Y0190597D02*
X0264634Y0193097D01*
X0264634Y0198097D01*
X0262134Y0200597D01*
X0247134Y0200597D01*
X0244634Y0198097D01*
X0244634Y0193097D01*
X0247134Y0190597D01*
X0247134Y0200597D02*
X0244634Y0203097D01*
X0244634Y0208097D01*
X0247134Y0210597D01*
X0262134Y0210597D01*
X0264634Y0213097D01*
X0264634Y0218097D01*
X0262134Y0220597D01*
X0247134Y0220597D01*
X0244634Y0218097D01*
X0244634Y0213097D01*
X0247134Y0210597D01*
X0247134Y0220597D02*
X0244634Y0223097D01*
X0244634Y0228097D01*
X0247134Y0230597D01*
X0252134Y0230597D01*
X0254634Y0228097D01*
X0257134Y0230597D01*
X0262134Y0230597D01*
X0264634Y0228097D01*
X0264634Y0223097D01*
X0262134Y0220597D01*
X0262134Y0210597D02*
X0264634Y0208097D01*
X0264634Y0203097D01*
X0262134Y0200597D01*
X0247134Y0180597D02*
X0244634Y0178097D01*
X0244634Y0173097D01*
X0247134Y0170597D01*
X0202334Y0188132D02*
X0199185Y0188132D01*
X0199185Y0190494D01*
X0199185Y0196793D02*
X0199185Y0199156D01*
X0202334Y0199156D01*
X0172941Y0232644D02*
X0102941Y0232644D01*
X0102941Y0162644D01*
X0172941Y0162644D01*
X0172941Y0232644D01*
X0243134Y0229097D02*
X0243134Y0222597D01*
X0159334Y0117156D02*
X0156185Y0117156D01*
X0156185Y0114793D01*
X0156185Y0108494D02*
X0156185Y0106132D01*
X0159334Y0106132D01*
X0139334Y0106132D02*
X0136185Y0106132D01*
X0136185Y0108494D01*
X0136185Y0114793D02*
X0136185Y0117156D01*
X0139334Y0117156D01*
X0144133Y0057247D02*
X0143432Y0056547D01*
X0143432Y0053044D01*
X0142731Y0055146D02*
X0144133Y0055146D01*
X0140930Y0055146D02*
X0140930Y0053744D01*
X0140229Y0053044D01*
X0138828Y0053044D01*
X0138128Y0053744D01*
X0138128Y0055146D01*
X0138828Y0055846D01*
X0140229Y0055846D01*
X0140930Y0055146D01*
X0145033Y0049247D02*
X0146435Y0047846D01*
X0147836Y0049247D01*
X0147836Y0045044D01*
X0149637Y0045744D02*
X0149637Y0047146D01*
X0150338Y0047846D01*
X0151739Y0047846D01*
X0152440Y0047146D01*
X0152440Y0045744D01*
X0151739Y0045044D01*
X0150338Y0045044D01*
X0149637Y0045744D01*
X0145033Y0045044D02*
X0145033Y0049247D01*
X0143232Y0047146D02*
X0140430Y0047146D01*
X0138761Y0047846D02*
X0137360Y0047846D01*
X0138061Y0048547D02*
X0138061Y0045744D01*
X0138761Y0045044D01*
X0135559Y0046445D02*
X0135559Y0047146D01*
X0134858Y0047846D01*
X0133457Y0047846D01*
X0132756Y0047146D01*
X0132756Y0045744D01*
X0133457Y0045044D01*
X0134858Y0045044D01*
X0135559Y0046445D02*
X0132756Y0046445D01*
X0130955Y0047146D02*
X0130955Y0045044D01*
X0130955Y0047146D02*
X0130254Y0047846D01*
X0128152Y0047846D01*
X0128152Y0045044D01*
X0126351Y0045744D02*
X0125650Y0045044D01*
X0124249Y0045044D01*
X0123548Y0045744D01*
X0123548Y0048547D01*
X0124249Y0049247D01*
X0125650Y0049247D01*
X0126351Y0048547D01*
X0121747Y0047846D02*
X0121747Y0045044D01*
X0121747Y0047146D02*
X0118945Y0047146D01*
X0118945Y0047846D02*
X0120346Y0049247D01*
X0121747Y0047846D01*
X0118945Y0047846D02*
X0118945Y0045044D01*
X0117143Y0045744D02*
X0116442Y0045044D01*
X0114341Y0045044D01*
X0114341Y0049247D01*
X0116442Y0049247D01*
X0117143Y0048547D01*
X0117143Y0047846D01*
X0116442Y0047146D01*
X0114341Y0047146D01*
X0116442Y0047146D02*
X0117143Y0046445D01*
X0117143Y0045744D01*
X0116442Y0053044D02*
X0115041Y0053044D01*
X0114341Y0053744D01*
X0114341Y0057247D01*
X0117143Y0057247D02*
X0117143Y0053744D01*
X0116442Y0053044D01*
X0118945Y0053044D02*
X0118945Y0055846D01*
X0121046Y0055846D01*
X0121747Y0055146D01*
X0121747Y0053044D01*
X0123548Y0053044D02*
X0124950Y0053044D01*
X0124249Y0053044D02*
X0124249Y0055846D01*
X0123548Y0055846D01*
X0124249Y0057247D02*
X0124249Y0057948D01*
X0126618Y0055846D02*
X0128019Y0053044D01*
X0129420Y0055846D01*
X0131222Y0053744D02*
X0131922Y0053744D01*
X0131922Y0053044D01*
X0131222Y0053044D01*
X0131222Y0053744D01*
X0177261Y0048547D02*
X0177261Y0045744D01*
X0177962Y0045044D01*
X0179363Y0045044D01*
X0180063Y0045744D01*
X0180063Y0047146D01*
X0178662Y0047146D01*
X0177261Y0048547D02*
X0177962Y0049247D01*
X0179363Y0049247D01*
X0180063Y0048547D01*
X0182565Y0047846D02*
X0183967Y0047846D01*
X0184667Y0047146D01*
X0184667Y0045044D01*
X0182565Y0045044D01*
X0181865Y0045744D01*
X0182565Y0046445D01*
X0184667Y0046445D01*
X0186469Y0047846D02*
X0187870Y0047846D01*
X0187169Y0048547D02*
X0187169Y0045744D01*
X0187870Y0045044D01*
X0189538Y0045744D02*
X0189538Y0047146D01*
X0190239Y0047846D01*
X0191640Y0047846D01*
X0192340Y0047146D01*
X0192340Y0046445D01*
X0189538Y0046445D01*
X0189538Y0045744D02*
X0190239Y0045044D01*
X0191640Y0045044D01*
X0194142Y0045744D02*
X0194142Y0047846D01*
X0194142Y0045744D02*
X0194843Y0045044D01*
X0195543Y0045744D01*
X0196244Y0045044D01*
X0196944Y0045744D01*
X0196944Y0047846D01*
X0199447Y0047846D02*
X0200848Y0047846D01*
X0201548Y0047146D01*
X0201548Y0045044D01*
X0199447Y0045044D01*
X0198746Y0045744D01*
X0199447Y0046445D01*
X0201548Y0046445D01*
X0203350Y0045744D02*
X0204050Y0045044D01*
X0206152Y0045044D01*
X0206152Y0044343D02*
X0205452Y0043643D01*
X0204751Y0043643D01*
X0206152Y0044343D02*
X0206152Y0047846D01*
X0203350Y0047846D02*
X0203350Y0045744D01*
X0207186Y0053044D02*
X0207186Y0057247D01*
X0212558Y0049247D02*
X0212558Y0045044D01*
X0190305Y0053044D02*
X0190305Y0055846D01*
D13*
X0073980Y0071497D02*
X0072996Y0070513D01*
X0071027Y0070513D01*
X0070043Y0071497D01*
X0070043Y0073465D02*
X0072011Y0074449D01*
X0072996Y0074449D01*
X0073980Y0073465D01*
X0073980Y0071497D01*
X0070043Y0073465D02*
X0070043Y0076418D01*
X0073980Y0076418D01*
X0067534Y0075434D02*
X0067534Y0074449D01*
X0066550Y0073465D01*
X0064582Y0073465D01*
X0063598Y0074449D01*
X0063598Y0075434D01*
X0064582Y0076418D01*
X0066550Y0076418D01*
X0067534Y0075434D01*
X0066550Y0073465D02*
X0067534Y0072481D01*
X0067534Y0071497D01*
X0066550Y0070513D01*
X0064582Y0070513D01*
X0063598Y0071497D01*
X0063598Y0072481D01*
X0064582Y0073465D01*
X0061089Y0073465D02*
X0057152Y0073465D01*
X0060105Y0076418D01*
X0060105Y0070513D01*
X0059936Y0155048D02*
X0061904Y0155048D01*
X0062889Y0156032D01*
X0062889Y0159969D01*
X0061904Y0160953D01*
X0059936Y0160953D01*
X0058952Y0159969D01*
X0058952Y0156032D01*
X0059936Y0155048D01*
X0056443Y0158001D02*
X0055459Y0157016D01*
X0052506Y0157016D01*
X0052506Y0155048D02*
X0052506Y0160953D01*
X0055459Y0160953D01*
X0056443Y0159969D01*
X0056443Y0158001D01*
X0065397Y0160953D02*
X0065397Y0155048D01*
X0067366Y0157016D01*
X0069334Y0155048D01*
X0069334Y0160953D01*
X0071843Y0160953D02*
X0071843Y0155048D01*
X0075780Y0155048D01*
X0078288Y0155048D02*
X0078288Y0160953D01*
X0081241Y0160953D01*
X0082225Y0159969D01*
X0082225Y0158001D01*
X0081241Y0157016D01*
X0078288Y0157016D01*
X0080257Y0157016D02*
X0082225Y0155048D01*
X0075780Y0160953D02*
X0071843Y0160953D01*
X0071843Y0158001D02*
X0073811Y0158001D01*
D14*
X0180389Y0082093D03*
D15*
X0182241Y0078644D02*
X0182241Y0098644D01*
D16*
X0181941Y0130144D03*
D17*
X0092941Y0041744D03*
X0100241Y0036044D03*
X0085641Y0036044D03*
D18*
X0092941Y0022944D02*
X0093416Y0023049D01*
X0093890Y0023164D01*
X0094360Y0023291D01*
X0094827Y0023429D01*
X0095290Y0023579D01*
X0095750Y0023740D01*
X0096205Y0023912D01*
X0096656Y0024095D01*
X0097103Y0024288D01*
X0097545Y0024493D01*
X0097982Y0024708D01*
X0098413Y0024934D01*
X0098839Y0025170D01*
X0099259Y0025416D01*
X0099673Y0025673D01*
X0100081Y0025939D01*
X0100482Y0026216D01*
X0100876Y0026502D01*
X0101263Y0026797D01*
X0101643Y0027102D01*
X0102016Y0027415D01*
X0102380Y0027738D01*
X0102737Y0028069D01*
X0103086Y0028409D01*
X0103426Y0028758D01*
X0103758Y0029114D01*
X0104081Y0029479D01*
X0104395Y0029851D01*
X0104700Y0030231D01*
X0104995Y0030617D01*
X0105281Y0031011D01*
X0105558Y0031412D01*
X0105825Y0031820D01*
X0106082Y0032233D01*
X0106328Y0032653D01*
X0106565Y0033079D01*
X0106791Y0033510D01*
X0107006Y0033947D01*
X0107211Y0034389D01*
X0107405Y0034835D01*
X0107589Y0035286D01*
X0107761Y0035742D01*
X0107922Y0036201D01*
X0108072Y0036665D01*
X0108211Y0037131D01*
X0108338Y0037601D01*
X0108454Y0038074D01*
X0108558Y0038550D01*
X0108651Y0039028D01*
X0108733Y0039508D01*
X0108802Y0039990D01*
X0108860Y0040474D01*
X0108906Y0040958D01*
X0108941Y0041444D01*
X0092940Y0022944D02*
X0092465Y0023049D01*
X0091991Y0023164D01*
X0091521Y0023291D01*
X0091054Y0023429D01*
X0090591Y0023579D01*
X0090131Y0023740D01*
X0089676Y0023912D01*
X0089225Y0024095D01*
X0088778Y0024288D01*
X0088336Y0024493D01*
X0087899Y0024708D01*
X0087468Y0024934D01*
X0087042Y0025170D01*
X0086622Y0025416D01*
X0086208Y0025673D01*
X0085800Y0025939D01*
X0085399Y0026216D01*
X0085005Y0026502D01*
X0084618Y0026797D01*
X0084238Y0027102D01*
X0083865Y0027415D01*
X0083501Y0027738D01*
X0083144Y0028069D01*
X0082795Y0028409D01*
X0082455Y0028758D01*
X0082123Y0029114D01*
X0081800Y0029479D01*
X0081486Y0029851D01*
X0081181Y0030231D01*
X0080886Y0030617D01*
X0080600Y0031011D01*
X0080323Y0031412D01*
X0080056Y0031820D01*
X0079799Y0032233D01*
X0079553Y0032653D01*
X0079316Y0033079D01*
X0079090Y0033510D01*
X0078875Y0033947D01*
X0078670Y0034389D01*
X0078476Y0034835D01*
X0078292Y0035286D01*
X0078120Y0035742D01*
X0077959Y0036201D01*
X0077809Y0036665D01*
X0077670Y0037131D01*
X0077543Y0037601D01*
X0077427Y0038074D01*
X0077323Y0038550D01*
X0077230Y0039028D01*
X0077148Y0039508D01*
X0077079Y0039990D01*
X0077021Y0040474D01*
X0076975Y0040958D01*
X0076940Y0041444D01*
D19*
X0076941Y0049544D03*
X0108941Y0049544D03*
D20*
X0092941Y0056644D03*
D21*
X0201972Y0213400D03*
M02*
