G75*
%MOIN*%
%OFA0B0*%
%FSLAX25Y25*%
%IPPOS*%
%LPD*%
%AMOC8*
5,1,8,0,0,1.08239X$1,22.5*
%
%ADD10C,0.10000*%
%ADD11C,0.07400*%
%ADD12C,0.00800*%
%ADD13C,0.04000*%
%ADD14C,0.01600*%
%ADD15C,0.03378*%
D10*
X0081468Y0097644D03*
X0101468Y0097644D03*
X0101468Y0117644D03*
X0101468Y0137644D03*
X0081468Y0137644D03*
X0081468Y0117644D03*
X0077468Y0182927D03*
X0077468Y0202927D03*
X0077468Y0222927D03*
D11*
X0117941Y0212644D03*
X0117941Y0202644D03*
X0117941Y0192644D03*
X0249634Y0190597D03*
X0249634Y0180597D03*
X0259634Y0180597D03*
X0259634Y0190597D03*
X0259634Y0200597D03*
X0259634Y0210597D03*
X0259634Y0220597D03*
X0259634Y0230597D03*
X0249634Y0230597D03*
X0249634Y0220597D03*
X0249634Y0210597D03*
X0249634Y0200597D03*
X0249634Y0170597D03*
X0259634Y0170597D03*
X0259634Y0160597D03*
X0259634Y0150597D03*
X0259634Y0140597D03*
X0259634Y0130597D03*
X0259634Y0120597D03*
X0259634Y0110597D03*
X0259634Y0100597D03*
X0259634Y0090597D03*
X0259634Y0080597D03*
X0259634Y0070597D03*
X0259634Y0060597D03*
X0259634Y0050597D03*
X0259634Y0040597D03*
X0249634Y0040597D03*
X0249634Y0050597D03*
X0249634Y0060597D03*
X0249634Y0070597D03*
X0249634Y0080597D03*
X0249634Y0090597D03*
X0249634Y0100597D03*
X0249634Y0110597D03*
X0249634Y0120597D03*
X0249634Y0130597D03*
X0249634Y0140597D03*
X0249634Y0150597D03*
X0249634Y0160597D03*
D12*
X0049541Y0075360D02*
X0049541Y0033628D01*
X0073925Y0033628D01*
X0073925Y0009244D01*
X0242429Y0009244D01*
X0242429Y0033628D01*
X0266813Y0033628D01*
X0266813Y0237565D01*
X0242429Y0237565D01*
X0242429Y0261949D01*
X0195578Y0261949D01*
X0195123Y0261904D01*
X0194280Y0261555D01*
X0193635Y0260911D01*
X0193286Y0260068D01*
X0193241Y0259612D01*
X0193241Y0246700D01*
X0192398Y0244665D01*
X0192398Y0244665D01*
X0191641Y0243908D01*
X0191641Y0243864D01*
X0191598Y0243864D01*
X0190841Y0243107D01*
X0190841Y0243107D01*
X0188806Y0242264D01*
X0127548Y0242264D01*
X0125513Y0243107D01*
X0125513Y0243107D01*
X0124756Y0243864D01*
X0124712Y0243864D01*
X0124712Y0243908D01*
X0123955Y0244665D01*
X0123955Y0244665D01*
X0123112Y0246700D01*
X0123112Y0259612D01*
X0123067Y0260068D01*
X0122718Y0260911D01*
X0122074Y0261555D01*
X0121231Y0261904D01*
X0120775Y0261949D01*
X0073925Y0261949D01*
X0073925Y0237565D01*
X0049541Y0237565D01*
X0049541Y0160006D01*
X0049586Y0159550D01*
X0049934Y0158708D01*
X0050579Y0158063D01*
X0051422Y0157714D01*
X0051878Y0157669D01*
X0068727Y0157669D01*
X0070762Y0156826D01*
X0070762Y0156826D01*
X0072320Y0155268D01*
X0072320Y0155268D01*
X0073163Y0153233D01*
X0073163Y0082133D01*
X0072320Y0080098D01*
X0072320Y0080098D01*
X0070762Y0078540D01*
X0070762Y0078540D01*
X0068727Y0077697D01*
X0051878Y0077697D01*
X0051422Y0077652D01*
X0050579Y0077303D01*
X0049934Y0076659D01*
X0049586Y0075816D01*
X0049541Y0075360D01*
X0049556Y0075517D02*
X0149941Y0075517D01*
X0149941Y0074719D02*
X0049541Y0074719D01*
X0049541Y0073920D02*
X0149941Y0073920D01*
X0149941Y0073295D02*
X0149152Y0072507D01*
X0148652Y0071298D01*
X0148652Y0069990D01*
X0149152Y0068781D01*
X0150078Y0067856D01*
X0151286Y0067355D01*
X0152595Y0067355D01*
X0153804Y0067856D01*
X0154729Y0068781D01*
X0155230Y0069990D01*
X0155230Y0071298D01*
X0154729Y0072507D01*
X0153941Y0073295D01*
X0153941Y0168815D01*
X0163722Y0178597D01*
X0244725Y0178597D01*
X0245140Y0177594D01*
X0246631Y0176103D01*
X0247855Y0175597D01*
X0246631Y0175090D01*
X0245140Y0173599D01*
X0244334Y0171651D01*
X0244334Y0169542D01*
X0245140Y0167594D01*
X0246631Y0166103D01*
X0247855Y0165597D01*
X0246631Y0165090D01*
X0245140Y0163599D01*
X0244334Y0161651D01*
X0244334Y0159542D01*
X0245140Y0157594D01*
X0246631Y0156103D01*
X0247855Y0155597D01*
X0246631Y0155090D01*
X0245140Y0153599D01*
X0244891Y0152997D01*
X0196416Y0152997D01*
X0195534Y0152631D01*
X0184147Y0141244D01*
X0183225Y0141244D01*
X0181901Y0140696D01*
X0181249Y0140044D01*
X0166632Y0140044D01*
X0165980Y0140696D01*
X0164657Y0141244D01*
X0163225Y0141244D01*
X0161901Y0140696D01*
X0160889Y0139683D01*
X0160341Y0138360D01*
X0160341Y0136928D01*
X0160889Y0135605D01*
X0161901Y0134592D01*
X0163225Y0134044D01*
X0164657Y0134044D01*
X0165980Y0134592D01*
X0166632Y0135244D01*
X0181249Y0135244D01*
X0181541Y0134953D01*
X0181541Y0086166D01*
X0181906Y0085284D01*
X0187341Y0079850D01*
X0187341Y0078928D01*
X0187889Y0077605D01*
X0188901Y0076592D01*
X0190225Y0076044D01*
X0191657Y0076044D01*
X0192980Y0076592D01*
X0193993Y0077605D01*
X0194541Y0078928D01*
X0194541Y0080360D01*
X0193993Y0081683D01*
X0192980Y0082696D01*
X0191657Y0083244D01*
X0190735Y0083244D01*
X0186341Y0087638D01*
X0186341Y0134953D01*
X0186993Y0135605D01*
X0187541Y0136928D01*
X0187541Y0137850D01*
X0197887Y0148197D01*
X0244891Y0148197D01*
X0245140Y0147594D01*
X0246631Y0146103D01*
X0247855Y0145597D01*
X0246631Y0145090D01*
X0245140Y0143599D01*
X0244334Y0141651D01*
X0244334Y0139542D01*
X0245140Y0137594D01*
X0246631Y0136103D01*
X0247855Y0135597D01*
X0246631Y0135090D01*
X0245140Y0133599D01*
X0244334Y0131651D01*
X0244334Y0129542D01*
X0245140Y0127594D01*
X0246631Y0126103D01*
X0247855Y0125597D01*
X0246631Y0125090D01*
X0245140Y0123599D01*
X0244334Y0121651D01*
X0244334Y0119542D01*
X0245140Y0117594D01*
X0246631Y0116103D01*
X0248147Y0115476D01*
X0247676Y0115323D01*
X0246961Y0114958D01*
X0246311Y0114487D01*
X0245743Y0113919D01*
X0245272Y0113270D01*
X0244907Y0112554D01*
X0244659Y0111791D01*
X0244534Y0110998D01*
X0244534Y0110997D01*
X0249233Y0110997D01*
X0249233Y0110197D01*
X0244534Y0110197D01*
X0244534Y0110195D01*
X0244659Y0109402D01*
X0244907Y0108639D01*
X0245272Y0107924D01*
X0245743Y0107274D01*
X0246311Y0106706D01*
X0246961Y0106235D01*
X0247676Y0105870D01*
X0248147Y0105717D01*
X0246631Y0105090D01*
X0245140Y0103599D01*
X0244334Y0101651D01*
X0244334Y0099542D01*
X0245140Y0097594D01*
X0246631Y0096103D01*
X0247855Y0095597D01*
X0246631Y0095090D01*
X0245140Y0093599D01*
X0244334Y0091651D01*
X0244334Y0089542D01*
X0245140Y0087594D01*
X0246631Y0086103D01*
X0247855Y0085597D01*
X0246631Y0085090D01*
X0245140Y0083599D01*
X0244334Y0081651D01*
X0244334Y0079542D01*
X0245140Y0077594D01*
X0246631Y0076103D01*
X0247855Y0075597D01*
X0246631Y0075090D01*
X0245140Y0073599D01*
X0244334Y0071651D01*
X0244334Y0069542D01*
X0245140Y0067594D01*
X0246631Y0066103D01*
X0247855Y0065597D01*
X0246631Y0065090D01*
X0245140Y0063599D01*
X0244334Y0061651D01*
X0244334Y0059542D01*
X0245140Y0057594D01*
X0246631Y0056103D01*
X0247855Y0055597D01*
X0246631Y0055090D01*
X0245140Y0053599D01*
X0244334Y0051651D01*
X0244334Y0049542D01*
X0245140Y0047594D01*
X0246631Y0046103D01*
X0248147Y0045476D01*
X0247676Y0045323D01*
X0246961Y0044958D01*
X0246311Y0044487D01*
X0245743Y0043919D01*
X0245272Y0043270D01*
X0244907Y0042554D01*
X0244659Y0041791D01*
X0244534Y0040998D01*
X0244534Y0040997D01*
X0249233Y0040997D01*
X0249233Y0040197D01*
X0244534Y0040197D01*
X0244534Y0040195D01*
X0244659Y0039402D01*
X0244907Y0038639D01*
X0245272Y0037924D01*
X0245743Y0037274D01*
X0246311Y0036706D01*
X0246961Y0036235D01*
X0247676Y0035870D01*
X0248439Y0035622D01*
X0249232Y0035497D01*
X0249234Y0035497D01*
X0249234Y0040196D01*
X0250034Y0040196D01*
X0250034Y0035497D01*
X0250035Y0035497D01*
X0250828Y0035622D01*
X0251591Y0035870D01*
X0252307Y0036235D01*
X0252956Y0036706D01*
X0253524Y0037274D01*
X0253995Y0037924D01*
X0254360Y0038639D01*
X0254513Y0039110D01*
X0255140Y0037594D01*
X0256631Y0036103D01*
X0258579Y0035297D01*
X0260688Y0035297D01*
X0262636Y0036103D01*
X0264127Y0037594D01*
X0264934Y0039542D01*
X0264934Y0041651D01*
X0264127Y0043599D01*
X0262636Y0045090D01*
X0261412Y0045597D01*
X0262636Y0046103D01*
X0264127Y0047594D01*
X0264934Y0049542D01*
X0264934Y0051651D01*
X0264127Y0053599D01*
X0262636Y0055090D01*
X0261412Y0055597D01*
X0262636Y0056103D01*
X0264127Y0057594D01*
X0264934Y0059542D01*
X0264934Y0061651D01*
X0264127Y0063599D01*
X0262636Y0065090D01*
X0261121Y0065717D01*
X0261591Y0065870D01*
X0262307Y0066235D01*
X0262956Y0066706D01*
X0263524Y0067274D01*
X0263995Y0067924D01*
X0264360Y0068639D01*
X0264608Y0069402D01*
X0264734Y0070195D01*
X0264734Y0070197D01*
X0260034Y0070197D01*
X0260034Y0070997D01*
X0264734Y0070997D01*
X0264734Y0070998D01*
X0264608Y0071791D01*
X0264360Y0072554D01*
X0263995Y0073270D01*
X0263524Y0073919D01*
X0262956Y0074487D01*
X0262307Y0074958D01*
X0261591Y0075323D01*
X0261121Y0075476D01*
X0262636Y0076103D01*
X0264127Y0077594D01*
X0264934Y0079542D01*
X0264934Y0081651D01*
X0264127Y0083599D01*
X0262636Y0085090D01*
X0261121Y0085717D01*
X0261591Y0085870D01*
X0262307Y0086235D01*
X0262956Y0086706D01*
X0263524Y0087274D01*
X0263995Y0087924D01*
X0264360Y0088639D01*
X0264608Y0089402D01*
X0264734Y0090195D01*
X0264734Y0090197D01*
X0260034Y0090197D01*
X0260034Y0090997D01*
X0264734Y0090997D01*
X0264734Y0090998D01*
X0264608Y0091791D01*
X0264360Y0092554D01*
X0263995Y0093270D01*
X0263524Y0093919D01*
X0262956Y0094487D01*
X0262307Y0094958D01*
X0261591Y0095323D01*
X0261121Y0095476D01*
X0262636Y0096103D01*
X0264127Y0097594D01*
X0264934Y0099542D01*
X0264934Y0101651D01*
X0264127Y0103599D01*
X0262636Y0105090D01*
X0261412Y0105597D01*
X0262636Y0106103D01*
X0264127Y0107594D01*
X0264934Y0109542D01*
X0264934Y0111651D01*
X0264127Y0113599D01*
X0262636Y0115090D01*
X0261412Y0115597D01*
X0262636Y0116103D01*
X0264127Y0117594D01*
X0264934Y0119542D01*
X0264934Y0121651D01*
X0264127Y0123599D01*
X0262636Y0125090D01*
X0261412Y0125597D01*
X0262636Y0126103D01*
X0264127Y0127594D01*
X0264934Y0129542D01*
X0264934Y0131651D01*
X0264127Y0133599D01*
X0262636Y0135090D01*
X0261121Y0135717D01*
X0261591Y0135870D01*
X0262307Y0136235D01*
X0262956Y0136706D01*
X0263524Y0137274D01*
X0263995Y0137924D01*
X0264360Y0138639D01*
X0264608Y0139402D01*
X0264734Y0140195D01*
X0264734Y0140197D01*
X0260034Y0140197D01*
X0266813Y0140197D01*
X0266813Y0140995D02*
X0260034Y0140995D01*
X0260034Y0140997D02*
X0264734Y0140997D01*
X0264734Y0140998D01*
X0264608Y0141791D01*
X0264360Y0142554D01*
X0263995Y0143270D01*
X0263524Y0143919D01*
X0262956Y0144487D01*
X0262307Y0144958D01*
X0261591Y0145323D01*
X0261121Y0145476D01*
X0262636Y0146103D01*
X0264127Y0147594D01*
X0264934Y0149542D01*
X0264934Y0151651D01*
X0264127Y0153599D01*
X0262636Y0155090D01*
X0261412Y0155597D01*
X0262636Y0156103D01*
X0264127Y0157594D01*
X0264934Y0159542D01*
X0264934Y0161651D01*
X0264127Y0163599D01*
X0262636Y0165090D01*
X0261121Y0165717D01*
X0261591Y0165870D01*
X0262307Y0166235D01*
X0262956Y0166706D01*
X0263524Y0167274D01*
X0263995Y0167924D01*
X0264360Y0168639D01*
X0264608Y0169402D01*
X0264734Y0170195D01*
X0264734Y0170197D01*
X0260034Y0170197D01*
X0260034Y0170997D01*
X0264734Y0170997D01*
X0264734Y0170998D01*
X0264608Y0171791D01*
X0264360Y0172554D01*
X0263995Y0173270D01*
X0263524Y0173919D01*
X0262956Y0174487D01*
X0262307Y0174958D01*
X0261591Y0175323D01*
X0261121Y0175476D01*
X0262636Y0176103D01*
X0264127Y0177594D01*
X0264934Y0179542D01*
X0264934Y0181651D01*
X0264127Y0183599D01*
X0262636Y0185090D01*
X0261412Y0185597D01*
X0262636Y0186103D01*
X0264127Y0187594D01*
X0264934Y0189542D01*
X0264934Y0191651D01*
X0264127Y0193599D01*
X0262636Y0195090D01*
X0261412Y0195597D01*
X0262636Y0196103D01*
X0264127Y0197594D01*
X0264934Y0199542D01*
X0264934Y0201651D01*
X0264127Y0203599D01*
X0262636Y0205090D01*
X0261121Y0205717D01*
X0261591Y0205870D01*
X0262307Y0206235D01*
X0262956Y0206706D01*
X0263524Y0207274D01*
X0263995Y0207924D01*
X0264360Y0208639D01*
X0264608Y0209402D01*
X0264734Y0210195D01*
X0264734Y0210197D01*
X0260034Y0210197D01*
X0260034Y0210997D01*
X0264734Y0210997D01*
X0264734Y0210998D01*
X0264608Y0211791D01*
X0264360Y0212554D01*
X0263995Y0213270D01*
X0263524Y0213919D01*
X0262956Y0214487D01*
X0262307Y0214958D01*
X0261591Y0215323D01*
X0261121Y0215476D01*
X0262636Y0216103D01*
X0264127Y0217594D01*
X0264934Y0219542D01*
X0264934Y0221651D01*
X0264127Y0223599D01*
X0262636Y0225090D01*
X0261412Y0225597D01*
X0262636Y0226103D01*
X0264127Y0227594D01*
X0264934Y0229542D01*
X0264934Y0231651D01*
X0264127Y0233599D01*
X0262636Y0235090D01*
X0260688Y0235897D01*
X0258579Y0235897D01*
X0256631Y0235090D01*
X0255140Y0233599D01*
X0254634Y0232375D01*
X0254127Y0233599D01*
X0252636Y0235090D01*
X0250688Y0235897D01*
X0248579Y0235897D01*
X0246631Y0235090D01*
X0245140Y0233599D01*
X0244334Y0231651D01*
X0244334Y0229542D01*
X0245140Y0227594D01*
X0246631Y0226103D01*
X0247855Y0225597D01*
X0246631Y0225090D01*
X0245140Y0223599D01*
X0244334Y0221651D01*
X0244334Y0219542D01*
X0245140Y0217594D01*
X0246631Y0216103D01*
X0247855Y0215597D01*
X0246631Y0215090D01*
X0245140Y0213599D01*
X0244334Y0211651D01*
X0244334Y0209542D01*
X0245140Y0207594D01*
X0246631Y0206103D01*
X0247855Y0205597D01*
X0246631Y0205090D01*
X0245140Y0203599D01*
X0244334Y0201651D01*
X0244334Y0199542D01*
X0245140Y0197594D01*
X0246631Y0196103D01*
X0248147Y0195476D01*
X0247676Y0195323D01*
X0246961Y0194958D01*
X0246311Y0194487D01*
X0245743Y0193919D01*
X0245272Y0193270D01*
X0244907Y0192554D01*
X0244659Y0191791D01*
X0244534Y0190998D01*
X0244534Y0190997D01*
X0249233Y0190997D01*
X0249233Y0190197D01*
X0244534Y0190197D01*
X0244534Y0190195D01*
X0244659Y0189402D01*
X0244907Y0188639D01*
X0245272Y0187924D01*
X0245743Y0187274D01*
X0246311Y0186706D01*
X0246961Y0186235D01*
X0247676Y0185870D01*
X0248147Y0185717D01*
X0246631Y0185090D01*
X0245140Y0183599D01*
X0244725Y0182597D01*
X0162065Y0182597D01*
X0149941Y0170472D01*
X0149941Y0073295D01*
X0149767Y0073122D02*
X0049541Y0073122D01*
X0049541Y0072323D02*
X0149076Y0072323D01*
X0148746Y0071525D02*
X0049541Y0071525D01*
X0049541Y0070726D02*
X0148652Y0070726D01*
X0148677Y0069928D02*
X0049541Y0069928D01*
X0049541Y0069129D02*
X0149008Y0069129D01*
X0149602Y0068331D02*
X0049541Y0068331D01*
X0049541Y0067532D02*
X0150858Y0067532D01*
X0153023Y0067532D02*
X0245203Y0067532D01*
X0244835Y0068331D02*
X0154279Y0068331D01*
X0154873Y0069129D02*
X0244505Y0069129D01*
X0244334Y0069928D02*
X0155204Y0069928D01*
X0155230Y0070726D02*
X0244334Y0070726D01*
X0244334Y0071525D02*
X0155136Y0071525D01*
X0154805Y0072323D02*
X0244612Y0072323D01*
X0244943Y0073122D02*
X0154114Y0073122D01*
X0153941Y0073920D02*
X0245462Y0073920D01*
X0246260Y0074719D02*
X0153941Y0074719D01*
X0153941Y0075517D02*
X0247664Y0075517D01*
X0246419Y0076316D02*
X0192313Y0076316D01*
X0193502Y0077114D02*
X0245620Y0077114D01*
X0245009Y0077913D02*
X0194120Y0077913D01*
X0194451Y0078711D02*
X0244678Y0078711D01*
X0244347Y0079510D02*
X0194541Y0079510D01*
X0194541Y0080308D02*
X0244334Y0080308D01*
X0244334Y0081107D02*
X0194231Y0081107D01*
X0193770Y0081905D02*
X0244439Y0081905D01*
X0244770Y0082704D02*
X0192960Y0082704D01*
X0190476Y0083502D02*
X0245101Y0083502D01*
X0245843Y0084301D02*
X0189678Y0084301D01*
X0188879Y0085099D02*
X0246655Y0085099D01*
X0247128Y0085898D02*
X0188081Y0085898D01*
X0187282Y0086696D02*
X0246038Y0086696D01*
X0245240Y0087495D02*
X0186484Y0087495D01*
X0186341Y0088293D02*
X0244851Y0088293D01*
X0244520Y0089092D02*
X0186341Y0089092D01*
X0186341Y0089890D02*
X0244334Y0089890D01*
X0244334Y0090689D02*
X0186341Y0090689D01*
X0186341Y0091487D02*
X0244334Y0091487D01*
X0244597Y0092286D02*
X0186341Y0092286D01*
X0186341Y0093084D02*
X0244927Y0093084D01*
X0245425Y0093883D02*
X0186341Y0093883D01*
X0186341Y0094682D02*
X0246223Y0094682D01*
X0247574Y0095480D02*
X0186341Y0095480D01*
X0186341Y0096279D02*
X0246456Y0096279D01*
X0245658Y0097077D02*
X0186341Y0097077D01*
X0186341Y0097876D02*
X0245024Y0097876D01*
X0244693Y0098674D02*
X0186341Y0098674D01*
X0186341Y0099473D02*
X0244362Y0099473D01*
X0244334Y0100271D02*
X0186341Y0100271D01*
X0186341Y0101070D02*
X0244334Y0101070D01*
X0244424Y0101868D02*
X0186341Y0101868D01*
X0186341Y0102667D02*
X0244754Y0102667D01*
X0245085Y0103465D02*
X0186341Y0103465D01*
X0186341Y0104264D02*
X0245805Y0104264D01*
X0246604Y0105062D02*
X0186341Y0105062D01*
X0186341Y0105861D02*
X0247705Y0105861D01*
X0246376Y0106659D02*
X0186341Y0106659D01*
X0186341Y0107458D02*
X0245610Y0107458D01*
X0245102Y0108256D02*
X0186341Y0108256D01*
X0186341Y0109055D02*
X0244772Y0109055D01*
X0244588Y0109853D02*
X0186341Y0109853D01*
X0186341Y0110652D02*
X0249233Y0110652D01*
X0244605Y0111450D02*
X0186341Y0111450D01*
X0186341Y0112249D02*
X0244808Y0112249D01*
X0245158Y0113047D02*
X0186341Y0113047D01*
X0186341Y0113846D02*
X0245690Y0113846D01*
X0246528Y0114644D02*
X0186341Y0114644D01*
X0186341Y0115443D02*
X0248045Y0115443D01*
X0246493Y0116241D02*
X0186341Y0116241D01*
X0186341Y0117040D02*
X0245695Y0117040D01*
X0245039Y0117838D02*
X0186341Y0117838D01*
X0186341Y0118637D02*
X0244709Y0118637D01*
X0244378Y0119435D02*
X0186341Y0119435D01*
X0186341Y0120234D02*
X0244334Y0120234D01*
X0244334Y0121032D02*
X0186341Y0121032D01*
X0186341Y0121831D02*
X0244408Y0121831D01*
X0244739Y0122629D02*
X0186341Y0122629D01*
X0186341Y0123428D02*
X0245070Y0123428D01*
X0245768Y0124226D02*
X0186341Y0124226D01*
X0186341Y0125025D02*
X0246567Y0125025D01*
X0247307Y0125823D02*
X0186341Y0125823D01*
X0186341Y0126622D02*
X0246113Y0126622D01*
X0245314Y0127420D02*
X0186341Y0127420D01*
X0186341Y0128219D02*
X0244882Y0128219D01*
X0244551Y0129018D02*
X0186341Y0129018D01*
X0186341Y0129816D02*
X0244334Y0129816D01*
X0244334Y0130615D02*
X0186341Y0130615D01*
X0186341Y0131413D02*
X0244334Y0131413D01*
X0244566Y0132212D02*
X0186341Y0132212D01*
X0186341Y0133010D02*
X0244897Y0133010D01*
X0245350Y0133809D02*
X0186341Y0133809D01*
X0186341Y0134607D02*
X0246149Y0134607D01*
X0247394Y0135406D02*
X0186794Y0135406D01*
X0187241Y0136204D02*
X0246531Y0136204D01*
X0245732Y0137003D02*
X0187541Y0137003D01*
X0187541Y0137801D02*
X0245055Y0137801D01*
X0244724Y0138600D02*
X0188291Y0138600D01*
X0189089Y0139398D02*
X0244393Y0139398D01*
X0244334Y0140197D02*
X0189888Y0140197D01*
X0190686Y0140995D02*
X0244334Y0140995D01*
X0244393Y0141794D02*
X0191485Y0141794D01*
X0192283Y0142592D02*
X0244724Y0142592D01*
X0245054Y0143391D02*
X0193082Y0143391D01*
X0193880Y0144189D02*
X0245731Y0144189D01*
X0246529Y0144988D02*
X0194679Y0144988D01*
X0195477Y0145786D02*
X0247397Y0145786D01*
X0246150Y0146585D02*
X0196276Y0146585D01*
X0197074Y0147383D02*
X0245351Y0147383D01*
X0244897Y0148182D02*
X0197873Y0148182D01*
X0193480Y0150577D02*
X0153941Y0150577D01*
X0153941Y0149779D02*
X0192682Y0149779D01*
X0191883Y0148980D02*
X0153941Y0148980D01*
X0153941Y0148182D02*
X0191085Y0148182D01*
X0190286Y0147383D02*
X0153941Y0147383D01*
X0153941Y0146585D02*
X0189487Y0146585D01*
X0188689Y0145786D02*
X0153941Y0145786D01*
X0153941Y0144988D02*
X0187890Y0144988D01*
X0187092Y0144189D02*
X0153941Y0144189D01*
X0153941Y0143391D02*
X0186293Y0143391D01*
X0185495Y0142592D02*
X0153941Y0142592D01*
X0153941Y0141794D02*
X0184696Y0141794D01*
X0182624Y0140995D02*
X0165257Y0140995D01*
X0166479Y0140197D02*
X0181402Y0140197D01*
X0181541Y0134607D02*
X0165995Y0134607D01*
X0161886Y0134607D02*
X0153941Y0134607D01*
X0153941Y0133809D02*
X0181541Y0133809D01*
X0181541Y0133010D02*
X0153941Y0133010D01*
X0153941Y0132212D02*
X0181541Y0132212D01*
X0181541Y0131413D02*
X0153941Y0131413D01*
X0153941Y0130615D02*
X0181541Y0130615D01*
X0181541Y0129816D02*
X0153941Y0129816D01*
X0153941Y0129018D02*
X0181541Y0129018D01*
X0181541Y0128219D02*
X0153941Y0128219D01*
X0153941Y0127420D02*
X0181541Y0127420D01*
X0181541Y0126622D02*
X0153941Y0126622D01*
X0153941Y0125823D02*
X0181541Y0125823D01*
X0181541Y0125025D02*
X0153941Y0125025D01*
X0153941Y0124226D02*
X0181541Y0124226D01*
X0181541Y0123428D02*
X0153941Y0123428D01*
X0153941Y0122629D02*
X0181541Y0122629D01*
X0181541Y0121831D02*
X0153941Y0121831D01*
X0153941Y0121032D02*
X0181541Y0121032D01*
X0181541Y0120234D02*
X0153941Y0120234D01*
X0153941Y0119435D02*
X0181541Y0119435D01*
X0181541Y0118637D02*
X0153941Y0118637D01*
X0153941Y0117838D02*
X0181541Y0117838D01*
X0181541Y0117040D02*
X0153941Y0117040D01*
X0153941Y0116241D02*
X0181541Y0116241D01*
X0181541Y0115443D02*
X0153941Y0115443D01*
X0153941Y0114644D02*
X0181541Y0114644D01*
X0181541Y0113846D02*
X0153941Y0113846D01*
X0153941Y0113047D02*
X0181541Y0113047D01*
X0181541Y0112249D02*
X0153941Y0112249D01*
X0153941Y0111450D02*
X0181541Y0111450D01*
X0181541Y0110652D02*
X0153941Y0110652D01*
X0153941Y0109853D02*
X0181541Y0109853D01*
X0181541Y0109055D02*
X0153941Y0109055D01*
X0153941Y0108256D02*
X0181541Y0108256D01*
X0181541Y0107458D02*
X0153941Y0107458D01*
X0153941Y0106659D02*
X0181541Y0106659D01*
X0181541Y0105861D02*
X0153941Y0105861D01*
X0153941Y0105062D02*
X0181541Y0105062D01*
X0181541Y0104264D02*
X0153941Y0104264D01*
X0153941Y0103465D02*
X0181541Y0103465D01*
X0181541Y0102667D02*
X0153941Y0102667D01*
X0153941Y0101868D02*
X0181541Y0101868D01*
X0181541Y0101070D02*
X0153941Y0101070D01*
X0153941Y0100271D02*
X0181541Y0100271D01*
X0181541Y0099473D02*
X0153941Y0099473D01*
X0153941Y0098674D02*
X0181541Y0098674D01*
X0181541Y0097876D02*
X0153941Y0097876D01*
X0153941Y0097077D02*
X0181541Y0097077D01*
X0181541Y0096279D02*
X0153941Y0096279D01*
X0153941Y0095480D02*
X0181541Y0095480D01*
X0181541Y0094682D02*
X0153941Y0094682D01*
X0153941Y0093883D02*
X0181541Y0093883D01*
X0181541Y0093084D02*
X0153941Y0093084D01*
X0153941Y0092286D02*
X0181541Y0092286D01*
X0181541Y0091487D02*
X0153941Y0091487D01*
X0153941Y0090689D02*
X0181541Y0090689D01*
X0181541Y0089890D02*
X0153941Y0089890D01*
X0153941Y0089092D02*
X0181541Y0089092D01*
X0181541Y0088293D02*
X0153941Y0088293D01*
X0153941Y0087495D02*
X0181541Y0087495D01*
X0181541Y0086696D02*
X0153941Y0086696D01*
X0153941Y0085898D02*
X0181652Y0085898D01*
X0182091Y0085099D02*
X0153941Y0085099D01*
X0153941Y0084301D02*
X0182889Y0084301D01*
X0183688Y0083502D02*
X0153941Y0083502D01*
X0153941Y0082704D02*
X0184486Y0082704D01*
X0185285Y0081905D02*
X0153941Y0081905D01*
X0153941Y0081107D02*
X0186083Y0081107D01*
X0186882Y0080308D02*
X0153941Y0080308D01*
X0153941Y0079510D02*
X0187341Y0079510D01*
X0187430Y0078711D02*
X0153941Y0078711D01*
X0153941Y0077913D02*
X0187761Y0077913D01*
X0188379Y0077114D02*
X0153941Y0077114D01*
X0153941Y0076316D02*
X0189568Y0076316D01*
X0151941Y0070644D02*
X0151941Y0169644D01*
X0162893Y0180597D01*
X0249634Y0180597D01*
X0244755Y0178525D02*
X0163650Y0178525D01*
X0162852Y0177727D02*
X0245086Y0177727D01*
X0245807Y0176928D02*
X0162053Y0176928D01*
X0161255Y0176130D02*
X0246605Y0176130D01*
X0247214Y0175331D02*
X0160456Y0175331D01*
X0159658Y0174533D02*
X0246074Y0174533D01*
X0245276Y0173734D02*
X0158859Y0173734D01*
X0158061Y0172936D02*
X0244866Y0172936D01*
X0244535Y0172137D02*
X0157262Y0172137D01*
X0156464Y0171339D02*
X0244334Y0171339D01*
X0244334Y0170540D02*
X0155665Y0170540D01*
X0154867Y0169742D02*
X0244334Y0169742D01*
X0244582Y0168943D02*
X0154068Y0168943D01*
X0153941Y0168145D02*
X0244913Y0168145D01*
X0245389Y0167346D02*
X0153941Y0167346D01*
X0153941Y0166548D02*
X0246187Y0166548D01*
X0247487Y0165749D02*
X0153941Y0165749D01*
X0153941Y0164951D02*
X0246492Y0164951D01*
X0245694Y0164152D02*
X0153941Y0164152D01*
X0153941Y0163353D02*
X0245039Y0163353D01*
X0244708Y0162555D02*
X0153941Y0162555D01*
X0153941Y0161756D02*
X0244377Y0161756D01*
X0244334Y0160958D02*
X0153941Y0160958D01*
X0153941Y0160159D02*
X0244334Y0160159D01*
X0244409Y0159361D02*
X0153941Y0159361D01*
X0153941Y0158562D02*
X0244739Y0158562D01*
X0245070Y0157764D02*
X0153941Y0157764D01*
X0153941Y0156965D02*
X0245769Y0156965D01*
X0246568Y0156167D02*
X0153941Y0156167D01*
X0153941Y0155368D02*
X0247304Y0155368D01*
X0246112Y0154570D02*
X0153941Y0154570D01*
X0153941Y0153771D02*
X0245313Y0153771D01*
X0261963Y0155368D02*
X0266813Y0155368D01*
X0266813Y0154570D02*
X0263156Y0154570D01*
X0263954Y0153771D02*
X0266813Y0153771D01*
X0266813Y0152973D02*
X0264386Y0152973D01*
X0264717Y0152174D02*
X0266813Y0152174D01*
X0266813Y0151376D02*
X0264934Y0151376D01*
X0264934Y0150577D02*
X0266813Y0150577D01*
X0266813Y0149779D02*
X0264934Y0149779D01*
X0264701Y0148980D02*
X0266813Y0148980D01*
X0266813Y0148182D02*
X0264370Y0148182D01*
X0263916Y0147383D02*
X0266813Y0147383D01*
X0266813Y0146585D02*
X0263117Y0146585D01*
X0261870Y0145786D02*
X0266813Y0145786D01*
X0266813Y0144988D02*
X0262249Y0144988D01*
X0263253Y0144189D02*
X0266813Y0144189D01*
X0266813Y0143391D02*
X0263907Y0143391D01*
X0264341Y0142592D02*
X0266813Y0142592D01*
X0266813Y0141794D02*
X0264607Y0141794D01*
X0264607Y0139398D02*
X0266813Y0139398D01*
X0266813Y0138600D02*
X0264340Y0138600D01*
X0263906Y0137801D02*
X0266813Y0137801D01*
X0266813Y0137003D02*
X0263252Y0137003D01*
X0262247Y0136204D02*
X0266813Y0136204D01*
X0266813Y0135406D02*
X0261873Y0135406D01*
X0263118Y0134607D02*
X0266813Y0134607D01*
X0266813Y0133809D02*
X0263917Y0133809D01*
X0264371Y0133010D02*
X0266813Y0133010D01*
X0266813Y0132212D02*
X0264701Y0132212D01*
X0264934Y0131413D02*
X0266813Y0131413D01*
X0266813Y0130615D02*
X0264934Y0130615D01*
X0264934Y0129816D02*
X0266813Y0129816D01*
X0266813Y0129018D02*
X0264716Y0129018D01*
X0264385Y0128219D02*
X0266813Y0128219D01*
X0266813Y0127420D02*
X0263953Y0127420D01*
X0263154Y0126622D02*
X0266813Y0126622D01*
X0266813Y0125823D02*
X0261960Y0125823D01*
X0262700Y0125025D02*
X0266813Y0125025D01*
X0266813Y0124226D02*
X0263499Y0124226D01*
X0264197Y0123428D02*
X0266813Y0123428D01*
X0266813Y0122629D02*
X0264528Y0122629D01*
X0264859Y0121831D02*
X0266813Y0121831D01*
X0266813Y0121032D02*
X0264934Y0121032D01*
X0264934Y0120234D02*
X0266813Y0120234D01*
X0266813Y0119435D02*
X0264889Y0119435D01*
X0264558Y0118637D02*
X0266813Y0118637D01*
X0266813Y0117838D02*
X0264228Y0117838D01*
X0263572Y0117040D02*
X0266813Y0117040D01*
X0266813Y0116241D02*
X0262774Y0116241D01*
X0261783Y0115443D02*
X0266813Y0115443D01*
X0266813Y0114644D02*
X0263081Y0114644D01*
X0263880Y0113846D02*
X0266813Y0113846D01*
X0266813Y0113047D02*
X0264355Y0113047D01*
X0264686Y0112249D02*
X0266813Y0112249D01*
X0266813Y0111450D02*
X0264934Y0111450D01*
X0264934Y0110652D02*
X0266813Y0110652D01*
X0266813Y0109853D02*
X0264934Y0109853D01*
X0264732Y0109055D02*
X0266813Y0109055D01*
X0266813Y0108256D02*
X0264401Y0108256D01*
X0263990Y0107458D02*
X0266813Y0107458D01*
X0266813Y0106659D02*
X0263192Y0106659D01*
X0262050Y0105861D02*
X0266813Y0105861D01*
X0266813Y0105062D02*
X0262663Y0105062D01*
X0263462Y0104264D02*
X0266813Y0104264D01*
X0266813Y0103465D02*
X0264182Y0103465D01*
X0264513Y0102667D02*
X0266813Y0102667D01*
X0266813Y0101868D02*
X0264844Y0101868D01*
X0264934Y0101070D02*
X0266813Y0101070D01*
X0266813Y0100271D02*
X0264934Y0100271D01*
X0264905Y0099473D02*
X0266813Y0099473D01*
X0266813Y0098674D02*
X0264574Y0098674D01*
X0264243Y0097876D02*
X0266813Y0097876D01*
X0266813Y0097077D02*
X0263609Y0097077D01*
X0262811Y0096279D02*
X0266813Y0096279D01*
X0266813Y0095480D02*
X0261131Y0095480D01*
X0262688Y0094682D02*
X0266813Y0094682D01*
X0266813Y0093883D02*
X0263550Y0093883D01*
X0264090Y0093084D02*
X0266813Y0093084D01*
X0266813Y0092286D02*
X0264447Y0092286D01*
X0264656Y0091487D02*
X0266813Y0091487D01*
X0266813Y0090689D02*
X0260034Y0090689D01*
X0264685Y0089890D02*
X0266813Y0089890D01*
X0266813Y0089092D02*
X0264507Y0089092D01*
X0264184Y0088293D02*
X0266813Y0088293D01*
X0266813Y0087495D02*
X0263684Y0087495D01*
X0262942Y0086696D02*
X0266813Y0086696D01*
X0266813Y0085898D02*
X0261646Y0085898D01*
X0262612Y0085099D02*
X0266813Y0085099D01*
X0266813Y0084301D02*
X0263425Y0084301D01*
X0264167Y0083502D02*
X0266813Y0083502D01*
X0266813Y0082704D02*
X0264497Y0082704D01*
X0264828Y0081905D02*
X0266813Y0081905D01*
X0266813Y0081107D02*
X0264934Y0081107D01*
X0264934Y0080308D02*
X0266813Y0080308D01*
X0266813Y0079510D02*
X0264920Y0079510D01*
X0264589Y0078711D02*
X0266813Y0078711D01*
X0266813Y0077913D02*
X0264259Y0077913D01*
X0263647Y0077114D02*
X0266813Y0077114D01*
X0266813Y0076316D02*
X0262848Y0076316D01*
X0262636Y0074719D02*
X0266813Y0074719D01*
X0266813Y0075517D02*
X0261221Y0075517D01*
X0263522Y0073920D02*
X0266813Y0073920D01*
X0266813Y0073122D02*
X0264071Y0073122D01*
X0264435Y0072323D02*
X0266813Y0072323D01*
X0266813Y0071525D02*
X0264650Y0071525D01*
X0264691Y0069928D02*
X0266813Y0069928D01*
X0266813Y0070726D02*
X0260034Y0070726D01*
X0264519Y0069129D02*
X0266813Y0069129D01*
X0266813Y0068331D02*
X0264203Y0068331D01*
X0263711Y0067532D02*
X0266813Y0067532D01*
X0266813Y0066734D02*
X0262983Y0066734D01*
X0261719Y0065935D02*
X0266813Y0065935D01*
X0266813Y0065137D02*
X0262522Y0065137D01*
X0263387Y0064338D02*
X0266813Y0064338D01*
X0266813Y0063540D02*
X0264151Y0063540D01*
X0264482Y0062741D02*
X0266813Y0062741D01*
X0266813Y0061943D02*
X0264813Y0061943D01*
X0264934Y0061144D02*
X0266813Y0061144D01*
X0266813Y0060346D02*
X0264934Y0060346D01*
X0264934Y0059547D02*
X0266813Y0059547D01*
X0266813Y0058749D02*
X0264605Y0058749D01*
X0264274Y0057950D02*
X0266813Y0057950D01*
X0266813Y0057151D02*
X0263684Y0057151D01*
X0262885Y0056353D02*
X0266813Y0056353D01*
X0266813Y0055554D02*
X0261514Y0055554D01*
X0262969Y0054756D02*
X0266813Y0054756D01*
X0266813Y0053957D02*
X0263768Y0053957D01*
X0264309Y0053159D02*
X0266813Y0053159D01*
X0266813Y0052360D02*
X0264640Y0052360D01*
X0264934Y0051562D02*
X0266813Y0051562D01*
X0266813Y0050763D02*
X0264934Y0050763D01*
X0264934Y0049965D02*
X0266813Y0049965D01*
X0266813Y0049166D02*
X0264778Y0049166D01*
X0264447Y0048368D02*
X0266813Y0048368D01*
X0266813Y0047569D02*
X0264102Y0047569D01*
X0263303Y0046771D02*
X0266813Y0046771D01*
X0266813Y0045972D02*
X0262319Y0045972D01*
X0262433Y0045174D02*
X0266813Y0045174D01*
X0266813Y0044375D02*
X0263350Y0044375D01*
X0264136Y0043577D02*
X0266813Y0043577D01*
X0266813Y0042778D02*
X0264467Y0042778D01*
X0264797Y0041980D02*
X0266813Y0041980D01*
X0266813Y0041181D02*
X0264934Y0041181D01*
X0264934Y0040383D02*
X0266813Y0040383D01*
X0266813Y0039584D02*
X0264934Y0039584D01*
X0264620Y0038786D02*
X0266813Y0038786D01*
X0266813Y0037987D02*
X0264289Y0037987D01*
X0263721Y0037189D02*
X0266813Y0037189D01*
X0266813Y0036390D02*
X0262923Y0036390D01*
X0261400Y0035592D02*
X0266813Y0035592D01*
X0266813Y0034793D02*
X0049541Y0034793D01*
X0049541Y0033995D02*
X0266813Y0033995D01*
X0257867Y0035592D02*
X0250636Y0035592D01*
X0250034Y0035592D02*
X0249234Y0035592D01*
X0248631Y0035592D02*
X0049541Y0035592D01*
X0049541Y0036390D02*
X0246746Y0036390D01*
X0245829Y0037189D02*
X0049541Y0037189D01*
X0049541Y0037987D02*
X0245239Y0037987D01*
X0244859Y0038786D02*
X0049541Y0038786D01*
X0049541Y0039584D02*
X0244630Y0039584D01*
X0244563Y0041181D02*
X0049541Y0041181D01*
X0049541Y0040383D02*
X0249233Y0040383D01*
X0249234Y0039584D02*
X0250034Y0039584D01*
X0250034Y0038786D02*
X0249234Y0038786D01*
X0249234Y0037987D02*
X0250034Y0037987D01*
X0250034Y0037189D02*
X0249234Y0037189D01*
X0249234Y0036390D02*
X0250034Y0036390D01*
X0252521Y0036390D02*
X0256345Y0036390D01*
X0255546Y0037189D02*
X0253438Y0037189D01*
X0254028Y0037987D02*
X0254978Y0037987D01*
X0254647Y0038786D02*
X0254408Y0038786D01*
X0247383Y0045174D02*
X0049541Y0045174D01*
X0049541Y0045972D02*
X0246948Y0045972D01*
X0245964Y0046771D02*
X0049541Y0046771D01*
X0049541Y0047569D02*
X0245165Y0047569D01*
X0244820Y0048368D02*
X0049541Y0048368D01*
X0049541Y0049166D02*
X0244489Y0049166D01*
X0244334Y0049965D02*
X0049541Y0049965D01*
X0049541Y0050763D02*
X0244334Y0050763D01*
X0244334Y0051562D02*
X0049541Y0051562D01*
X0049541Y0052360D02*
X0244627Y0052360D01*
X0244958Y0053159D02*
X0049541Y0053159D01*
X0049541Y0053957D02*
X0245499Y0053957D01*
X0246298Y0054756D02*
X0049541Y0054756D01*
X0049541Y0055554D02*
X0247754Y0055554D01*
X0246382Y0056353D02*
X0049541Y0056353D01*
X0049541Y0057151D02*
X0245583Y0057151D01*
X0244993Y0057950D02*
X0049541Y0057950D01*
X0049541Y0058749D02*
X0244662Y0058749D01*
X0244334Y0059547D02*
X0049541Y0059547D01*
X0049541Y0060346D02*
X0244334Y0060346D01*
X0244334Y0061144D02*
X0049541Y0061144D01*
X0049541Y0061943D02*
X0244454Y0061943D01*
X0244785Y0062741D02*
X0049541Y0062741D01*
X0049541Y0063540D02*
X0245116Y0063540D01*
X0245880Y0064338D02*
X0049541Y0064338D01*
X0049541Y0065137D02*
X0246745Y0065137D01*
X0247038Y0065935D02*
X0049541Y0065935D01*
X0049541Y0066734D02*
X0246001Y0066734D01*
X0246200Y0044375D02*
X0049541Y0044375D01*
X0049541Y0043577D02*
X0245495Y0043577D01*
X0245021Y0042778D02*
X0049541Y0042778D01*
X0049541Y0041980D02*
X0244721Y0041980D01*
X0242429Y0033196D02*
X0073925Y0033196D01*
X0073925Y0032398D02*
X0242429Y0032398D01*
X0242429Y0031599D02*
X0073925Y0031599D01*
X0073925Y0030801D02*
X0242429Y0030801D01*
X0242429Y0030002D02*
X0073925Y0030002D01*
X0073925Y0029204D02*
X0242429Y0029204D01*
X0242429Y0028405D02*
X0073925Y0028405D01*
X0073925Y0027607D02*
X0242429Y0027607D01*
X0242429Y0026808D02*
X0073925Y0026808D01*
X0073925Y0026010D02*
X0242429Y0026010D01*
X0242429Y0025211D02*
X0073925Y0025211D01*
X0073925Y0024413D02*
X0242429Y0024413D01*
X0242429Y0023614D02*
X0073925Y0023614D01*
X0073925Y0022816D02*
X0242429Y0022816D01*
X0242429Y0022017D02*
X0073925Y0022017D01*
X0073925Y0021218D02*
X0242429Y0021218D01*
X0242429Y0020420D02*
X0073925Y0020420D01*
X0073925Y0019621D02*
X0242429Y0019621D01*
X0242429Y0018823D02*
X0073925Y0018823D01*
X0073925Y0018024D02*
X0242429Y0018024D01*
X0242429Y0017226D02*
X0073925Y0017226D01*
X0073925Y0016427D02*
X0242429Y0016427D01*
X0242429Y0015629D02*
X0073925Y0015629D01*
X0073925Y0014830D02*
X0242429Y0014830D01*
X0242429Y0014032D02*
X0073925Y0014032D01*
X0073925Y0013233D02*
X0242429Y0013233D01*
X0242429Y0012435D02*
X0073925Y0012435D01*
X0073925Y0011636D02*
X0242429Y0011636D01*
X0242429Y0010838D02*
X0073925Y0010838D01*
X0073925Y0010039D02*
X0242429Y0010039D01*
X0149941Y0076316D02*
X0049792Y0076316D01*
X0050390Y0077114D02*
X0149941Y0077114D01*
X0149941Y0077913D02*
X0069247Y0077913D01*
X0070933Y0078711D02*
X0149941Y0078711D01*
X0149941Y0079510D02*
X0071732Y0079510D01*
X0072407Y0080308D02*
X0149941Y0080308D01*
X0149941Y0081107D02*
X0072738Y0081107D01*
X0073068Y0081905D02*
X0149941Y0081905D01*
X0149941Y0082704D02*
X0073163Y0082704D01*
X0073163Y0083502D02*
X0149941Y0083502D01*
X0149941Y0084301D02*
X0073163Y0084301D01*
X0073163Y0085099D02*
X0149941Y0085099D01*
X0149941Y0085898D02*
X0073163Y0085898D01*
X0073163Y0086696D02*
X0149941Y0086696D01*
X0149941Y0087495D02*
X0073163Y0087495D01*
X0073163Y0088293D02*
X0149941Y0088293D01*
X0149941Y0089092D02*
X0073163Y0089092D01*
X0073163Y0089890D02*
X0149941Y0089890D01*
X0149941Y0090689D02*
X0073163Y0090689D01*
X0073163Y0091487D02*
X0079716Y0091487D01*
X0079407Y0091570D02*
X0080217Y0091353D01*
X0081049Y0091244D01*
X0081068Y0091244D01*
X0081068Y0097244D01*
X0075068Y0097244D01*
X0075068Y0097224D01*
X0075178Y0096393D01*
X0075395Y0095582D01*
X0075716Y0094807D01*
X0076135Y0094080D01*
X0076646Y0093415D01*
X0077239Y0092822D01*
X0077905Y0092311D01*
X0078631Y0091891D01*
X0079407Y0091570D01*
X0077948Y0092286D02*
X0073163Y0092286D01*
X0073163Y0093084D02*
X0076977Y0093084D01*
X0076287Y0093883D02*
X0073163Y0093883D01*
X0073163Y0094682D02*
X0075788Y0094682D01*
X0075437Y0095480D02*
X0073163Y0095480D01*
X0073163Y0096279D02*
X0075208Y0096279D01*
X0075088Y0097077D02*
X0073163Y0097077D01*
X0073163Y0097876D02*
X0081068Y0097876D01*
X0081068Y0098044D02*
X0081068Y0097244D01*
X0081868Y0097244D01*
X0081868Y0098044D01*
X0081068Y0098044D01*
X0081068Y0104044D01*
X0081049Y0104044D01*
X0080217Y0103934D01*
X0079407Y0103717D01*
X0078631Y0103396D01*
X0077905Y0102977D01*
X0077239Y0102466D01*
X0076646Y0101873D01*
X0076135Y0101207D01*
X0075716Y0100480D01*
X0075395Y0099705D01*
X0075178Y0098895D01*
X0075068Y0098063D01*
X0075068Y0098044D01*
X0081068Y0098044D01*
X0081068Y0098674D02*
X0081868Y0098674D01*
X0081868Y0098044D02*
X0081868Y0104044D01*
X0081888Y0104044D01*
X0082719Y0103934D01*
X0083530Y0103717D01*
X0084305Y0103396D01*
X0085031Y0102977D01*
X0085697Y0102466D01*
X0086290Y0101873D01*
X0086801Y0101207D01*
X0087220Y0100480D01*
X0087542Y0099705D01*
X0087759Y0098895D01*
X0087868Y0098063D01*
X0087868Y0098044D01*
X0081868Y0098044D01*
X0081868Y0097876D02*
X0101068Y0097876D01*
X0101068Y0098044D02*
X0101068Y0097244D01*
X0095068Y0097244D01*
X0095068Y0097224D01*
X0095178Y0096393D01*
X0095395Y0095582D01*
X0095716Y0094807D01*
X0096135Y0094080D01*
X0096646Y0093415D01*
X0097239Y0092822D01*
X0097905Y0092311D01*
X0098631Y0091891D01*
X0099407Y0091570D01*
X0100217Y0091353D01*
X0101049Y0091244D01*
X0101068Y0091244D01*
X0101068Y0097244D01*
X0101868Y0097244D01*
X0101868Y0098044D01*
X0101068Y0098044D01*
X0101068Y0104044D01*
X0101049Y0104044D01*
X0100217Y0103934D01*
X0099407Y0103717D01*
X0098631Y0103396D01*
X0097905Y0102977D01*
X0097239Y0102466D01*
X0096646Y0101873D01*
X0096135Y0101207D01*
X0095716Y0100480D01*
X0095395Y0099705D01*
X0095178Y0098895D01*
X0095068Y0098063D01*
X0095068Y0098044D01*
X0101068Y0098044D01*
X0101068Y0098674D02*
X0101868Y0098674D01*
X0101868Y0098044D02*
X0101868Y0104044D01*
X0101888Y0104044D01*
X0102719Y0103934D01*
X0103530Y0103717D01*
X0104305Y0103396D01*
X0105031Y0102977D01*
X0105697Y0102466D01*
X0106290Y0101873D01*
X0106801Y0101207D01*
X0107220Y0100480D01*
X0107542Y0099705D01*
X0107759Y0098895D01*
X0107868Y0098063D01*
X0107868Y0098044D01*
X0101868Y0098044D01*
X0101868Y0097876D02*
X0149941Y0097876D01*
X0149941Y0098674D02*
X0107788Y0098674D01*
X0107604Y0099473D02*
X0149941Y0099473D01*
X0149941Y0100271D02*
X0107307Y0100271D01*
X0106880Y0101070D02*
X0149941Y0101070D01*
X0149941Y0101868D02*
X0106294Y0101868D01*
X0105435Y0102667D02*
X0149941Y0102667D01*
X0149941Y0103465D02*
X0104138Y0103465D01*
X0101868Y0103465D02*
X0101068Y0103465D01*
X0101068Y0102667D02*
X0101868Y0102667D01*
X0101868Y0101868D02*
X0101068Y0101868D01*
X0101068Y0101070D02*
X0101868Y0101070D01*
X0101868Y0100271D02*
X0101068Y0100271D01*
X0101068Y0099473D02*
X0101868Y0099473D01*
X0101868Y0097244D02*
X0107868Y0097244D01*
X0107868Y0097224D01*
X0107759Y0096393D01*
X0107542Y0095582D01*
X0107220Y0094807D01*
X0106801Y0094080D01*
X0106290Y0093415D01*
X0105697Y0092822D01*
X0105031Y0092311D01*
X0104305Y0091891D01*
X0103530Y0091570D01*
X0102719Y0091353D01*
X0101888Y0091244D01*
X0101868Y0091244D01*
X0101868Y0097244D01*
X0101868Y0097077D02*
X0101068Y0097077D01*
X0101068Y0096279D02*
X0101868Y0096279D01*
X0101868Y0095480D02*
X0101068Y0095480D01*
X0101068Y0094682D02*
X0101868Y0094682D01*
X0101868Y0093883D02*
X0101068Y0093883D01*
X0101068Y0093084D02*
X0101868Y0093084D01*
X0101868Y0092286D02*
X0101068Y0092286D01*
X0101068Y0091487D02*
X0101868Y0091487D01*
X0103220Y0091487D02*
X0149941Y0091487D01*
X0149941Y0092286D02*
X0104988Y0092286D01*
X0105960Y0093084D02*
X0149941Y0093084D01*
X0149941Y0093883D02*
X0106649Y0093883D01*
X0107148Y0094682D02*
X0149941Y0094682D01*
X0149941Y0095480D02*
X0107499Y0095480D01*
X0107728Y0096279D02*
X0149941Y0096279D01*
X0149941Y0097077D02*
X0107849Y0097077D01*
X0099716Y0091487D02*
X0083220Y0091487D01*
X0083530Y0091570D02*
X0084305Y0091891D01*
X0085031Y0092311D01*
X0085697Y0092822D01*
X0086290Y0093415D01*
X0086801Y0094080D01*
X0087220Y0094807D01*
X0087542Y0095582D01*
X0087759Y0096393D01*
X0087868Y0097224D01*
X0087868Y0097244D01*
X0081868Y0097244D01*
X0081868Y0091244D01*
X0081888Y0091244D01*
X0082719Y0091353D01*
X0083530Y0091570D01*
X0084988Y0092286D02*
X0097948Y0092286D01*
X0096977Y0093084D02*
X0085960Y0093084D01*
X0086649Y0093883D02*
X0096287Y0093883D01*
X0095788Y0094682D02*
X0087148Y0094682D01*
X0087499Y0095480D02*
X0095437Y0095480D01*
X0095208Y0096279D02*
X0087728Y0096279D01*
X0087849Y0097077D02*
X0095088Y0097077D01*
X0095149Y0098674D02*
X0087788Y0098674D01*
X0087604Y0099473D02*
X0095332Y0099473D01*
X0095629Y0100271D02*
X0087307Y0100271D01*
X0086880Y0101070D02*
X0096056Y0101070D01*
X0096643Y0101868D02*
X0086294Y0101868D01*
X0085435Y0102667D02*
X0097501Y0102667D01*
X0098798Y0103465D02*
X0084138Y0103465D01*
X0081868Y0103465D02*
X0081068Y0103465D01*
X0081068Y0102667D02*
X0081868Y0102667D01*
X0081868Y0101868D02*
X0081068Y0101868D01*
X0081068Y0101070D02*
X0081868Y0101070D01*
X0081868Y0100271D02*
X0081068Y0100271D01*
X0081068Y0099473D02*
X0081868Y0099473D01*
X0081868Y0097077D02*
X0081068Y0097077D01*
X0081068Y0096279D02*
X0081868Y0096279D01*
X0081868Y0095480D02*
X0081068Y0095480D01*
X0081068Y0094682D02*
X0081868Y0094682D01*
X0081868Y0093883D02*
X0081068Y0093883D01*
X0081068Y0093084D02*
X0081868Y0093084D01*
X0081868Y0092286D02*
X0081068Y0092286D01*
X0081068Y0091487D02*
X0081868Y0091487D01*
X0075149Y0098674D02*
X0073163Y0098674D01*
X0073163Y0099473D02*
X0075332Y0099473D01*
X0075629Y0100271D02*
X0073163Y0100271D01*
X0073163Y0101070D02*
X0076056Y0101070D01*
X0076643Y0101868D02*
X0073163Y0101868D01*
X0073163Y0102667D02*
X0077501Y0102667D01*
X0078798Y0103465D02*
X0073163Y0103465D01*
X0073163Y0104264D02*
X0149941Y0104264D01*
X0149941Y0105062D02*
X0073163Y0105062D01*
X0073163Y0105861D02*
X0149941Y0105861D01*
X0149941Y0106659D02*
X0073163Y0106659D01*
X0073163Y0107458D02*
X0149941Y0107458D01*
X0149941Y0108256D02*
X0073163Y0108256D01*
X0073163Y0109055D02*
X0149941Y0109055D01*
X0149941Y0109853D02*
X0073163Y0109853D01*
X0073163Y0110652D02*
X0149941Y0110652D01*
X0149941Y0111450D02*
X0103762Y0111450D01*
X0102781Y0111044D02*
X0105207Y0112049D01*
X0107063Y0113905D01*
X0108068Y0116331D01*
X0108068Y0118957D01*
X0107063Y0121382D01*
X0105207Y0123239D01*
X0102781Y0124244D01*
X0100155Y0124244D01*
X0097730Y0123239D01*
X0095873Y0121382D01*
X0094868Y0118957D01*
X0094868Y0116331D01*
X0095873Y0113905D01*
X0097730Y0112049D01*
X0100155Y0111044D01*
X0102781Y0111044D01*
X0105407Y0112249D02*
X0149941Y0112249D01*
X0149941Y0113047D02*
X0106205Y0113047D01*
X0107004Y0113846D02*
X0149941Y0113846D01*
X0149941Y0114644D02*
X0107370Y0114644D01*
X0107700Y0115443D02*
X0149941Y0115443D01*
X0149941Y0116241D02*
X0108031Y0116241D01*
X0108068Y0117040D02*
X0149941Y0117040D01*
X0149941Y0117838D02*
X0108068Y0117838D01*
X0108068Y0118637D02*
X0149941Y0118637D01*
X0149941Y0119435D02*
X0107870Y0119435D01*
X0107539Y0120234D02*
X0149941Y0120234D01*
X0149941Y0121032D02*
X0107208Y0121032D01*
X0106615Y0121831D02*
X0149941Y0121831D01*
X0149941Y0122629D02*
X0105816Y0122629D01*
X0104751Y0123428D02*
X0149941Y0123428D01*
X0149941Y0124226D02*
X0102823Y0124226D01*
X0100114Y0124226D02*
X0082823Y0124226D01*
X0082781Y0124244D02*
X0080155Y0124244D01*
X0077730Y0123239D01*
X0075873Y0121382D01*
X0074868Y0118957D01*
X0074868Y0116331D01*
X0075873Y0113905D01*
X0077730Y0112049D01*
X0080155Y0111044D01*
X0082781Y0111044D01*
X0085207Y0112049D01*
X0087063Y0113905D01*
X0088068Y0116331D01*
X0088068Y0118957D01*
X0087063Y0121382D01*
X0085207Y0123239D01*
X0082781Y0124244D01*
X0084751Y0123428D02*
X0098186Y0123428D01*
X0097120Y0122629D02*
X0085816Y0122629D01*
X0086615Y0121831D02*
X0096322Y0121831D01*
X0095728Y0121032D02*
X0087208Y0121032D01*
X0087539Y0120234D02*
X0095397Y0120234D01*
X0095067Y0119435D02*
X0087870Y0119435D01*
X0088068Y0118637D02*
X0094868Y0118637D01*
X0094868Y0117838D02*
X0088068Y0117838D01*
X0088068Y0117040D02*
X0094868Y0117040D01*
X0094905Y0116241D02*
X0088031Y0116241D01*
X0087700Y0115443D02*
X0095236Y0115443D01*
X0095567Y0114644D02*
X0087370Y0114644D01*
X0087004Y0113846D02*
X0095932Y0113846D01*
X0096731Y0113047D02*
X0086205Y0113047D01*
X0085407Y0112249D02*
X0097529Y0112249D01*
X0099174Y0111450D02*
X0083762Y0111450D01*
X0079174Y0111450D02*
X0073163Y0111450D01*
X0073163Y0112249D02*
X0077529Y0112249D01*
X0076731Y0113047D02*
X0073163Y0113047D01*
X0073163Y0113846D02*
X0075932Y0113846D01*
X0075567Y0114644D02*
X0073163Y0114644D01*
X0073163Y0115443D02*
X0075236Y0115443D01*
X0074905Y0116241D02*
X0073163Y0116241D01*
X0073163Y0117040D02*
X0074868Y0117040D01*
X0074868Y0117838D02*
X0073163Y0117838D01*
X0073163Y0118637D02*
X0074868Y0118637D01*
X0075067Y0119435D02*
X0073163Y0119435D01*
X0073163Y0120234D02*
X0075397Y0120234D01*
X0075728Y0121032D02*
X0073163Y0121032D01*
X0073163Y0121831D02*
X0076322Y0121831D01*
X0077120Y0122629D02*
X0073163Y0122629D01*
X0073163Y0123428D02*
X0078186Y0123428D01*
X0080114Y0124226D02*
X0073163Y0124226D01*
X0073163Y0125025D02*
X0149941Y0125025D01*
X0149941Y0125823D02*
X0073163Y0125823D01*
X0073163Y0126622D02*
X0149941Y0126622D01*
X0149941Y0127420D02*
X0073163Y0127420D01*
X0073163Y0128219D02*
X0149941Y0128219D01*
X0149941Y0129018D02*
X0073163Y0129018D01*
X0073163Y0129816D02*
X0149941Y0129816D01*
X0149941Y0130615D02*
X0073163Y0130615D01*
X0073163Y0131413D02*
X0079264Y0131413D01*
X0080155Y0131044D02*
X0077730Y0132049D01*
X0075873Y0133905D01*
X0074868Y0136331D01*
X0074868Y0138957D01*
X0075873Y0141382D01*
X0077730Y0143239D01*
X0080155Y0144244D01*
X0082781Y0144244D01*
X0085207Y0143239D01*
X0087063Y0141382D01*
X0088068Y0138957D01*
X0088068Y0136331D01*
X0087063Y0133905D01*
X0085207Y0132049D01*
X0082781Y0131044D01*
X0080155Y0131044D01*
X0077567Y0132212D02*
X0073163Y0132212D01*
X0073163Y0133010D02*
X0076768Y0133010D01*
X0075970Y0133809D02*
X0073163Y0133809D01*
X0073163Y0134607D02*
X0075582Y0134607D01*
X0075251Y0135406D02*
X0073163Y0135406D01*
X0073163Y0136204D02*
X0074921Y0136204D01*
X0074868Y0137003D02*
X0073163Y0137003D01*
X0073163Y0137801D02*
X0074868Y0137801D01*
X0074868Y0138600D02*
X0073163Y0138600D01*
X0073163Y0139398D02*
X0075051Y0139398D01*
X0075382Y0140197D02*
X0073163Y0140197D01*
X0073163Y0140995D02*
X0075713Y0140995D01*
X0076284Y0141794D02*
X0073163Y0141794D01*
X0073163Y0142592D02*
X0077083Y0142592D01*
X0078096Y0143391D02*
X0073163Y0143391D01*
X0073163Y0144189D02*
X0080024Y0144189D01*
X0082913Y0144189D02*
X0100024Y0144189D01*
X0100155Y0144244D02*
X0097730Y0143239D01*
X0095873Y0141382D01*
X0094868Y0138957D01*
X0094868Y0136331D01*
X0095873Y0133905D01*
X0097730Y0132049D01*
X0100155Y0131044D01*
X0102781Y0131044D01*
X0105207Y0132049D01*
X0107063Y0133905D01*
X0108068Y0136331D01*
X0108068Y0138957D01*
X0107063Y0141382D01*
X0105207Y0143239D01*
X0102781Y0144244D01*
X0100155Y0144244D01*
X0098096Y0143391D02*
X0084841Y0143391D01*
X0085854Y0142592D02*
X0097083Y0142592D01*
X0096284Y0141794D02*
X0086652Y0141794D01*
X0087224Y0140995D02*
X0095713Y0140995D01*
X0095382Y0140197D02*
X0087555Y0140197D01*
X0087885Y0139398D02*
X0095051Y0139398D01*
X0094868Y0138600D02*
X0088068Y0138600D01*
X0088068Y0137801D02*
X0094868Y0137801D01*
X0094868Y0137003D02*
X0088068Y0137003D01*
X0088016Y0136204D02*
X0094921Y0136204D01*
X0095251Y0135406D02*
X0087685Y0135406D01*
X0087354Y0134607D02*
X0095582Y0134607D01*
X0095970Y0133809D02*
X0086967Y0133809D01*
X0086168Y0133010D02*
X0096768Y0133010D01*
X0097567Y0132212D02*
X0085370Y0132212D01*
X0083672Y0131413D02*
X0099264Y0131413D01*
X0103672Y0131413D02*
X0149941Y0131413D01*
X0149941Y0132212D02*
X0105370Y0132212D01*
X0106168Y0133010D02*
X0149941Y0133010D01*
X0149941Y0133809D02*
X0106967Y0133809D01*
X0107354Y0134607D02*
X0149941Y0134607D01*
X0149941Y0135406D02*
X0107685Y0135406D01*
X0108016Y0136204D02*
X0149941Y0136204D01*
X0149941Y0137003D02*
X0108068Y0137003D01*
X0108068Y0137801D02*
X0149941Y0137801D01*
X0149941Y0138600D02*
X0108068Y0138600D01*
X0107885Y0139398D02*
X0149941Y0139398D01*
X0149941Y0140197D02*
X0107555Y0140197D01*
X0107224Y0140995D02*
X0149941Y0140995D01*
X0149941Y0141794D02*
X0106652Y0141794D01*
X0105854Y0142592D02*
X0149941Y0142592D01*
X0149941Y0143391D02*
X0104841Y0143391D01*
X0102913Y0144189D02*
X0149941Y0144189D01*
X0149941Y0144988D02*
X0073163Y0144988D01*
X0073163Y0145786D02*
X0149941Y0145786D01*
X0149941Y0146585D02*
X0073163Y0146585D01*
X0073163Y0147383D02*
X0149941Y0147383D01*
X0149941Y0148182D02*
X0073163Y0148182D01*
X0073163Y0148980D02*
X0149941Y0148980D01*
X0149941Y0149779D02*
X0073163Y0149779D01*
X0073163Y0150577D02*
X0149941Y0150577D01*
X0149941Y0151376D02*
X0073163Y0151376D01*
X0073163Y0152174D02*
X0149941Y0152174D01*
X0149941Y0152973D02*
X0073163Y0152973D01*
X0072940Y0153771D02*
X0149941Y0153771D01*
X0149941Y0154570D02*
X0072609Y0154570D01*
X0072220Y0155368D02*
X0149941Y0155368D01*
X0149941Y0156167D02*
X0071421Y0156167D01*
X0070426Y0156965D02*
X0149941Y0156965D01*
X0149941Y0157764D02*
X0051301Y0157764D01*
X0050080Y0158562D02*
X0149941Y0158562D01*
X0149941Y0159361D02*
X0049664Y0159361D01*
X0049541Y0160159D02*
X0149941Y0160159D01*
X0149941Y0160958D02*
X0049541Y0160958D01*
X0049541Y0161756D02*
X0149941Y0161756D01*
X0149941Y0162555D02*
X0049541Y0162555D01*
X0049541Y0163353D02*
X0149941Y0163353D01*
X0149941Y0164152D02*
X0049541Y0164152D01*
X0049541Y0164951D02*
X0149941Y0164951D01*
X0149941Y0165749D02*
X0049541Y0165749D01*
X0049541Y0166548D02*
X0149941Y0166548D01*
X0149941Y0167346D02*
X0049541Y0167346D01*
X0049541Y0168145D02*
X0149941Y0168145D01*
X0149941Y0168943D02*
X0049541Y0168943D01*
X0049541Y0169742D02*
X0149941Y0169742D01*
X0150009Y0170540D02*
X0049541Y0170540D01*
X0049541Y0171339D02*
X0150807Y0171339D01*
X0151606Y0172137D02*
X0049541Y0172137D01*
X0049541Y0172936D02*
X0152404Y0172936D01*
X0153203Y0173734D02*
X0049541Y0173734D01*
X0049541Y0174533D02*
X0154001Y0174533D01*
X0154800Y0175331D02*
X0049541Y0175331D01*
X0049541Y0176130D02*
X0155598Y0176130D01*
X0156397Y0176928D02*
X0079709Y0176928D01*
X0079530Y0176854D02*
X0080305Y0177175D01*
X0081031Y0177594D01*
X0081697Y0178105D01*
X0082290Y0178698D01*
X0082801Y0179364D01*
X0083220Y0180091D01*
X0083542Y0180866D01*
X0083759Y0181676D01*
X0083868Y0182508D01*
X0083868Y0182527D01*
X0077868Y0182527D01*
X0077868Y0176527D01*
X0077888Y0176527D01*
X0078719Y0176637D01*
X0079530Y0176854D01*
X0077868Y0176928D02*
X0077068Y0176928D01*
X0077068Y0176527D02*
X0077068Y0182527D01*
X0077868Y0182527D01*
X0077868Y0183327D01*
X0083868Y0183327D01*
X0083868Y0183347D01*
X0083759Y0184179D01*
X0083542Y0184989D01*
X0083220Y0185764D01*
X0082801Y0186491D01*
X0082290Y0187156D01*
X0081697Y0187749D01*
X0081031Y0188260D01*
X0080305Y0188680D01*
X0079530Y0189001D01*
X0078719Y0189218D01*
X0077888Y0189327D01*
X0077868Y0189327D01*
X0077868Y0183327D01*
X0077068Y0183327D01*
X0077068Y0182527D01*
X0071068Y0182527D01*
X0071068Y0182508D01*
X0071178Y0181676D01*
X0071395Y0180866D01*
X0071716Y0180091D01*
X0072135Y0179364D01*
X0072646Y0178698D01*
X0073239Y0178105D01*
X0073905Y0177594D01*
X0074631Y0177175D01*
X0075407Y0176854D01*
X0076217Y0176637D01*
X0077049Y0176527D01*
X0077068Y0176527D01*
X0077068Y0177727D02*
X0077868Y0177727D01*
X0077868Y0178525D02*
X0077068Y0178525D01*
X0077068Y0179324D02*
X0077868Y0179324D01*
X0077868Y0180122D02*
X0077068Y0180122D01*
X0077068Y0180921D02*
X0077868Y0180921D01*
X0077868Y0181719D02*
X0077068Y0181719D01*
X0077068Y0182518D02*
X0077868Y0182518D01*
X0077868Y0183316D02*
X0245023Y0183316D01*
X0245656Y0184115D02*
X0083767Y0184115D01*
X0083562Y0184913D02*
X0246455Y0184913D01*
X0246581Y0186510D02*
X0082786Y0186510D01*
X0083242Y0185712D02*
X0248133Y0185712D01*
X0245718Y0187309D02*
X0082138Y0187309D01*
X0081230Y0188107D02*
X0115043Y0188107D01*
X0114938Y0188151D02*
X0116886Y0187344D01*
X0118995Y0187344D01*
X0120943Y0188151D01*
X0122434Y0189642D01*
X0123241Y0191590D01*
X0123241Y0193698D01*
X0122434Y0195646D01*
X0120943Y0197137D01*
X0119428Y0197765D01*
X0119898Y0197917D01*
X0120614Y0198282D01*
X0121263Y0198754D01*
X0121831Y0199321D01*
X0122303Y0199971D01*
X0122667Y0200686D01*
X0122915Y0201450D01*
X0123041Y0202242D01*
X0123041Y0202244D01*
X0118341Y0202244D01*
X0118341Y0203044D01*
X0123041Y0203044D01*
X0123041Y0203045D01*
X0122915Y0203838D01*
X0122667Y0204602D01*
X0122303Y0205317D01*
X0121831Y0205966D01*
X0121263Y0206534D01*
X0120614Y0207006D01*
X0119898Y0207370D01*
X0119428Y0207523D01*
X0120943Y0208151D01*
X0122434Y0209642D01*
X0123241Y0211590D01*
X0123241Y0213698D01*
X0122434Y0215646D01*
X0120943Y0217137D01*
X0118995Y0217944D01*
X0116886Y0217944D01*
X0114938Y0217137D01*
X0113448Y0215646D01*
X0112641Y0213698D01*
X0112641Y0211590D01*
X0113448Y0209642D01*
X0114938Y0208151D01*
X0116454Y0207523D01*
X0115983Y0207370D01*
X0115268Y0207006D01*
X0114618Y0206534D01*
X0114051Y0205966D01*
X0113579Y0205317D01*
X0113214Y0204602D01*
X0112966Y0203838D01*
X0112841Y0203045D01*
X0112841Y0203044D01*
X0117541Y0203044D01*
X0117541Y0202244D01*
X0112841Y0202244D01*
X0112841Y0202242D01*
X0112966Y0201450D01*
X0113214Y0200686D01*
X0113579Y0199971D01*
X0114051Y0199321D01*
X0114618Y0198754D01*
X0115268Y0198282D01*
X0115983Y0197917D01*
X0116454Y0197765D01*
X0114938Y0197137D01*
X0113448Y0195646D01*
X0112641Y0193698D01*
X0112641Y0191590D01*
X0113448Y0189642D01*
X0114938Y0188151D01*
X0114183Y0188906D02*
X0079759Y0188906D01*
X0077868Y0188906D02*
X0077068Y0188906D01*
X0077068Y0189327D02*
X0077049Y0189327D01*
X0076217Y0189218D01*
X0075407Y0189001D01*
X0074631Y0188680D01*
X0073905Y0188260D01*
X0073239Y0187749D01*
X0072646Y0187156D01*
X0072135Y0186491D01*
X0071716Y0185764D01*
X0071395Y0184989D01*
X0071178Y0184179D01*
X0071068Y0183347D01*
X0071068Y0183327D01*
X0077068Y0183327D01*
X0077068Y0189327D01*
X0077068Y0188107D02*
X0077868Y0188107D01*
X0077868Y0187309D02*
X0077068Y0187309D01*
X0077068Y0186510D02*
X0077868Y0186510D01*
X0077868Y0185712D02*
X0077068Y0185712D01*
X0077068Y0184913D02*
X0077868Y0184913D01*
X0077868Y0184115D02*
X0077068Y0184115D01*
X0077068Y0183316D02*
X0049541Y0183316D01*
X0049541Y0182518D02*
X0071068Y0182518D01*
X0071172Y0181719D02*
X0049541Y0181719D01*
X0049541Y0180921D02*
X0071380Y0180921D01*
X0071703Y0180122D02*
X0049541Y0180122D01*
X0049541Y0179324D02*
X0072166Y0179324D01*
X0072819Y0178525D02*
X0049541Y0178525D01*
X0049541Y0177727D02*
X0073733Y0177727D01*
X0075227Y0176928D02*
X0049541Y0176928D01*
X0049541Y0184115D02*
X0071169Y0184115D01*
X0071375Y0184913D02*
X0049541Y0184913D01*
X0049541Y0185712D02*
X0071694Y0185712D01*
X0072151Y0186510D02*
X0049541Y0186510D01*
X0049541Y0187309D02*
X0072799Y0187309D01*
X0073706Y0188107D02*
X0049541Y0188107D01*
X0049541Y0188906D02*
X0075178Y0188906D01*
X0076217Y0196637D02*
X0077049Y0196527D01*
X0077068Y0196527D01*
X0077068Y0202527D01*
X0077868Y0202527D01*
X0077868Y0196527D01*
X0077888Y0196527D01*
X0078719Y0196637D01*
X0079530Y0196854D01*
X0080305Y0197175D01*
X0081031Y0197594D01*
X0081697Y0198105D01*
X0082290Y0198698D01*
X0082801Y0199364D01*
X0083220Y0200091D01*
X0083542Y0200866D01*
X0083759Y0201676D01*
X0083868Y0202508D01*
X0083868Y0202527D01*
X0077868Y0202527D01*
X0077868Y0203327D01*
X0083868Y0203327D01*
X0083868Y0203347D01*
X0083759Y0204179D01*
X0083542Y0204989D01*
X0083220Y0205764D01*
X0082801Y0206491D01*
X0082290Y0207156D01*
X0081697Y0207749D01*
X0081031Y0208260D01*
X0080305Y0208680D01*
X0079530Y0209001D01*
X0078719Y0209218D01*
X0077888Y0209327D01*
X0077868Y0209327D01*
X0077868Y0203327D01*
X0077068Y0203327D01*
X0077068Y0202527D01*
X0071068Y0202527D01*
X0071068Y0202508D01*
X0071178Y0201676D01*
X0071395Y0200866D01*
X0071716Y0200091D01*
X0072135Y0199364D01*
X0072646Y0198698D01*
X0073239Y0198105D01*
X0073905Y0197594D01*
X0074631Y0197175D01*
X0075407Y0196854D01*
X0076217Y0196637D01*
X0077068Y0196891D02*
X0077868Y0196891D01*
X0077868Y0197689D02*
X0077068Y0197689D01*
X0077068Y0198488D02*
X0077868Y0198488D01*
X0077868Y0199287D02*
X0077068Y0199287D01*
X0077068Y0200085D02*
X0077868Y0200085D01*
X0077868Y0200884D02*
X0077068Y0200884D01*
X0077068Y0201682D02*
X0077868Y0201682D01*
X0077868Y0202481D02*
X0077068Y0202481D01*
X0077068Y0203279D02*
X0049541Y0203279D01*
X0049541Y0202481D02*
X0071072Y0202481D01*
X0071177Y0201682D02*
X0049541Y0201682D01*
X0049541Y0200884D02*
X0071390Y0200884D01*
X0071719Y0200085D02*
X0049541Y0200085D01*
X0049541Y0199287D02*
X0072195Y0199287D01*
X0072856Y0198488D02*
X0049541Y0198488D01*
X0049541Y0197689D02*
X0073781Y0197689D01*
X0075317Y0196891D02*
X0049541Y0196891D01*
X0049541Y0196092D02*
X0113894Y0196092D01*
X0113302Y0195294D02*
X0049541Y0195294D01*
X0049541Y0194495D02*
X0112971Y0194495D01*
X0112641Y0193697D02*
X0049541Y0193697D01*
X0049541Y0192898D02*
X0112641Y0192898D01*
X0112641Y0192100D02*
X0049541Y0192100D01*
X0049541Y0191301D02*
X0112760Y0191301D01*
X0113091Y0190503D02*
X0049541Y0190503D01*
X0049541Y0189704D02*
X0113421Y0189704D01*
X0120838Y0188107D02*
X0245178Y0188107D01*
X0244820Y0188906D02*
X0121698Y0188906D01*
X0122460Y0189704D02*
X0244611Y0189704D01*
X0244582Y0191301D02*
X0123121Y0191301D01*
X0123241Y0192100D02*
X0244760Y0192100D01*
X0245083Y0192898D02*
X0123241Y0192898D01*
X0123241Y0193697D02*
X0245582Y0193697D01*
X0246323Y0194495D02*
X0122910Y0194495D01*
X0122580Y0195294D02*
X0247619Y0195294D01*
X0246658Y0196092D02*
X0121987Y0196092D01*
X0121189Y0196891D02*
X0245844Y0196891D01*
X0245101Y0197689D02*
X0119609Y0197689D01*
X0120897Y0198488D02*
X0244770Y0198488D01*
X0244439Y0199287D02*
X0121796Y0199287D01*
X0122361Y0200085D02*
X0244334Y0200085D01*
X0244334Y0200884D02*
X0122731Y0200884D01*
X0122952Y0201682D02*
X0244347Y0201682D01*
X0244677Y0202481D02*
X0118341Y0202481D01*
X0117541Y0202481D02*
X0083865Y0202481D01*
X0083759Y0201682D02*
X0112929Y0201682D01*
X0113150Y0200884D02*
X0083546Y0200884D01*
X0083217Y0200085D02*
X0113521Y0200085D01*
X0114085Y0199287D02*
X0082742Y0199287D01*
X0082080Y0198488D02*
X0114984Y0198488D01*
X0116272Y0197689D02*
X0081155Y0197689D01*
X0079619Y0196891D02*
X0114692Y0196891D01*
X0112878Y0203279D02*
X0077868Y0203279D01*
X0077868Y0204078D02*
X0077068Y0204078D01*
X0077068Y0203327D02*
X0077068Y0209327D01*
X0077049Y0209327D01*
X0076217Y0209218D01*
X0075407Y0209001D01*
X0074631Y0208680D01*
X0073905Y0208260D01*
X0073239Y0207749D01*
X0072646Y0207156D01*
X0072135Y0206491D01*
X0071716Y0205764D01*
X0071395Y0204989D01*
X0071178Y0204179D01*
X0071068Y0203347D01*
X0071068Y0203327D01*
X0077068Y0203327D01*
X0077068Y0204876D02*
X0077868Y0204876D01*
X0077868Y0205675D02*
X0077068Y0205675D01*
X0077068Y0206473D02*
X0077868Y0206473D01*
X0077868Y0207272D02*
X0077068Y0207272D01*
X0077068Y0208070D02*
X0077868Y0208070D01*
X0077868Y0208869D02*
X0077068Y0208869D01*
X0075088Y0208869D02*
X0049541Y0208869D01*
X0049541Y0209667D02*
X0113437Y0209667D01*
X0113106Y0210466D02*
X0049541Y0210466D01*
X0049541Y0211264D02*
X0112775Y0211264D01*
X0112641Y0212063D02*
X0049541Y0212063D01*
X0049541Y0212861D02*
X0112641Y0212861D01*
X0112641Y0213660D02*
X0049541Y0213660D01*
X0049541Y0214458D02*
X0112956Y0214458D01*
X0113286Y0215257D02*
X0049541Y0215257D01*
X0049541Y0216055D02*
X0113857Y0216055D01*
X0114655Y0216854D02*
X0080052Y0216854D01*
X0081207Y0217332D02*
X0083063Y0219189D01*
X0084068Y0221614D01*
X0084068Y0224240D01*
X0083063Y0226666D01*
X0081207Y0228522D01*
X0078781Y0229527D01*
X0076155Y0229527D01*
X0073730Y0228522D01*
X0071873Y0226666D01*
X0070868Y0224240D01*
X0070868Y0221614D01*
X0071873Y0219189D01*
X0073730Y0217332D01*
X0076155Y0216327D01*
X0078781Y0216327D01*
X0081207Y0217332D01*
X0081527Y0217652D02*
X0116183Y0217652D01*
X0119699Y0217652D02*
X0245116Y0217652D01*
X0244786Y0218451D02*
X0082326Y0218451D01*
X0083089Y0219249D02*
X0244455Y0219249D01*
X0244334Y0220048D02*
X0083419Y0220048D01*
X0083750Y0220846D02*
X0244334Y0220846D01*
X0244334Y0221645D02*
X0084068Y0221645D01*
X0084068Y0222443D02*
X0244662Y0222443D01*
X0244993Y0223242D02*
X0084068Y0223242D01*
X0084068Y0224040D02*
X0245582Y0224040D01*
X0246381Y0224839D02*
X0083820Y0224839D01*
X0083489Y0225637D02*
X0247756Y0225637D01*
X0246299Y0226436D02*
X0083159Y0226436D01*
X0082495Y0227234D02*
X0245500Y0227234D01*
X0244959Y0228033D02*
X0081696Y0228033D01*
X0080461Y0228831D02*
X0244628Y0228831D01*
X0244334Y0229630D02*
X0049541Y0229630D01*
X0049541Y0230428D02*
X0244334Y0230428D01*
X0244334Y0231227D02*
X0049541Y0231227D01*
X0049541Y0232025D02*
X0244489Y0232025D01*
X0244820Y0232824D02*
X0049541Y0232824D01*
X0049541Y0233622D02*
X0245164Y0233622D01*
X0245963Y0234421D02*
X0049541Y0234421D01*
X0049541Y0235220D02*
X0246945Y0235220D01*
X0242429Y0237615D02*
X0073925Y0237615D01*
X0073925Y0238414D02*
X0242429Y0238414D01*
X0242429Y0239212D02*
X0073925Y0239212D01*
X0073925Y0240011D02*
X0242429Y0240011D01*
X0242429Y0240809D02*
X0073925Y0240809D01*
X0073925Y0241608D02*
X0242429Y0241608D01*
X0242429Y0242406D02*
X0189148Y0242406D01*
X0190938Y0243205D02*
X0242429Y0243205D01*
X0242429Y0244003D02*
X0191737Y0244003D01*
X0192455Y0244802D02*
X0242429Y0244802D01*
X0242429Y0245600D02*
X0192786Y0245600D01*
X0193117Y0246399D02*
X0242429Y0246399D01*
X0242429Y0247197D02*
X0193241Y0247197D01*
X0193241Y0247996D02*
X0242429Y0247996D01*
X0242429Y0248794D02*
X0193241Y0248794D01*
X0193241Y0249593D02*
X0242429Y0249593D01*
X0242429Y0250391D02*
X0193241Y0250391D01*
X0193241Y0251190D02*
X0242429Y0251190D01*
X0242429Y0251988D02*
X0193241Y0251988D01*
X0193241Y0252787D02*
X0242429Y0252787D01*
X0242429Y0253585D02*
X0193241Y0253585D01*
X0193241Y0254384D02*
X0242429Y0254384D01*
X0242429Y0255182D02*
X0193241Y0255182D01*
X0193241Y0255981D02*
X0242429Y0255981D01*
X0242429Y0256779D02*
X0193241Y0256779D01*
X0193241Y0257578D02*
X0242429Y0257578D01*
X0242429Y0258376D02*
X0193241Y0258376D01*
X0193241Y0259175D02*
X0242429Y0259175D01*
X0242429Y0259973D02*
X0193277Y0259973D01*
X0193578Y0260772D02*
X0242429Y0260772D01*
X0242429Y0261570D02*
X0194316Y0261570D01*
X0245881Y0216854D02*
X0121226Y0216854D01*
X0122024Y0216055D02*
X0246748Y0216055D01*
X0247035Y0215257D02*
X0122595Y0215257D01*
X0122926Y0214458D02*
X0246000Y0214458D01*
X0245201Y0213660D02*
X0123241Y0213660D01*
X0123241Y0212861D02*
X0244835Y0212861D01*
X0244504Y0212063D02*
X0123241Y0212063D01*
X0123106Y0211264D02*
X0244334Y0211264D01*
X0244334Y0210466D02*
X0122775Y0210466D01*
X0122444Y0209667D02*
X0244334Y0209667D01*
X0244613Y0208869D02*
X0121661Y0208869D01*
X0120748Y0208070D02*
X0244943Y0208070D01*
X0245463Y0207272D02*
X0120092Y0207272D01*
X0121324Y0206473D02*
X0246262Y0206473D01*
X0246418Y0204876D02*
X0122527Y0204876D01*
X0122837Y0204078D02*
X0245619Y0204078D01*
X0245008Y0203279D02*
X0123004Y0203279D01*
X0122043Y0205675D02*
X0247667Y0205675D01*
X0260034Y0210466D02*
X0266813Y0210466D01*
X0266813Y0211264D02*
X0264691Y0211264D01*
X0264520Y0212063D02*
X0266813Y0212063D01*
X0266813Y0212861D02*
X0264204Y0212861D01*
X0263712Y0213660D02*
X0266813Y0213660D01*
X0266813Y0214458D02*
X0262984Y0214458D01*
X0261721Y0215257D02*
X0266813Y0215257D01*
X0266813Y0216055D02*
X0262519Y0216055D01*
X0263386Y0216854D02*
X0266813Y0216854D01*
X0266813Y0217652D02*
X0264151Y0217652D01*
X0264481Y0218451D02*
X0266813Y0218451D01*
X0266813Y0219249D02*
X0264812Y0219249D01*
X0264934Y0220048D02*
X0266813Y0220048D01*
X0266813Y0220846D02*
X0264934Y0220846D01*
X0264934Y0221645D02*
X0266813Y0221645D01*
X0266813Y0222443D02*
X0264605Y0222443D01*
X0264274Y0223242D02*
X0266813Y0223242D01*
X0266813Y0224040D02*
X0263685Y0224040D01*
X0262887Y0224839D02*
X0266813Y0224839D01*
X0266813Y0225637D02*
X0261511Y0225637D01*
X0262968Y0226436D02*
X0266813Y0226436D01*
X0266813Y0227234D02*
X0263767Y0227234D01*
X0264308Y0228033D02*
X0266813Y0228033D01*
X0266813Y0228831D02*
X0264639Y0228831D01*
X0264934Y0229630D02*
X0266813Y0229630D01*
X0266813Y0230428D02*
X0264934Y0230428D01*
X0264934Y0231227D02*
X0266813Y0231227D01*
X0266813Y0232025D02*
X0264778Y0232025D01*
X0264448Y0232824D02*
X0266813Y0232824D01*
X0266813Y0233622D02*
X0264103Y0233622D01*
X0263304Y0234421D02*
X0266813Y0234421D01*
X0266813Y0235220D02*
X0262322Y0235220D01*
X0256945Y0235220D02*
X0252322Y0235220D01*
X0253304Y0234421D02*
X0255963Y0234421D01*
X0255164Y0233622D02*
X0254103Y0233622D01*
X0254448Y0232824D02*
X0254820Y0232824D01*
X0266813Y0236018D02*
X0049541Y0236018D01*
X0049541Y0236817D02*
X0266813Y0236817D01*
X0266813Y0209667D02*
X0264650Y0209667D01*
X0264435Y0208869D02*
X0266813Y0208869D01*
X0266813Y0208070D02*
X0264070Y0208070D01*
X0263521Y0207272D02*
X0266813Y0207272D01*
X0266813Y0206473D02*
X0262635Y0206473D01*
X0262849Y0204876D02*
X0266813Y0204876D01*
X0266813Y0204078D02*
X0263648Y0204078D01*
X0264259Y0203279D02*
X0266813Y0203279D01*
X0266813Y0202481D02*
X0264590Y0202481D01*
X0264921Y0201682D02*
X0266813Y0201682D01*
X0266813Y0200884D02*
X0264934Y0200884D01*
X0264934Y0200085D02*
X0266813Y0200085D01*
X0266813Y0199287D02*
X0264828Y0199287D01*
X0264497Y0198488D02*
X0266813Y0198488D01*
X0266813Y0197689D02*
X0264166Y0197689D01*
X0263423Y0196891D02*
X0266813Y0196891D01*
X0266813Y0196092D02*
X0262609Y0196092D01*
X0262143Y0195294D02*
X0266813Y0195294D01*
X0266813Y0194495D02*
X0263230Y0194495D01*
X0264028Y0193697D02*
X0266813Y0193697D01*
X0266813Y0192898D02*
X0264417Y0192898D01*
X0264748Y0192100D02*
X0266813Y0192100D01*
X0266813Y0191301D02*
X0264934Y0191301D01*
X0264934Y0190503D02*
X0266813Y0190503D01*
X0266813Y0189704D02*
X0264934Y0189704D01*
X0264670Y0188906D02*
X0266813Y0188906D01*
X0266813Y0188107D02*
X0264339Y0188107D01*
X0263841Y0187309D02*
X0266813Y0187309D01*
X0266813Y0186510D02*
X0263043Y0186510D01*
X0261690Y0185712D02*
X0266813Y0185712D01*
X0266813Y0184913D02*
X0262812Y0184913D01*
X0263611Y0184115D02*
X0266813Y0184115D01*
X0266813Y0183316D02*
X0264244Y0183316D01*
X0264574Y0182518D02*
X0266813Y0182518D01*
X0266813Y0181719D02*
X0264905Y0181719D01*
X0264934Y0180921D02*
X0266813Y0180921D01*
X0266813Y0180122D02*
X0264934Y0180122D01*
X0264843Y0179324D02*
X0266813Y0179324D01*
X0266813Y0178525D02*
X0264512Y0178525D01*
X0264181Y0177727D02*
X0266813Y0177727D01*
X0266813Y0176928D02*
X0263461Y0176928D01*
X0262662Y0176130D02*
X0266813Y0176130D01*
X0266813Y0175331D02*
X0261566Y0175331D01*
X0262893Y0174533D02*
X0266813Y0174533D01*
X0266813Y0173734D02*
X0263658Y0173734D01*
X0264166Y0172936D02*
X0266813Y0172936D01*
X0266813Y0172137D02*
X0264495Y0172137D01*
X0264680Y0171339D02*
X0266813Y0171339D01*
X0266813Y0170540D02*
X0260034Y0170540D01*
X0264662Y0169742D02*
X0266813Y0169742D01*
X0266813Y0168943D02*
X0264459Y0168943D01*
X0264108Y0168145D02*
X0266813Y0168145D01*
X0266813Y0167346D02*
X0263576Y0167346D01*
X0262737Y0166548D02*
X0266813Y0166548D01*
X0266813Y0165749D02*
X0261218Y0165749D01*
X0262775Y0164951D02*
X0266813Y0164951D01*
X0266813Y0164152D02*
X0263573Y0164152D01*
X0264228Y0163353D02*
X0266813Y0163353D01*
X0266813Y0162555D02*
X0264559Y0162555D01*
X0264890Y0161756D02*
X0266813Y0161756D01*
X0266813Y0160958D02*
X0264934Y0160958D01*
X0264934Y0160159D02*
X0266813Y0160159D01*
X0266813Y0159361D02*
X0264858Y0159361D01*
X0264528Y0158562D02*
X0266813Y0158562D01*
X0266813Y0157764D02*
X0264197Y0157764D01*
X0263498Y0156965D02*
X0266813Y0156965D01*
X0266813Y0156167D02*
X0262699Y0156167D01*
X0260034Y0140997D02*
X0260034Y0140197D01*
X0249233Y0190503D02*
X0122791Y0190503D01*
X0113044Y0204078D02*
X0083772Y0204078D01*
X0083572Y0204876D02*
X0113354Y0204876D01*
X0113839Y0205675D02*
X0083258Y0205675D01*
X0082811Y0206473D02*
X0114557Y0206473D01*
X0115790Y0207272D02*
X0082175Y0207272D01*
X0081279Y0208070D02*
X0115133Y0208070D01*
X0114220Y0208869D02*
X0079848Y0208869D01*
X0073657Y0208070D02*
X0049541Y0208070D01*
X0049541Y0207272D02*
X0072762Y0207272D01*
X0072125Y0206473D02*
X0049541Y0206473D01*
X0049541Y0205675D02*
X0071679Y0205675D01*
X0071365Y0204876D02*
X0049541Y0204876D01*
X0049541Y0204078D02*
X0071164Y0204078D01*
X0074884Y0216854D02*
X0049541Y0216854D01*
X0049541Y0217652D02*
X0073409Y0217652D01*
X0072611Y0218451D02*
X0049541Y0218451D01*
X0049541Y0219249D02*
X0071848Y0219249D01*
X0071517Y0220048D02*
X0049541Y0220048D01*
X0049541Y0220846D02*
X0071186Y0220846D01*
X0070868Y0221645D02*
X0049541Y0221645D01*
X0049541Y0222443D02*
X0070868Y0222443D01*
X0070868Y0223242D02*
X0049541Y0223242D01*
X0049541Y0224040D02*
X0070868Y0224040D01*
X0071116Y0224839D02*
X0049541Y0224839D01*
X0049541Y0225637D02*
X0071447Y0225637D01*
X0071778Y0226436D02*
X0049541Y0226436D01*
X0049541Y0227234D02*
X0072442Y0227234D01*
X0073240Y0228033D02*
X0049541Y0228033D01*
X0049541Y0228831D02*
X0074476Y0228831D01*
X0073925Y0242406D02*
X0127205Y0242406D01*
X0125415Y0243205D02*
X0073925Y0243205D01*
X0073925Y0244003D02*
X0124617Y0244003D01*
X0123899Y0244802D02*
X0073925Y0244802D01*
X0073925Y0245600D02*
X0123568Y0245600D01*
X0123237Y0246399D02*
X0073925Y0246399D01*
X0073925Y0247197D02*
X0123112Y0247197D01*
X0123112Y0247996D02*
X0073925Y0247996D01*
X0073925Y0248794D02*
X0123112Y0248794D01*
X0123112Y0249593D02*
X0073925Y0249593D01*
X0073925Y0250391D02*
X0123112Y0250391D01*
X0123112Y0251190D02*
X0073925Y0251190D01*
X0073925Y0251988D02*
X0123112Y0251988D01*
X0123112Y0252787D02*
X0073925Y0252787D01*
X0073925Y0253585D02*
X0123112Y0253585D01*
X0123112Y0254384D02*
X0073925Y0254384D01*
X0073925Y0255182D02*
X0123112Y0255182D01*
X0123112Y0255981D02*
X0073925Y0255981D01*
X0073925Y0256779D02*
X0123112Y0256779D01*
X0123112Y0257578D02*
X0073925Y0257578D01*
X0073925Y0258376D02*
X0123112Y0258376D01*
X0123112Y0259175D02*
X0073925Y0259175D01*
X0073925Y0259973D02*
X0123077Y0259973D01*
X0122776Y0260772D02*
X0073925Y0260772D01*
X0073925Y0261570D02*
X0122038Y0261570D01*
X0083868Y0182518D02*
X0161986Y0182518D01*
X0161188Y0181719D02*
X0083764Y0181719D01*
X0083556Y0180921D02*
X0160389Y0180921D01*
X0159591Y0180122D02*
X0083234Y0180122D01*
X0082770Y0179324D02*
X0158792Y0179324D01*
X0157994Y0178525D02*
X0082117Y0178525D01*
X0081204Y0177727D02*
X0157195Y0177727D01*
X0153941Y0152973D02*
X0196359Y0152973D01*
X0195077Y0152174D02*
X0153941Y0152174D01*
X0153941Y0151376D02*
X0194279Y0151376D01*
X0162624Y0140995D02*
X0153941Y0140995D01*
X0153941Y0140197D02*
X0161402Y0140197D01*
X0160771Y0139398D02*
X0153941Y0139398D01*
X0153941Y0138600D02*
X0160440Y0138600D01*
X0160341Y0137801D02*
X0153941Y0137801D01*
X0153941Y0137003D02*
X0160341Y0137003D01*
X0160640Y0136204D02*
X0153941Y0136204D01*
X0153941Y0135406D02*
X0161088Y0135406D01*
X0261224Y0205675D02*
X0266813Y0205675D01*
D13*
X0236941Y0225644D03*
X0218941Y0252644D03*
X0165941Y0157644D03*
X0163941Y0137644D03*
X0183941Y0137644D03*
X0218941Y0110644D03*
X0190941Y0079644D03*
D14*
X0183941Y0086644D01*
X0183941Y0137644D01*
X0163941Y0137644D01*
X0183941Y0137644D02*
X0196893Y0150597D01*
X0249634Y0150597D01*
D15*
X0151941Y0070644D03*
M02*
