%
M48
M72
T01C0.0138
T02C0.0200
T03C0.0400
T04C0.0600
T05C0.1083
%
T01
X15194Y7064
T02
X19094Y7964
X21894Y11064
X18394Y13764
X16394Y13764
X16594Y15764
X23694Y22564
X21894Y25264
T03
X24963Y23060
X24963Y22060
X24963Y21060
X24963Y20060
X24963Y19060
X24963Y18060
X24963Y17060
X24963Y16060
X24963Y15060
X24963Y14060
X24963Y13060
X24963Y12060
X24963Y11060
X24963Y10060
X24963Y9060
X24963Y8060
X24963Y7060
X24963Y6060
X24963Y5060
X24963Y4060
X25963Y4060
X25963Y5060
X25963Y6060
X25963Y7060
X25963Y8060
X25963Y9060
X25963Y10060
X25963Y11060
X25963Y12060
X25963Y13060
X25963Y14060
X25963Y15060
X25963Y16060
X25963Y17060
X25963Y18060
X25963Y19060
X25963Y20060
X25963Y21060
X25963Y22060
X25963Y23060
X11794Y21264
X11794Y20264
X11794Y19264
T04
X7747Y18293
X7747Y20293
X7747Y22293
X8147Y13764
X8147Y11764
X10147Y11764
X10147Y13764
X10147Y9764
X8147Y9764
T05
X6172Y2142
X25463Y2142
X25463Y24977
X6172Y24977
M30
