G75*
%MOIN*%
%OFA0B0*%
%FSLAX25Y25*%
%IPPOS*%
%LPD*%
%AMOC8*
5,1,8,0,0,1.08239X$1,22.5*
%
%ADD10C,0.01181*%
%ADD11R,0.04331X0.03937*%
%ADD12R,0.03937X0.04331*%
%ADD13R,0.08000X0.02600*%
%ADD14R,0.03543X0.03150*%
%ADD15R,0.05118X0.03937*%
%ADD16C,0.10000*%
%ADD17R,0.30000X0.08900*%
%ADD18C,0.07400*%
%ADD19R,0.11400X0.06600*%
%ADD20R,0.04724X0.01575*%
%ADD21R,0.04724X0.02362*%
%ADD22R,0.08500X0.08900*%
%ADD23C,0.00800*%
%ADD24C,0.04000*%
%ADD25C,0.01600*%
%ADD26C,0.03378*%
D10*
X0115866Y0069266D02*
X0115866Y0072022D01*
X0115866Y0069266D02*
X0113110Y0069266D01*
X0113110Y0072022D01*
X0115866Y0072022D01*
X0115866Y0070446D02*
X0113110Y0070446D01*
X0113110Y0071626D02*
X0115866Y0071626D01*
X0122771Y0072022D02*
X0122771Y0069266D01*
X0120015Y0069266D01*
X0120015Y0072022D01*
X0122771Y0072022D01*
X0122771Y0070446D02*
X0120015Y0070446D01*
X0120015Y0071626D02*
X0122771Y0071626D01*
X0149110Y0142266D02*
X0149110Y0145022D01*
X0151866Y0145022D01*
X0151866Y0142266D01*
X0149110Y0142266D01*
X0149110Y0143446D02*
X0151866Y0143446D01*
X0151866Y0144626D02*
X0149110Y0144626D01*
X0156015Y0145022D02*
X0156015Y0142266D01*
X0156015Y0145022D02*
X0158771Y0145022D01*
X0158771Y0142266D01*
X0156015Y0142266D01*
X0156015Y0143446D02*
X0158771Y0143446D01*
X0158771Y0144626D02*
X0156015Y0144626D01*
X0169110Y0145022D02*
X0169110Y0142266D01*
X0169110Y0145022D02*
X0171866Y0145022D01*
X0171866Y0142266D01*
X0169110Y0142266D01*
X0169110Y0143446D02*
X0171866Y0143446D01*
X0171866Y0144626D02*
X0169110Y0144626D01*
X0176015Y0145022D02*
X0176015Y0142266D01*
X0176015Y0145022D02*
X0178771Y0145022D01*
X0178771Y0142266D01*
X0176015Y0142266D01*
X0176015Y0143446D02*
X0178771Y0143446D01*
X0178771Y0144626D02*
X0176015Y0144626D01*
X0175771Y0165266D02*
X0175771Y0168022D01*
X0175771Y0165266D02*
X0173015Y0165266D01*
X0173015Y0168022D01*
X0175771Y0168022D01*
X0175771Y0166446D02*
X0173015Y0166446D01*
X0173015Y0167626D02*
X0175771Y0167626D01*
X0168866Y0168022D02*
X0168866Y0165266D01*
X0166110Y0165266D01*
X0166110Y0168022D01*
X0168866Y0168022D01*
X0168866Y0166446D02*
X0166110Y0166446D01*
X0166110Y0167626D02*
X0168866Y0167626D01*
D11*
X0187594Y0166644D03*
X0194287Y0166644D03*
X0193657Y0150644D03*
X0200350Y0150644D03*
X0177287Y0131644D03*
X0170594Y0131644D03*
X0157287Y0131644D03*
X0150594Y0131644D03*
X0135287Y0098644D03*
X0128594Y0098644D03*
X0128594Y0084644D03*
X0135287Y0084644D03*
X0138287Y0070644D03*
X0131594Y0070644D03*
X0221594Y0096644D03*
X0228287Y0096644D03*
X0223287Y0194644D03*
X0216594Y0194644D03*
X0229594Y0212644D03*
X0236287Y0212644D03*
X0193287Y0228644D03*
X0186594Y0228644D03*
D12*
X0219941Y0225990D03*
X0219941Y0219297D03*
X0223941Y0150990D03*
X0223941Y0144297D03*
X0179941Y0078990D03*
X0179941Y0072297D03*
X0128941Y0117297D03*
X0128941Y0123990D03*
X0128941Y0138297D03*
X0128941Y0144990D03*
D13*
X0179841Y0101144D03*
X0179841Y0096144D03*
X0179841Y0091144D03*
X0179841Y0086144D03*
X0204041Y0086144D03*
X0204041Y0091144D03*
X0204041Y0096144D03*
X0204041Y0101144D03*
D14*
X0224004Y0119904D03*
X0224004Y0127384D03*
X0232271Y0123644D03*
X0178878Y0120384D03*
X0178878Y0112904D03*
X0170610Y0116644D03*
X0158878Y0120384D03*
X0158878Y0112904D03*
X0150610Y0116644D03*
X0205878Y0194904D03*
X0205878Y0202384D03*
X0197610Y0198644D03*
D15*
X0192508Y0134534D03*
X0192508Y0127644D03*
X0192508Y0120754D03*
X0213374Y0120754D03*
X0213374Y0127644D03*
X0213374Y0134534D03*
X0162618Y0091644D03*
X0147263Y0098534D03*
X0147263Y0084754D03*
D16*
X0101468Y0097644D03*
X0081468Y0097644D03*
X0081468Y0117644D03*
X0081468Y0137644D03*
X0101468Y0137644D03*
X0101468Y0117644D03*
X0077468Y0182927D03*
X0077468Y0202927D03*
X0077468Y0222927D03*
D17*
X0092941Y0056194D03*
D18*
X0117941Y0192644D03*
X0117941Y0202644D03*
X0117941Y0212644D03*
X0249634Y0210597D03*
X0249634Y0220597D03*
X0249634Y0230597D03*
X0259634Y0230597D03*
X0259634Y0220597D03*
X0259634Y0210597D03*
X0259634Y0200597D03*
X0259634Y0190597D03*
X0259634Y0180597D03*
X0259634Y0170597D03*
X0259634Y0160597D03*
X0259634Y0150597D03*
X0259634Y0140597D03*
X0259634Y0130597D03*
X0259634Y0120597D03*
X0259634Y0110597D03*
X0259634Y0100597D03*
X0259634Y0090597D03*
X0259634Y0080597D03*
X0259634Y0070597D03*
X0259634Y0060597D03*
X0259634Y0050597D03*
X0259634Y0040597D03*
X0249634Y0040597D03*
X0249634Y0050597D03*
X0249634Y0060597D03*
X0249634Y0070597D03*
X0249634Y0080597D03*
X0249634Y0090597D03*
X0249634Y0100597D03*
X0249634Y0110597D03*
X0249634Y0120597D03*
X0249634Y0130597D03*
X0249634Y0140597D03*
X0249634Y0150597D03*
X0249634Y0160597D03*
X0249634Y0170597D03*
X0249634Y0180597D03*
X0249634Y0190597D03*
X0249634Y0200597D03*
D19*
X0167941Y0199244D03*
X0167941Y0218044D03*
D20*
X0198823Y0215644D03*
X0209059Y0215644D03*
D21*
X0209059Y0218597D03*
X0209059Y0212691D03*
X0198823Y0212691D03*
X0198823Y0218597D03*
D22*
X0210341Y0238644D03*
X0229541Y0238644D03*
D23*
X0049541Y0075360D02*
X0049541Y0033628D01*
X0073925Y0033628D01*
X0073925Y0009244D01*
X0242429Y0009244D01*
X0242429Y0033628D01*
X0266813Y0033628D01*
X0266813Y0237565D01*
X0259413Y0237565D01*
X0261361Y0235618D01*
X0262636Y0235090D01*
X0264127Y0233599D01*
X0264934Y0231651D01*
X0264934Y0229542D01*
X0264127Y0227594D01*
X0262636Y0226103D01*
X0261412Y0225597D01*
X0262636Y0225090D01*
X0264127Y0223599D01*
X0264934Y0221651D01*
X0264934Y0219542D01*
X0264127Y0217594D01*
X0262636Y0216103D01*
X0261121Y0215476D01*
X0261591Y0215323D01*
X0262307Y0214958D01*
X0262956Y0214487D01*
X0263524Y0213919D01*
X0263995Y0213270D01*
X0264360Y0212554D01*
X0264608Y0211791D01*
X0264734Y0210998D01*
X0264734Y0210997D01*
X0260034Y0210997D01*
X0260034Y0210197D01*
X0264734Y0210197D01*
X0264734Y0210195D01*
X0264608Y0209402D01*
X0264360Y0208639D01*
X0263995Y0207924D01*
X0263524Y0207274D01*
X0262956Y0206706D01*
X0262307Y0206235D01*
X0261591Y0205870D01*
X0261121Y0205717D01*
X0262636Y0205090D01*
X0264127Y0203599D01*
X0264934Y0201651D01*
X0264934Y0199542D01*
X0264127Y0197594D01*
X0262636Y0196103D01*
X0261412Y0195597D01*
X0262636Y0195090D01*
X0264127Y0193599D01*
X0264934Y0191651D01*
X0264934Y0189542D01*
X0264127Y0187594D01*
X0262636Y0186103D01*
X0261412Y0185597D01*
X0262636Y0185090D01*
X0264127Y0183599D01*
X0264934Y0181651D01*
X0264934Y0179542D01*
X0264127Y0177594D01*
X0262636Y0176103D01*
X0261121Y0175476D01*
X0261591Y0175323D01*
X0262307Y0174958D01*
X0262956Y0174487D01*
X0263524Y0173919D01*
X0263995Y0173270D01*
X0264360Y0172554D01*
X0264608Y0171791D01*
X0264734Y0170998D01*
X0264734Y0170997D01*
X0260034Y0170997D01*
X0260034Y0170197D01*
X0264734Y0170197D01*
X0264734Y0170195D01*
X0264608Y0169402D01*
X0264360Y0168639D01*
X0263995Y0167924D01*
X0263524Y0167274D01*
X0262956Y0166706D01*
X0262307Y0166235D01*
X0261591Y0165870D01*
X0261121Y0165717D01*
X0262636Y0165090D01*
X0264127Y0163599D01*
X0264934Y0161651D01*
X0264934Y0159542D01*
X0264127Y0157594D01*
X0262636Y0156103D01*
X0261412Y0155597D01*
X0262636Y0155090D01*
X0264127Y0153599D01*
X0264934Y0151651D01*
X0264934Y0149542D01*
X0264127Y0147594D01*
X0262636Y0146103D01*
X0261121Y0145476D01*
X0261591Y0145323D01*
X0262307Y0144958D01*
X0262956Y0144487D01*
X0263524Y0143919D01*
X0263995Y0143270D01*
X0264360Y0142554D01*
X0264608Y0141791D01*
X0264734Y0140998D01*
X0264734Y0140997D01*
X0260034Y0140997D01*
X0260034Y0140197D01*
X0266813Y0140197D01*
X0266813Y0140995D02*
X0260034Y0140995D01*
X0260034Y0140197D02*
X0264734Y0140197D01*
X0264734Y0140195D01*
X0264608Y0139402D01*
X0264360Y0138639D01*
X0263995Y0137924D01*
X0263524Y0137274D01*
X0262956Y0136706D01*
X0262307Y0136235D01*
X0261591Y0135870D01*
X0261121Y0135717D01*
X0262636Y0135090D01*
X0264127Y0133599D01*
X0264934Y0131651D01*
X0264934Y0129542D01*
X0264127Y0127594D01*
X0262636Y0126103D01*
X0261412Y0125597D01*
X0262636Y0125090D01*
X0264127Y0123599D01*
X0264934Y0121651D01*
X0264934Y0119542D01*
X0264127Y0117594D01*
X0262636Y0116103D01*
X0261412Y0115597D01*
X0262636Y0115090D01*
X0264127Y0113599D01*
X0264934Y0111651D01*
X0264934Y0109542D01*
X0264127Y0107594D01*
X0262636Y0106103D01*
X0261412Y0105597D01*
X0262636Y0105090D01*
X0264127Y0103599D01*
X0264934Y0101651D01*
X0264934Y0099542D01*
X0264127Y0097594D01*
X0262636Y0096103D01*
X0261121Y0095476D01*
X0261591Y0095323D01*
X0262307Y0094958D01*
X0262956Y0094487D01*
X0263524Y0093919D01*
X0263995Y0093270D01*
X0264360Y0092554D01*
X0264608Y0091791D01*
X0264734Y0090998D01*
X0264734Y0090997D01*
X0260034Y0090997D01*
X0260034Y0090197D01*
X0264734Y0090197D01*
X0264734Y0090195D01*
X0264608Y0089402D01*
X0264360Y0088639D01*
X0263995Y0087924D01*
X0263524Y0087274D01*
X0262956Y0086706D01*
X0262307Y0086235D01*
X0261591Y0085870D01*
X0261121Y0085717D01*
X0262636Y0085090D01*
X0264127Y0083599D01*
X0264934Y0081651D01*
X0264934Y0079542D01*
X0264127Y0077594D01*
X0262636Y0076103D01*
X0261121Y0075476D01*
X0261591Y0075323D01*
X0262307Y0074958D01*
X0262956Y0074487D01*
X0263524Y0073919D01*
X0263995Y0073270D01*
X0264360Y0072554D01*
X0264608Y0071791D01*
X0264734Y0070998D01*
X0264734Y0070997D01*
X0260034Y0070997D01*
X0260034Y0070197D01*
X0264734Y0070197D01*
X0264734Y0070195D01*
X0264608Y0069402D01*
X0264360Y0068639D01*
X0263995Y0067924D01*
X0263524Y0067274D01*
X0262956Y0066706D01*
X0262307Y0066235D01*
X0261591Y0065870D01*
X0261121Y0065717D01*
X0262636Y0065090D01*
X0264127Y0063599D01*
X0264934Y0061651D01*
X0264934Y0059542D01*
X0264127Y0057594D01*
X0262636Y0056103D01*
X0261412Y0055597D01*
X0262636Y0055090D01*
X0264127Y0053599D01*
X0264934Y0051651D01*
X0264934Y0049542D01*
X0264127Y0047594D01*
X0262636Y0046103D01*
X0261412Y0045597D01*
X0262636Y0045090D01*
X0264127Y0043599D01*
X0264934Y0041651D01*
X0264934Y0039542D01*
X0264127Y0037594D01*
X0262636Y0036103D01*
X0260688Y0035297D01*
X0258579Y0035297D01*
X0256631Y0036103D01*
X0255140Y0037594D01*
X0254513Y0039110D01*
X0254360Y0038639D01*
X0253995Y0037924D01*
X0253524Y0037274D01*
X0252956Y0036706D01*
X0252307Y0036235D01*
X0251591Y0035870D01*
X0250828Y0035622D01*
X0250035Y0035497D01*
X0250034Y0035497D01*
X0250034Y0040196D01*
X0249234Y0040196D01*
X0249234Y0035497D01*
X0249232Y0035497D01*
X0248439Y0035622D01*
X0247676Y0035870D01*
X0246961Y0036235D01*
X0246311Y0036706D01*
X0245743Y0037274D01*
X0245272Y0037924D01*
X0244907Y0038639D01*
X0244659Y0039402D01*
X0244534Y0040195D01*
X0244534Y0040197D01*
X0249233Y0040197D01*
X0249233Y0040997D01*
X0244534Y0040997D01*
X0244534Y0040998D01*
X0244659Y0041791D01*
X0244907Y0042554D01*
X0245272Y0043270D01*
X0245743Y0043919D01*
X0246311Y0044487D01*
X0246961Y0044958D01*
X0247676Y0045323D01*
X0248147Y0045476D01*
X0246631Y0046103D01*
X0245140Y0047594D01*
X0244334Y0049542D01*
X0244334Y0051651D01*
X0245140Y0053599D01*
X0246631Y0055090D01*
X0247855Y0055597D01*
X0246631Y0056103D01*
X0245140Y0057594D01*
X0244334Y0059542D01*
X0244334Y0061651D01*
X0245140Y0063599D01*
X0246631Y0065090D01*
X0247855Y0065597D01*
X0246631Y0066103D01*
X0245140Y0067594D01*
X0244334Y0069542D01*
X0244334Y0071651D01*
X0245140Y0073599D01*
X0246631Y0075090D01*
X0247855Y0075597D01*
X0246631Y0076103D01*
X0245140Y0077594D01*
X0244334Y0079542D01*
X0244334Y0081651D01*
X0245140Y0083599D01*
X0245185Y0083644D01*
X0209103Y0083644D01*
X0208703Y0083244D01*
X0199378Y0083244D01*
X0198478Y0084144D01*
X0194612Y0084144D01*
X0189941Y0088815D01*
X0189941Y0102815D01*
X0187112Y0105644D01*
X0163309Y0105644D01*
X0162137Y0106815D01*
X0159224Y0109729D01*
X0156443Y0109729D01*
X0155506Y0110666D01*
X0155506Y0115141D01*
X0156443Y0116078D01*
X0161312Y0116078D01*
X0162249Y0115141D01*
X0162249Y0112360D01*
X0164966Y0109644D01*
X0188769Y0109644D01*
X0189941Y0108472D01*
X0192769Y0105644D01*
X0193941Y0104472D01*
X0193941Y0090472D01*
X0196269Y0088144D01*
X0198478Y0088144D01*
X0198978Y0088644D01*
X0198441Y0089181D01*
X0198441Y0093107D01*
X0198978Y0093644D01*
X0198441Y0094181D01*
X0198441Y0098107D01*
X0198978Y0098644D01*
X0198441Y0099181D01*
X0198441Y0103107D01*
X0199378Y0104044D01*
X0202200Y0104044D01*
X0202200Y0110904D01*
X0182249Y0110904D01*
X0182249Y0110666D01*
X0181312Y0109729D01*
X0176443Y0109729D01*
X0175506Y0110666D01*
X0175506Y0115141D01*
X0176443Y0116078D01*
X0181312Y0116078D01*
X0182249Y0115141D01*
X0182249Y0114904D01*
X0209372Y0114904D01*
X0211374Y0116905D01*
X0211374Y0117186D01*
X0210152Y0117186D01*
X0209215Y0118123D01*
X0209215Y0118754D01*
X0203002Y0118754D01*
X0201830Y0119926D01*
X0201830Y0119926D01*
X0198350Y0123406D01*
X0198350Y0147075D01*
X0197522Y0147075D01*
X0197004Y0147594D01*
X0196485Y0147075D01*
X0194508Y0147075D01*
X0194508Y0138102D01*
X0195729Y0138102D01*
X0196667Y0137165D01*
X0196667Y0131902D01*
X0195853Y0131089D01*
X0196667Y0130275D01*
X0196667Y0125013D01*
X0195853Y0124199D01*
X0196667Y0123385D01*
X0196667Y0118123D01*
X0195729Y0117186D01*
X0189286Y0117186D01*
X0188349Y0118123D01*
X0188349Y0123385D01*
X0189162Y0124199D01*
X0188349Y0125013D01*
X0188349Y0125644D01*
X0186112Y0125644D01*
X0183112Y0128644D01*
X0183112Y0128644D01*
X0181941Y0129815D01*
X0181941Y0132815D01*
X0181052Y0131927D01*
X0181052Y0129013D01*
X0180115Y0128075D01*
X0174459Y0128075D01*
X0173941Y0128594D01*
X0173422Y0128075D01*
X0172610Y0128075D01*
X0172610Y0119819D01*
X0173044Y0119819D01*
X0173982Y0118881D01*
X0173982Y0114406D01*
X0173044Y0113469D01*
X0168176Y0113469D01*
X0167238Y0114406D01*
X0167238Y0118881D01*
X0168176Y0119819D01*
X0168610Y0119819D01*
X0168610Y0128075D01*
X0167766Y0128075D01*
X0166829Y0129013D01*
X0166829Y0134275D01*
X0167766Y0135212D01*
X0168594Y0135212D01*
X0168594Y0140075D01*
X0168203Y0140075D01*
X0166919Y0141358D01*
X0166919Y0145929D01*
X0168203Y0147212D01*
X0172773Y0147212D01*
X0174056Y0145929D01*
X0174056Y0145401D01*
X0174161Y0145790D01*
X0174423Y0146244D01*
X0174793Y0146615D01*
X0175247Y0146877D01*
X0175753Y0147012D01*
X0176993Y0147012D01*
X0176993Y0144044D01*
X0177793Y0144044D01*
X0177793Y0147012D01*
X0179033Y0147012D01*
X0179540Y0146877D01*
X0179994Y0146615D01*
X0180364Y0146244D01*
X0180626Y0145790D01*
X0180762Y0145284D01*
X0180762Y0144044D01*
X0177793Y0144044D01*
X0177793Y0143244D01*
X0177793Y0140275D01*
X0179033Y0140275D01*
X0179540Y0140411D01*
X0179994Y0140673D01*
X0180364Y0141044D01*
X0180626Y0141498D01*
X0180762Y0142004D01*
X0180762Y0143244D01*
X0177793Y0143244D01*
X0176993Y0143244D01*
X0176993Y0140275D01*
X0175753Y0140275D01*
X0175247Y0140411D01*
X0174793Y0140673D01*
X0174423Y0141044D01*
X0174161Y0141498D01*
X0174056Y0141886D01*
X0174056Y0141358D01*
X0172773Y0140075D01*
X0172594Y0140075D01*
X0172594Y0135212D01*
X0173422Y0135212D01*
X0173941Y0134694D01*
X0174459Y0135212D01*
X0178681Y0135212D01*
X0180357Y0136888D01*
X0180341Y0136928D01*
X0180341Y0138360D01*
X0180889Y0139683D01*
X0181901Y0140696D01*
X0183225Y0141244D01*
X0184657Y0141244D01*
X0185980Y0140696D01*
X0186993Y0139683D01*
X0187541Y0138360D01*
X0187541Y0136928D01*
X0186993Y0135605D01*
X0185980Y0134592D01*
X0185941Y0134576D01*
X0185941Y0131472D01*
X0187769Y0129644D01*
X0188349Y0129644D01*
X0188349Y0130275D01*
X0189162Y0131089D01*
X0188349Y0131902D01*
X0188349Y0137165D01*
X0189286Y0138102D01*
X0190508Y0138102D01*
X0190508Y0147397D01*
X0189892Y0148013D01*
X0189892Y0153275D01*
X0190829Y0154212D01*
X0196485Y0154212D01*
X0197004Y0153694D01*
X0197522Y0154212D01*
X0201681Y0154212D01*
X0243941Y0196472D01*
X0243941Y0196472D01*
X0245112Y0197644D01*
X0245120Y0197644D01*
X0244334Y0199542D01*
X0244334Y0201651D01*
X0245140Y0203599D01*
X0246631Y0205090D01*
X0247855Y0205597D01*
X0246631Y0206103D01*
X0245140Y0207594D01*
X0244334Y0209542D01*
X0244334Y0211651D01*
X0245140Y0213599D01*
X0246631Y0215090D01*
X0247855Y0215597D01*
X0246631Y0216103D01*
X0245140Y0217594D01*
X0244334Y0219542D01*
X0244334Y0221651D01*
X0245140Y0223599D01*
X0246631Y0225090D01*
X0247855Y0225597D01*
X0246631Y0226103D01*
X0245140Y0227594D01*
X0244334Y0229542D01*
X0244334Y0231651D01*
X0245140Y0233599D01*
X0245785Y0234244D01*
X0235391Y0234244D01*
X0235391Y0233531D01*
X0234453Y0232594D01*
X0231994Y0232594D01*
X0231994Y0216212D01*
X0232422Y0216212D01*
X0233082Y0215552D01*
X0233262Y0215733D01*
X0233581Y0215917D01*
X0233937Y0216012D01*
X0235887Y0216012D01*
X0235887Y0213044D01*
X0236687Y0213044D01*
X0236687Y0216012D01*
X0238637Y0216012D01*
X0238993Y0215917D01*
X0239312Y0215733D01*
X0239573Y0215472D01*
X0239757Y0215153D01*
X0239852Y0214797D01*
X0239852Y0213044D01*
X0236687Y0213044D01*
X0236687Y0212244D01*
X0239852Y0212244D01*
X0239852Y0210491D01*
X0239757Y0210135D01*
X0239573Y0209816D01*
X0239312Y0209555D01*
X0238993Y0209371D01*
X0238637Y0209275D01*
X0236687Y0209275D01*
X0236687Y0212244D01*
X0235887Y0212244D01*
X0235887Y0209275D01*
X0233937Y0209275D01*
X0233581Y0209371D01*
X0233262Y0209555D01*
X0233082Y0209735D01*
X0232422Y0209075D01*
X0226766Y0209075D01*
X0225829Y0210013D01*
X0225829Y0210291D01*
X0212465Y0210291D01*
X0212084Y0209910D01*
X0211459Y0209910D01*
X0211459Y0205088D01*
X0211167Y0204384D01*
X0229029Y0204384D01*
X0232769Y0200644D01*
X0233941Y0199472D01*
X0233941Y0188815D01*
X0210941Y0165815D01*
X0209769Y0164644D01*
X0198052Y0164644D01*
X0198052Y0164013D01*
X0197115Y0163075D01*
X0191459Y0163075D01*
X0190941Y0163594D01*
X0190422Y0163075D01*
X0184766Y0163075D01*
X0183829Y0164013D01*
X0183829Y0164644D01*
X0177962Y0164644D01*
X0177962Y0164358D01*
X0176679Y0163075D01*
X0172108Y0163075D01*
X0170825Y0164358D01*
X0170825Y0164886D01*
X0170721Y0164498D01*
X0170459Y0164044D01*
X0170088Y0163673D01*
X0169634Y0163411D01*
X0169128Y0163275D01*
X0167888Y0163275D01*
X0167888Y0166244D01*
X0167088Y0166244D01*
X0164119Y0166244D01*
X0164119Y0165004D01*
X0164255Y0164498D01*
X0164517Y0164044D01*
X0164888Y0163673D01*
X0165342Y0163411D01*
X0165848Y0163275D01*
X0167088Y0163275D01*
X0167088Y0166244D01*
X0167088Y0167044D01*
X0167088Y0170012D01*
X0165848Y0170012D01*
X0165342Y0169877D01*
X0164888Y0169615D01*
X0164517Y0169244D01*
X0164255Y0168790D01*
X0164119Y0168284D01*
X0164119Y0167044D01*
X0167088Y0167044D01*
X0167888Y0167044D01*
X0167888Y0170012D01*
X0169128Y0170012D01*
X0169634Y0169877D01*
X0170088Y0169615D01*
X0170459Y0169244D01*
X0170721Y0168790D01*
X0170825Y0168401D01*
X0170825Y0168929D01*
X0172108Y0170212D01*
X0176679Y0170212D01*
X0177962Y0168929D01*
X0177962Y0168644D01*
X0183829Y0168644D01*
X0183829Y0169275D01*
X0184766Y0170212D01*
X0190422Y0170212D01*
X0190941Y0169694D01*
X0191459Y0170212D01*
X0197115Y0170212D01*
X0198052Y0169275D01*
X0198052Y0168644D01*
X0208112Y0168644D01*
X0229941Y0190472D01*
X0229941Y0197815D01*
X0227372Y0200384D01*
X0209249Y0200384D01*
X0209249Y0200146D01*
X0208312Y0199209D01*
X0204401Y0199209D01*
X0205531Y0198078D01*
X0208312Y0198078D01*
X0209249Y0197141D01*
X0209249Y0196904D01*
X0212829Y0196904D01*
X0212829Y0197275D01*
X0213766Y0198212D01*
X0219422Y0198212D01*
X0220082Y0197552D01*
X0220262Y0197733D01*
X0220581Y0197917D01*
X0220937Y0198012D01*
X0222887Y0198012D01*
X0222887Y0195044D01*
X0223687Y0195044D01*
X0223687Y0198012D01*
X0225637Y0198012D01*
X0225993Y0197917D01*
X0226312Y0197733D01*
X0226573Y0197472D01*
X0226757Y0197153D01*
X0226852Y0196797D01*
X0226852Y0195044D01*
X0223687Y0195044D01*
X0223687Y0194244D01*
X0226852Y0194244D01*
X0226852Y0192491D01*
X0226757Y0192135D01*
X0226573Y0191816D01*
X0226312Y0191555D01*
X0225993Y0191371D01*
X0225637Y0191275D01*
X0223687Y0191275D01*
X0223687Y0194244D01*
X0222887Y0194244D01*
X0222887Y0191275D01*
X0220937Y0191275D01*
X0220581Y0191371D01*
X0220262Y0191555D01*
X0220082Y0191735D01*
X0219422Y0191075D01*
X0213766Y0191075D01*
X0212829Y0192013D01*
X0212829Y0192904D01*
X0209249Y0192904D01*
X0209249Y0192666D01*
X0208312Y0191729D01*
X0203443Y0191729D01*
X0202506Y0192666D01*
X0202506Y0195447D01*
X0201112Y0196841D01*
X0200982Y0196971D01*
X0200982Y0196406D01*
X0200044Y0195469D01*
X0195176Y0195469D01*
X0194238Y0196406D01*
X0194238Y0198621D01*
X0191581Y0201278D01*
X0190906Y0201954D01*
X0190541Y0202836D01*
X0190541Y0216197D01*
X0175241Y0216197D01*
X0175241Y0214081D01*
X0174303Y0213144D01*
X0161578Y0213144D01*
X0160641Y0214081D01*
X0160641Y0222007D01*
X0161578Y0222944D01*
X0174303Y0222944D01*
X0175241Y0222007D01*
X0175241Y0220997D01*
X0190541Y0220997D01*
X0190541Y0225075D01*
X0190459Y0225075D01*
X0189799Y0225735D01*
X0189619Y0225555D01*
X0189300Y0225371D01*
X0188944Y0225275D01*
X0186994Y0225275D01*
X0186994Y0228244D01*
X0186194Y0228244D01*
X0183029Y0228244D01*
X0183029Y0226491D01*
X0183124Y0226135D01*
X0183309Y0225816D01*
X0183569Y0225555D01*
X0183888Y0225371D01*
X0184245Y0225275D01*
X0186194Y0225275D01*
X0186194Y0228244D01*
X0186194Y0229044D01*
X0186194Y0232012D01*
X0184245Y0232012D01*
X0183888Y0231917D01*
X0183569Y0231733D01*
X0183309Y0231472D01*
X0183124Y0231153D01*
X0183029Y0230797D01*
X0183029Y0229044D01*
X0186194Y0229044D01*
X0186994Y0229044D01*
X0186994Y0232012D01*
X0188944Y0232012D01*
X0189300Y0231917D01*
X0189619Y0231733D01*
X0189799Y0231552D01*
X0190459Y0232212D01*
X0196115Y0232212D01*
X0197052Y0231275D01*
X0197052Y0226013D01*
X0196115Y0225075D01*
X0195341Y0225075D01*
X0195341Y0220997D01*
X0195416Y0220997D01*
X0195798Y0221378D01*
X0201847Y0221378D01*
X0202785Y0220440D01*
X0202785Y0217644D01*
X0205097Y0217644D01*
X0205097Y0220440D01*
X0206034Y0221378D01*
X0212084Y0221378D01*
X0212865Y0220597D01*
X0216372Y0220597D01*
X0216372Y0222125D01*
X0217032Y0222785D01*
X0216852Y0222965D01*
X0216668Y0223284D01*
X0216572Y0223641D01*
X0216572Y0225590D01*
X0219541Y0225590D01*
X0219541Y0226390D01*
X0219541Y0229556D01*
X0217788Y0229556D01*
X0217432Y0229460D01*
X0217113Y0229276D01*
X0216852Y0229015D01*
X0216668Y0228696D01*
X0216572Y0228340D01*
X0216572Y0226390D01*
X0219541Y0226390D01*
X0220341Y0226390D01*
X0223309Y0226390D01*
X0223309Y0228340D01*
X0223214Y0228696D01*
X0223029Y0229015D01*
X0222769Y0229276D01*
X0222450Y0229460D01*
X0222093Y0229556D01*
X0220341Y0229556D01*
X0220341Y0226390D01*
X0220341Y0225590D01*
X0223309Y0225590D01*
X0223309Y0223641D01*
X0223214Y0223284D01*
X0223029Y0222965D01*
X0222849Y0222785D01*
X0223509Y0222125D01*
X0223509Y0216469D01*
X0222572Y0215532D01*
X0217309Y0215532D01*
X0216372Y0216469D01*
X0216372Y0216597D01*
X0213021Y0216597D01*
X0213021Y0215091D01*
X0225829Y0215091D01*
X0225829Y0215275D01*
X0226766Y0216212D01*
X0227194Y0216212D01*
X0227194Y0232594D01*
X0224628Y0232594D01*
X0223691Y0233531D01*
X0223691Y0243757D01*
X0224628Y0244694D01*
X0234453Y0244694D01*
X0235391Y0243757D01*
X0235391Y0239044D01*
X0242429Y0239044D01*
X0242429Y0261949D01*
X0195578Y0261949D01*
X0195123Y0261904D01*
X0194280Y0261555D01*
X0193635Y0260911D01*
X0193286Y0260068D01*
X0193241Y0259612D01*
X0193241Y0246700D01*
X0192398Y0244665D01*
X0192398Y0244665D01*
X0191641Y0243908D01*
X0191641Y0243864D01*
X0191598Y0243864D01*
X0190841Y0243107D01*
X0190841Y0243107D01*
X0188806Y0242264D01*
X0127548Y0242264D01*
X0125513Y0243107D01*
X0125513Y0243107D01*
X0124756Y0243864D01*
X0124712Y0243864D01*
X0124712Y0243908D01*
X0123955Y0244665D01*
X0123955Y0244665D01*
X0123112Y0246700D01*
X0123112Y0259612D01*
X0123067Y0260068D01*
X0122718Y0260911D01*
X0122074Y0261555D01*
X0121231Y0261904D01*
X0120775Y0261949D01*
X0073925Y0261949D01*
X0073925Y0237565D01*
X0049541Y0237565D01*
X0049541Y0160006D01*
X0049586Y0159550D01*
X0049934Y0158708D01*
X0050579Y0158063D01*
X0051422Y0157714D01*
X0051878Y0157669D01*
X0068727Y0157669D01*
X0070762Y0156826D01*
X0070762Y0156826D01*
X0072320Y0155268D01*
X0072320Y0155268D01*
X0073163Y0153233D01*
X0073163Y0082133D01*
X0072320Y0080098D01*
X0072320Y0080098D01*
X0070762Y0078540D01*
X0070762Y0078540D01*
X0068727Y0077697D01*
X0051878Y0077697D01*
X0051422Y0077652D01*
X0050579Y0077303D01*
X0049934Y0076659D01*
X0049586Y0075816D01*
X0049541Y0075360D01*
X0049556Y0075517D02*
X0177017Y0075517D01*
X0177032Y0075502D02*
X0176852Y0075322D01*
X0176668Y0075003D01*
X0176572Y0074647D01*
X0176572Y0072697D01*
X0179541Y0072697D01*
X0179541Y0071897D01*
X0180341Y0071897D01*
X0180341Y0072697D01*
X0183309Y0072697D01*
X0183309Y0074647D01*
X0183214Y0075003D01*
X0183029Y0075322D01*
X0182849Y0075502D01*
X0183509Y0076162D01*
X0183509Y0077244D01*
X0188249Y0077244D01*
X0188901Y0076592D01*
X0190225Y0076044D01*
X0191657Y0076044D01*
X0192980Y0076592D01*
X0193993Y0077605D01*
X0194541Y0078928D01*
X0194541Y0080360D01*
X0193993Y0081683D01*
X0192980Y0082696D01*
X0191657Y0083244D01*
X0190225Y0083244D01*
X0188901Y0082696D01*
X0188249Y0082044D01*
X0183284Y0082044D01*
X0182572Y0082756D01*
X0182341Y0082756D01*
X0182341Y0083244D01*
X0184503Y0083244D01*
X0185441Y0084181D01*
X0185441Y0088107D01*
X0184903Y0088644D01*
X0185441Y0089181D01*
X0185441Y0093107D01*
X0184903Y0093644D01*
X0185441Y0094181D01*
X0185441Y0098107D01*
X0184762Y0098785D01*
X0184961Y0098984D01*
X0185145Y0099303D01*
X0185241Y0099659D01*
X0185241Y0100894D01*
X0180091Y0100894D01*
X0180091Y0101394D01*
X0185241Y0101394D01*
X0185241Y0102628D01*
X0185145Y0102984D01*
X0184961Y0103303D01*
X0184700Y0103564D01*
X0184381Y0103748D01*
X0184025Y0103844D01*
X0180091Y0103844D01*
X0180091Y0101394D01*
X0179591Y0101394D01*
X0179591Y0103844D01*
X0175656Y0103844D01*
X0175300Y0103748D01*
X0174981Y0103564D01*
X0174720Y0103303D01*
X0174536Y0102984D01*
X0174441Y0102628D01*
X0174441Y0101394D01*
X0179591Y0101394D01*
X0179591Y0100894D01*
X0174441Y0100894D01*
X0174441Y0099659D01*
X0174536Y0099303D01*
X0174720Y0098984D01*
X0174919Y0098785D01*
X0174278Y0098144D01*
X0171612Y0098144D01*
X0167112Y0093644D01*
X0166777Y0093644D01*
X0166777Y0094275D01*
X0165840Y0095212D01*
X0164618Y0095212D01*
X0164618Y0101795D01*
X0159941Y0106472D01*
X0158769Y0107644D01*
X0145769Y0107644D01*
X0142941Y0110472D01*
X0142941Y0135472D01*
X0138116Y0140297D01*
X0132509Y0140297D01*
X0132509Y0141125D01*
X0131991Y0141644D01*
X0132509Y0142162D01*
X0132509Y0142990D01*
X0135116Y0142990D01*
X0140769Y0148644D01*
X0160112Y0148644D01*
X0161941Y0146815D01*
X0161941Y0140712D01*
X0161901Y0140696D01*
X0160889Y0139683D01*
X0160341Y0138360D01*
X0160341Y0136928D01*
X0160357Y0136888D01*
X0158681Y0135212D01*
X0154459Y0135212D01*
X0153941Y0134694D01*
X0153422Y0135212D01*
X0152488Y0135212D01*
X0152488Y0140075D01*
X0152773Y0140075D01*
X0154056Y0141358D01*
X0154056Y0141886D01*
X0154161Y0141498D01*
X0154423Y0141044D01*
X0154793Y0140673D01*
X0155247Y0140411D01*
X0155753Y0140275D01*
X0156993Y0140275D01*
X0156993Y0143244D01*
X0157793Y0143244D01*
X0157793Y0140275D01*
X0159033Y0140275D01*
X0159540Y0140411D01*
X0159994Y0140673D01*
X0160364Y0141044D01*
X0160626Y0141498D01*
X0160762Y0142004D01*
X0160762Y0143244D01*
X0157793Y0143244D01*
X0157793Y0144044D01*
X0156993Y0144044D01*
X0156993Y0147012D01*
X0155753Y0147012D01*
X0155247Y0146877D01*
X0154793Y0146615D01*
X0154423Y0146244D01*
X0154161Y0145790D01*
X0154056Y0145401D01*
X0154056Y0145929D01*
X0152773Y0147212D01*
X0148203Y0147212D01*
X0146919Y0145929D01*
X0146919Y0141358D01*
X0148203Y0140075D01*
X0148488Y0140075D01*
X0148488Y0135212D01*
X0147766Y0135212D01*
X0146829Y0134275D01*
X0146829Y0129013D01*
X0147766Y0128075D01*
X0148610Y0128075D01*
X0148610Y0119819D01*
X0148176Y0119819D01*
X0147238Y0118881D01*
X0147238Y0114406D01*
X0148176Y0113469D01*
X0153044Y0113469D01*
X0153982Y0114406D01*
X0153982Y0118881D01*
X0153044Y0119819D01*
X0152610Y0119819D01*
X0152610Y0128075D01*
X0153422Y0128075D01*
X0153941Y0128594D01*
X0154459Y0128075D01*
X0160115Y0128075D01*
X0161052Y0129013D01*
X0161052Y0131927D01*
X0163185Y0134060D01*
X0163225Y0134044D01*
X0164657Y0134044D01*
X0165980Y0134592D01*
X0166993Y0135605D01*
X0167541Y0136928D01*
X0167541Y0138360D01*
X0166993Y0139683D01*
X0165980Y0140696D01*
X0165941Y0140712D01*
X0165941Y0148472D01*
X0161769Y0152644D01*
X0139112Y0152644D01*
X0133459Y0146990D01*
X0132509Y0146990D01*
X0132509Y0147818D01*
X0131572Y0148756D01*
X0126309Y0148756D01*
X0125372Y0147818D01*
X0125372Y0142162D01*
X0125891Y0141644D01*
X0125372Y0141125D01*
X0125372Y0139644D01*
X0107784Y0139644D01*
X0107063Y0141382D01*
X0105207Y0143239D01*
X0102781Y0144244D01*
X0100155Y0144244D01*
X0097730Y0143239D01*
X0095873Y0141382D01*
X0094868Y0138957D01*
X0094868Y0136331D01*
X0095873Y0133905D01*
X0097730Y0132049D01*
X0100155Y0131044D01*
X0102781Y0131044D01*
X0105207Y0132049D01*
X0107063Y0133905D01*
X0107784Y0135644D01*
X0125372Y0135644D01*
X0125372Y0135469D01*
X0126309Y0134532D01*
X0131572Y0134532D01*
X0132509Y0135469D01*
X0132509Y0136297D01*
X0136459Y0136297D01*
X0138941Y0133815D01*
X0138941Y0108815D01*
X0140112Y0107644D01*
X0144112Y0103644D01*
X0157112Y0103644D01*
X0160618Y0100138D01*
X0160618Y0095212D01*
X0159396Y0095212D01*
X0158459Y0094275D01*
X0158459Y0089013D01*
X0159396Y0088075D01*
X0165840Y0088075D01*
X0166777Y0089013D01*
X0166777Y0089644D01*
X0168112Y0089644D01*
X0158112Y0079644D01*
X0132769Y0079644D01*
X0131338Y0081075D01*
X0131422Y0081075D01*
X0131941Y0081594D01*
X0132459Y0081075D01*
X0138115Y0081075D01*
X0139052Y0082013D01*
X0139052Y0082754D01*
X0143104Y0082754D01*
X0143104Y0082123D01*
X0144042Y0081186D01*
X0150485Y0081186D01*
X0151423Y0082123D01*
X0151423Y0087385D01*
X0150485Y0088323D01*
X0144042Y0088323D01*
X0143104Y0087385D01*
X0143104Y0086754D01*
X0139052Y0086754D01*
X0139052Y0087275D01*
X0138115Y0088212D01*
X0132459Y0088212D01*
X0131941Y0087694D01*
X0131422Y0088212D01*
X0130594Y0088212D01*
X0130594Y0095075D01*
X0131422Y0095075D01*
X0131941Y0095594D01*
X0132459Y0095075D01*
X0138115Y0095075D01*
X0139052Y0096013D01*
X0139052Y0096534D01*
X0143104Y0096534D01*
X0143104Y0095902D01*
X0144042Y0094965D01*
X0150485Y0094965D01*
X0151423Y0095902D01*
X0151423Y0101165D01*
X0150485Y0102102D01*
X0144042Y0102102D01*
X0143104Y0101165D01*
X0143104Y0100534D01*
X0139052Y0100534D01*
X0139052Y0101275D01*
X0138115Y0102212D01*
X0132459Y0102212D01*
X0131941Y0101694D01*
X0131422Y0102212D01*
X0130941Y0102212D01*
X0130941Y0113532D01*
X0131572Y0113532D01*
X0132509Y0114469D01*
X0132509Y0120125D01*
X0131849Y0120785D01*
X0132029Y0120965D01*
X0132214Y0121284D01*
X0132309Y0121641D01*
X0132309Y0123590D01*
X0129341Y0123590D01*
X0129341Y0124390D01*
X0132309Y0124390D01*
X0132309Y0126340D01*
X0132214Y0126696D01*
X0132029Y0127015D01*
X0131769Y0127276D01*
X0131450Y0127460D01*
X0131093Y0127556D01*
X0129341Y0127556D01*
X0129341Y0124390D01*
X0128541Y0124390D01*
X0128541Y0127556D01*
X0126788Y0127556D01*
X0126432Y0127460D01*
X0126113Y0127276D01*
X0125852Y0127015D01*
X0125668Y0126696D01*
X0125572Y0126340D01*
X0125572Y0124390D01*
X0128541Y0124390D01*
X0128541Y0123590D01*
X0125572Y0123590D01*
X0125572Y0121641D01*
X0125668Y0121284D01*
X0125852Y0120965D01*
X0126032Y0120785D01*
X0125372Y0120125D01*
X0125372Y0119644D01*
X0107784Y0119644D01*
X0107063Y0121382D01*
X0105207Y0123239D01*
X0102781Y0124244D01*
X0100155Y0124244D01*
X0097730Y0123239D01*
X0095873Y0121382D01*
X0094868Y0118957D01*
X0094868Y0116331D01*
X0095873Y0113905D01*
X0097730Y0112049D01*
X0100155Y0111044D01*
X0102781Y0111044D01*
X0105207Y0112049D01*
X0107063Y0113905D01*
X0107784Y0115644D01*
X0125372Y0115644D01*
X0125372Y0114469D01*
X0126309Y0113532D01*
X0126941Y0113532D01*
X0126941Y0102212D01*
X0125766Y0102212D01*
X0124829Y0101275D01*
X0124829Y0096013D01*
X0125766Y0095075D01*
X0126594Y0095075D01*
X0126594Y0088212D01*
X0125766Y0088212D01*
X0124829Y0087275D01*
X0124829Y0082013D01*
X0125766Y0081075D01*
X0126594Y0081075D01*
X0126594Y0080162D01*
X0131112Y0075644D01*
X0159769Y0075644D01*
X0160941Y0076815D01*
X0173269Y0089144D01*
X0174278Y0089144D01*
X0174778Y0088644D01*
X0174241Y0088107D01*
X0174241Y0084181D01*
X0175178Y0083244D01*
X0177541Y0083244D01*
X0177541Y0082756D01*
X0177309Y0082756D01*
X0176372Y0081818D01*
X0176372Y0076162D01*
X0177032Y0075502D01*
X0176591Y0074719D02*
X0049541Y0074719D01*
X0049541Y0073920D02*
X0112504Y0073920D01*
X0112342Y0073877D02*
X0111888Y0073615D01*
X0111517Y0073244D01*
X0111255Y0072790D01*
X0111119Y0072284D01*
X0111119Y0071044D01*
X0114088Y0071044D01*
X0114088Y0074012D01*
X0112848Y0074012D01*
X0112342Y0073877D01*
X0111447Y0073122D02*
X0049541Y0073122D01*
X0049541Y0072323D02*
X0111130Y0072323D01*
X0111119Y0071525D02*
X0049541Y0071525D01*
X0049541Y0070726D02*
X0114088Y0070726D01*
X0114088Y0071044D02*
X0114088Y0070244D01*
X0111119Y0070244D01*
X0111119Y0069004D01*
X0111255Y0068498D01*
X0111517Y0068044D01*
X0111888Y0067673D01*
X0112342Y0067411D01*
X0112848Y0067275D01*
X0114088Y0067275D01*
X0114088Y0070244D01*
X0114888Y0070244D01*
X0114888Y0067275D01*
X0116128Y0067275D01*
X0116634Y0067411D01*
X0117088Y0067673D01*
X0117459Y0068044D01*
X0117721Y0068498D01*
X0117825Y0068886D01*
X0117825Y0068358D01*
X0119108Y0067075D01*
X0123679Y0067075D01*
X0124962Y0068358D01*
X0124962Y0068644D01*
X0127829Y0068644D01*
X0127829Y0068013D01*
X0128766Y0067075D01*
X0134422Y0067075D01*
X0134941Y0067594D01*
X0135459Y0067075D01*
X0141115Y0067075D01*
X0142052Y0068013D01*
X0142052Y0068644D01*
X0149289Y0068644D01*
X0150078Y0067856D01*
X0151286Y0067355D01*
X0152595Y0067355D01*
X0153804Y0067856D01*
X0154729Y0068781D01*
X0155230Y0069990D01*
X0155230Y0071298D01*
X0154729Y0072507D01*
X0153804Y0073432D01*
X0152595Y0073933D01*
X0151286Y0073933D01*
X0150078Y0073432D01*
X0149289Y0072644D01*
X0142052Y0072644D01*
X0142052Y0073275D01*
X0141115Y0074212D01*
X0135459Y0074212D01*
X0134941Y0073694D01*
X0134422Y0074212D01*
X0128766Y0074212D01*
X0127829Y0073275D01*
X0127829Y0072644D01*
X0124962Y0072644D01*
X0124962Y0072929D01*
X0123679Y0074212D01*
X0119108Y0074212D01*
X0117825Y0072929D01*
X0117825Y0072401D01*
X0117721Y0072790D01*
X0117459Y0073244D01*
X0117088Y0073615D01*
X0116634Y0073877D01*
X0116128Y0074012D01*
X0114888Y0074012D01*
X0114888Y0071044D01*
X0114088Y0071044D01*
X0114088Y0071525D02*
X0114888Y0071525D01*
X0114888Y0072323D02*
X0114088Y0072323D01*
X0114088Y0073122D02*
X0114888Y0073122D01*
X0114888Y0073920D02*
X0114088Y0073920D01*
X0116471Y0073920D02*
X0118816Y0073920D01*
X0118018Y0073122D02*
X0117529Y0073122D01*
X0114888Y0069928D02*
X0114088Y0069928D01*
X0114088Y0069129D02*
X0114888Y0069129D01*
X0114888Y0068331D02*
X0114088Y0068331D01*
X0114088Y0067532D02*
X0114888Y0067532D01*
X0116844Y0067532D02*
X0118651Y0067532D01*
X0117853Y0068331D02*
X0117624Y0068331D01*
X0121393Y0070644D02*
X0131594Y0070644D01*
X0128474Y0073920D02*
X0123971Y0073920D01*
X0124769Y0073122D02*
X0127829Y0073122D01*
X0130440Y0076316D02*
X0049792Y0076316D01*
X0050390Y0077114D02*
X0129642Y0077114D01*
X0128843Y0077913D02*
X0069247Y0077913D01*
X0070933Y0078711D02*
X0128045Y0078711D01*
X0127246Y0079510D02*
X0071732Y0079510D01*
X0072407Y0080308D02*
X0126594Y0080308D01*
X0125735Y0081107D02*
X0072738Y0081107D01*
X0073068Y0081905D02*
X0124936Y0081905D01*
X0124829Y0082704D02*
X0073163Y0082704D01*
X0073163Y0083502D02*
X0124829Y0083502D01*
X0124829Y0084301D02*
X0073163Y0084301D01*
X0073163Y0085099D02*
X0124829Y0085099D01*
X0124829Y0085898D02*
X0073163Y0085898D01*
X0073163Y0086696D02*
X0124829Y0086696D01*
X0125049Y0087495D02*
X0073163Y0087495D01*
X0073163Y0088293D02*
X0126594Y0088293D01*
X0126594Y0089092D02*
X0073163Y0089092D01*
X0073163Y0089890D02*
X0126594Y0089890D01*
X0126594Y0090689D02*
X0073163Y0090689D01*
X0073163Y0091487D02*
X0079716Y0091487D01*
X0079407Y0091570D02*
X0080217Y0091353D01*
X0081049Y0091244D01*
X0081068Y0091244D01*
X0081068Y0097244D01*
X0075068Y0097244D01*
X0075068Y0097224D01*
X0075178Y0096393D01*
X0075395Y0095582D01*
X0075716Y0094807D01*
X0076135Y0094080D01*
X0076646Y0093415D01*
X0077239Y0092822D01*
X0077905Y0092311D01*
X0078631Y0091891D01*
X0079407Y0091570D01*
X0077948Y0092286D02*
X0073163Y0092286D01*
X0073163Y0093084D02*
X0076977Y0093084D01*
X0076287Y0093883D02*
X0073163Y0093883D01*
X0073163Y0094682D02*
X0075788Y0094682D01*
X0075437Y0095480D02*
X0073163Y0095480D01*
X0073163Y0096279D02*
X0075208Y0096279D01*
X0075088Y0097077D02*
X0073163Y0097077D01*
X0073163Y0097876D02*
X0081068Y0097876D01*
X0081068Y0098044D02*
X0081068Y0097244D01*
X0081868Y0097244D01*
X0081868Y0098044D01*
X0081068Y0098044D01*
X0081068Y0104044D01*
X0081049Y0104044D01*
X0080217Y0103934D01*
X0079407Y0103717D01*
X0078631Y0103396D01*
X0077905Y0102977D01*
X0077239Y0102466D01*
X0076646Y0101873D01*
X0076135Y0101207D01*
X0075716Y0100480D01*
X0075395Y0099705D01*
X0075178Y0098895D01*
X0075068Y0098063D01*
X0075068Y0098044D01*
X0081068Y0098044D01*
X0081068Y0098674D02*
X0081868Y0098674D01*
X0081868Y0098044D02*
X0081868Y0104044D01*
X0081888Y0104044D01*
X0082719Y0103934D01*
X0083530Y0103717D01*
X0084305Y0103396D01*
X0085031Y0102977D01*
X0085697Y0102466D01*
X0086290Y0101873D01*
X0086801Y0101207D01*
X0087220Y0100480D01*
X0087542Y0099705D01*
X0087759Y0098895D01*
X0087868Y0098063D01*
X0087868Y0098044D01*
X0081868Y0098044D01*
X0081868Y0097876D02*
X0101068Y0097876D01*
X0101068Y0098044D02*
X0101068Y0097244D01*
X0095068Y0097244D01*
X0095068Y0097224D01*
X0095178Y0096393D01*
X0095395Y0095582D01*
X0095716Y0094807D01*
X0096135Y0094080D01*
X0096646Y0093415D01*
X0097239Y0092822D01*
X0097905Y0092311D01*
X0098631Y0091891D01*
X0099407Y0091570D01*
X0100217Y0091353D01*
X0101049Y0091244D01*
X0101068Y0091244D01*
X0101068Y0097244D01*
X0101868Y0097244D01*
X0101868Y0098044D01*
X0101068Y0098044D01*
X0101068Y0104044D01*
X0101049Y0104044D01*
X0100217Y0103934D01*
X0099407Y0103717D01*
X0098631Y0103396D01*
X0097905Y0102977D01*
X0097239Y0102466D01*
X0096646Y0101873D01*
X0096135Y0101207D01*
X0095716Y0100480D01*
X0095395Y0099705D01*
X0095178Y0098895D01*
X0095068Y0098063D01*
X0095068Y0098044D01*
X0101068Y0098044D01*
X0101068Y0098674D02*
X0101868Y0098674D01*
X0101868Y0098044D02*
X0101868Y0104044D01*
X0101888Y0104044D01*
X0102719Y0103934D01*
X0103530Y0103717D01*
X0104305Y0103396D01*
X0105031Y0102977D01*
X0105697Y0102466D01*
X0106290Y0101873D01*
X0106801Y0101207D01*
X0107220Y0100480D01*
X0107542Y0099705D01*
X0107759Y0098895D01*
X0107868Y0098063D01*
X0107868Y0098044D01*
X0101868Y0098044D01*
X0101868Y0097876D02*
X0124829Y0097876D01*
X0124829Y0098674D02*
X0107788Y0098674D01*
X0107604Y0099473D02*
X0124829Y0099473D01*
X0124829Y0100271D02*
X0107307Y0100271D01*
X0106880Y0101070D02*
X0124829Y0101070D01*
X0125422Y0101868D02*
X0106294Y0101868D01*
X0105435Y0102667D02*
X0126941Y0102667D01*
X0126941Y0103465D02*
X0104138Y0103465D01*
X0101868Y0103465D02*
X0101068Y0103465D01*
X0101068Y0102667D02*
X0101868Y0102667D01*
X0101868Y0101868D02*
X0101068Y0101868D01*
X0101068Y0101070D02*
X0101868Y0101070D01*
X0101868Y0100271D02*
X0101068Y0100271D01*
X0101068Y0099473D02*
X0101868Y0099473D01*
X0101868Y0097244D02*
X0107868Y0097244D01*
X0107868Y0097224D01*
X0107759Y0096393D01*
X0107542Y0095582D01*
X0107220Y0094807D01*
X0106801Y0094080D01*
X0106290Y0093415D01*
X0105697Y0092822D01*
X0105031Y0092311D01*
X0104305Y0091891D01*
X0103530Y0091570D01*
X0102719Y0091353D01*
X0101888Y0091244D01*
X0101868Y0091244D01*
X0101868Y0097244D01*
X0101868Y0097077D02*
X0101068Y0097077D01*
X0101068Y0096279D02*
X0101868Y0096279D01*
X0101868Y0095480D02*
X0101068Y0095480D01*
X0101068Y0094682D02*
X0101868Y0094682D01*
X0101868Y0093883D02*
X0101068Y0093883D01*
X0101068Y0093084D02*
X0101868Y0093084D01*
X0101868Y0092286D02*
X0101068Y0092286D01*
X0101068Y0091487D02*
X0101868Y0091487D01*
X0103220Y0091487D02*
X0126594Y0091487D01*
X0126594Y0092286D02*
X0104988Y0092286D01*
X0105960Y0093084D02*
X0126594Y0093084D01*
X0126594Y0093883D02*
X0106649Y0093883D01*
X0107148Y0094682D02*
X0126594Y0094682D01*
X0125361Y0095480D02*
X0107499Y0095480D01*
X0107728Y0096279D02*
X0124829Y0096279D01*
X0124829Y0097077D02*
X0107849Y0097077D01*
X0099716Y0091487D02*
X0083220Y0091487D01*
X0083530Y0091570D02*
X0084305Y0091891D01*
X0085031Y0092311D01*
X0085697Y0092822D01*
X0086290Y0093415D01*
X0086801Y0094080D01*
X0087220Y0094807D01*
X0087542Y0095582D01*
X0087759Y0096393D01*
X0087868Y0097224D01*
X0087868Y0097244D01*
X0081868Y0097244D01*
X0081868Y0091244D01*
X0081888Y0091244D01*
X0082719Y0091353D01*
X0083530Y0091570D01*
X0084988Y0092286D02*
X0097948Y0092286D01*
X0096977Y0093084D02*
X0085960Y0093084D01*
X0086649Y0093883D02*
X0096287Y0093883D01*
X0095788Y0094682D02*
X0087148Y0094682D01*
X0087499Y0095480D02*
X0095437Y0095480D01*
X0095208Y0096279D02*
X0087728Y0096279D01*
X0087849Y0097077D02*
X0095088Y0097077D01*
X0095149Y0098674D02*
X0087788Y0098674D01*
X0087604Y0099473D02*
X0095332Y0099473D01*
X0095629Y0100271D02*
X0087307Y0100271D01*
X0086880Y0101070D02*
X0096056Y0101070D01*
X0096643Y0101868D02*
X0086294Y0101868D01*
X0085435Y0102667D02*
X0097501Y0102667D01*
X0098798Y0103465D02*
X0084138Y0103465D01*
X0081868Y0103465D02*
X0081068Y0103465D01*
X0081068Y0102667D02*
X0081868Y0102667D01*
X0081868Y0101868D02*
X0081068Y0101868D01*
X0081068Y0101070D02*
X0081868Y0101070D01*
X0081868Y0100271D02*
X0081068Y0100271D01*
X0081068Y0099473D02*
X0081868Y0099473D01*
X0081868Y0097077D02*
X0081068Y0097077D01*
X0081068Y0096279D02*
X0081868Y0096279D01*
X0081868Y0095480D02*
X0081068Y0095480D01*
X0081068Y0094682D02*
X0081868Y0094682D01*
X0081868Y0093883D02*
X0081068Y0093883D01*
X0081068Y0093084D02*
X0081868Y0093084D01*
X0081868Y0092286D02*
X0081068Y0092286D01*
X0081068Y0091487D02*
X0081868Y0091487D01*
X0075149Y0098674D02*
X0073163Y0098674D01*
X0073163Y0099473D02*
X0075332Y0099473D01*
X0075629Y0100271D02*
X0073163Y0100271D01*
X0073163Y0101070D02*
X0076056Y0101070D01*
X0076643Y0101868D02*
X0073163Y0101868D01*
X0073163Y0102667D02*
X0077501Y0102667D01*
X0078798Y0103465D02*
X0073163Y0103465D01*
X0073163Y0104264D02*
X0126941Y0104264D01*
X0126941Y0105062D02*
X0073163Y0105062D01*
X0073163Y0105861D02*
X0126941Y0105861D01*
X0126941Y0106659D02*
X0073163Y0106659D01*
X0073163Y0107458D02*
X0126941Y0107458D01*
X0126941Y0108256D02*
X0073163Y0108256D01*
X0073163Y0109055D02*
X0126941Y0109055D01*
X0126941Y0109853D02*
X0073163Y0109853D01*
X0073163Y0110652D02*
X0126941Y0110652D01*
X0126941Y0111450D02*
X0103762Y0111450D01*
X0105407Y0112249D02*
X0126941Y0112249D01*
X0126941Y0113047D02*
X0106205Y0113047D01*
X0107004Y0113846D02*
X0125996Y0113846D01*
X0125372Y0114644D02*
X0107370Y0114644D01*
X0107700Y0115443D02*
X0125372Y0115443D01*
X0128594Y0117644D02*
X0101468Y0117644D01*
X0106615Y0121831D02*
X0125572Y0121831D01*
X0125572Y0122629D02*
X0105816Y0122629D01*
X0104751Y0123428D02*
X0125572Y0123428D01*
X0125572Y0125025D02*
X0073163Y0125025D01*
X0073163Y0125823D02*
X0125572Y0125823D01*
X0125648Y0126622D02*
X0073163Y0126622D01*
X0073163Y0127420D02*
X0126363Y0127420D01*
X0128541Y0127420D02*
X0129341Y0127420D01*
X0129341Y0126622D02*
X0128541Y0126622D01*
X0128541Y0125823D02*
X0129341Y0125823D01*
X0129341Y0125025D02*
X0128541Y0125025D01*
X0128541Y0124226D02*
X0102823Y0124226D01*
X0100114Y0124226D02*
X0082823Y0124226D01*
X0082781Y0124244D02*
X0080155Y0124244D01*
X0077730Y0123239D01*
X0075873Y0121382D01*
X0074868Y0118957D01*
X0074868Y0116331D01*
X0075873Y0113905D01*
X0077730Y0112049D01*
X0080155Y0111044D01*
X0082781Y0111044D01*
X0085207Y0112049D01*
X0087063Y0113905D01*
X0088068Y0116331D01*
X0088068Y0118957D01*
X0087063Y0121382D01*
X0085207Y0123239D01*
X0082781Y0124244D01*
X0084751Y0123428D02*
X0098186Y0123428D01*
X0097120Y0122629D02*
X0085816Y0122629D01*
X0086615Y0121831D02*
X0096322Y0121831D01*
X0095728Y0121032D02*
X0087208Y0121032D01*
X0087539Y0120234D02*
X0095397Y0120234D01*
X0095067Y0119435D02*
X0087870Y0119435D01*
X0088068Y0118637D02*
X0094868Y0118637D01*
X0094868Y0117838D02*
X0088068Y0117838D01*
X0088068Y0117040D02*
X0094868Y0117040D01*
X0094905Y0116241D02*
X0088031Y0116241D01*
X0087700Y0115443D02*
X0095236Y0115443D01*
X0095567Y0114644D02*
X0087370Y0114644D01*
X0087004Y0113846D02*
X0095932Y0113846D01*
X0096731Y0113047D02*
X0086205Y0113047D01*
X0085407Y0112249D02*
X0097529Y0112249D01*
X0099174Y0111450D02*
X0083762Y0111450D01*
X0079174Y0111450D02*
X0073163Y0111450D01*
X0073163Y0112249D02*
X0077529Y0112249D01*
X0076731Y0113047D02*
X0073163Y0113047D01*
X0073163Y0113846D02*
X0075932Y0113846D01*
X0075567Y0114644D02*
X0073163Y0114644D01*
X0073163Y0115443D02*
X0075236Y0115443D01*
X0074905Y0116241D02*
X0073163Y0116241D01*
X0073163Y0117040D02*
X0074868Y0117040D01*
X0074868Y0117838D02*
X0073163Y0117838D01*
X0073163Y0118637D02*
X0074868Y0118637D01*
X0075067Y0119435D02*
X0073163Y0119435D01*
X0073163Y0120234D02*
X0075397Y0120234D01*
X0075728Y0121032D02*
X0073163Y0121032D01*
X0073163Y0121831D02*
X0076322Y0121831D01*
X0077120Y0122629D02*
X0073163Y0122629D01*
X0073163Y0123428D02*
X0078186Y0123428D01*
X0080114Y0124226D02*
X0073163Y0124226D01*
X0073163Y0128219D02*
X0138941Y0128219D01*
X0138941Y0129018D02*
X0073163Y0129018D01*
X0073163Y0129816D02*
X0138941Y0129816D01*
X0138941Y0130615D02*
X0073163Y0130615D01*
X0073163Y0131413D02*
X0079264Y0131413D01*
X0080155Y0131044D02*
X0077730Y0132049D01*
X0075873Y0133905D01*
X0074868Y0136331D01*
X0074868Y0138957D01*
X0075873Y0141382D01*
X0077730Y0143239D01*
X0080155Y0144244D01*
X0082781Y0144244D01*
X0085207Y0143239D01*
X0087063Y0141382D01*
X0088068Y0138957D01*
X0088068Y0136331D01*
X0087063Y0133905D01*
X0085207Y0132049D01*
X0082781Y0131044D01*
X0080155Y0131044D01*
X0077567Y0132212D02*
X0073163Y0132212D01*
X0073163Y0133010D02*
X0076768Y0133010D01*
X0075970Y0133809D02*
X0073163Y0133809D01*
X0073163Y0134607D02*
X0075582Y0134607D01*
X0075251Y0135406D02*
X0073163Y0135406D01*
X0073163Y0136204D02*
X0074921Y0136204D01*
X0074868Y0137003D02*
X0073163Y0137003D01*
X0073163Y0137801D02*
X0074868Y0137801D01*
X0074868Y0138600D02*
X0073163Y0138600D01*
X0073163Y0139398D02*
X0075051Y0139398D01*
X0075382Y0140197D02*
X0073163Y0140197D01*
X0073163Y0140995D02*
X0075713Y0140995D01*
X0076284Y0141794D02*
X0073163Y0141794D01*
X0073163Y0142592D02*
X0077083Y0142592D01*
X0078096Y0143391D02*
X0073163Y0143391D01*
X0073163Y0144189D02*
X0080024Y0144189D01*
X0082913Y0144189D02*
X0100024Y0144189D01*
X0098096Y0143391D02*
X0084841Y0143391D01*
X0085854Y0142592D02*
X0097083Y0142592D01*
X0096284Y0141794D02*
X0086652Y0141794D01*
X0087224Y0140995D02*
X0095713Y0140995D01*
X0095382Y0140197D02*
X0087555Y0140197D01*
X0087885Y0139398D02*
X0095051Y0139398D01*
X0094868Y0138600D02*
X0088068Y0138600D01*
X0088068Y0137801D02*
X0094868Y0137801D01*
X0094868Y0137003D02*
X0088068Y0137003D01*
X0088016Y0136204D02*
X0094921Y0136204D01*
X0095251Y0135406D02*
X0087685Y0135406D01*
X0087354Y0134607D02*
X0095582Y0134607D01*
X0095970Y0133809D02*
X0086967Y0133809D01*
X0086168Y0133010D02*
X0096768Y0133010D01*
X0097567Y0132212D02*
X0085370Y0132212D01*
X0083672Y0131413D02*
X0099264Y0131413D01*
X0103672Y0131413D02*
X0138941Y0131413D01*
X0138941Y0132212D02*
X0105370Y0132212D01*
X0106168Y0133010D02*
X0138941Y0133010D01*
X0138941Y0133809D02*
X0106967Y0133809D01*
X0107354Y0134607D02*
X0126234Y0134607D01*
X0125436Y0135406D02*
X0107685Y0135406D01*
X0107555Y0140197D02*
X0125372Y0140197D01*
X0125372Y0140995D02*
X0107224Y0140995D01*
X0106652Y0141794D02*
X0125741Y0141794D01*
X0125372Y0142592D02*
X0105854Y0142592D01*
X0104841Y0143391D02*
X0125372Y0143391D01*
X0125372Y0144189D02*
X0102913Y0144189D01*
X0101468Y0137644D02*
X0128287Y0137644D01*
X0128941Y0138297D01*
X0137287Y0138297D01*
X0140941Y0134644D01*
X0140941Y0109644D01*
X0144941Y0105644D01*
X0157941Y0105644D01*
X0162618Y0100967D01*
X0162618Y0091644D01*
X0167941Y0091644D01*
X0172441Y0096144D01*
X0179841Y0096144D01*
X0174808Y0098674D02*
X0164618Y0098674D01*
X0164618Y0097876D02*
X0171344Y0097876D01*
X0170545Y0097077D02*
X0164618Y0097077D01*
X0164618Y0096279D02*
X0169747Y0096279D01*
X0168948Y0095480D02*
X0164618Y0095480D01*
X0166370Y0094682D02*
X0168150Y0094682D01*
X0167351Y0093883D02*
X0166777Y0093883D01*
X0163118Y0091144D02*
X0162618Y0091644D01*
X0166058Y0088293D02*
X0166762Y0088293D01*
X0166777Y0089092D02*
X0167560Y0089092D01*
X0165963Y0087495D02*
X0151313Y0087495D01*
X0151423Y0086696D02*
X0165165Y0086696D01*
X0164366Y0085898D02*
X0151423Y0085898D01*
X0151423Y0085099D02*
X0163568Y0085099D01*
X0162769Y0084301D02*
X0151423Y0084301D01*
X0151423Y0083502D02*
X0161971Y0083502D01*
X0161172Y0082704D02*
X0151423Y0082704D01*
X0151205Y0081905D02*
X0160374Y0081905D01*
X0159575Y0081107D02*
X0138147Y0081107D01*
X0138945Y0081905D02*
X0143322Y0081905D01*
X0143104Y0082704D02*
X0139052Y0082704D01*
X0135397Y0084754D02*
X0135287Y0084644D01*
X0135397Y0084754D02*
X0147263Y0084754D01*
X0144013Y0088293D02*
X0130594Y0088293D01*
X0130594Y0089092D02*
X0158459Y0089092D01*
X0158459Y0089890D02*
X0130594Y0089890D01*
X0130594Y0090689D02*
X0158459Y0090689D01*
X0158459Y0091487D02*
X0130594Y0091487D01*
X0130594Y0092286D02*
X0158459Y0092286D01*
X0158459Y0093084D02*
X0130594Y0093084D01*
X0130594Y0093883D02*
X0158459Y0093883D01*
X0158865Y0094682D02*
X0130594Y0094682D01*
X0131827Y0095480D02*
X0132054Y0095480D01*
X0135287Y0098644D02*
X0135397Y0098534D01*
X0147263Y0098534D01*
X0151423Y0098674D02*
X0160618Y0098674D01*
X0160618Y0097876D02*
X0151423Y0097876D01*
X0151423Y0097077D02*
X0160618Y0097077D01*
X0160618Y0096279D02*
X0151423Y0096279D01*
X0151000Y0095480D02*
X0160618Y0095480D01*
X0160618Y0099473D02*
X0151423Y0099473D01*
X0151423Y0100271D02*
X0160485Y0100271D01*
X0159686Y0101070D02*
X0151423Y0101070D01*
X0150719Y0101868D02*
X0158888Y0101868D01*
X0158089Y0102667D02*
X0130941Y0102667D01*
X0130941Y0103465D02*
X0157291Y0103465D01*
X0159754Y0106659D02*
X0162294Y0106659D01*
X0163092Y0105861D02*
X0160552Y0105861D01*
X0161351Y0105062D02*
X0187694Y0105062D01*
X0188492Y0104264D02*
X0162149Y0104264D01*
X0162948Y0103465D02*
X0174882Y0103465D01*
X0174451Y0102667D02*
X0163746Y0102667D01*
X0164545Y0101868D02*
X0174441Y0101868D01*
X0174441Y0100271D02*
X0164618Y0100271D01*
X0164618Y0099473D02*
X0174491Y0099473D01*
X0179591Y0101070D02*
X0164618Y0101070D01*
X0164137Y0107644D02*
X0187941Y0107644D01*
X0191941Y0103644D01*
X0191941Y0089644D01*
X0195441Y0086144D01*
X0204041Y0086144D01*
X0204541Y0085644D01*
X0252941Y0085644D01*
X0254634Y0087337D01*
X0254634Y0185597D01*
X0259634Y0190597D01*
X0261690Y0185712D02*
X0266813Y0185712D01*
X0266813Y0186510D02*
X0263043Y0186510D01*
X0263841Y0187309D02*
X0266813Y0187309D01*
X0266813Y0188107D02*
X0264339Y0188107D01*
X0264670Y0188906D02*
X0266813Y0188906D01*
X0266813Y0189704D02*
X0264934Y0189704D01*
X0264934Y0190503D02*
X0266813Y0190503D01*
X0266813Y0191301D02*
X0264934Y0191301D01*
X0264748Y0192100D02*
X0266813Y0192100D01*
X0266813Y0192898D02*
X0264417Y0192898D01*
X0264028Y0193697D02*
X0266813Y0193697D01*
X0266813Y0194495D02*
X0263230Y0194495D01*
X0262143Y0195294D02*
X0266813Y0195294D01*
X0266813Y0196092D02*
X0262609Y0196092D01*
X0263423Y0196891D02*
X0266813Y0196891D01*
X0266813Y0197689D02*
X0264166Y0197689D01*
X0264497Y0198488D02*
X0266813Y0198488D01*
X0266813Y0199287D02*
X0264828Y0199287D01*
X0264934Y0200085D02*
X0266813Y0200085D01*
X0266813Y0200884D02*
X0264934Y0200884D01*
X0264921Y0201682D02*
X0266813Y0201682D01*
X0266813Y0202481D02*
X0264590Y0202481D01*
X0264259Y0203279D02*
X0266813Y0203279D01*
X0266813Y0204078D02*
X0263648Y0204078D01*
X0262849Y0204876D02*
X0266813Y0204876D01*
X0266813Y0205675D02*
X0261224Y0205675D01*
X0262635Y0206473D02*
X0266813Y0206473D01*
X0266813Y0207272D02*
X0263521Y0207272D01*
X0264070Y0208070D02*
X0266813Y0208070D01*
X0266813Y0208869D02*
X0264435Y0208869D01*
X0264650Y0209667D02*
X0266813Y0209667D01*
X0266813Y0210466D02*
X0260034Y0210466D01*
X0264691Y0211264D02*
X0266813Y0211264D01*
X0266813Y0212063D02*
X0264520Y0212063D01*
X0264204Y0212861D02*
X0266813Y0212861D01*
X0266813Y0213660D02*
X0263712Y0213660D01*
X0262984Y0214458D02*
X0266813Y0214458D01*
X0266813Y0215257D02*
X0261721Y0215257D01*
X0262519Y0216055D02*
X0266813Y0216055D01*
X0266813Y0216854D02*
X0263386Y0216854D01*
X0264151Y0217652D02*
X0266813Y0217652D01*
X0266813Y0218451D02*
X0264481Y0218451D01*
X0264812Y0219249D02*
X0266813Y0219249D01*
X0266813Y0220048D02*
X0264934Y0220048D01*
X0264934Y0220846D02*
X0266813Y0220846D01*
X0266813Y0221645D02*
X0264934Y0221645D01*
X0264605Y0222443D02*
X0266813Y0222443D01*
X0266813Y0223242D02*
X0264274Y0223242D01*
X0263685Y0224040D02*
X0266813Y0224040D01*
X0266813Y0224839D02*
X0262887Y0224839D01*
X0261511Y0225637D02*
X0266813Y0225637D01*
X0266813Y0226436D02*
X0262968Y0226436D01*
X0263767Y0227234D02*
X0266813Y0227234D01*
X0266813Y0228033D02*
X0264308Y0228033D01*
X0264639Y0228831D02*
X0266813Y0228831D01*
X0266813Y0229630D02*
X0264934Y0229630D01*
X0264934Y0230428D02*
X0266813Y0230428D01*
X0266813Y0231227D02*
X0264934Y0231227D01*
X0264778Y0232025D02*
X0266813Y0232025D01*
X0266813Y0232824D02*
X0264448Y0232824D01*
X0264103Y0233622D02*
X0266813Y0233622D01*
X0266813Y0234421D02*
X0263304Y0234421D01*
X0262322Y0235220D02*
X0266813Y0235220D01*
X0266813Y0236018D02*
X0260960Y0236018D01*
X0260162Y0236817D02*
X0266813Y0236817D01*
X0247756Y0225637D02*
X0231994Y0225637D01*
X0231994Y0224839D02*
X0246381Y0224839D01*
X0245582Y0224040D02*
X0231994Y0224040D01*
X0231994Y0223242D02*
X0244993Y0223242D01*
X0244662Y0222443D02*
X0231994Y0222443D01*
X0231994Y0221645D02*
X0244334Y0221645D01*
X0244334Y0220846D02*
X0231994Y0220846D01*
X0231994Y0220048D02*
X0244334Y0220048D01*
X0244455Y0219249D02*
X0231994Y0219249D01*
X0231994Y0218451D02*
X0244786Y0218451D01*
X0245116Y0217652D02*
X0231994Y0217652D01*
X0231994Y0216854D02*
X0245881Y0216854D01*
X0246748Y0216055D02*
X0232579Y0216055D01*
X0235887Y0215257D02*
X0236687Y0215257D01*
X0236687Y0214458D02*
X0235887Y0214458D01*
X0235887Y0213660D02*
X0236687Y0213660D01*
X0236687Y0212861D02*
X0244835Y0212861D01*
X0244504Y0212063D02*
X0239852Y0212063D01*
X0239852Y0211264D02*
X0244334Y0211264D01*
X0244334Y0210466D02*
X0239846Y0210466D01*
X0239424Y0209667D02*
X0244334Y0209667D01*
X0244613Y0208869D02*
X0211459Y0208869D01*
X0211459Y0209667D02*
X0226174Y0209667D01*
X0225829Y0215257D02*
X0213021Y0215257D01*
X0213021Y0216055D02*
X0216786Y0216055D01*
X0219240Y0218597D02*
X0219941Y0219297D01*
X0219240Y0218597D02*
X0209059Y0218597D01*
X0209500Y0218644D01*
X0209059Y0218597D02*
X0209059Y0215644D01*
X0198823Y0215644D01*
X0198823Y0212691D02*
X0198823Y0205762D01*
X0201941Y0202644D01*
X0201941Y0198841D01*
X0205878Y0194904D01*
X0214334Y0194904D01*
X0216594Y0194644D01*
X0213540Y0191301D02*
X0144992Y0191301D01*
X0144975Y0191284D02*
X0150535Y0196844D01*
X0160641Y0196844D01*
X0160641Y0195281D01*
X0161578Y0194344D01*
X0174303Y0194344D01*
X0175241Y0195281D01*
X0175241Y0203207D01*
X0174303Y0204144D01*
X0161578Y0204144D01*
X0160641Y0203207D01*
X0160641Y0201644D01*
X0149063Y0201644D01*
X0148181Y0201278D01*
X0141947Y0195044D01*
X0122683Y0195044D01*
X0122434Y0195646D01*
X0120943Y0197137D01*
X0119428Y0197765D01*
X0119898Y0197917D01*
X0120614Y0198282D01*
X0121263Y0198754D01*
X0121831Y0199321D01*
X0122303Y0199971D01*
X0122667Y0200686D01*
X0122915Y0201450D01*
X0123041Y0202242D01*
X0123041Y0202244D01*
X0118341Y0202244D01*
X0118341Y0203044D01*
X0123041Y0203044D01*
X0123041Y0203045D01*
X0122915Y0203838D01*
X0122667Y0204602D01*
X0122303Y0205317D01*
X0121831Y0205966D01*
X0121263Y0206534D01*
X0120614Y0207006D01*
X0119898Y0207370D01*
X0119428Y0207523D01*
X0120943Y0208151D01*
X0122434Y0209642D01*
X0123241Y0211590D01*
X0123241Y0213698D01*
X0122434Y0215646D01*
X0120943Y0217137D01*
X0118995Y0217944D01*
X0116886Y0217944D01*
X0114938Y0217137D01*
X0113448Y0215646D01*
X0113198Y0215044D01*
X0099935Y0215044D01*
X0099800Y0215178D01*
X0090017Y0224962D01*
X0089135Y0225327D01*
X0083618Y0225327D01*
X0083063Y0226666D01*
X0081207Y0228522D01*
X0078781Y0229527D01*
X0076155Y0229527D01*
X0073730Y0228522D01*
X0071873Y0226666D01*
X0070868Y0224240D01*
X0070868Y0221614D01*
X0071873Y0219189D01*
X0073730Y0217332D01*
X0076155Y0216327D01*
X0078781Y0216327D01*
X0081207Y0217332D01*
X0083063Y0219189D01*
X0083618Y0220527D01*
X0087663Y0220527D01*
X0096406Y0211784D01*
X0096906Y0211284D01*
X0097581Y0210609D01*
X0098463Y0210244D01*
X0113198Y0210244D01*
X0113448Y0209642D01*
X0114938Y0208151D01*
X0116454Y0207523D01*
X0115983Y0207370D01*
X0115268Y0207006D01*
X0114618Y0206534D01*
X0114051Y0205966D01*
X0113579Y0205317D01*
X0113214Y0204602D01*
X0112966Y0203838D01*
X0112841Y0203045D01*
X0112841Y0203044D01*
X0117541Y0203044D01*
X0117541Y0202244D01*
X0112841Y0202244D01*
X0112841Y0202242D01*
X0112966Y0201450D01*
X0113214Y0200686D01*
X0113579Y0199971D01*
X0114051Y0199321D01*
X0114618Y0198754D01*
X0115268Y0198282D01*
X0115983Y0197917D01*
X0116454Y0197765D01*
X0114938Y0197137D01*
X0113448Y0195646D01*
X0112641Y0193698D01*
X0112641Y0191590D01*
X0113448Y0189642D01*
X0114938Y0188151D01*
X0116886Y0187344D01*
X0118995Y0187344D01*
X0120943Y0188151D01*
X0122434Y0189642D01*
X0122683Y0190244D01*
X0143418Y0190244D01*
X0144300Y0190609D01*
X0144975Y0191284D01*
X0145791Y0192100D02*
X0203072Y0192100D01*
X0202506Y0192898D02*
X0146589Y0192898D01*
X0147388Y0193697D02*
X0202506Y0193697D01*
X0202506Y0194495D02*
X0174455Y0194495D01*
X0175241Y0195294D02*
X0202506Y0195294D01*
X0201860Y0196092D02*
X0200668Y0196092D01*
X0200982Y0196891D02*
X0201062Y0196891D01*
X0205122Y0198488D02*
X0229268Y0198488D01*
X0229941Y0197689D02*
X0226355Y0197689D01*
X0226827Y0196891D02*
X0229941Y0196891D01*
X0229941Y0196092D02*
X0226852Y0196092D01*
X0226852Y0195294D02*
X0229941Y0195294D01*
X0229941Y0194495D02*
X0223687Y0194495D01*
X0223687Y0193697D02*
X0222887Y0193697D01*
X0222887Y0192898D02*
X0223687Y0192898D01*
X0223687Y0192100D02*
X0222887Y0192100D01*
X0222887Y0191301D02*
X0223687Y0191301D01*
X0225734Y0191301D02*
X0229941Y0191301D01*
X0229941Y0190503D02*
X0144044Y0190503D01*
X0142197Y0195294D02*
X0122580Y0195294D01*
X0121987Y0196092D02*
X0142995Y0196092D01*
X0143794Y0196891D02*
X0121189Y0196891D01*
X0120897Y0198488D02*
X0145391Y0198488D01*
X0146189Y0199287D02*
X0121796Y0199287D01*
X0122361Y0200085D02*
X0146988Y0200085D01*
X0147786Y0200884D02*
X0122731Y0200884D01*
X0122952Y0201682D02*
X0160641Y0201682D01*
X0160641Y0202481D02*
X0118341Y0202481D01*
X0117541Y0202481D02*
X0083865Y0202481D01*
X0083868Y0202508D02*
X0083868Y0202527D01*
X0077868Y0202527D01*
X0077868Y0196527D01*
X0077888Y0196527D01*
X0078719Y0196637D01*
X0079530Y0196854D01*
X0080305Y0197175D01*
X0081031Y0197594D01*
X0081697Y0198105D01*
X0082290Y0198698D01*
X0082801Y0199364D01*
X0083220Y0200091D01*
X0083542Y0200866D01*
X0083759Y0201676D01*
X0083868Y0202508D01*
X0083868Y0203327D02*
X0083868Y0203347D01*
X0083759Y0204179D01*
X0083542Y0204989D01*
X0083220Y0205764D01*
X0082801Y0206491D01*
X0082290Y0207156D01*
X0081697Y0207749D01*
X0081031Y0208260D01*
X0080305Y0208680D01*
X0079530Y0209001D01*
X0078719Y0209218D01*
X0077888Y0209327D01*
X0077868Y0209327D01*
X0077868Y0203327D01*
X0083868Y0203327D01*
X0083772Y0204078D02*
X0113044Y0204078D01*
X0112878Y0203279D02*
X0077868Y0203279D01*
X0077868Y0203327D02*
X0077868Y0202527D01*
X0077068Y0202527D01*
X0077068Y0196527D01*
X0077049Y0196527D01*
X0076217Y0196637D01*
X0075407Y0196854D01*
X0074631Y0197175D01*
X0073905Y0197594D01*
X0073239Y0198105D01*
X0072646Y0198698D01*
X0072135Y0199364D01*
X0071716Y0200091D01*
X0071395Y0200866D01*
X0071178Y0201676D01*
X0071068Y0202508D01*
X0071068Y0202527D01*
X0077068Y0202527D01*
X0077068Y0203327D01*
X0071068Y0203327D01*
X0071068Y0203347D01*
X0071178Y0204179D01*
X0071395Y0204989D01*
X0071716Y0205764D01*
X0072135Y0206491D01*
X0072646Y0207156D01*
X0073239Y0207749D01*
X0073905Y0208260D01*
X0074631Y0208680D01*
X0075407Y0209001D01*
X0076217Y0209218D01*
X0077049Y0209327D01*
X0077068Y0209327D01*
X0077068Y0203327D01*
X0077868Y0203327D01*
X0077868Y0204078D02*
X0077068Y0204078D01*
X0077068Y0204876D02*
X0077868Y0204876D01*
X0077868Y0205675D02*
X0077068Y0205675D01*
X0077068Y0206473D02*
X0077868Y0206473D01*
X0077868Y0207272D02*
X0077068Y0207272D01*
X0077068Y0208070D02*
X0077868Y0208070D01*
X0077868Y0208869D02*
X0077068Y0208869D01*
X0075088Y0208869D02*
X0049541Y0208869D01*
X0049541Y0209667D02*
X0113437Y0209667D01*
X0114220Y0208869D02*
X0079848Y0208869D01*
X0081279Y0208070D02*
X0115133Y0208070D01*
X0115790Y0207272D02*
X0082175Y0207272D01*
X0082811Y0206473D02*
X0114557Y0206473D01*
X0113839Y0205675D02*
X0083258Y0205675D01*
X0083572Y0204876D02*
X0113354Y0204876D01*
X0112929Y0201682D02*
X0083759Y0201682D01*
X0083546Y0200884D02*
X0113150Y0200884D01*
X0113521Y0200085D02*
X0083217Y0200085D01*
X0082742Y0199287D02*
X0114085Y0199287D01*
X0114984Y0198488D02*
X0082080Y0198488D01*
X0081155Y0197689D02*
X0116272Y0197689D01*
X0114692Y0196891D02*
X0079619Y0196891D01*
X0077868Y0196891D02*
X0077068Y0196891D01*
X0077068Y0197689D02*
X0077868Y0197689D01*
X0077868Y0198488D02*
X0077068Y0198488D01*
X0077068Y0199287D02*
X0077868Y0199287D01*
X0077868Y0200085D02*
X0077068Y0200085D01*
X0077068Y0200884D02*
X0077868Y0200884D01*
X0077868Y0201682D02*
X0077068Y0201682D01*
X0077068Y0202481D02*
X0077868Y0202481D01*
X0077068Y0203279D02*
X0049541Y0203279D01*
X0049541Y0202481D02*
X0071072Y0202481D01*
X0071177Y0201682D02*
X0049541Y0201682D01*
X0049541Y0200884D02*
X0071390Y0200884D01*
X0071719Y0200085D02*
X0049541Y0200085D01*
X0049541Y0199287D02*
X0072195Y0199287D01*
X0072856Y0198488D02*
X0049541Y0198488D01*
X0049541Y0197689D02*
X0073781Y0197689D01*
X0075317Y0196891D02*
X0049541Y0196891D01*
X0049541Y0196092D02*
X0113894Y0196092D01*
X0113302Y0195294D02*
X0049541Y0195294D01*
X0049541Y0194495D02*
X0112971Y0194495D01*
X0112641Y0193697D02*
X0049541Y0193697D01*
X0049541Y0192898D02*
X0112641Y0192898D01*
X0112641Y0192100D02*
X0049541Y0192100D01*
X0049541Y0191301D02*
X0112760Y0191301D01*
X0113091Y0190503D02*
X0049541Y0190503D01*
X0049541Y0189704D02*
X0113421Y0189704D01*
X0114183Y0188906D02*
X0079759Y0188906D01*
X0079530Y0189001D02*
X0078719Y0189218D01*
X0077888Y0189327D01*
X0077868Y0189327D01*
X0077868Y0183327D01*
X0083868Y0183327D01*
X0083868Y0183347D01*
X0083759Y0184179D01*
X0083542Y0184989D01*
X0083220Y0185764D01*
X0082801Y0186491D01*
X0082290Y0187156D01*
X0081697Y0187749D01*
X0081031Y0188260D01*
X0080305Y0188680D01*
X0079530Y0189001D01*
X0077868Y0188906D02*
X0077068Y0188906D01*
X0077068Y0189327D02*
X0077049Y0189327D01*
X0076217Y0189218D01*
X0075407Y0189001D01*
X0074631Y0188680D01*
X0073905Y0188260D01*
X0073239Y0187749D01*
X0072646Y0187156D01*
X0072135Y0186491D01*
X0071716Y0185764D01*
X0071395Y0184989D01*
X0071178Y0184179D01*
X0071068Y0183347D01*
X0071068Y0183327D01*
X0077068Y0183327D01*
X0077068Y0182527D01*
X0077868Y0182527D01*
X0077868Y0176527D01*
X0077888Y0176527D01*
X0078719Y0176637D01*
X0079530Y0176854D01*
X0080305Y0177175D01*
X0081031Y0177594D01*
X0081697Y0178105D01*
X0082290Y0178698D01*
X0082801Y0179364D01*
X0083220Y0180091D01*
X0083542Y0180866D01*
X0083759Y0181676D01*
X0083868Y0182508D01*
X0083868Y0182527D01*
X0077868Y0182527D01*
X0077868Y0183327D01*
X0077068Y0183327D01*
X0077068Y0189327D01*
X0077068Y0188107D02*
X0077868Y0188107D01*
X0077868Y0187309D02*
X0077068Y0187309D01*
X0077068Y0186510D02*
X0077868Y0186510D01*
X0077868Y0185712D02*
X0077068Y0185712D01*
X0077068Y0184913D02*
X0077868Y0184913D01*
X0077868Y0184115D02*
X0077068Y0184115D01*
X0077068Y0183316D02*
X0049541Y0183316D01*
X0049541Y0182518D02*
X0071068Y0182518D01*
X0071068Y0182527D02*
X0071068Y0182508D01*
X0071178Y0181676D01*
X0071395Y0180866D01*
X0071716Y0180091D01*
X0072135Y0179364D01*
X0072646Y0178698D01*
X0073239Y0178105D01*
X0073905Y0177594D01*
X0074631Y0177175D01*
X0075407Y0176854D01*
X0076217Y0176637D01*
X0077049Y0176527D01*
X0077068Y0176527D01*
X0077068Y0182527D01*
X0071068Y0182527D01*
X0071172Y0181719D02*
X0049541Y0181719D01*
X0049541Y0180921D02*
X0071380Y0180921D01*
X0071703Y0180122D02*
X0049541Y0180122D01*
X0049541Y0179324D02*
X0072166Y0179324D01*
X0072819Y0178525D02*
X0049541Y0178525D01*
X0049541Y0177727D02*
X0073733Y0177727D01*
X0075227Y0176928D02*
X0049541Y0176928D01*
X0049541Y0176130D02*
X0215598Y0176130D01*
X0216397Y0176928D02*
X0079709Y0176928D01*
X0081204Y0177727D02*
X0217195Y0177727D01*
X0217994Y0178525D02*
X0082117Y0178525D01*
X0082770Y0179324D02*
X0218792Y0179324D01*
X0219591Y0180122D02*
X0083234Y0180122D01*
X0083556Y0180921D02*
X0220389Y0180921D01*
X0221188Y0181719D02*
X0083764Y0181719D01*
X0083868Y0182518D02*
X0221986Y0182518D01*
X0222785Y0183316D02*
X0077868Y0183316D01*
X0077868Y0182518D02*
X0077068Y0182518D01*
X0077068Y0181719D02*
X0077868Y0181719D01*
X0077868Y0180921D02*
X0077068Y0180921D01*
X0077068Y0180122D02*
X0077868Y0180122D01*
X0077868Y0179324D02*
X0077068Y0179324D01*
X0077068Y0178525D02*
X0077868Y0178525D01*
X0077868Y0177727D02*
X0077068Y0177727D01*
X0077068Y0176928D02*
X0077868Y0176928D01*
X0083767Y0184115D02*
X0223583Y0184115D01*
X0224382Y0184913D02*
X0083562Y0184913D01*
X0083242Y0185712D02*
X0225180Y0185712D01*
X0225979Y0186510D02*
X0082786Y0186510D01*
X0082138Y0187309D02*
X0226777Y0187309D01*
X0227576Y0188107D02*
X0120838Y0188107D01*
X0121698Y0188906D02*
X0228374Y0188906D01*
X0229173Y0189704D02*
X0122460Y0189704D01*
X0115043Y0188107D02*
X0081230Y0188107D01*
X0075178Y0188906D02*
X0049541Y0188906D01*
X0049541Y0188107D02*
X0073706Y0188107D01*
X0072799Y0187309D02*
X0049541Y0187309D01*
X0049541Y0186510D02*
X0072151Y0186510D01*
X0071694Y0185712D02*
X0049541Y0185712D01*
X0049541Y0184913D02*
X0071375Y0184913D01*
X0071169Y0184115D02*
X0049541Y0184115D01*
X0049541Y0175331D02*
X0214800Y0175331D01*
X0214001Y0174533D02*
X0049541Y0174533D01*
X0049541Y0173734D02*
X0213203Y0173734D01*
X0212404Y0172936D02*
X0049541Y0172936D01*
X0049541Y0172137D02*
X0211606Y0172137D01*
X0210807Y0171339D02*
X0049541Y0171339D01*
X0049541Y0170540D02*
X0210009Y0170540D01*
X0209210Y0169742D02*
X0197586Y0169742D01*
X0198052Y0168943D02*
X0208412Y0168943D01*
X0208941Y0166644D02*
X0194287Y0166644D01*
X0198052Y0164152D02*
X0211620Y0164152D01*
X0210822Y0163353D02*
X0197393Y0163353D01*
X0191181Y0163353D02*
X0190700Y0163353D01*
X0187594Y0166644D02*
X0174393Y0166644D01*
X0171830Y0163353D02*
X0169420Y0163353D01*
X0170521Y0164152D02*
X0171031Y0164152D01*
X0167888Y0164152D02*
X0167088Y0164152D01*
X0167088Y0163353D02*
X0167888Y0163353D01*
X0167888Y0164951D02*
X0167088Y0164951D01*
X0167088Y0165749D02*
X0167888Y0165749D01*
X0167088Y0166548D02*
X0049541Y0166548D01*
X0049541Y0167346D02*
X0164119Y0167346D01*
X0164119Y0168145D02*
X0049541Y0168145D01*
X0049541Y0168943D02*
X0164343Y0168943D01*
X0165108Y0169742D02*
X0049541Y0169742D01*
X0049541Y0165749D02*
X0164119Y0165749D01*
X0164134Y0164951D02*
X0049541Y0164951D01*
X0049541Y0164152D02*
X0164455Y0164152D01*
X0165556Y0163353D02*
X0049541Y0163353D01*
X0049541Y0162555D02*
X0210023Y0162555D01*
X0209225Y0161756D02*
X0049541Y0161756D01*
X0049541Y0160958D02*
X0208426Y0160958D01*
X0207628Y0160159D02*
X0049541Y0160159D01*
X0049664Y0159361D02*
X0206829Y0159361D01*
X0206031Y0158562D02*
X0050080Y0158562D01*
X0051301Y0157764D02*
X0205232Y0157764D01*
X0204434Y0156965D02*
X0070426Y0156965D01*
X0071421Y0156167D02*
X0203635Y0156167D01*
X0202837Y0155368D02*
X0072220Y0155368D01*
X0072609Y0154570D02*
X0202038Y0154570D01*
X0204501Y0151376D02*
X0211374Y0151376D01*
X0211374Y0152174D02*
X0205300Y0152174D01*
X0206098Y0152973D02*
X0211374Y0152973D01*
X0211374Y0153771D02*
X0206897Y0153771D01*
X0207695Y0154570D02*
X0211374Y0154570D01*
X0211374Y0155368D02*
X0208494Y0155368D01*
X0209292Y0156167D02*
X0211635Y0156167D01*
X0211374Y0155905D02*
X0211374Y0138102D01*
X0210152Y0138102D01*
X0209215Y0137165D01*
X0209215Y0131902D01*
X0210028Y0131089D01*
X0209215Y0130275D01*
X0209215Y0125013D01*
X0210028Y0124199D01*
X0209215Y0123385D01*
X0209215Y0122754D01*
X0204659Y0122754D01*
X0202350Y0125063D01*
X0202350Y0147075D01*
X0203178Y0147075D01*
X0204115Y0148013D01*
X0204115Y0150990D01*
X0244611Y0191486D01*
X0244534Y0190998D01*
X0244534Y0190997D01*
X0249233Y0190997D01*
X0249233Y0190197D01*
X0244534Y0190197D01*
X0244534Y0190195D01*
X0244659Y0189402D01*
X0244907Y0188639D01*
X0245272Y0187924D01*
X0245743Y0187274D01*
X0246311Y0186706D01*
X0246961Y0186235D01*
X0247676Y0185870D01*
X0248147Y0185717D01*
X0246631Y0185090D01*
X0245140Y0183599D01*
X0244334Y0181651D01*
X0244334Y0179542D01*
X0245140Y0177594D01*
X0246631Y0176103D01*
X0247855Y0175597D01*
X0246631Y0175090D01*
X0245140Y0173599D01*
X0244334Y0171651D01*
X0244334Y0169542D01*
X0245140Y0167594D01*
X0246631Y0166103D01*
X0247855Y0165597D01*
X0246631Y0165090D01*
X0245140Y0163599D01*
X0244725Y0162597D01*
X0218065Y0162597D01*
X0211374Y0155905D01*
X0212434Y0156965D02*
X0210091Y0156965D01*
X0210889Y0157764D02*
X0213232Y0157764D01*
X0214031Y0158562D02*
X0211688Y0158562D01*
X0212486Y0159361D02*
X0214829Y0159361D01*
X0215628Y0160159D02*
X0213285Y0160159D01*
X0214083Y0160958D02*
X0216426Y0160958D01*
X0217225Y0161756D02*
X0214882Y0161756D01*
X0215680Y0162555D02*
X0218023Y0162555D01*
X0216479Y0163353D02*
X0245039Y0163353D01*
X0245694Y0164152D02*
X0217277Y0164152D01*
X0218076Y0164951D02*
X0246492Y0164951D01*
X0247487Y0165749D02*
X0218874Y0165749D01*
X0219673Y0166548D02*
X0246187Y0166548D01*
X0245389Y0167346D02*
X0220471Y0167346D01*
X0221270Y0168145D02*
X0244913Y0168145D01*
X0244582Y0168943D02*
X0222068Y0168943D01*
X0222867Y0169742D02*
X0244334Y0169742D01*
X0244334Y0170540D02*
X0223665Y0170540D01*
X0224464Y0171339D02*
X0244334Y0171339D01*
X0244535Y0172137D02*
X0225262Y0172137D01*
X0226061Y0172936D02*
X0244866Y0172936D01*
X0245276Y0173734D02*
X0226859Y0173734D01*
X0227658Y0174533D02*
X0246074Y0174533D01*
X0247214Y0175331D02*
X0228456Y0175331D01*
X0229255Y0176130D02*
X0246605Y0176130D01*
X0245807Y0176928D02*
X0230053Y0176928D01*
X0230852Y0177727D02*
X0245086Y0177727D01*
X0244755Y0178525D02*
X0231650Y0178525D01*
X0232449Y0179324D02*
X0244424Y0179324D01*
X0244334Y0180122D02*
X0233247Y0180122D01*
X0234046Y0180921D02*
X0244334Y0180921D01*
X0244362Y0181719D02*
X0234845Y0181719D01*
X0235643Y0182518D02*
X0244693Y0182518D01*
X0245023Y0183316D02*
X0236442Y0183316D01*
X0237240Y0184115D02*
X0245656Y0184115D01*
X0246455Y0184913D02*
X0238039Y0184913D01*
X0238837Y0185712D02*
X0248133Y0185712D01*
X0246581Y0186510D02*
X0239636Y0186510D01*
X0240434Y0187309D02*
X0245718Y0187309D01*
X0245178Y0188107D02*
X0241233Y0188107D01*
X0242031Y0188906D02*
X0244820Y0188906D01*
X0244611Y0189704D02*
X0242830Y0189704D01*
X0243628Y0190503D02*
X0249233Y0190503D01*
X0244582Y0191301D02*
X0244427Y0191301D01*
X0241964Y0194495D02*
X0233941Y0194495D01*
X0233941Y0193697D02*
X0241165Y0193697D01*
X0240367Y0192898D02*
X0233941Y0192898D01*
X0233941Y0192100D02*
X0239568Y0192100D01*
X0238770Y0191301D02*
X0233941Y0191301D01*
X0233941Y0190503D02*
X0237971Y0190503D01*
X0237173Y0189704D02*
X0233941Y0189704D01*
X0233941Y0188906D02*
X0236374Y0188906D01*
X0235576Y0188107D02*
X0233233Y0188107D01*
X0232434Y0187309D02*
X0234777Y0187309D01*
X0233979Y0186510D02*
X0231636Y0186510D01*
X0230837Y0185712D02*
X0233180Y0185712D01*
X0232382Y0184913D02*
X0230039Y0184913D01*
X0229240Y0184115D02*
X0231583Y0184115D01*
X0230785Y0183316D02*
X0228442Y0183316D01*
X0227643Y0182518D02*
X0229986Y0182518D01*
X0229188Y0181719D02*
X0226845Y0181719D01*
X0226046Y0180921D02*
X0228389Y0180921D01*
X0227591Y0180122D02*
X0225248Y0180122D01*
X0224449Y0179324D02*
X0226792Y0179324D01*
X0225994Y0178525D02*
X0223650Y0178525D01*
X0222852Y0177727D02*
X0225195Y0177727D01*
X0224397Y0176928D02*
X0222053Y0176928D01*
X0221255Y0176130D02*
X0223598Y0176130D01*
X0222800Y0175331D02*
X0220456Y0175331D01*
X0219658Y0174533D02*
X0222001Y0174533D01*
X0221203Y0173734D02*
X0218859Y0173734D01*
X0218061Y0172936D02*
X0220404Y0172936D01*
X0219606Y0172137D02*
X0217262Y0172137D01*
X0216464Y0171339D02*
X0218807Y0171339D01*
X0218009Y0170540D02*
X0215665Y0170540D01*
X0214867Y0169742D02*
X0217210Y0169742D01*
X0216412Y0168943D02*
X0214068Y0168943D01*
X0213270Y0168145D02*
X0215613Y0168145D01*
X0214814Y0167346D02*
X0212471Y0167346D01*
X0211673Y0166548D02*
X0214016Y0166548D01*
X0213217Y0165749D02*
X0210874Y0165749D01*
X0210076Y0164951D02*
X0212419Y0164951D01*
X0208941Y0166644D02*
X0231941Y0189644D01*
X0231941Y0198644D01*
X0228200Y0202384D01*
X0205878Y0202384D01*
X0208389Y0199287D02*
X0228469Y0199287D01*
X0227671Y0200085D02*
X0209188Y0200085D01*
X0208701Y0197689D02*
X0213243Y0197689D01*
X0212829Y0192898D02*
X0209249Y0192898D01*
X0208683Y0192100D02*
X0212829Y0192100D01*
X0219648Y0191301D02*
X0220840Y0191301D01*
X0222887Y0195294D02*
X0223687Y0195294D01*
X0223687Y0196092D02*
X0222887Y0196092D01*
X0222887Y0196891D02*
X0223687Y0196891D01*
X0223687Y0197689D02*
X0222887Y0197689D01*
X0220219Y0197689D02*
X0219945Y0197689D01*
X0226852Y0193697D02*
X0229941Y0193697D01*
X0229941Y0192898D02*
X0226852Y0192898D01*
X0226737Y0192100D02*
X0229941Y0192100D01*
X0233941Y0195294D02*
X0242762Y0195294D01*
X0243561Y0196092D02*
X0233941Y0196092D01*
X0233941Y0196891D02*
X0244359Y0196891D01*
X0245101Y0197689D02*
X0233941Y0197689D01*
X0233941Y0198488D02*
X0244770Y0198488D01*
X0244440Y0199287D02*
X0233941Y0199287D01*
X0233328Y0200085D02*
X0244334Y0200085D01*
X0244334Y0200884D02*
X0232529Y0200884D01*
X0231731Y0201682D02*
X0244347Y0201682D01*
X0244677Y0202481D02*
X0230932Y0202481D01*
X0230134Y0203279D02*
X0245008Y0203279D01*
X0245619Y0204078D02*
X0229335Y0204078D01*
X0233014Y0209667D02*
X0233150Y0209667D01*
X0235887Y0209667D02*
X0236687Y0209667D01*
X0236687Y0210466D02*
X0235887Y0210466D01*
X0235887Y0211264D02*
X0236687Y0211264D01*
X0236687Y0212063D02*
X0235887Y0212063D01*
X0239852Y0213660D02*
X0245201Y0213660D01*
X0246000Y0214458D02*
X0239852Y0214458D01*
X0239697Y0215257D02*
X0247035Y0215257D01*
X0244943Y0208070D02*
X0211459Y0208070D01*
X0211459Y0207272D02*
X0245463Y0207272D01*
X0246262Y0206473D02*
X0211459Y0206473D01*
X0211459Y0205675D02*
X0247667Y0205675D01*
X0246418Y0204876D02*
X0211371Y0204876D01*
X0223095Y0216055D02*
X0226609Y0216055D01*
X0227194Y0216854D02*
X0223509Y0216854D01*
X0223509Y0217652D02*
X0227194Y0217652D01*
X0227194Y0218451D02*
X0223509Y0218451D01*
X0223509Y0219249D02*
X0227194Y0219249D01*
X0227194Y0220048D02*
X0223509Y0220048D01*
X0223509Y0220846D02*
X0227194Y0220846D01*
X0227194Y0221645D02*
X0223509Y0221645D01*
X0223191Y0222443D02*
X0227194Y0222443D01*
X0227194Y0223242D02*
X0223189Y0223242D01*
X0223309Y0224040D02*
X0227194Y0224040D01*
X0227194Y0224839D02*
X0223309Y0224839D01*
X0223309Y0226436D02*
X0227194Y0226436D01*
X0227194Y0227234D02*
X0223309Y0227234D01*
X0223309Y0228033D02*
X0227194Y0228033D01*
X0227194Y0228831D02*
X0223136Y0228831D01*
X0220341Y0228831D02*
X0219541Y0228831D01*
X0219541Y0228033D02*
X0220341Y0228033D01*
X0220341Y0227234D02*
X0219541Y0227234D01*
X0219541Y0226436D02*
X0220341Y0226436D01*
X0220341Y0225637D02*
X0227194Y0225637D01*
X0227194Y0229630D02*
X0197052Y0229630D01*
X0197052Y0230428D02*
X0227194Y0230428D01*
X0227194Y0231227D02*
X0197052Y0231227D01*
X0196302Y0232025D02*
X0227194Y0232025D01*
X0224398Y0232824D02*
X0214888Y0232824D01*
X0214775Y0232794D02*
X0215131Y0232889D01*
X0215450Y0233074D01*
X0215711Y0233334D01*
X0215895Y0233653D01*
X0215991Y0234009D01*
X0215991Y0238244D01*
X0210741Y0238244D01*
X0210741Y0239044D01*
X0215991Y0239044D01*
X0215991Y0243278D01*
X0215895Y0243634D01*
X0215711Y0243953D01*
X0215450Y0244214D01*
X0215131Y0244398D01*
X0214775Y0244494D01*
X0210741Y0244494D01*
X0210741Y0239044D01*
X0209941Y0239044D01*
X0209941Y0244494D01*
X0205906Y0244494D01*
X0205550Y0244398D01*
X0205231Y0244214D01*
X0204970Y0243953D01*
X0204786Y0243634D01*
X0204691Y0243278D01*
X0204691Y0239044D01*
X0209941Y0239044D01*
X0209941Y0238244D01*
X0210741Y0238244D01*
X0210741Y0232794D01*
X0214775Y0232794D01*
X0215877Y0233622D02*
X0223691Y0233622D01*
X0223691Y0234421D02*
X0215991Y0234421D01*
X0215991Y0235220D02*
X0223691Y0235220D01*
X0223691Y0236018D02*
X0215991Y0236018D01*
X0215991Y0236817D02*
X0223691Y0236817D01*
X0223691Y0237615D02*
X0215991Y0237615D01*
X0215991Y0239212D02*
X0223691Y0239212D01*
X0223691Y0238414D02*
X0210741Y0238414D01*
X0210741Y0239212D02*
X0209941Y0239212D01*
X0209941Y0238414D02*
X0073925Y0238414D01*
X0073925Y0239212D02*
X0204691Y0239212D01*
X0204691Y0240011D02*
X0073925Y0240011D01*
X0073925Y0240809D02*
X0204691Y0240809D01*
X0204691Y0241608D02*
X0073925Y0241608D01*
X0073925Y0242406D02*
X0127205Y0242406D01*
X0125415Y0243205D02*
X0073925Y0243205D01*
X0073925Y0244003D02*
X0124617Y0244003D01*
X0123899Y0244802D02*
X0073925Y0244802D01*
X0073925Y0245600D02*
X0123568Y0245600D01*
X0123237Y0246399D02*
X0073925Y0246399D01*
X0073925Y0247197D02*
X0123112Y0247197D01*
X0123112Y0247996D02*
X0073925Y0247996D01*
X0073925Y0248794D02*
X0123112Y0248794D01*
X0123112Y0249593D02*
X0073925Y0249593D01*
X0073925Y0250391D02*
X0123112Y0250391D01*
X0123112Y0251190D02*
X0073925Y0251190D01*
X0073925Y0251988D02*
X0123112Y0251988D01*
X0123112Y0252787D02*
X0073925Y0252787D01*
X0073925Y0253585D02*
X0123112Y0253585D01*
X0123112Y0254384D02*
X0073925Y0254384D01*
X0073925Y0255182D02*
X0123112Y0255182D01*
X0123112Y0255981D02*
X0073925Y0255981D01*
X0073925Y0256779D02*
X0123112Y0256779D01*
X0123112Y0257578D02*
X0073925Y0257578D01*
X0073925Y0258376D02*
X0123112Y0258376D01*
X0123112Y0259175D02*
X0073925Y0259175D01*
X0073925Y0259973D02*
X0123077Y0259973D01*
X0122776Y0260772D02*
X0073925Y0260772D01*
X0073925Y0261570D02*
X0122038Y0261570D01*
X0082495Y0227234D02*
X0183029Y0227234D01*
X0183044Y0226436D02*
X0083159Y0226436D01*
X0083489Y0225637D02*
X0183487Y0225637D01*
X0183029Y0228033D02*
X0081696Y0228033D01*
X0080461Y0228831D02*
X0186194Y0228831D01*
X0186194Y0228033D02*
X0186994Y0228033D01*
X0186994Y0227234D02*
X0186194Y0227234D01*
X0186194Y0226436D02*
X0186994Y0226436D01*
X0186994Y0225637D02*
X0186194Y0225637D01*
X0189702Y0225637D02*
X0189897Y0225637D01*
X0190541Y0224839D02*
X0090140Y0224839D01*
X0090938Y0224040D02*
X0190541Y0224040D01*
X0190541Y0223242D02*
X0091737Y0223242D01*
X0092535Y0222443D02*
X0161077Y0222443D01*
X0160641Y0221645D02*
X0093334Y0221645D01*
X0094132Y0220846D02*
X0160641Y0220846D01*
X0160641Y0220048D02*
X0094931Y0220048D01*
X0095729Y0219249D02*
X0160641Y0219249D01*
X0160641Y0218451D02*
X0096528Y0218451D01*
X0097326Y0217652D02*
X0116183Y0217652D01*
X0114655Y0216854D02*
X0098125Y0216854D01*
X0098923Y0216055D02*
X0113857Y0216055D01*
X0113286Y0215257D02*
X0099722Y0215257D01*
X0096128Y0212063D02*
X0049541Y0212063D01*
X0049541Y0212861D02*
X0095329Y0212861D01*
X0094531Y0213660D02*
X0049541Y0213660D01*
X0049541Y0214458D02*
X0093732Y0214458D01*
X0092934Y0215257D02*
X0049541Y0215257D01*
X0049541Y0216055D02*
X0092135Y0216055D01*
X0091337Y0216854D02*
X0080052Y0216854D01*
X0081527Y0217652D02*
X0090538Y0217652D01*
X0089740Y0218451D02*
X0082326Y0218451D01*
X0083089Y0219249D02*
X0088941Y0219249D01*
X0088143Y0220048D02*
X0083419Y0220048D01*
X0074884Y0216854D02*
X0049541Y0216854D01*
X0049541Y0217652D02*
X0073409Y0217652D01*
X0072611Y0218451D02*
X0049541Y0218451D01*
X0049541Y0219249D02*
X0071848Y0219249D01*
X0071517Y0220048D02*
X0049541Y0220048D01*
X0049541Y0220846D02*
X0071186Y0220846D01*
X0070868Y0221645D02*
X0049541Y0221645D01*
X0049541Y0222443D02*
X0070868Y0222443D01*
X0070868Y0223242D02*
X0049541Y0223242D01*
X0049541Y0224040D02*
X0070868Y0224040D01*
X0071116Y0224839D02*
X0049541Y0224839D01*
X0049541Y0225637D02*
X0071447Y0225637D01*
X0071778Y0226436D02*
X0049541Y0226436D01*
X0049541Y0227234D02*
X0072442Y0227234D01*
X0073240Y0228033D02*
X0049541Y0228033D01*
X0049541Y0228831D02*
X0074476Y0228831D01*
X0073925Y0237615D02*
X0204691Y0237615D01*
X0204691Y0238244D02*
X0204691Y0234009D01*
X0204786Y0233653D01*
X0204970Y0233334D01*
X0205231Y0233074D01*
X0205550Y0232889D01*
X0205906Y0232794D01*
X0209941Y0232794D01*
X0209941Y0238244D01*
X0204691Y0238244D01*
X0204691Y0236817D02*
X0049541Y0236817D01*
X0049541Y0236018D02*
X0204691Y0236018D01*
X0204691Y0235220D02*
X0049541Y0235220D01*
X0049541Y0234421D02*
X0204691Y0234421D01*
X0204804Y0233622D02*
X0049541Y0233622D01*
X0049541Y0232824D02*
X0205794Y0232824D01*
X0209941Y0232824D02*
X0210741Y0232824D01*
X0210741Y0233622D02*
X0209941Y0233622D01*
X0209941Y0234421D02*
X0210741Y0234421D01*
X0210741Y0235220D02*
X0209941Y0235220D01*
X0209941Y0236018D02*
X0210741Y0236018D01*
X0210741Y0236817D02*
X0209941Y0236817D01*
X0209941Y0237615D02*
X0210741Y0237615D01*
X0210741Y0240011D02*
X0209941Y0240011D01*
X0209941Y0240809D02*
X0210741Y0240809D01*
X0210741Y0241608D02*
X0209941Y0241608D01*
X0209941Y0242406D02*
X0210741Y0242406D01*
X0210741Y0243205D02*
X0209941Y0243205D01*
X0209941Y0244003D02*
X0210741Y0244003D01*
X0215661Y0244003D02*
X0223937Y0244003D01*
X0223691Y0243205D02*
X0215991Y0243205D01*
X0215991Y0242406D02*
X0223691Y0242406D01*
X0223691Y0241608D02*
X0215991Y0241608D01*
X0215991Y0240809D02*
X0223691Y0240809D01*
X0223691Y0240011D02*
X0215991Y0240011D01*
X0204691Y0242406D02*
X0189148Y0242406D01*
X0190938Y0243205D02*
X0204691Y0243205D01*
X0205020Y0244003D02*
X0191737Y0244003D01*
X0192455Y0244802D02*
X0242429Y0244802D01*
X0242429Y0245600D02*
X0192786Y0245600D01*
X0193117Y0246399D02*
X0242429Y0246399D01*
X0242429Y0247197D02*
X0193241Y0247197D01*
X0193241Y0247996D02*
X0242429Y0247996D01*
X0242429Y0248794D02*
X0193241Y0248794D01*
X0193241Y0249593D02*
X0242429Y0249593D01*
X0242429Y0250391D02*
X0193241Y0250391D01*
X0193241Y0251190D02*
X0242429Y0251190D01*
X0242429Y0251988D02*
X0193241Y0251988D01*
X0193241Y0252787D02*
X0242429Y0252787D01*
X0242429Y0253585D02*
X0193241Y0253585D01*
X0193241Y0254384D02*
X0242429Y0254384D01*
X0242429Y0255182D02*
X0193241Y0255182D01*
X0193241Y0255981D02*
X0242429Y0255981D01*
X0242429Y0256779D02*
X0193241Y0256779D01*
X0193241Y0257578D02*
X0242429Y0257578D01*
X0242429Y0258376D02*
X0193241Y0258376D01*
X0193241Y0259175D02*
X0242429Y0259175D01*
X0242429Y0259973D02*
X0193277Y0259973D01*
X0193578Y0260772D02*
X0242429Y0260772D01*
X0242429Y0261570D02*
X0194316Y0261570D01*
X0190272Y0232025D02*
X0049541Y0232025D01*
X0049541Y0231227D02*
X0183167Y0231227D01*
X0183029Y0230428D02*
X0049541Y0230428D01*
X0049541Y0229630D02*
X0183029Y0229630D01*
X0186194Y0229630D02*
X0186994Y0229630D01*
X0186994Y0230428D02*
X0186194Y0230428D01*
X0186194Y0231227D02*
X0186994Y0231227D01*
X0197052Y0228831D02*
X0216746Y0228831D01*
X0216572Y0228033D02*
X0197052Y0228033D01*
X0197052Y0227234D02*
X0216572Y0227234D01*
X0216572Y0226436D02*
X0197052Y0226436D01*
X0196677Y0225637D02*
X0219541Y0225637D01*
X0216572Y0224839D02*
X0195341Y0224839D01*
X0195341Y0224040D02*
X0216572Y0224040D01*
X0216692Y0223242D02*
X0195341Y0223242D01*
X0195341Y0222443D02*
X0216690Y0222443D01*
X0216372Y0221645D02*
X0195341Y0221645D01*
X0190541Y0221645D02*
X0175241Y0221645D01*
X0174804Y0222443D02*
X0190541Y0222443D01*
X0190541Y0216055D02*
X0175241Y0216055D01*
X0175241Y0215257D02*
X0190541Y0215257D01*
X0190541Y0214458D02*
X0175241Y0214458D01*
X0174819Y0213660D02*
X0190541Y0213660D01*
X0190541Y0212861D02*
X0123241Y0212861D01*
X0123241Y0212063D02*
X0190541Y0212063D01*
X0190541Y0211264D02*
X0123106Y0211264D01*
X0122775Y0210466D02*
X0190541Y0210466D01*
X0190541Y0209667D02*
X0122444Y0209667D01*
X0121661Y0208869D02*
X0190541Y0208869D01*
X0190541Y0208070D02*
X0120748Y0208070D01*
X0120092Y0207272D02*
X0190541Y0207272D01*
X0190541Y0206473D02*
X0121324Y0206473D01*
X0122043Y0205675D02*
X0190541Y0205675D01*
X0190541Y0204876D02*
X0122527Y0204876D01*
X0122837Y0204078D02*
X0161512Y0204078D01*
X0160713Y0203279D02*
X0123004Y0203279D01*
X0119609Y0197689D02*
X0144592Y0197689D01*
X0148186Y0194495D02*
X0161426Y0194495D01*
X0160641Y0195294D02*
X0148985Y0195294D01*
X0149783Y0196092D02*
X0160641Y0196092D01*
X0175241Y0196092D02*
X0194552Y0196092D01*
X0194238Y0196891D02*
X0175241Y0196891D01*
X0175241Y0197689D02*
X0194238Y0197689D01*
X0194238Y0198488D02*
X0175241Y0198488D01*
X0175241Y0199287D02*
X0193573Y0199287D01*
X0192775Y0200085D02*
X0175241Y0200085D01*
X0175241Y0200884D02*
X0191976Y0200884D01*
X0191178Y0201682D02*
X0175241Y0201682D01*
X0175241Y0202481D02*
X0190688Y0202481D01*
X0190541Y0203279D02*
X0175168Y0203279D01*
X0174370Y0204078D02*
X0190541Y0204078D01*
X0202785Y0217652D02*
X0205097Y0217652D01*
X0205097Y0218451D02*
X0202785Y0218451D01*
X0202785Y0219249D02*
X0205097Y0219249D01*
X0205097Y0220048D02*
X0202785Y0220048D01*
X0202379Y0220846D02*
X0205502Y0220846D01*
X0212615Y0220846D02*
X0216372Y0220846D01*
X0231994Y0226436D02*
X0246299Y0226436D01*
X0245500Y0227234D02*
X0231994Y0227234D01*
X0231994Y0228033D02*
X0244959Y0228033D01*
X0244628Y0228831D02*
X0231994Y0228831D01*
X0231994Y0229630D02*
X0244334Y0229630D01*
X0244334Y0230428D02*
X0231994Y0230428D01*
X0231994Y0231227D02*
X0244334Y0231227D01*
X0244489Y0232025D02*
X0231994Y0232025D01*
X0234684Y0232824D02*
X0244820Y0232824D01*
X0245164Y0233622D02*
X0235391Y0233622D01*
X0235391Y0239212D02*
X0242429Y0239212D01*
X0242429Y0240011D02*
X0235391Y0240011D01*
X0235391Y0240809D02*
X0242429Y0240809D01*
X0242429Y0241608D02*
X0235391Y0241608D01*
X0235391Y0242406D02*
X0242429Y0242406D01*
X0242429Y0243205D02*
X0235391Y0243205D01*
X0235144Y0244003D02*
X0242429Y0244003D01*
X0259634Y0200597D02*
X0254681Y0195644D01*
X0245941Y0195644D01*
X0200941Y0150644D01*
X0200350Y0150644D01*
X0200350Y0124234D01*
X0203830Y0120754D01*
X0213374Y0120754D01*
X0213374Y0116077D01*
X0210200Y0112904D01*
X0204200Y0112904D01*
X0204200Y0101882D01*
X0204041Y0101144D01*
X0206200Y0104044D02*
X0206200Y0110904D01*
X0211029Y0110904D01*
X0215374Y0115248D01*
X0215374Y0116905D01*
X0215374Y0117186D01*
X0216595Y0117186D01*
X0217533Y0118123D01*
X0217533Y0123385D01*
X0216719Y0124199D01*
X0217533Y0125013D01*
X0217533Y0125384D01*
X0220632Y0125384D01*
X0220632Y0125146D01*
X0221569Y0124209D01*
X0226438Y0124209D01*
X0227375Y0125146D01*
X0227375Y0129621D01*
X0226438Y0130559D01*
X0225941Y0130559D01*
X0225941Y0140532D01*
X0226572Y0140532D01*
X0227509Y0141469D01*
X0227509Y0147125D01*
X0226991Y0147644D01*
X0227509Y0148162D01*
X0227509Y0148597D01*
X0237941Y0148597D01*
X0237941Y0101472D01*
X0235112Y0098644D01*
X0232052Y0098644D01*
X0232052Y0099275D01*
X0231115Y0100212D01*
X0225459Y0100212D01*
X0224941Y0099694D01*
X0224422Y0100212D01*
X0223594Y0100212D01*
X0223594Y0101469D01*
X0234271Y0112146D01*
X0234271Y0120469D01*
X0234706Y0120469D01*
X0235643Y0121406D01*
X0235643Y0125881D01*
X0234706Y0126819D01*
X0229837Y0126819D01*
X0228900Y0125881D01*
X0228900Y0121406D01*
X0229837Y0120469D01*
X0230271Y0120469D01*
X0230271Y0113803D01*
X0219594Y0103126D01*
X0219594Y0100212D01*
X0218766Y0100212D01*
X0217829Y0099275D01*
X0217829Y0098144D01*
X0209603Y0098144D01*
X0209103Y0098644D01*
X0209641Y0099181D01*
X0209641Y0103107D01*
X0208703Y0104044D01*
X0206200Y0104044D01*
X0206200Y0104264D02*
X0220732Y0104264D01*
X0221531Y0105062D02*
X0206200Y0105062D01*
X0206200Y0105861D02*
X0222329Y0105861D01*
X0223128Y0106659D02*
X0206200Y0106659D01*
X0206200Y0107458D02*
X0223926Y0107458D01*
X0224725Y0108256D02*
X0206200Y0108256D01*
X0206200Y0109055D02*
X0225523Y0109055D01*
X0226322Y0109853D02*
X0206200Y0109853D01*
X0206200Y0110652D02*
X0227120Y0110652D01*
X0227919Y0111450D02*
X0211576Y0111450D01*
X0212374Y0112249D02*
X0228717Y0112249D01*
X0229516Y0113047D02*
X0213173Y0113047D01*
X0213971Y0113846D02*
X0230271Y0113846D01*
X0230271Y0114644D02*
X0214770Y0114644D01*
X0215374Y0115443D02*
X0230271Y0115443D01*
X0230271Y0116241D02*
X0215374Y0116241D01*
X0215374Y0117040D02*
X0221665Y0117040D01*
X0221692Y0117024D02*
X0222048Y0116929D01*
X0223616Y0116929D01*
X0223616Y0119516D01*
X0224391Y0119516D01*
X0224391Y0116929D01*
X0225960Y0116929D01*
X0226316Y0117024D01*
X0226635Y0117209D01*
X0226896Y0117469D01*
X0227080Y0117788D01*
X0227175Y0118145D01*
X0227175Y0119516D01*
X0224391Y0119516D01*
X0224391Y0120291D01*
X0223616Y0120291D01*
X0223616Y0119516D01*
X0220832Y0119516D01*
X0220832Y0118145D01*
X0220927Y0117788D01*
X0221112Y0117469D01*
X0221372Y0117209D01*
X0221692Y0117024D01*
X0220914Y0117838D02*
X0217248Y0117838D01*
X0217533Y0118637D02*
X0220832Y0118637D01*
X0220832Y0119435D02*
X0217533Y0119435D01*
X0217533Y0120234D02*
X0223616Y0120234D01*
X0223616Y0120291D02*
X0220832Y0120291D01*
X0220832Y0121663D01*
X0220927Y0122019D01*
X0221112Y0122338D01*
X0221372Y0122599D01*
X0221692Y0122783D01*
X0222048Y0122878D01*
X0223616Y0122878D01*
X0223616Y0120291D01*
X0223616Y0121032D02*
X0224391Y0121032D01*
X0224391Y0120291D02*
X0224391Y0122878D01*
X0225960Y0122878D01*
X0226316Y0122783D01*
X0226635Y0122599D01*
X0226896Y0122338D01*
X0227080Y0122019D01*
X0227175Y0121663D01*
X0227175Y0120291D01*
X0224391Y0120291D01*
X0224391Y0120234D02*
X0230271Y0120234D01*
X0230271Y0119435D02*
X0227175Y0119435D01*
X0227175Y0118637D02*
X0230271Y0118637D01*
X0230271Y0117838D02*
X0227093Y0117838D01*
X0226343Y0117040D02*
X0230271Y0117040D01*
X0234271Y0117040D02*
X0237941Y0117040D01*
X0237941Y0117838D02*
X0234271Y0117838D01*
X0234271Y0118637D02*
X0237941Y0118637D01*
X0237941Y0119435D02*
X0234271Y0119435D01*
X0234271Y0120234D02*
X0237941Y0120234D01*
X0237941Y0121032D02*
X0235269Y0121032D01*
X0235643Y0121831D02*
X0237941Y0121831D01*
X0237941Y0122629D02*
X0235643Y0122629D01*
X0235643Y0123428D02*
X0237941Y0123428D01*
X0237941Y0124226D02*
X0235643Y0124226D01*
X0235643Y0125025D02*
X0237941Y0125025D01*
X0237941Y0125823D02*
X0235643Y0125823D01*
X0234902Y0126622D02*
X0237941Y0126622D01*
X0237941Y0127420D02*
X0227375Y0127420D01*
X0227375Y0126622D02*
X0229640Y0126622D01*
X0228900Y0125823D02*
X0227375Y0125823D01*
X0227254Y0125025D02*
X0228900Y0125025D01*
X0228900Y0124226D02*
X0226455Y0124226D01*
X0226582Y0122629D02*
X0228900Y0122629D01*
X0228900Y0121831D02*
X0227130Y0121831D01*
X0227175Y0121032D02*
X0229274Y0121032D01*
X0228900Y0123428D02*
X0217490Y0123428D01*
X0217533Y0122629D02*
X0221426Y0122629D01*
X0220877Y0121831D02*
X0217533Y0121831D01*
X0217533Y0121032D02*
X0220832Y0121032D01*
X0223616Y0121831D02*
X0224391Y0121831D01*
X0224391Y0122629D02*
X0223616Y0122629D01*
X0221552Y0124226D02*
X0216747Y0124226D01*
X0217533Y0125025D02*
X0220753Y0125025D01*
X0223941Y0127447D02*
X0224004Y0127384D01*
X0213634Y0127384D01*
X0213374Y0127644D01*
X0209215Y0127420D02*
X0202350Y0127420D01*
X0202350Y0126622D02*
X0209215Y0126622D01*
X0209215Y0125823D02*
X0202350Y0125823D01*
X0202388Y0125025D02*
X0209215Y0125025D01*
X0210001Y0124226D02*
X0203186Y0124226D01*
X0203985Y0123428D02*
X0209257Y0123428D01*
X0209215Y0128219D02*
X0202350Y0128219D01*
X0202350Y0129018D02*
X0209215Y0129018D01*
X0209215Y0129816D02*
X0202350Y0129816D01*
X0202350Y0130615D02*
X0209554Y0130615D01*
X0209704Y0131413D02*
X0202350Y0131413D01*
X0202350Y0132212D02*
X0209215Y0132212D01*
X0209215Y0133010D02*
X0202350Y0133010D01*
X0202350Y0133809D02*
X0209215Y0133809D01*
X0209215Y0134607D02*
X0202350Y0134607D01*
X0202350Y0135406D02*
X0209215Y0135406D01*
X0209215Y0136204D02*
X0202350Y0136204D01*
X0202350Y0137003D02*
X0209215Y0137003D01*
X0209851Y0137801D02*
X0202350Y0137801D01*
X0202350Y0138600D02*
X0211374Y0138600D01*
X0211374Y0139398D02*
X0202350Y0139398D01*
X0202350Y0140197D02*
X0211374Y0140197D01*
X0211374Y0140995D02*
X0202350Y0140995D01*
X0202350Y0141794D02*
X0211374Y0141794D01*
X0211374Y0142592D02*
X0202350Y0142592D01*
X0202350Y0143391D02*
X0211374Y0143391D01*
X0211374Y0144189D02*
X0202350Y0144189D01*
X0202350Y0144988D02*
X0211374Y0144988D01*
X0211374Y0145786D02*
X0202350Y0145786D01*
X0202350Y0146585D02*
X0211374Y0146585D01*
X0211374Y0147383D02*
X0203486Y0147383D01*
X0204115Y0148182D02*
X0211374Y0148182D01*
X0211374Y0148980D02*
X0204115Y0148980D01*
X0204115Y0149779D02*
X0211374Y0149779D01*
X0211374Y0150577D02*
X0204115Y0150577D01*
X0198350Y0146585D02*
X0194508Y0146585D01*
X0194508Y0145786D02*
X0198350Y0145786D01*
X0198350Y0144988D02*
X0194508Y0144988D01*
X0194508Y0144189D02*
X0198350Y0144189D01*
X0198350Y0143391D02*
X0194508Y0143391D01*
X0194508Y0142592D02*
X0198350Y0142592D01*
X0198350Y0141794D02*
X0194508Y0141794D01*
X0194508Y0140995D02*
X0198350Y0140995D01*
X0198350Y0140197D02*
X0194508Y0140197D01*
X0194508Y0139398D02*
X0198350Y0139398D01*
X0198350Y0138600D02*
X0194508Y0138600D01*
X0196030Y0137801D02*
X0198350Y0137801D01*
X0198350Y0137003D02*
X0196667Y0137003D01*
X0196667Y0136204D02*
X0198350Y0136204D01*
X0198350Y0135406D02*
X0196667Y0135406D01*
X0196667Y0134607D02*
X0198350Y0134607D01*
X0198350Y0133809D02*
X0196667Y0133809D01*
X0196667Y0133010D02*
X0198350Y0133010D01*
X0198350Y0132212D02*
X0196667Y0132212D01*
X0196177Y0131413D02*
X0198350Y0131413D01*
X0198350Y0130615D02*
X0196327Y0130615D01*
X0196667Y0129816D02*
X0198350Y0129816D01*
X0198350Y0129018D02*
X0196667Y0129018D01*
X0196667Y0128219D02*
X0198350Y0128219D01*
X0198350Y0127420D02*
X0196667Y0127420D01*
X0196667Y0126622D02*
X0198350Y0126622D01*
X0198350Y0125823D02*
X0196667Y0125823D01*
X0196667Y0125025D02*
X0198350Y0125025D01*
X0198350Y0124226D02*
X0195880Y0124226D01*
X0196624Y0123428D02*
X0198350Y0123428D01*
X0199127Y0122629D02*
X0196667Y0122629D01*
X0196667Y0121831D02*
X0199925Y0121831D01*
X0200724Y0121032D02*
X0196667Y0121032D01*
X0196667Y0120234D02*
X0201522Y0120234D01*
X0202321Y0119435D02*
X0196667Y0119435D01*
X0196667Y0118637D02*
X0209215Y0118637D01*
X0209499Y0117838D02*
X0196382Y0117838D01*
X0204200Y0112904D02*
X0178878Y0112904D01*
X0175506Y0113047D02*
X0162249Y0113047D01*
X0162249Y0113846D02*
X0167799Y0113846D01*
X0167238Y0114644D02*
X0162249Y0114644D01*
X0161948Y0115443D02*
X0167238Y0115443D01*
X0167238Y0116241D02*
X0153982Y0116241D01*
X0153982Y0115443D02*
X0155808Y0115443D01*
X0155506Y0114644D02*
X0153982Y0114644D01*
X0153421Y0113846D02*
X0155506Y0113846D01*
X0155506Y0113047D02*
X0142941Y0113047D01*
X0142941Y0112249D02*
X0155506Y0112249D01*
X0155506Y0111450D02*
X0142941Y0111450D01*
X0142941Y0110652D02*
X0155520Y0110652D01*
X0156319Y0109853D02*
X0143560Y0109853D01*
X0144358Y0109055D02*
X0159898Y0109055D01*
X0160697Y0108256D02*
X0145157Y0108256D01*
X0142694Y0105062D02*
X0130941Y0105062D01*
X0130941Y0104264D02*
X0143492Y0104264D01*
X0141895Y0105861D02*
X0130941Y0105861D01*
X0130941Y0106659D02*
X0141097Y0106659D01*
X0140298Y0107458D02*
X0130941Y0107458D01*
X0130941Y0108256D02*
X0139500Y0108256D01*
X0138941Y0109055D02*
X0130941Y0109055D01*
X0130941Y0109853D02*
X0138941Y0109853D01*
X0138941Y0110652D02*
X0130941Y0110652D01*
X0130941Y0111450D02*
X0138941Y0111450D01*
X0138941Y0112249D02*
X0130941Y0112249D01*
X0130941Y0113047D02*
X0138941Y0113047D01*
X0138941Y0113846D02*
X0131886Y0113846D01*
X0132509Y0114644D02*
X0138941Y0114644D01*
X0138941Y0115443D02*
X0132509Y0115443D01*
X0132509Y0116241D02*
X0138941Y0116241D01*
X0138941Y0117040D02*
X0132509Y0117040D01*
X0132509Y0117838D02*
X0138941Y0117838D01*
X0138941Y0118637D02*
X0132509Y0118637D01*
X0132509Y0119435D02*
X0138941Y0119435D01*
X0138941Y0120234D02*
X0132401Y0120234D01*
X0132068Y0121032D02*
X0138941Y0121032D01*
X0138941Y0121831D02*
X0132309Y0121831D01*
X0132309Y0122629D02*
X0138941Y0122629D01*
X0138941Y0123428D02*
X0132309Y0123428D01*
X0132309Y0125025D02*
X0138941Y0125025D01*
X0138941Y0125823D02*
X0132309Y0125823D01*
X0132234Y0126622D02*
X0138941Y0126622D01*
X0138941Y0127420D02*
X0131518Y0127420D01*
X0129341Y0124226D02*
X0138941Y0124226D01*
X0142941Y0124226D02*
X0148610Y0124226D01*
X0148610Y0123428D02*
X0142941Y0123428D01*
X0142941Y0122629D02*
X0148610Y0122629D01*
X0148610Y0121831D02*
X0142941Y0121831D01*
X0142941Y0121032D02*
X0148610Y0121032D01*
X0148610Y0120234D02*
X0142941Y0120234D01*
X0142941Y0119435D02*
X0147792Y0119435D01*
X0147238Y0118637D02*
X0142941Y0118637D01*
X0142941Y0117838D02*
X0147238Y0117838D01*
X0147238Y0117040D02*
X0142941Y0117040D01*
X0142941Y0116241D02*
X0147238Y0116241D01*
X0147238Y0115443D02*
X0142941Y0115443D01*
X0142941Y0114644D02*
X0147238Y0114644D01*
X0147799Y0113846D02*
X0142941Y0113846D01*
X0150610Y0116644D02*
X0150610Y0131628D01*
X0150594Y0131644D01*
X0150488Y0131750D01*
X0150488Y0143644D01*
X0146919Y0143391D02*
X0135516Y0143391D01*
X0136314Y0144189D02*
X0146919Y0144189D01*
X0146919Y0144988D02*
X0137113Y0144988D01*
X0137912Y0145786D02*
X0146919Y0145786D01*
X0147575Y0146585D02*
X0138710Y0146585D01*
X0139509Y0147383D02*
X0161373Y0147383D01*
X0161941Y0146585D02*
X0160023Y0146585D01*
X0159994Y0146615D02*
X0159540Y0146877D01*
X0159033Y0147012D01*
X0157793Y0147012D01*
X0157793Y0144044D01*
X0160762Y0144044D01*
X0160762Y0145284D01*
X0160626Y0145790D01*
X0160364Y0146244D01*
X0159994Y0146615D01*
X0160627Y0145786D02*
X0161941Y0145786D01*
X0161941Y0144988D02*
X0160762Y0144988D01*
X0160762Y0144189D02*
X0161941Y0144189D01*
X0161941Y0143391D02*
X0157793Y0143391D01*
X0157793Y0144189D02*
X0156993Y0144189D01*
X0156993Y0144988D02*
X0157793Y0144988D01*
X0157793Y0145786D02*
X0156993Y0145786D01*
X0156993Y0146585D02*
X0157793Y0146585D01*
X0154763Y0146585D02*
X0153401Y0146585D01*
X0154056Y0145786D02*
X0154160Y0145786D01*
X0154081Y0141794D02*
X0154056Y0141794D01*
X0153693Y0140995D02*
X0154471Y0140995D01*
X0152895Y0140197D02*
X0161402Y0140197D01*
X0161941Y0140995D02*
X0160316Y0140995D01*
X0160706Y0141794D02*
X0161941Y0141794D01*
X0161941Y0142592D02*
X0160762Y0142592D01*
X0157793Y0142592D02*
X0156993Y0142592D01*
X0156993Y0141794D02*
X0157793Y0141794D01*
X0157793Y0140995D02*
X0156993Y0140995D01*
X0160771Y0139398D02*
X0152488Y0139398D01*
X0152488Y0138600D02*
X0160440Y0138600D01*
X0160341Y0137801D02*
X0152488Y0137801D01*
X0152488Y0137003D02*
X0160341Y0137003D01*
X0159673Y0136204D02*
X0152488Y0136204D01*
X0152488Y0135406D02*
X0158874Y0135406D01*
X0157941Y0131644D02*
X0163941Y0137644D01*
X0163941Y0147644D01*
X0160941Y0150644D01*
X0139941Y0150644D01*
X0134287Y0144990D01*
X0128941Y0144990D01*
X0125372Y0144988D02*
X0073163Y0144988D01*
X0073163Y0145786D02*
X0125372Y0145786D01*
X0125372Y0146585D02*
X0073163Y0146585D01*
X0073163Y0147383D02*
X0125372Y0147383D01*
X0125736Y0148182D02*
X0073163Y0148182D01*
X0073163Y0148980D02*
X0135449Y0148980D01*
X0134650Y0148182D02*
X0132146Y0148182D01*
X0132509Y0147383D02*
X0133852Y0147383D01*
X0136247Y0149779D02*
X0073163Y0149779D01*
X0073163Y0150577D02*
X0137046Y0150577D01*
X0137844Y0151376D02*
X0073163Y0151376D01*
X0073163Y0152174D02*
X0138643Y0152174D01*
X0140307Y0148182D02*
X0160574Y0148182D01*
X0163836Y0150577D02*
X0189892Y0150577D01*
X0189892Y0149779D02*
X0164634Y0149779D01*
X0165433Y0148980D02*
X0189892Y0148980D01*
X0189892Y0148182D02*
X0165941Y0148182D01*
X0165941Y0147383D02*
X0190508Y0147383D01*
X0190508Y0146585D02*
X0180023Y0146585D01*
X0180627Y0145786D02*
X0190508Y0145786D01*
X0190508Y0144988D02*
X0180762Y0144988D01*
X0180762Y0144189D02*
X0190508Y0144189D01*
X0190508Y0143391D02*
X0177793Y0143391D01*
X0177793Y0144189D02*
X0176993Y0144189D01*
X0176993Y0144988D02*
X0177793Y0144988D01*
X0177793Y0145786D02*
X0176993Y0145786D01*
X0176993Y0146585D02*
X0177793Y0146585D01*
X0174763Y0146585D02*
X0173401Y0146585D01*
X0174056Y0145786D02*
X0174160Y0145786D01*
X0174081Y0141794D02*
X0174056Y0141794D01*
X0173693Y0140995D02*
X0174471Y0140995D01*
X0172895Y0140197D02*
X0181402Y0140197D01*
X0180771Y0139398D02*
X0172594Y0139398D01*
X0172594Y0138600D02*
X0180440Y0138600D01*
X0180341Y0137801D02*
X0172594Y0137801D01*
X0172594Y0137003D02*
X0180341Y0137003D01*
X0179673Y0136204D02*
X0172594Y0136204D01*
X0172594Y0135406D02*
X0178874Y0135406D01*
X0177941Y0131644D02*
X0183941Y0137644D01*
X0183941Y0130644D01*
X0186941Y0127644D01*
X0192508Y0127644D01*
X0188349Y0129816D02*
X0187597Y0129816D01*
X0186798Y0130615D02*
X0188688Y0130615D01*
X0188838Y0131413D02*
X0186000Y0131413D01*
X0185941Y0132212D02*
X0188349Y0132212D01*
X0188349Y0133010D02*
X0185941Y0133010D01*
X0185941Y0133809D02*
X0188349Y0133809D01*
X0188349Y0134607D02*
X0185995Y0134607D01*
X0186794Y0135406D02*
X0188349Y0135406D01*
X0188349Y0136204D02*
X0187241Y0136204D01*
X0187541Y0137003D02*
X0188349Y0137003D01*
X0188985Y0137801D02*
X0187541Y0137801D01*
X0187441Y0138600D02*
X0190508Y0138600D01*
X0190508Y0139398D02*
X0187111Y0139398D01*
X0186479Y0140197D02*
X0190508Y0140197D01*
X0190508Y0140995D02*
X0185257Y0140995D01*
X0182624Y0140995D02*
X0180316Y0140995D01*
X0180706Y0141794D02*
X0190508Y0141794D01*
X0190508Y0142592D02*
X0180762Y0142592D01*
X0177793Y0142592D02*
X0176993Y0142592D01*
X0176993Y0141794D02*
X0177793Y0141794D01*
X0177793Y0140995D02*
X0176993Y0140995D01*
X0170594Y0143537D02*
X0170488Y0143644D01*
X0170594Y0143537D02*
X0170594Y0131644D01*
X0170610Y0131628D01*
X0170610Y0116644D01*
X0167238Y0117040D02*
X0153982Y0117040D01*
X0153982Y0117838D02*
X0156097Y0117838D01*
X0155986Y0117950D02*
X0156246Y0117689D01*
X0156566Y0117505D01*
X0156922Y0117409D01*
X0158490Y0117409D01*
X0158490Y0119996D01*
X0159265Y0119996D01*
X0159265Y0117409D01*
X0160834Y0117409D01*
X0161190Y0117505D01*
X0161509Y0117689D01*
X0161770Y0117950D01*
X0161954Y0118269D01*
X0162049Y0118625D01*
X0162049Y0119997D01*
X0159265Y0119997D01*
X0159265Y0120771D01*
X0162049Y0120771D01*
X0162049Y0122143D01*
X0161954Y0122499D01*
X0161770Y0122818D01*
X0161509Y0123079D01*
X0161190Y0123263D01*
X0160834Y0123359D01*
X0159265Y0123359D01*
X0159265Y0120771D01*
X0158490Y0120771D01*
X0158490Y0119997D01*
X0155706Y0119997D01*
X0155706Y0118625D01*
X0155801Y0118269D01*
X0155986Y0117950D01*
X0155706Y0118637D02*
X0153982Y0118637D01*
X0153428Y0119435D02*
X0155706Y0119435D01*
X0155706Y0120771D02*
X0155706Y0122143D01*
X0155801Y0122499D01*
X0155986Y0122818D01*
X0156246Y0123079D01*
X0156566Y0123263D01*
X0156922Y0123359D01*
X0158490Y0123359D01*
X0158490Y0120771D01*
X0155706Y0120771D01*
X0155706Y0121032D02*
X0152610Y0121032D01*
X0152610Y0120234D02*
X0158490Y0120234D01*
X0159265Y0120234D02*
X0168610Y0120234D01*
X0168610Y0121032D02*
X0162049Y0121032D01*
X0162049Y0121831D02*
X0168610Y0121831D01*
X0168610Y0122629D02*
X0161879Y0122629D01*
X0159265Y0122629D02*
X0158490Y0122629D01*
X0158490Y0121831D02*
X0159265Y0121831D01*
X0159265Y0121032D02*
X0158490Y0121032D01*
X0158490Y0119435D02*
X0159265Y0119435D01*
X0159265Y0118637D02*
X0158490Y0118637D01*
X0158490Y0117838D02*
X0159265Y0117838D01*
X0161658Y0117838D02*
X0167238Y0117838D01*
X0167238Y0118637D02*
X0162049Y0118637D01*
X0162049Y0119435D02*
X0167792Y0119435D01*
X0168610Y0123428D02*
X0152610Y0123428D01*
X0152610Y0124226D02*
X0168610Y0124226D01*
X0168610Y0125025D02*
X0152610Y0125025D01*
X0152610Y0125823D02*
X0168610Y0125823D01*
X0168610Y0126622D02*
X0152610Y0126622D01*
X0152610Y0127420D02*
X0168610Y0127420D01*
X0167622Y0128219D02*
X0160259Y0128219D01*
X0161052Y0129018D02*
X0166829Y0129018D01*
X0166829Y0129816D02*
X0161052Y0129816D01*
X0161052Y0130615D02*
X0166829Y0130615D01*
X0166829Y0131413D02*
X0161052Y0131413D01*
X0161337Y0132212D02*
X0166829Y0132212D01*
X0166829Y0133010D02*
X0162135Y0133010D01*
X0162934Y0133809D02*
X0166829Y0133809D01*
X0167161Y0134607D02*
X0165995Y0134607D01*
X0166794Y0135406D02*
X0168594Y0135406D01*
X0168594Y0136204D02*
X0167241Y0136204D01*
X0167541Y0137003D02*
X0168594Y0137003D01*
X0168594Y0137801D02*
X0167541Y0137801D01*
X0167441Y0138600D02*
X0168594Y0138600D01*
X0168594Y0139398D02*
X0167111Y0139398D01*
X0166479Y0140197D02*
X0168081Y0140197D01*
X0167283Y0140995D02*
X0165941Y0140995D01*
X0165941Y0141794D02*
X0166919Y0141794D01*
X0166919Y0142592D02*
X0165941Y0142592D01*
X0165941Y0143391D02*
X0166919Y0143391D01*
X0166919Y0144189D02*
X0165941Y0144189D01*
X0165941Y0144988D02*
X0166919Y0144988D01*
X0166919Y0145786D02*
X0165941Y0145786D01*
X0165941Y0146585D02*
X0167575Y0146585D01*
X0163037Y0151376D02*
X0189892Y0151376D01*
X0189892Y0152174D02*
X0162238Y0152174D01*
X0146919Y0142592D02*
X0132509Y0142592D01*
X0132141Y0141794D02*
X0146919Y0141794D01*
X0147283Y0140995D02*
X0132509Y0140995D01*
X0132509Y0136204D02*
X0136552Y0136204D01*
X0137350Y0135406D02*
X0132445Y0135406D01*
X0131647Y0134607D02*
X0138149Y0134607D01*
X0141410Y0137003D02*
X0148488Y0137003D01*
X0148488Y0137801D02*
X0140612Y0137801D01*
X0139813Y0138600D02*
X0148488Y0138600D01*
X0148488Y0139398D02*
X0139015Y0139398D01*
X0138216Y0140197D02*
X0148081Y0140197D01*
X0148488Y0136204D02*
X0142209Y0136204D01*
X0142941Y0135406D02*
X0148488Y0135406D01*
X0147161Y0134607D02*
X0142941Y0134607D01*
X0142941Y0133809D02*
X0146829Y0133809D01*
X0146829Y0133010D02*
X0142941Y0133010D01*
X0142941Y0132212D02*
X0146829Y0132212D01*
X0146829Y0131413D02*
X0142941Y0131413D01*
X0142941Y0130615D02*
X0146829Y0130615D01*
X0146829Y0129816D02*
X0142941Y0129816D01*
X0142941Y0129018D02*
X0146829Y0129018D01*
X0147622Y0128219D02*
X0142941Y0128219D01*
X0142941Y0127420D02*
X0148610Y0127420D01*
X0148610Y0126622D02*
X0142941Y0126622D01*
X0142941Y0125823D02*
X0148610Y0125823D01*
X0148610Y0125025D02*
X0142941Y0125025D01*
X0152610Y0122629D02*
X0155877Y0122629D01*
X0155706Y0121831D02*
X0152610Y0121831D01*
X0153566Y0128219D02*
X0154315Y0128219D01*
X0157287Y0131644D02*
X0157941Y0131644D01*
X0172610Y0127420D02*
X0184336Y0127420D01*
X0185134Y0126622D02*
X0172610Y0126622D01*
X0172610Y0125823D02*
X0185933Y0125823D01*
X0188349Y0125025D02*
X0172610Y0125025D01*
X0172610Y0124226D02*
X0189135Y0124226D01*
X0188391Y0123428D02*
X0172610Y0123428D01*
X0172610Y0122629D02*
X0175877Y0122629D01*
X0175801Y0122499D02*
X0175706Y0122143D01*
X0175706Y0120771D01*
X0178490Y0120771D01*
X0178490Y0119997D01*
X0175706Y0119997D01*
X0175706Y0118625D01*
X0175801Y0118269D01*
X0175986Y0117950D01*
X0176246Y0117689D01*
X0176566Y0117505D01*
X0176922Y0117409D01*
X0178490Y0117409D01*
X0178490Y0119996D01*
X0179265Y0119996D01*
X0179265Y0117409D01*
X0180834Y0117409D01*
X0181190Y0117505D01*
X0181509Y0117689D01*
X0181770Y0117950D01*
X0181954Y0118269D01*
X0182049Y0118625D01*
X0182049Y0119997D01*
X0179265Y0119997D01*
X0179265Y0120771D01*
X0182049Y0120771D01*
X0182049Y0122143D01*
X0181954Y0122499D01*
X0181770Y0122818D01*
X0181509Y0123079D01*
X0181190Y0123263D01*
X0180834Y0123359D01*
X0179265Y0123359D01*
X0179265Y0120771D01*
X0178490Y0120771D01*
X0178490Y0123359D01*
X0176922Y0123359D01*
X0176566Y0123263D01*
X0176246Y0123079D01*
X0175986Y0122818D01*
X0175801Y0122499D01*
X0175706Y0121831D02*
X0172610Y0121831D01*
X0172610Y0121032D02*
X0175706Y0121032D01*
X0175706Y0119435D02*
X0173428Y0119435D01*
X0173982Y0118637D02*
X0175706Y0118637D01*
X0176097Y0117838D02*
X0173982Y0117838D01*
X0173982Y0117040D02*
X0211374Y0117040D01*
X0210710Y0116241D02*
X0173982Y0116241D01*
X0173982Y0115443D02*
X0175808Y0115443D01*
X0175506Y0114644D02*
X0173982Y0114644D01*
X0173421Y0113846D02*
X0175506Y0113846D01*
X0175506Y0112249D02*
X0162361Y0112249D01*
X0163159Y0111450D02*
X0175506Y0111450D01*
X0175520Y0110652D02*
X0163958Y0110652D01*
X0164756Y0109853D02*
X0176319Y0109853D01*
X0181436Y0109853D02*
X0202200Y0109853D01*
X0202200Y0109055D02*
X0189358Y0109055D01*
X0190157Y0108256D02*
X0202200Y0108256D01*
X0202200Y0107458D02*
X0190955Y0107458D01*
X0191754Y0106659D02*
X0202200Y0106659D01*
X0202200Y0105861D02*
X0192552Y0105861D01*
X0193351Y0105062D02*
X0202200Y0105062D01*
X0202200Y0104264D02*
X0193941Y0104264D01*
X0193941Y0103465D02*
X0198799Y0103465D01*
X0198441Y0102667D02*
X0193941Y0102667D01*
X0193941Y0101868D02*
X0198441Y0101868D01*
X0198441Y0101070D02*
X0193941Y0101070D01*
X0193941Y0100271D02*
X0198441Y0100271D01*
X0198441Y0099473D02*
X0193941Y0099473D01*
X0193941Y0098674D02*
X0198948Y0098674D01*
X0198441Y0097876D02*
X0193941Y0097876D01*
X0193941Y0097077D02*
X0198441Y0097077D01*
X0198441Y0096279D02*
X0193941Y0096279D01*
X0193941Y0095480D02*
X0198441Y0095480D01*
X0198441Y0094682D02*
X0193941Y0094682D01*
X0193941Y0093883D02*
X0198739Y0093883D01*
X0198441Y0093084D02*
X0193941Y0093084D01*
X0193941Y0092286D02*
X0198441Y0092286D01*
X0198441Y0091487D02*
X0193941Y0091487D01*
X0193941Y0090689D02*
X0198441Y0090689D01*
X0198441Y0089890D02*
X0194522Y0089890D01*
X0195321Y0089092D02*
X0198530Y0089092D01*
X0198628Y0088293D02*
X0196119Y0088293D01*
X0193657Y0085099D02*
X0185441Y0085099D01*
X0185441Y0084301D02*
X0194455Y0084301D01*
X0192960Y0082704D02*
X0244770Y0082704D01*
X0245101Y0083502D02*
X0208962Y0083502D01*
X0204438Y0086644D02*
X0204041Y0086144D01*
X0199119Y0083502D02*
X0184762Y0083502D01*
X0182624Y0082704D02*
X0188921Y0082704D01*
X0185441Y0085898D02*
X0192858Y0085898D01*
X0192060Y0086696D02*
X0185441Y0086696D01*
X0185441Y0087495D02*
X0191261Y0087495D01*
X0190463Y0088293D02*
X0185254Y0088293D01*
X0185352Y0089092D02*
X0189941Y0089092D01*
X0189941Y0089890D02*
X0185441Y0089890D01*
X0185441Y0090689D02*
X0189941Y0090689D01*
X0189941Y0091487D02*
X0185441Y0091487D01*
X0185441Y0092286D02*
X0189941Y0092286D01*
X0189941Y0093084D02*
X0185441Y0093084D01*
X0185143Y0093883D02*
X0189941Y0093883D01*
X0189941Y0094682D02*
X0185441Y0094682D01*
X0185441Y0095480D02*
X0189941Y0095480D01*
X0189941Y0096279D02*
X0185441Y0096279D01*
X0185441Y0097077D02*
X0189941Y0097077D01*
X0189941Y0097876D02*
X0185441Y0097876D01*
X0184873Y0098674D02*
X0189941Y0098674D01*
X0189941Y0099473D02*
X0185191Y0099473D01*
X0185241Y0100271D02*
X0189941Y0100271D01*
X0189941Y0101070D02*
X0180091Y0101070D01*
X0180091Y0101868D02*
X0179591Y0101868D01*
X0179591Y0102667D02*
X0180091Y0102667D01*
X0180091Y0103465D02*
X0179591Y0103465D01*
X0184799Y0103465D02*
X0189291Y0103465D01*
X0189941Y0102667D02*
X0185230Y0102667D01*
X0185241Y0101868D02*
X0189941Y0101868D01*
X0182235Y0110652D02*
X0202200Y0110652D01*
X0209911Y0115443D02*
X0181948Y0115443D01*
X0181658Y0117838D02*
X0188633Y0117838D01*
X0188349Y0118637D02*
X0182049Y0118637D01*
X0182049Y0119435D02*
X0188349Y0119435D01*
X0188349Y0120234D02*
X0179265Y0120234D01*
X0178490Y0120234D02*
X0172610Y0120234D01*
X0178490Y0121032D02*
X0179265Y0121032D01*
X0179265Y0121831D02*
X0178490Y0121831D01*
X0178490Y0122629D02*
X0179265Y0122629D01*
X0181879Y0122629D02*
X0188349Y0122629D01*
X0188349Y0121831D02*
X0182049Y0121831D01*
X0182049Y0121032D02*
X0188349Y0121032D01*
X0183537Y0128219D02*
X0180259Y0128219D01*
X0181052Y0129018D02*
X0182738Y0129018D01*
X0181941Y0129816D02*
X0181052Y0129816D01*
X0181052Y0130615D02*
X0181941Y0130615D01*
X0181941Y0131413D02*
X0181052Y0131413D01*
X0181337Y0132212D02*
X0181941Y0132212D01*
X0177941Y0131644D02*
X0177287Y0131644D01*
X0174315Y0128219D02*
X0173566Y0128219D01*
X0178490Y0119435D02*
X0179265Y0119435D01*
X0179265Y0118637D02*
X0178490Y0118637D01*
X0178490Y0117838D02*
X0179265Y0117838D01*
X0164137Y0107644D02*
X0158878Y0112904D01*
X0158955Y0107458D02*
X0161495Y0107458D01*
X0143808Y0101868D02*
X0138459Y0101868D01*
X0139052Y0101070D02*
X0143104Y0101070D01*
X0143104Y0096279D02*
X0139052Y0096279D01*
X0138520Y0095480D02*
X0143527Y0095480D01*
X0143214Y0087495D02*
X0138833Y0087495D01*
X0132427Y0081107D02*
X0131454Y0081107D01*
X0132105Y0080308D02*
X0158777Y0080308D01*
X0158941Y0077644D02*
X0131941Y0077644D01*
X0128594Y0080990D01*
X0128594Y0084644D01*
X0128594Y0098644D01*
X0128941Y0098990D01*
X0128941Y0117297D01*
X0128594Y0117644D01*
X0125481Y0120234D02*
X0107539Y0120234D01*
X0107208Y0121032D02*
X0125813Y0121032D01*
X0131766Y0101868D02*
X0132115Y0101868D01*
X0150514Y0088293D02*
X0159178Y0088293D01*
X0166829Y0082704D02*
X0177258Y0082704D01*
X0176459Y0081905D02*
X0166031Y0081905D01*
X0165232Y0081107D02*
X0176372Y0081107D01*
X0176372Y0080308D02*
X0164434Y0080308D01*
X0163635Y0079510D02*
X0176372Y0079510D01*
X0176372Y0078711D02*
X0162837Y0078711D01*
X0162038Y0077913D02*
X0176372Y0077913D01*
X0176372Y0077114D02*
X0161240Y0077114D01*
X0160441Y0076316D02*
X0176372Y0076316D01*
X0176572Y0073920D02*
X0152625Y0073920D01*
X0151256Y0073920D02*
X0141407Y0073920D01*
X0142052Y0073122D02*
X0149767Y0073122D01*
X0151941Y0070644D02*
X0138287Y0070644D01*
X0142052Y0068331D02*
X0149602Y0068331D01*
X0150858Y0067532D02*
X0141572Y0067532D01*
X0135002Y0067532D02*
X0134879Y0067532D01*
X0134714Y0073920D02*
X0135167Y0073920D01*
X0128309Y0067532D02*
X0124136Y0067532D01*
X0124934Y0068331D02*
X0127829Y0068331D01*
X0112132Y0067532D02*
X0049541Y0067532D01*
X0049541Y0066734D02*
X0246001Y0066734D01*
X0245203Y0067532D02*
X0153023Y0067532D01*
X0154279Y0068331D02*
X0244835Y0068331D01*
X0244505Y0069129D02*
X0182886Y0069129D01*
X0182769Y0069012D02*
X0183029Y0069272D01*
X0183214Y0069592D01*
X0183309Y0069948D01*
X0183309Y0071897D01*
X0180341Y0071897D01*
X0180341Y0068732D01*
X0182093Y0068732D01*
X0182450Y0068827D01*
X0182769Y0069012D01*
X0183304Y0069928D02*
X0244334Y0069928D01*
X0244334Y0070726D02*
X0183309Y0070726D01*
X0183309Y0071525D02*
X0244334Y0071525D01*
X0244612Y0072323D02*
X0180341Y0072323D01*
X0180341Y0071525D02*
X0179541Y0071525D01*
X0179541Y0071897D02*
X0179541Y0068732D01*
X0177788Y0068732D01*
X0177432Y0068827D01*
X0177113Y0069012D01*
X0176852Y0069272D01*
X0176668Y0069592D01*
X0176572Y0069948D01*
X0176572Y0071897D01*
X0179541Y0071897D01*
X0179541Y0072323D02*
X0154805Y0072323D01*
X0155136Y0071525D02*
X0176572Y0071525D01*
X0176572Y0070726D02*
X0155230Y0070726D01*
X0155204Y0069928D02*
X0176577Y0069928D01*
X0176995Y0069129D02*
X0154873Y0069129D01*
X0154114Y0073122D02*
X0176572Y0073122D01*
X0179541Y0070726D02*
X0180341Y0070726D01*
X0180341Y0069928D02*
X0179541Y0069928D01*
X0179541Y0069129D02*
X0180341Y0069129D01*
X0183309Y0073122D02*
X0244943Y0073122D01*
X0245462Y0073920D02*
X0183309Y0073920D01*
X0183290Y0074719D02*
X0246260Y0074719D01*
X0246419Y0076316D02*
X0192313Y0076316D01*
X0193502Y0077114D02*
X0245620Y0077114D01*
X0245009Y0077913D02*
X0194120Y0077913D01*
X0194451Y0078711D02*
X0244678Y0078711D01*
X0244347Y0079510D02*
X0194541Y0079510D01*
X0194541Y0080308D02*
X0244334Y0080308D01*
X0244334Y0081107D02*
X0194231Y0081107D01*
X0193770Y0081905D02*
X0244439Y0081905D01*
X0247664Y0075517D02*
X0182864Y0075517D01*
X0183509Y0076316D02*
X0189568Y0076316D01*
X0188379Y0077114D02*
X0183509Y0077114D01*
X0179941Y0078990D02*
X0179287Y0079644D01*
X0174919Y0083502D02*
X0167628Y0083502D01*
X0168426Y0084301D02*
X0174241Y0084301D01*
X0174241Y0085099D02*
X0169225Y0085099D01*
X0170023Y0085898D02*
X0174241Y0085898D01*
X0174241Y0086696D02*
X0170822Y0086696D01*
X0171620Y0087495D02*
X0174241Y0087495D01*
X0174428Y0088293D02*
X0172419Y0088293D01*
X0173217Y0089092D02*
X0174330Y0089092D01*
X0172441Y0091144D02*
X0158941Y0077644D01*
X0172441Y0091144D02*
X0179841Y0091144D01*
X0179841Y0086144D02*
X0179941Y0086044D01*
X0204041Y0091144D02*
X0204041Y0096144D01*
X0221094Y0096144D01*
X0221594Y0096644D01*
X0221594Y0102297D01*
X0232271Y0112974D01*
X0232271Y0123644D01*
X0227375Y0128219D02*
X0237941Y0128219D01*
X0237941Y0129018D02*
X0227375Y0129018D01*
X0227181Y0129816D02*
X0237941Y0129816D01*
X0237941Y0130615D02*
X0225941Y0130615D01*
X0225941Y0131413D02*
X0237941Y0131413D01*
X0237941Y0132212D02*
X0225941Y0132212D01*
X0225941Y0133010D02*
X0237941Y0133010D01*
X0237941Y0133809D02*
X0225941Y0133809D01*
X0225941Y0134607D02*
X0237941Y0134607D01*
X0237941Y0135406D02*
X0225941Y0135406D01*
X0225941Y0136204D02*
X0237941Y0136204D01*
X0237941Y0137003D02*
X0225941Y0137003D01*
X0225941Y0137801D02*
X0237941Y0137801D01*
X0237941Y0138600D02*
X0225941Y0138600D01*
X0225941Y0139398D02*
X0237941Y0139398D01*
X0237941Y0140197D02*
X0225941Y0140197D01*
X0227035Y0140995D02*
X0237941Y0140995D01*
X0237941Y0141794D02*
X0227509Y0141794D01*
X0227509Y0142592D02*
X0237941Y0142592D01*
X0237941Y0143391D02*
X0227509Y0143391D01*
X0227509Y0144189D02*
X0237941Y0144189D01*
X0237941Y0144988D02*
X0227509Y0144988D01*
X0227509Y0145786D02*
X0237941Y0145786D01*
X0237941Y0146585D02*
X0227509Y0146585D01*
X0227251Y0147383D02*
X0237941Y0147383D01*
X0237941Y0148182D02*
X0227509Y0148182D01*
X0224334Y0150597D02*
X0223941Y0150990D01*
X0224334Y0150597D02*
X0239941Y0150597D01*
X0239941Y0100644D01*
X0235941Y0096644D01*
X0228287Y0096644D01*
X0224941Y0093594D02*
X0225459Y0093075D01*
X0231115Y0093075D01*
X0232052Y0094013D01*
X0232052Y0094644D01*
X0236769Y0094644D01*
X0240769Y0098644D01*
X0241941Y0099815D01*
X0241941Y0148597D01*
X0244725Y0148597D01*
X0245140Y0147594D01*
X0246631Y0146103D01*
X0247855Y0145597D01*
X0246631Y0145090D01*
X0245140Y0143599D01*
X0244334Y0141651D01*
X0244334Y0139542D01*
X0245140Y0137594D01*
X0246631Y0136103D01*
X0247855Y0135597D01*
X0246631Y0135090D01*
X0245140Y0133599D01*
X0244334Y0131651D01*
X0244334Y0129542D01*
X0245140Y0127594D01*
X0246631Y0126103D01*
X0247855Y0125597D01*
X0246631Y0125090D01*
X0245140Y0123599D01*
X0244334Y0121651D01*
X0244334Y0119542D01*
X0245140Y0117594D01*
X0246631Y0116103D01*
X0248147Y0115476D01*
X0247676Y0115323D01*
X0246961Y0114958D01*
X0246311Y0114487D01*
X0245743Y0113919D01*
X0245272Y0113270D01*
X0244907Y0112554D01*
X0244659Y0111791D01*
X0244534Y0110998D01*
X0244534Y0110997D01*
X0249233Y0110997D01*
X0249233Y0110197D01*
X0244534Y0110197D01*
X0244534Y0110195D01*
X0244659Y0109402D01*
X0244907Y0108639D01*
X0245272Y0107924D01*
X0245743Y0107274D01*
X0246311Y0106706D01*
X0246961Y0106235D01*
X0247676Y0105870D01*
X0248147Y0105717D01*
X0246631Y0105090D01*
X0245140Y0103599D01*
X0244334Y0101651D01*
X0244334Y0099542D01*
X0245140Y0097594D01*
X0246631Y0096103D01*
X0247855Y0095597D01*
X0246631Y0095090D01*
X0245140Y0093599D01*
X0244334Y0091651D01*
X0244334Y0089542D01*
X0245120Y0087644D01*
X0209641Y0087644D01*
X0209641Y0088107D01*
X0209103Y0088644D01*
X0209641Y0089181D01*
X0209641Y0093107D01*
X0209103Y0093644D01*
X0209603Y0094144D01*
X0217829Y0094144D01*
X0217829Y0094013D01*
X0218766Y0093075D01*
X0224422Y0093075D01*
X0224941Y0093594D01*
X0225450Y0093084D02*
X0224431Y0093084D01*
X0218757Y0093084D02*
X0209641Y0093084D01*
X0209641Y0092286D02*
X0244597Y0092286D01*
X0244334Y0091487D02*
X0209641Y0091487D01*
X0209641Y0090689D02*
X0244334Y0090689D01*
X0244334Y0089890D02*
X0209641Y0089890D01*
X0209552Y0089092D02*
X0244520Y0089092D01*
X0244851Y0088293D02*
X0209454Y0088293D01*
X0209343Y0093883D02*
X0217958Y0093883D01*
X0217829Y0098674D02*
X0209134Y0098674D01*
X0209641Y0099473D02*
X0218026Y0099473D01*
X0219594Y0100271D02*
X0209641Y0100271D01*
X0209641Y0101070D02*
X0219594Y0101070D01*
X0219594Y0101868D02*
X0209641Y0101868D01*
X0209641Y0102667D02*
X0219594Y0102667D01*
X0219934Y0103465D02*
X0209282Y0103465D01*
X0223594Y0101070D02*
X0237538Y0101070D01*
X0237941Y0101868D02*
X0223993Y0101868D01*
X0224792Y0102667D02*
X0237941Y0102667D01*
X0237941Y0103465D02*
X0225590Y0103465D01*
X0226389Y0104264D02*
X0237941Y0104264D01*
X0237941Y0105062D02*
X0227187Y0105062D01*
X0227986Y0105861D02*
X0237941Y0105861D01*
X0237941Y0106659D02*
X0228784Y0106659D01*
X0229583Y0107458D02*
X0237941Y0107458D01*
X0237941Y0108256D02*
X0230381Y0108256D01*
X0231180Y0109055D02*
X0237941Y0109055D01*
X0237941Y0109853D02*
X0231979Y0109853D01*
X0232777Y0110652D02*
X0237941Y0110652D01*
X0237941Y0111450D02*
X0233576Y0111450D01*
X0234271Y0112249D02*
X0237941Y0112249D01*
X0237941Y0113047D02*
X0234271Y0113047D01*
X0234271Y0113846D02*
X0237941Y0113846D01*
X0237941Y0114644D02*
X0234271Y0114644D01*
X0234271Y0115443D02*
X0237941Y0115443D01*
X0237941Y0116241D02*
X0234271Y0116241D01*
X0241941Y0116241D02*
X0246493Y0116241D01*
X0245695Y0117040D02*
X0241941Y0117040D01*
X0241941Y0117838D02*
X0245039Y0117838D01*
X0244709Y0118637D02*
X0241941Y0118637D01*
X0241941Y0119435D02*
X0244378Y0119435D01*
X0244334Y0120234D02*
X0241941Y0120234D01*
X0241941Y0121032D02*
X0244334Y0121032D01*
X0244408Y0121831D02*
X0241941Y0121831D01*
X0241941Y0122629D02*
X0244739Y0122629D01*
X0245070Y0123428D02*
X0241941Y0123428D01*
X0241941Y0124226D02*
X0245768Y0124226D01*
X0246567Y0125025D02*
X0241941Y0125025D01*
X0241941Y0125823D02*
X0247307Y0125823D01*
X0246113Y0126622D02*
X0241941Y0126622D01*
X0241941Y0127420D02*
X0245314Y0127420D01*
X0244882Y0128219D02*
X0241941Y0128219D01*
X0241941Y0129018D02*
X0244551Y0129018D01*
X0244334Y0129816D02*
X0241941Y0129816D01*
X0241941Y0130615D02*
X0244334Y0130615D01*
X0244334Y0131413D02*
X0241941Y0131413D01*
X0241941Y0132212D02*
X0244566Y0132212D01*
X0244897Y0133010D02*
X0241941Y0133010D01*
X0241941Y0133809D02*
X0245350Y0133809D01*
X0246149Y0134607D02*
X0241941Y0134607D01*
X0241941Y0135406D02*
X0247394Y0135406D01*
X0246531Y0136204D02*
X0241941Y0136204D01*
X0241941Y0137003D02*
X0245732Y0137003D01*
X0245055Y0137801D02*
X0241941Y0137801D01*
X0241941Y0138600D02*
X0244724Y0138600D01*
X0244393Y0139398D02*
X0241941Y0139398D01*
X0241941Y0140197D02*
X0244334Y0140197D01*
X0244334Y0140995D02*
X0241941Y0140995D01*
X0241941Y0141794D02*
X0244393Y0141794D01*
X0244724Y0142592D02*
X0241941Y0142592D01*
X0241941Y0143391D02*
X0245054Y0143391D01*
X0245731Y0144189D02*
X0241941Y0144189D01*
X0241941Y0144988D02*
X0246529Y0144988D01*
X0247397Y0145786D02*
X0241941Y0145786D01*
X0241941Y0146585D02*
X0246150Y0146585D01*
X0245351Y0147383D02*
X0241941Y0147383D01*
X0241941Y0148182D02*
X0244897Y0148182D01*
X0249634Y0150597D02*
X0239941Y0150597D01*
X0249634Y0160597D02*
X0218893Y0160597D01*
X0213374Y0155077D01*
X0213374Y0134534D01*
X0223941Y0127447D02*
X0223941Y0144297D01*
X0223616Y0119435D02*
X0224391Y0119435D01*
X0224391Y0118637D02*
X0223616Y0118637D01*
X0223616Y0117838D02*
X0224391Y0117838D01*
X0224391Y0117040D02*
X0223616Y0117040D01*
X0241941Y0115443D02*
X0248045Y0115443D01*
X0246528Y0114644D02*
X0241941Y0114644D01*
X0241941Y0113846D02*
X0245690Y0113846D01*
X0245158Y0113047D02*
X0241941Y0113047D01*
X0241941Y0112249D02*
X0244808Y0112249D01*
X0244605Y0111450D02*
X0241941Y0111450D01*
X0241941Y0110652D02*
X0249233Y0110652D01*
X0244588Y0109853D02*
X0241941Y0109853D01*
X0241941Y0109055D02*
X0244772Y0109055D01*
X0245102Y0108256D02*
X0241941Y0108256D01*
X0241941Y0107458D02*
X0245610Y0107458D01*
X0246376Y0106659D02*
X0241941Y0106659D01*
X0241941Y0105861D02*
X0247705Y0105861D01*
X0246604Y0105062D02*
X0241941Y0105062D01*
X0241941Y0104264D02*
X0245805Y0104264D01*
X0245085Y0103465D02*
X0241941Y0103465D01*
X0241941Y0102667D02*
X0244754Y0102667D01*
X0244424Y0101868D02*
X0241941Y0101868D01*
X0241941Y0101070D02*
X0244334Y0101070D01*
X0244334Y0100271D02*
X0241941Y0100271D01*
X0241598Y0099473D02*
X0244362Y0099473D01*
X0244693Y0098674D02*
X0240799Y0098674D01*
X0240001Y0097876D02*
X0245024Y0097876D01*
X0245658Y0097077D02*
X0239202Y0097077D01*
X0238404Y0096279D02*
X0246456Y0096279D01*
X0247574Y0095480D02*
X0237605Y0095480D01*
X0236807Y0094682D02*
X0246223Y0094682D01*
X0245425Y0093883D02*
X0231923Y0093883D01*
X0231124Y0093084D02*
X0244927Y0093084D01*
X0236740Y0100271D02*
X0223594Y0100271D01*
X0231855Y0099473D02*
X0235941Y0099473D01*
X0235143Y0098674D02*
X0232052Y0098674D01*
X0260034Y0090689D02*
X0266813Y0090689D01*
X0266813Y0091487D02*
X0264656Y0091487D01*
X0264447Y0092286D02*
X0266813Y0092286D01*
X0266813Y0093084D02*
X0264090Y0093084D01*
X0263550Y0093883D02*
X0266813Y0093883D01*
X0266813Y0094682D02*
X0262688Y0094682D01*
X0262811Y0096279D02*
X0266813Y0096279D01*
X0266813Y0097077D02*
X0263609Y0097077D01*
X0264243Y0097876D02*
X0266813Y0097876D01*
X0266813Y0098674D02*
X0264574Y0098674D01*
X0264905Y0099473D02*
X0266813Y0099473D01*
X0266813Y0100271D02*
X0264934Y0100271D01*
X0264934Y0101070D02*
X0266813Y0101070D01*
X0266813Y0101868D02*
X0264844Y0101868D01*
X0264513Y0102667D02*
X0266813Y0102667D01*
X0266813Y0103465D02*
X0264182Y0103465D01*
X0263462Y0104264D02*
X0266813Y0104264D01*
X0266813Y0105062D02*
X0262663Y0105062D01*
X0262050Y0105861D02*
X0266813Y0105861D01*
X0266813Y0106659D02*
X0263192Y0106659D01*
X0263990Y0107458D02*
X0266813Y0107458D01*
X0266813Y0108256D02*
X0264401Y0108256D01*
X0264732Y0109055D02*
X0266813Y0109055D01*
X0266813Y0109853D02*
X0264934Y0109853D01*
X0264934Y0110652D02*
X0266813Y0110652D01*
X0266813Y0111450D02*
X0264934Y0111450D01*
X0264686Y0112249D02*
X0266813Y0112249D01*
X0266813Y0113047D02*
X0264355Y0113047D01*
X0263880Y0113846D02*
X0266813Y0113846D01*
X0266813Y0114644D02*
X0263081Y0114644D01*
X0261783Y0115443D02*
X0266813Y0115443D01*
X0266813Y0116241D02*
X0262774Y0116241D01*
X0263572Y0117040D02*
X0266813Y0117040D01*
X0266813Y0117838D02*
X0264228Y0117838D01*
X0264558Y0118637D02*
X0266813Y0118637D01*
X0266813Y0119435D02*
X0264889Y0119435D01*
X0264934Y0120234D02*
X0266813Y0120234D01*
X0266813Y0121032D02*
X0264934Y0121032D01*
X0264859Y0121831D02*
X0266813Y0121831D01*
X0266813Y0122629D02*
X0264528Y0122629D01*
X0264197Y0123428D02*
X0266813Y0123428D01*
X0266813Y0124226D02*
X0263499Y0124226D01*
X0262700Y0125025D02*
X0266813Y0125025D01*
X0266813Y0125823D02*
X0261960Y0125823D01*
X0263154Y0126622D02*
X0266813Y0126622D01*
X0266813Y0127420D02*
X0263953Y0127420D01*
X0264385Y0128219D02*
X0266813Y0128219D01*
X0266813Y0129018D02*
X0264716Y0129018D01*
X0264934Y0129816D02*
X0266813Y0129816D01*
X0266813Y0130615D02*
X0264934Y0130615D01*
X0264934Y0131413D02*
X0266813Y0131413D01*
X0266813Y0132212D02*
X0264701Y0132212D01*
X0264371Y0133010D02*
X0266813Y0133010D01*
X0266813Y0133809D02*
X0263917Y0133809D01*
X0263118Y0134607D02*
X0266813Y0134607D01*
X0266813Y0135406D02*
X0261873Y0135406D01*
X0262247Y0136204D02*
X0266813Y0136204D01*
X0266813Y0137003D02*
X0263252Y0137003D01*
X0263906Y0137801D02*
X0266813Y0137801D01*
X0266813Y0138600D02*
X0264340Y0138600D01*
X0264607Y0139398D02*
X0266813Y0139398D01*
X0266813Y0141794D02*
X0264607Y0141794D01*
X0264341Y0142592D02*
X0266813Y0142592D01*
X0266813Y0143391D02*
X0263907Y0143391D01*
X0263253Y0144189D02*
X0266813Y0144189D01*
X0266813Y0144988D02*
X0262249Y0144988D01*
X0261870Y0145786D02*
X0266813Y0145786D01*
X0266813Y0146585D02*
X0263117Y0146585D01*
X0263916Y0147383D02*
X0266813Y0147383D01*
X0266813Y0148182D02*
X0264370Y0148182D01*
X0264701Y0148980D02*
X0266813Y0148980D01*
X0266813Y0149779D02*
X0264934Y0149779D01*
X0264934Y0150577D02*
X0266813Y0150577D01*
X0266813Y0151376D02*
X0264934Y0151376D01*
X0264717Y0152174D02*
X0266813Y0152174D01*
X0266813Y0152973D02*
X0264386Y0152973D01*
X0263954Y0153771D02*
X0266813Y0153771D01*
X0266813Y0154570D02*
X0263156Y0154570D01*
X0261963Y0155368D02*
X0266813Y0155368D01*
X0266813Y0156167D02*
X0262699Y0156167D01*
X0263498Y0156965D02*
X0266813Y0156965D01*
X0266813Y0157764D02*
X0264197Y0157764D01*
X0264528Y0158562D02*
X0266813Y0158562D01*
X0266813Y0159361D02*
X0264858Y0159361D01*
X0264934Y0160159D02*
X0266813Y0160159D01*
X0266813Y0160958D02*
X0264934Y0160958D01*
X0264890Y0161756D02*
X0266813Y0161756D01*
X0266813Y0162555D02*
X0264559Y0162555D01*
X0264228Y0163353D02*
X0266813Y0163353D01*
X0266813Y0164152D02*
X0263573Y0164152D01*
X0262775Y0164951D02*
X0266813Y0164951D01*
X0266813Y0165749D02*
X0261218Y0165749D01*
X0262737Y0166548D02*
X0266813Y0166548D01*
X0266813Y0167346D02*
X0263576Y0167346D01*
X0264108Y0168145D02*
X0266813Y0168145D01*
X0266813Y0168943D02*
X0264459Y0168943D01*
X0264662Y0169742D02*
X0266813Y0169742D01*
X0266813Y0170540D02*
X0260034Y0170540D01*
X0264680Y0171339D02*
X0266813Y0171339D01*
X0266813Y0172137D02*
X0264495Y0172137D01*
X0264166Y0172936D02*
X0266813Y0172936D01*
X0266813Y0173734D02*
X0263658Y0173734D01*
X0262893Y0174533D02*
X0266813Y0174533D01*
X0266813Y0175331D02*
X0261566Y0175331D01*
X0262662Y0176130D02*
X0266813Y0176130D01*
X0266813Y0176928D02*
X0263461Y0176928D01*
X0264181Y0177727D02*
X0266813Y0177727D01*
X0266813Y0178525D02*
X0264512Y0178525D01*
X0264843Y0179324D02*
X0266813Y0179324D01*
X0266813Y0180122D02*
X0264934Y0180122D01*
X0264934Y0180921D02*
X0266813Y0180921D01*
X0266813Y0181719D02*
X0264905Y0181719D01*
X0264574Y0182518D02*
X0266813Y0182518D01*
X0266813Y0183316D02*
X0264244Y0183316D01*
X0263611Y0184115D02*
X0266813Y0184115D01*
X0266813Y0184913D02*
X0262812Y0184913D01*
X0197081Y0153771D02*
X0196926Y0153771D01*
X0193657Y0150644D02*
X0192508Y0150494D01*
X0192508Y0144793D01*
X0192508Y0142644D01*
X0192508Y0134534D01*
X0196793Y0147383D02*
X0197214Y0147383D01*
X0189892Y0152973D02*
X0073163Y0152973D01*
X0072940Y0153771D02*
X0190388Y0153771D01*
X0184488Y0163353D02*
X0176957Y0163353D01*
X0177755Y0164152D02*
X0183829Y0164152D01*
X0183829Y0168943D02*
X0177948Y0168943D01*
X0177149Y0169742D02*
X0184295Y0169742D01*
X0190893Y0169742D02*
X0190988Y0169742D01*
X0171637Y0169742D02*
X0169868Y0169742D01*
X0170632Y0168943D02*
X0170839Y0168943D01*
X0167888Y0168943D02*
X0167088Y0168943D01*
X0167088Y0168145D02*
X0167888Y0168145D01*
X0167888Y0167346D02*
X0167088Y0167346D01*
X0167088Y0169742D02*
X0167888Y0169742D01*
X0161062Y0213660D02*
X0123241Y0213660D01*
X0122926Y0214458D02*
X0160641Y0214458D01*
X0160641Y0215257D02*
X0122595Y0215257D01*
X0122024Y0216055D02*
X0160641Y0216055D01*
X0160641Y0216854D02*
X0121226Y0216854D01*
X0119699Y0217652D02*
X0160641Y0217652D01*
X0167941Y0218044D02*
X0168493Y0218597D01*
X0097928Y0210466D02*
X0049541Y0210466D01*
X0049541Y0211264D02*
X0096926Y0211264D01*
X0073657Y0208070D02*
X0049541Y0208070D01*
X0049541Y0207272D02*
X0072762Y0207272D01*
X0072125Y0206473D02*
X0049541Y0206473D01*
X0049541Y0205675D02*
X0071679Y0205675D01*
X0071365Y0204876D02*
X0049541Y0204876D01*
X0049541Y0204078D02*
X0071164Y0204078D01*
X0049541Y0069928D02*
X0111119Y0069928D01*
X0111119Y0069129D02*
X0049541Y0069129D01*
X0049541Y0068331D02*
X0111351Y0068331D01*
X0108603Y0062244D02*
X0077278Y0062244D01*
X0076341Y0061307D01*
X0076341Y0051081D01*
X0077278Y0050144D01*
X0108603Y0050144D01*
X0109541Y0051081D01*
X0109541Y0061307D01*
X0108603Y0062244D01*
X0108905Y0061943D02*
X0244454Y0061943D01*
X0244334Y0061144D02*
X0109541Y0061144D01*
X0109541Y0060346D02*
X0244334Y0060346D01*
X0244334Y0059547D02*
X0109541Y0059547D01*
X0109541Y0058749D02*
X0244662Y0058749D01*
X0244993Y0057950D02*
X0109541Y0057950D01*
X0109541Y0057151D02*
X0245583Y0057151D01*
X0246382Y0056353D02*
X0109541Y0056353D01*
X0109541Y0055554D02*
X0247754Y0055554D01*
X0246298Y0054756D02*
X0109541Y0054756D01*
X0109541Y0053957D02*
X0245499Y0053957D01*
X0244958Y0053159D02*
X0109541Y0053159D01*
X0109541Y0052360D02*
X0244627Y0052360D01*
X0244334Y0051562D02*
X0109541Y0051562D01*
X0109223Y0050763D02*
X0244334Y0050763D01*
X0244334Y0049965D02*
X0049541Y0049965D01*
X0049541Y0050763D02*
X0076658Y0050763D01*
X0076341Y0051562D02*
X0049541Y0051562D01*
X0049541Y0052360D02*
X0076341Y0052360D01*
X0076341Y0053159D02*
X0049541Y0053159D01*
X0049541Y0053957D02*
X0076341Y0053957D01*
X0076341Y0054756D02*
X0049541Y0054756D01*
X0049541Y0055554D02*
X0076341Y0055554D01*
X0076341Y0056353D02*
X0049541Y0056353D01*
X0049541Y0057151D02*
X0076341Y0057151D01*
X0076341Y0057950D02*
X0049541Y0057950D01*
X0049541Y0058749D02*
X0076341Y0058749D01*
X0076341Y0059547D02*
X0049541Y0059547D01*
X0049541Y0060346D02*
X0076341Y0060346D01*
X0076341Y0061144D02*
X0049541Y0061144D01*
X0049541Y0061943D02*
X0076977Y0061943D01*
X0049541Y0062741D02*
X0244785Y0062741D01*
X0245116Y0063540D02*
X0049541Y0063540D01*
X0049541Y0064338D02*
X0245880Y0064338D01*
X0246745Y0065137D02*
X0049541Y0065137D01*
X0049541Y0065935D02*
X0247038Y0065935D01*
X0260034Y0070726D02*
X0266813Y0070726D01*
X0266813Y0069928D02*
X0264691Y0069928D01*
X0264519Y0069129D02*
X0266813Y0069129D01*
X0266813Y0068331D02*
X0264203Y0068331D01*
X0263711Y0067532D02*
X0266813Y0067532D01*
X0266813Y0066734D02*
X0262983Y0066734D01*
X0261719Y0065935D02*
X0266813Y0065935D01*
X0266813Y0065137D02*
X0262522Y0065137D01*
X0263387Y0064338D02*
X0266813Y0064338D01*
X0266813Y0063540D02*
X0264151Y0063540D01*
X0264482Y0062741D02*
X0266813Y0062741D01*
X0266813Y0061943D02*
X0264813Y0061943D01*
X0264934Y0061144D02*
X0266813Y0061144D01*
X0266813Y0060346D02*
X0264934Y0060346D01*
X0264934Y0059547D02*
X0266813Y0059547D01*
X0266813Y0058749D02*
X0264605Y0058749D01*
X0264274Y0057950D02*
X0266813Y0057950D01*
X0266813Y0057151D02*
X0263684Y0057151D01*
X0262885Y0056353D02*
X0266813Y0056353D01*
X0266813Y0055554D02*
X0261514Y0055554D01*
X0262969Y0054756D02*
X0266813Y0054756D01*
X0266813Y0053957D02*
X0263768Y0053957D01*
X0264309Y0053159D02*
X0266813Y0053159D01*
X0266813Y0052360D02*
X0264640Y0052360D01*
X0264934Y0051562D02*
X0266813Y0051562D01*
X0266813Y0050763D02*
X0264934Y0050763D01*
X0264934Y0049965D02*
X0266813Y0049965D01*
X0266813Y0049166D02*
X0264778Y0049166D01*
X0264447Y0048368D02*
X0266813Y0048368D01*
X0266813Y0047569D02*
X0264102Y0047569D01*
X0263303Y0046771D02*
X0266813Y0046771D01*
X0266813Y0045972D02*
X0262319Y0045972D01*
X0262433Y0045174D02*
X0266813Y0045174D01*
X0266813Y0044375D02*
X0263350Y0044375D01*
X0264136Y0043577D02*
X0266813Y0043577D01*
X0266813Y0042778D02*
X0264467Y0042778D01*
X0264797Y0041980D02*
X0266813Y0041980D01*
X0266813Y0041181D02*
X0264934Y0041181D01*
X0264934Y0040383D02*
X0266813Y0040383D01*
X0266813Y0039584D02*
X0264934Y0039584D01*
X0264620Y0038786D02*
X0266813Y0038786D01*
X0266813Y0037987D02*
X0264289Y0037987D01*
X0263721Y0037189D02*
X0266813Y0037189D01*
X0266813Y0036390D02*
X0262923Y0036390D01*
X0261400Y0035592D02*
X0266813Y0035592D01*
X0266813Y0034793D02*
X0049541Y0034793D01*
X0049541Y0033995D02*
X0266813Y0033995D01*
X0257867Y0035592D02*
X0250636Y0035592D01*
X0250034Y0035592D02*
X0249234Y0035592D01*
X0248631Y0035592D02*
X0049541Y0035592D01*
X0049541Y0036390D02*
X0246746Y0036390D01*
X0245829Y0037189D02*
X0049541Y0037189D01*
X0049541Y0037987D02*
X0245239Y0037987D01*
X0244859Y0038786D02*
X0049541Y0038786D01*
X0049541Y0039584D02*
X0244630Y0039584D01*
X0244563Y0041181D02*
X0049541Y0041181D01*
X0049541Y0040383D02*
X0249233Y0040383D01*
X0249234Y0039584D02*
X0250034Y0039584D01*
X0250034Y0038786D02*
X0249234Y0038786D01*
X0249234Y0037987D02*
X0250034Y0037987D01*
X0250034Y0037189D02*
X0249234Y0037189D01*
X0249234Y0036390D02*
X0250034Y0036390D01*
X0252521Y0036390D02*
X0256345Y0036390D01*
X0255546Y0037189D02*
X0253438Y0037189D01*
X0254028Y0037987D02*
X0254978Y0037987D01*
X0254647Y0038786D02*
X0254408Y0038786D01*
X0247383Y0045174D02*
X0049541Y0045174D01*
X0049541Y0045972D02*
X0246948Y0045972D01*
X0245964Y0046771D02*
X0049541Y0046771D01*
X0049541Y0047569D02*
X0245165Y0047569D01*
X0244820Y0048368D02*
X0049541Y0048368D01*
X0049541Y0049166D02*
X0244489Y0049166D01*
X0246200Y0044375D02*
X0049541Y0044375D01*
X0049541Y0043577D02*
X0245495Y0043577D01*
X0245021Y0042778D02*
X0049541Y0042778D01*
X0049541Y0041980D02*
X0244721Y0041980D01*
X0242429Y0033196D02*
X0073925Y0033196D01*
X0073925Y0032398D02*
X0242429Y0032398D01*
X0242429Y0031599D02*
X0073925Y0031599D01*
X0073925Y0030801D02*
X0242429Y0030801D01*
X0242429Y0030002D02*
X0073925Y0030002D01*
X0073925Y0029204D02*
X0242429Y0029204D01*
X0242429Y0028405D02*
X0073925Y0028405D01*
X0073925Y0027607D02*
X0242429Y0027607D01*
X0242429Y0026808D02*
X0073925Y0026808D01*
X0073925Y0026010D02*
X0242429Y0026010D01*
X0242429Y0025211D02*
X0073925Y0025211D01*
X0073925Y0024413D02*
X0242429Y0024413D01*
X0242429Y0023614D02*
X0073925Y0023614D01*
X0073925Y0022816D02*
X0242429Y0022816D01*
X0242429Y0022017D02*
X0073925Y0022017D01*
X0073925Y0021218D02*
X0242429Y0021218D01*
X0242429Y0020420D02*
X0073925Y0020420D01*
X0073925Y0019621D02*
X0242429Y0019621D01*
X0242429Y0018823D02*
X0073925Y0018823D01*
X0073925Y0018024D02*
X0242429Y0018024D01*
X0242429Y0017226D02*
X0073925Y0017226D01*
X0073925Y0016427D02*
X0242429Y0016427D01*
X0242429Y0015629D02*
X0073925Y0015629D01*
X0073925Y0014830D02*
X0242429Y0014830D01*
X0242429Y0014032D02*
X0073925Y0014032D01*
X0073925Y0013233D02*
X0242429Y0013233D01*
X0242429Y0012435D02*
X0073925Y0012435D01*
X0073925Y0011636D02*
X0242429Y0011636D01*
X0242429Y0010838D02*
X0073925Y0010838D01*
X0073925Y0010039D02*
X0242429Y0010039D01*
X0264650Y0071525D02*
X0266813Y0071525D01*
X0266813Y0072323D02*
X0264435Y0072323D01*
X0264071Y0073122D02*
X0266813Y0073122D01*
X0266813Y0073920D02*
X0263522Y0073920D01*
X0262636Y0074719D02*
X0266813Y0074719D01*
X0266813Y0075517D02*
X0261221Y0075517D01*
X0262848Y0076316D02*
X0266813Y0076316D01*
X0266813Y0077114D02*
X0263647Y0077114D01*
X0264259Y0077913D02*
X0266813Y0077913D01*
X0266813Y0078711D02*
X0264589Y0078711D01*
X0264920Y0079510D02*
X0266813Y0079510D01*
X0266813Y0080308D02*
X0264934Y0080308D01*
X0264934Y0081107D02*
X0266813Y0081107D01*
X0266813Y0081905D02*
X0264828Y0081905D01*
X0264497Y0082704D02*
X0266813Y0082704D01*
X0266813Y0083502D02*
X0264167Y0083502D01*
X0263425Y0084301D02*
X0266813Y0084301D01*
X0266813Y0085099D02*
X0262612Y0085099D01*
X0261646Y0085898D02*
X0266813Y0085898D01*
X0266813Y0086696D02*
X0262942Y0086696D01*
X0263684Y0087495D02*
X0266813Y0087495D01*
X0266813Y0088293D02*
X0264184Y0088293D01*
X0264507Y0089092D02*
X0266813Y0089092D01*
X0266813Y0089890D02*
X0264685Y0089890D01*
X0266813Y0095480D02*
X0261131Y0095480D01*
D24*
X0218941Y0110644D03*
X0190941Y0079644D03*
X0183941Y0137644D03*
X0163941Y0137644D03*
X0165941Y0157644D03*
X0236941Y0225644D03*
X0218941Y0252644D03*
D25*
X0229541Y0238644D02*
X0231541Y0236644D01*
X0256941Y0236644D01*
X0259634Y0233951D01*
X0259634Y0230597D01*
X0229594Y0238590D02*
X0229594Y0212644D01*
X0229547Y0212691D01*
X0209059Y0212691D01*
X0209059Y0205565D01*
X0205878Y0202384D01*
X0197610Y0198644D02*
X0192941Y0203313D01*
X0192941Y0218597D01*
X0192941Y0228297D01*
X0193287Y0228644D01*
X0192941Y0218597D02*
X0168493Y0218597D01*
X0167941Y0199244D02*
X0149541Y0199244D01*
X0142941Y0192644D01*
X0117941Y0192644D01*
X0117941Y0212644D02*
X0098941Y0212644D01*
X0098441Y0213144D01*
X0088657Y0222927D01*
X0077468Y0222927D01*
X0167341Y0198644D02*
X0167941Y0199244D01*
X0192941Y0218597D02*
X0198823Y0218597D01*
X0229541Y0238644D02*
X0229594Y0238590D01*
X0179941Y0086044D02*
X0179941Y0078990D01*
X0179287Y0079644D02*
X0190941Y0079644D01*
D26*
X0151941Y0070644D03*
M02*
