G75*
%MOIN*%
%OFA0B0*%
%FSLAX25Y25*%
%IPPOS*%
%LPD*%
%AMOC8*
5,1,8,0,0,1.08239X$1,22.5*
%
%ADD10C,0.11627*%
%ADD11C,0.01421*%
%ADD12R,0.05131X0.04737*%
%ADD13R,0.04737X0.05131*%
%ADD14R,0.08800X0.03400*%
%ADD15R,0.04343X0.03950*%
%ADD16R,0.05918X0.04737*%
%ADD17C,0.10800*%
%ADD18R,0.28000X0.06900*%
%ADD19C,0.08200*%
%ADD20R,0.12200X0.07400*%
%ADD21R,0.04737X0.02375*%
%ADD22R,0.04737X0.03162*%
%ADD23R,0.09300X0.09700*%
D10*
X0061720Y0021423D03*
X0254634Y0021423D03*
X0254634Y0249770D03*
X0061720Y0249770D03*
D11*
X0169146Y0168302D02*
X0169146Y0164986D01*
X0165830Y0164986D01*
X0165830Y0168302D01*
X0169146Y0168302D01*
X0169146Y0166406D02*
X0165830Y0166406D01*
X0165830Y0167826D02*
X0169146Y0167826D01*
X0176051Y0168302D02*
X0176051Y0164986D01*
X0172735Y0164986D01*
X0172735Y0168302D01*
X0176051Y0168302D01*
X0176051Y0166406D02*
X0172735Y0166406D01*
X0172735Y0167826D02*
X0176051Y0167826D01*
X0175735Y0145302D02*
X0175735Y0141986D01*
X0175735Y0145302D02*
X0179051Y0145302D01*
X0179051Y0141986D01*
X0175735Y0141986D01*
X0175735Y0143406D02*
X0179051Y0143406D01*
X0179051Y0144826D02*
X0175735Y0144826D01*
X0168830Y0145302D02*
X0168830Y0141986D01*
X0168830Y0145302D02*
X0172146Y0145302D01*
X0172146Y0141986D01*
X0168830Y0141986D01*
X0168830Y0143406D02*
X0172146Y0143406D01*
X0172146Y0144826D02*
X0168830Y0144826D01*
X0155735Y0145302D02*
X0155735Y0141986D01*
X0155735Y0145302D02*
X0159051Y0145302D01*
X0159051Y0141986D01*
X0155735Y0141986D01*
X0155735Y0143406D02*
X0159051Y0143406D01*
X0159051Y0144826D02*
X0155735Y0144826D01*
X0148830Y0145302D02*
X0148830Y0141986D01*
X0148830Y0145302D02*
X0152146Y0145302D01*
X0152146Y0141986D01*
X0148830Y0141986D01*
X0148830Y0143406D02*
X0152146Y0143406D01*
X0152146Y0144826D02*
X0148830Y0144826D01*
X0123051Y0072302D02*
X0123051Y0068986D01*
X0119735Y0068986D01*
X0119735Y0072302D01*
X0123051Y0072302D01*
X0123051Y0070406D02*
X0119735Y0070406D01*
X0119735Y0071826D02*
X0123051Y0071826D01*
X0116146Y0072302D02*
X0116146Y0068986D01*
X0112830Y0068986D01*
X0112830Y0072302D01*
X0116146Y0072302D01*
X0116146Y0070406D02*
X0112830Y0070406D01*
X0112830Y0071826D02*
X0116146Y0071826D01*
D12*
X0128594Y0084644D03*
X0135287Y0084644D03*
X0138287Y0070644D03*
X0131594Y0070644D03*
X0128594Y0098644D03*
X0135287Y0098644D03*
X0150594Y0131644D03*
X0157287Y0131644D03*
X0170594Y0131644D03*
X0177287Y0131644D03*
X0193657Y0150644D03*
X0200350Y0150644D03*
X0194287Y0166644D03*
X0187594Y0166644D03*
X0216594Y0194644D03*
X0223287Y0194644D03*
X0229594Y0212644D03*
X0236287Y0212644D03*
X0193287Y0228644D03*
X0186594Y0228644D03*
X0221594Y0096644D03*
X0228287Y0096644D03*
D13*
X0179941Y0078990D03*
X0179941Y0072297D03*
X0128941Y0117297D03*
X0128941Y0123990D03*
X0128941Y0138297D03*
X0128941Y0144990D03*
X0219941Y0219297D03*
X0219941Y0225990D03*
X0223941Y0150990D03*
X0223941Y0144297D03*
D14*
X0204041Y0101144D03*
X0204041Y0096144D03*
X0204041Y0091144D03*
X0204041Y0086144D03*
X0179841Y0086144D03*
X0179841Y0091144D03*
X0179841Y0096144D03*
X0179841Y0101144D03*
D15*
X0178878Y0112904D03*
X0178878Y0120384D03*
X0170610Y0116644D03*
X0158878Y0120384D03*
X0158878Y0112904D03*
X0150610Y0116644D03*
X0224004Y0119904D03*
X0224004Y0127384D03*
X0232271Y0123644D03*
X0205878Y0194904D03*
X0205878Y0202384D03*
X0197610Y0198644D03*
D16*
X0192508Y0134534D03*
X0192508Y0127644D03*
X0192508Y0120754D03*
X0213374Y0120754D03*
X0213374Y0127644D03*
X0213374Y0134534D03*
X0162618Y0091644D03*
X0147263Y0098534D03*
X0147263Y0084754D03*
D17*
X0101468Y0097644D03*
X0081468Y0097644D03*
X0081468Y0117644D03*
X0081468Y0137644D03*
X0101468Y0137644D03*
X0101468Y0117644D03*
X0077468Y0182927D03*
X0077468Y0202927D03*
X0077468Y0222927D03*
D18*
X0092941Y0056194D03*
D19*
X0117941Y0192644D03*
X0117941Y0202644D03*
X0117941Y0212644D03*
X0249634Y0210597D03*
X0249634Y0220597D03*
X0249634Y0230597D03*
X0259634Y0230597D03*
X0259634Y0220597D03*
X0259634Y0210597D03*
X0259634Y0200597D03*
X0259634Y0190597D03*
X0259634Y0180597D03*
X0259634Y0170597D03*
X0259634Y0160597D03*
X0259634Y0150597D03*
X0259634Y0140597D03*
X0259634Y0130597D03*
X0259634Y0120597D03*
X0259634Y0110597D03*
X0259634Y0100597D03*
X0259634Y0090597D03*
X0259634Y0080597D03*
X0259634Y0070597D03*
X0259634Y0060597D03*
X0259634Y0050597D03*
X0259634Y0040597D03*
X0249634Y0040597D03*
X0249634Y0050597D03*
X0249634Y0060597D03*
X0249634Y0070597D03*
X0249634Y0080597D03*
X0249634Y0090597D03*
X0249634Y0100597D03*
X0249634Y0110597D03*
X0249634Y0120597D03*
X0249634Y0130597D03*
X0249634Y0140597D03*
X0249634Y0150597D03*
X0249634Y0160597D03*
X0249634Y0170597D03*
X0249634Y0180597D03*
X0249634Y0190597D03*
X0249634Y0200597D03*
D20*
X0167941Y0199244D03*
X0167941Y0218044D03*
D21*
X0198429Y0215644D03*
X0209452Y0215644D03*
D22*
X0209452Y0218597D03*
X0209452Y0212691D03*
X0198429Y0212691D03*
X0198429Y0218597D03*
D23*
X0210341Y0238644D03*
X0229541Y0238644D03*
M02*
