G75*
%MOIN*%
%OFA0B0*%
%FSLAX25Y25*%
%IPPOS*%
%LPD*%
%AMOC8*
5,1,8,0,0,1.08239X$1,22.5*
%
%ADD10C,0.10000*%
%ADD11C,0.07400*%
%ADD12R,0.07400X0.07400*%
%ADD13C,0.00800*%
%ADD14C,0.04000*%
%ADD15C,0.03378*%
D10*
X0077468Y0092644D03*
X0077468Y0112644D03*
X0077468Y0132644D03*
X0077468Y0177927D03*
X0077468Y0197927D03*
X0077468Y0217927D03*
D11*
X0107941Y0217644D03*
X0107941Y0227644D03*
X0107941Y0207644D03*
X0107941Y0187644D03*
X0249634Y0185597D03*
X0249634Y0195597D03*
X0249634Y0205597D03*
X0249634Y0215597D03*
X0249634Y0225597D03*
X0259634Y0225597D03*
X0259634Y0215597D03*
X0259634Y0205597D03*
X0259634Y0195597D03*
X0259634Y0185597D03*
X0259634Y0175597D03*
X0259634Y0165597D03*
X0259634Y0155597D03*
X0259634Y0145597D03*
X0259634Y0135597D03*
X0259634Y0125597D03*
X0259634Y0115597D03*
X0259634Y0105597D03*
X0259634Y0095597D03*
X0259634Y0085597D03*
X0259634Y0075597D03*
X0259634Y0065597D03*
X0259634Y0055597D03*
X0259634Y0045597D03*
X0259634Y0035597D03*
X0249634Y0035597D03*
X0249634Y0045597D03*
X0249634Y0055597D03*
X0249634Y0065597D03*
X0249634Y0075597D03*
X0249634Y0085597D03*
X0249634Y0095597D03*
X0249634Y0105597D03*
X0249634Y0115597D03*
X0249634Y0125597D03*
X0249634Y0135597D03*
X0249634Y0145597D03*
X0249634Y0155597D03*
X0249634Y0165597D03*
X0249634Y0175597D03*
D12*
X0107941Y0197644D03*
D13*
X0049541Y0232565D02*
X0049541Y0028628D01*
X0073925Y0028628D01*
X0073925Y0004244D01*
X0242429Y0004244D01*
X0242429Y0028628D01*
X0266813Y0028628D01*
X0266813Y0232565D01*
X0242429Y0232565D01*
X0242429Y0256949D01*
X0195578Y0256949D01*
X0195123Y0256904D01*
X0194280Y0256555D01*
X0193635Y0255911D01*
X0193286Y0255068D01*
X0193241Y0254612D01*
X0193241Y0241700D01*
X0192398Y0239665D01*
X0192398Y0239665D01*
X0192398Y0239665D01*
X0191641Y0238908D01*
X0191641Y0238864D01*
X0191598Y0238864D01*
X0190841Y0238107D01*
X0188806Y0237264D01*
X0127548Y0237264D01*
X0125513Y0238107D01*
X0125513Y0238107D01*
X0124756Y0238864D01*
X0124712Y0238864D01*
X0124712Y0238908D01*
X0123955Y0239665D01*
X0123955Y0239665D01*
X0123112Y0241700D01*
X0123112Y0254612D01*
X0123067Y0255068D01*
X0122718Y0255911D01*
X0122074Y0256555D01*
X0121231Y0256904D01*
X0120775Y0256949D01*
X0073925Y0256949D01*
X0073925Y0232565D01*
X0049541Y0232565D01*
X0049541Y0231817D02*
X0104618Y0231817D01*
X0104938Y0232137D02*
X0103448Y0230646D01*
X0102641Y0228698D01*
X0102641Y0226590D01*
X0103448Y0224642D01*
X0104938Y0223151D01*
X0106162Y0222644D01*
X0104938Y0222137D01*
X0103448Y0220646D01*
X0102641Y0218698D01*
X0102641Y0216590D01*
X0103448Y0214642D01*
X0104938Y0213151D01*
X0106162Y0212644D01*
X0104938Y0212137D01*
X0103448Y0210646D01*
X0102641Y0208698D01*
X0102641Y0206590D01*
X0103448Y0204642D01*
X0104938Y0203151D01*
X0105921Y0202744D01*
X0104056Y0202744D01*
X0103700Y0202648D01*
X0103381Y0202464D01*
X0103120Y0202203D01*
X0102936Y0201884D01*
X0102841Y0201528D01*
X0102841Y0198044D01*
X0107541Y0198044D01*
X0107541Y0197244D01*
X0102841Y0197244D01*
X0102841Y0193759D01*
X0102936Y0193403D01*
X0103120Y0193084D01*
X0103381Y0192824D01*
X0103700Y0192639D01*
X0104056Y0192544D01*
X0105921Y0192544D01*
X0104938Y0192137D01*
X0103448Y0190646D01*
X0102641Y0188698D01*
X0102641Y0186590D01*
X0103448Y0184642D01*
X0104938Y0183151D01*
X0106886Y0182344D01*
X0108995Y0182344D01*
X0110943Y0183151D01*
X0112434Y0184642D01*
X0113241Y0186590D01*
X0113241Y0188698D01*
X0112434Y0190646D01*
X0110943Y0192137D01*
X0109961Y0192544D01*
X0111825Y0192544D01*
X0112181Y0192639D01*
X0112500Y0192824D01*
X0112761Y0193084D01*
X0112945Y0193403D01*
X0113041Y0193759D01*
X0113041Y0197244D01*
X0108341Y0197244D01*
X0108341Y0198044D01*
X0113041Y0198044D01*
X0113041Y0201528D01*
X0112945Y0201884D01*
X0112761Y0202203D01*
X0112500Y0202464D01*
X0112181Y0202648D01*
X0111825Y0202744D01*
X0109961Y0202744D01*
X0110943Y0203151D01*
X0112434Y0204642D01*
X0113241Y0206590D01*
X0113241Y0208698D01*
X0112434Y0210646D01*
X0110943Y0212137D01*
X0109719Y0212644D01*
X0110943Y0213151D01*
X0112434Y0214642D01*
X0113241Y0216590D01*
X0113241Y0218698D01*
X0112434Y0220646D01*
X0110943Y0222137D01*
X0109719Y0222644D01*
X0110943Y0223151D01*
X0112434Y0224642D01*
X0113241Y0226590D01*
X0113241Y0228698D01*
X0112434Y0230646D01*
X0110943Y0232137D01*
X0108995Y0232944D01*
X0106886Y0232944D01*
X0104938Y0232137D01*
X0106093Y0232615D02*
X0073925Y0232615D01*
X0073925Y0233414D02*
X0242429Y0233414D01*
X0242429Y0234212D02*
X0073925Y0234212D01*
X0073925Y0235011D02*
X0242429Y0235011D01*
X0242429Y0235809D02*
X0073925Y0235809D01*
X0073925Y0236608D02*
X0242429Y0236608D01*
X0242429Y0237406D02*
X0189148Y0237406D01*
X0190938Y0238205D02*
X0242429Y0238205D01*
X0242429Y0239003D02*
X0191737Y0239003D01*
X0192455Y0239802D02*
X0242429Y0239802D01*
X0242429Y0240600D02*
X0192786Y0240600D01*
X0193117Y0241399D02*
X0242429Y0241399D01*
X0242429Y0242197D02*
X0193241Y0242197D01*
X0193241Y0242996D02*
X0242429Y0242996D01*
X0242429Y0243794D02*
X0193241Y0243794D01*
X0193241Y0244593D02*
X0242429Y0244593D01*
X0242429Y0245391D02*
X0193241Y0245391D01*
X0193241Y0246190D02*
X0242429Y0246190D01*
X0242429Y0246988D02*
X0193241Y0246988D01*
X0193241Y0247787D02*
X0242429Y0247787D01*
X0242429Y0248585D02*
X0193241Y0248585D01*
X0193241Y0249384D02*
X0242429Y0249384D01*
X0242429Y0250182D02*
X0193241Y0250182D01*
X0193241Y0250981D02*
X0242429Y0250981D01*
X0242429Y0251779D02*
X0193241Y0251779D01*
X0193241Y0252578D02*
X0242429Y0252578D01*
X0242429Y0253376D02*
X0193241Y0253376D01*
X0193241Y0254175D02*
X0242429Y0254175D01*
X0242429Y0254973D02*
X0193277Y0254973D01*
X0193578Y0255772D02*
X0242429Y0255772D01*
X0242429Y0256570D02*
X0194316Y0256570D01*
X0242429Y0232615D02*
X0109788Y0232615D01*
X0111263Y0231817D02*
X0266813Y0231817D01*
X0266813Y0231018D02*
X0112062Y0231018D01*
X0112610Y0230220D02*
X0246945Y0230220D01*
X0246631Y0230090D02*
X0245140Y0228599D01*
X0244334Y0226651D01*
X0244334Y0224542D01*
X0245140Y0222594D01*
X0246631Y0221103D01*
X0247855Y0220597D01*
X0246631Y0220090D01*
X0245140Y0218599D01*
X0244334Y0216651D01*
X0244334Y0214542D01*
X0245140Y0212594D01*
X0246631Y0211103D01*
X0247855Y0210597D01*
X0246631Y0210090D01*
X0245140Y0208599D01*
X0244334Y0206651D01*
X0244334Y0204542D01*
X0245140Y0202594D01*
X0246631Y0201103D01*
X0247855Y0200597D01*
X0246631Y0200090D01*
X0245140Y0198599D01*
X0244334Y0196651D01*
X0244334Y0194542D01*
X0245140Y0192594D01*
X0246631Y0191103D01*
X0248147Y0190476D01*
X0247676Y0190323D01*
X0246961Y0189958D01*
X0246311Y0189487D01*
X0245743Y0188919D01*
X0245272Y0188270D01*
X0244907Y0187554D01*
X0244659Y0186791D01*
X0244534Y0185998D01*
X0244534Y0185997D01*
X0249233Y0185997D01*
X0249233Y0185197D01*
X0244534Y0185197D01*
X0244534Y0185195D01*
X0244659Y0184402D01*
X0244907Y0183639D01*
X0245272Y0182924D01*
X0245743Y0182274D01*
X0246311Y0181706D01*
X0246961Y0181235D01*
X0247676Y0180870D01*
X0248147Y0180717D01*
X0246631Y0180090D01*
X0245140Y0178599D01*
X0244725Y0177597D01*
X0147065Y0177597D01*
X0136112Y0166644D01*
X0134941Y0165472D01*
X0134941Y0078295D01*
X0134152Y0077507D01*
X0133652Y0076298D01*
X0133652Y0074990D01*
X0134152Y0073781D01*
X0135078Y0072856D01*
X0136286Y0072355D01*
X0137595Y0072355D01*
X0138804Y0072856D01*
X0139729Y0073781D01*
X0140230Y0074990D01*
X0140230Y0076298D01*
X0139729Y0077507D01*
X0138941Y0078295D01*
X0138941Y0163815D01*
X0148722Y0173597D01*
X0244725Y0173597D01*
X0245140Y0172594D01*
X0246631Y0171103D01*
X0247855Y0170597D01*
X0246631Y0170090D01*
X0245140Y0168599D01*
X0244334Y0166651D01*
X0244334Y0164542D01*
X0245140Y0162594D01*
X0246631Y0161103D01*
X0247855Y0160597D01*
X0246631Y0160090D01*
X0245140Y0158599D01*
X0244334Y0156651D01*
X0244334Y0154542D01*
X0245140Y0152594D01*
X0246631Y0151103D01*
X0247855Y0150597D01*
X0246631Y0150090D01*
X0245140Y0148599D01*
X0244725Y0147597D01*
X0180065Y0147597D01*
X0168696Y0136228D01*
X0168657Y0136244D01*
X0167225Y0136244D01*
X0165901Y0135696D01*
X0164889Y0134683D01*
X0164872Y0134644D01*
X0151009Y0134644D01*
X0150993Y0134683D01*
X0149980Y0135696D01*
X0148657Y0136244D01*
X0147225Y0136244D01*
X0145901Y0135696D01*
X0144889Y0134683D01*
X0144341Y0133360D01*
X0144341Y0131928D01*
X0144889Y0130605D01*
X0145901Y0129592D01*
X0145941Y0129576D01*
X0145941Y0078815D01*
X0149357Y0075399D01*
X0149341Y0075360D01*
X0149341Y0073928D01*
X0149889Y0072605D01*
X0150901Y0071592D01*
X0152225Y0071044D01*
X0153657Y0071044D01*
X0154980Y0071592D01*
X0155993Y0072605D01*
X0156541Y0073928D01*
X0156541Y0075360D01*
X0155993Y0076683D01*
X0154980Y0077696D01*
X0153657Y0078244D01*
X0152225Y0078244D01*
X0152185Y0078228D01*
X0149941Y0080472D01*
X0149941Y0129576D01*
X0149980Y0129592D01*
X0150993Y0130605D01*
X0151009Y0130644D01*
X0164872Y0130644D01*
X0164889Y0130605D01*
X0165901Y0129592D01*
X0167225Y0129044D01*
X0168657Y0129044D01*
X0169980Y0129592D01*
X0170993Y0130605D01*
X0171541Y0131928D01*
X0171541Y0133360D01*
X0171524Y0133399D01*
X0181722Y0143597D01*
X0244725Y0143597D01*
X0245140Y0142594D01*
X0246631Y0141103D01*
X0247855Y0140597D01*
X0246631Y0140090D01*
X0245140Y0138599D01*
X0244334Y0136651D01*
X0244334Y0134542D01*
X0245140Y0132594D01*
X0246631Y0131103D01*
X0247855Y0130597D01*
X0246631Y0130090D01*
X0245140Y0128599D01*
X0244334Y0126651D01*
X0244334Y0124542D01*
X0245140Y0122594D01*
X0246631Y0121103D01*
X0247855Y0120597D01*
X0246631Y0120090D01*
X0245140Y0118599D01*
X0244334Y0116651D01*
X0244334Y0114542D01*
X0245140Y0112594D01*
X0246631Y0111103D01*
X0248147Y0110476D01*
X0247676Y0110323D01*
X0246961Y0109958D01*
X0246311Y0109487D01*
X0245743Y0108919D01*
X0245272Y0108270D01*
X0244907Y0107554D01*
X0244659Y0106791D01*
X0244534Y0105998D01*
X0244534Y0105997D01*
X0249233Y0105997D01*
X0249233Y0105197D01*
X0244534Y0105197D01*
X0244534Y0105195D01*
X0244659Y0104402D01*
X0244907Y0103639D01*
X0245272Y0102924D01*
X0245743Y0102274D01*
X0246311Y0101706D01*
X0246961Y0101235D01*
X0247676Y0100870D01*
X0248147Y0100717D01*
X0246631Y0100090D01*
X0245140Y0098599D01*
X0244334Y0096651D01*
X0244334Y0094542D01*
X0245140Y0092594D01*
X0246631Y0091103D01*
X0247855Y0090597D01*
X0246631Y0090090D01*
X0245140Y0088599D01*
X0244334Y0086651D01*
X0244334Y0084542D01*
X0245140Y0082594D01*
X0246631Y0081103D01*
X0247855Y0080597D01*
X0246631Y0080090D01*
X0245140Y0078599D01*
X0244334Y0076651D01*
X0244334Y0074542D01*
X0245140Y0072594D01*
X0246631Y0071103D01*
X0247855Y0070597D01*
X0246631Y0070090D01*
X0245140Y0068599D01*
X0244334Y0066651D01*
X0244334Y0064542D01*
X0245140Y0062594D01*
X0246631Y0061103D01*
X0247855Y0060597D01*
X0246631Y0060090D01*
X0245140Y0058599D01*
X0244334Y0056651D01*
X0244334Y0054542D01*
X0245140Y0052594D01*
X0246631Y0051103D01*
X0247855Y0050597D01*
X0246631Y0050090D01*
X0245140Y0048599D01*
X0244334Y0046651D01*
X0244334Y0044542D01*
X0245140Y0042594D01*
X0246631Y0041103D01*
X0248147Y0040476D01*
X0247676Y0040323D01*
X0246961Y0039958D01*
X0246311Y0039487D01*
X0245743Y0038919D01*
X0245272Y0038270D01*
X0244907Y0037554D01*
X0244659Y0036791D01*
X0244534Y0035998D01*
X0244534Y0035997D01*
X0249233Y0035997D01*
X0249233Y0035197D01*
X0244534Y0035197D01*
X0244534Y0035195D01*
X0244659Y0034402D01*
X0244907Y0033639D01*
X0245272Y0032924D01*
X0245743Y0032274D01*
X0246311Y0031706D01*
X0246961Y0031235D01*
X0247676Y0030870D01*
X0248439Y0030622D01*
X0249232Y0030497D01*
X0249234Y0030497D01*
X0249234Y0035196D01*
X0250034Y0035196D01*
X0250034Y0030497D01*
X0250035Y0030497D01*
X0250828Y0030622D01*
X0251591Y0030870D01*
X0252307Y0031235D01*
X0252956Y0031706D01*
X0253524Y0032274D01*
X0253995Y0032924D01*
X0254360Y0033639D01*
X0254513Y0034110D01*
X0255140Y0032594D01*
X0256631Y0031103D01*
X0258579Y0030297D01*
X0260688Y0030297D01*
X0262636Y0031103D01*
X0264127Y0032594D01*
X0264934Y0034542D01*
X0264934Y0036651D01*
X0264127Y0038599D01*
X0262636Y0040090D01*
X0261412Y0040597D01*
X0262636Y0041103D01*
X0264127Y0042594D01*
X0264934Y0044542D01*
X0264934Y0046651D01*
X0264127Y0048599D01*
X0262636Y0050090D01*
X0261412Y0050597D01*
X0262636Y0051103D01*
X0264127Y0052594D01*
X0264934Y0054542D01*
X0264934Y0056651D01*
X0264127Y0058599D01*
X0262636Y0060090D01*
X0261121Y0060717D01*
X0261591Y0060870D01*
X0262307Y0061235D01*
X0262956Y0061706D01*
X0263524Y0062274D01*
X0263995Y0062924D01*
X0264360Y0063639D01*
X0264608Y0064402D01*
X0264734Y0065195D01*
X0264734Y0065197D01*
X0260034Y0065197D01*
X0260034Y0065997D01*
X0264734Y0065997D01*
X0264734Y0065998D01*
X0264608Y0066791D01*
X0264360Y0067554D01*
X0263995Y0068270D01*
X0263524Y0068919D01*
X0262956Y0069487D01*
X0262307Y0069958D01*
X0261591Y0070323D01*
X0261121Y0070476D01*
X0262636Y0071103D01*
X0264127Y0072594D01*
X0264934Y0074542D01*
X0264934Y0076651D01*
X0264127Y0078599D01*
X0262636Y0080090D01*
X0261121Y0080717D01*
X0261591Y0080870D01*
X0262307Y0081235D01*
X0262956Y0081706D01*
X0263524Y0082274D01*
X0263995Y0082924D01*
X0264360Y0083639D01*
X0264608Y0084402D01*
X0264734Y0085195D01*
X0264734Y0085197D01*
X0260034Y0085197D01*
X0260034Y0085997D01*
X0264734Y0085997D01*
X0264734Y0085998D01*
X0264608Y0086791D01*
X0264360Y0087554D01*
X0263995Y0088270D01*
X0263524Y0088919D01*
X0262956Y0089487D01*
X0262307Y0089958D01*
X0261591Y0090323D01*
X0261121Y0090476D01*
X0262636Y0091103D01*
X0264127Y0092594D01*
X0264934Y0094542D01*
X0264934Y0096651D01*
X0264127Y0098599D01*
X0262636Y0100090D01*
X0261412Y0100597D01*
X0262636Y0101103D01*
X0264127Y0102594D01*
X0264934Y0104542D01*
X0264934Y0106651D01*
X0264127Y0108599D01*
X0262636Y0110090D01*
X0261412Y0110597D01*
X0262636Y0111103D01*
X0264127Y0112594D01*
X0264934Y0114542D01*
X0264934Y0116651D01*
X0264127Y0118599D01*
X0262636Y0120090D01*
X0261412Y0120597D01*
X0262636Y0121103D01*
X0264127Y0122594D01*
X0264934Y0124542D01*
X0264934Y0126651D01*
X0264127Y0128599D01*
X0262636Y0130090D01*
X0261121Y0130717D01*
X0261591Y0130870D01*
X0262307Y0131235D01*
X0262956Y0131706D01*
X0263524Y0132274D01*
X0263995Y0132924D01*
X0264360Y0133639D01*
X0264608Y0134402D01*
X0264734Y0135195D01*
X0264734Y0135197D01*
X0260034Y0135197D01*
X0266813Y0135197D01*
X0266813Y0135995D02*
X0260034Y0135995D01*
X0260034Y0135997D02*
X0264734Y0135997D01*
X0264734Y0135998D01*
X0264608Y0136791D01*
X0264360Y0137554D01*
X0263995Y0138270D01*
X0263524Y0138919D01*
X0262956Y0139487D01*
X0262307Y0139958D01*
X0261591Y0140323D01*
X0261121Y0140476D01*
X0262636Y0141103D01*
X0264127Y0142594D01*
X0264934Y0144542D01*
X0264934Y0146651D01*
X0264127Y0148599D01*
X0262636Y0150090D01*
X0261412Y0150597D01*
X0262636Y0151103D01*
X0264127Y0152594D01*
X0264934Y0154542D01*
X0264934Y0156651D01*
X0264127Y0158599D01*
X0262636Y0160090D01*
X0261121Y0160717D01*
X0261591Y0160870D01*
X0262307Y0161235D01*
X0262956Y0161706D01*
X0263524Y0162274D01*
X0263995Y0162924D01*
X0264360Y0163639D01*
X0264608Y0164402D01*
X0264734Y0165195D01*
X0264734Y0165197D01*
X0260034Y0165197D01*
X0260034Y0165997D01*
X0264734Y0165997D01*
X0264734Y0165998D01*
X0264608Y0166791D01*
X0264360Y0167554D01*
X0263995Y0168270D01*
X0263524Y0168919D01*
X0262956Y0169487D01*
X0262307Y0169958D01*
X0261591Y0170323D01*
X0261121Y0170476D01*
X0262636Y0171103D01*
X0264127Y0172594D01*
X0264934Y0174542D01*
X0264934Y0176651D01*
X0264127Y0178599D01*
X0262636Y0180090D01*
X0261412Y0180597D01*
X0262636Y0181103D01*
X0264127Y0182594D01*
X0264934Y0184542D01*
X0264934Y0186651D01*
X0264127Y0188599D01*
X0262636Y0190090D01*
X0261412Y0190597D01*
X0262636Y0191103D01*
X0264127Y0192594D01*
X0264934Y0194542D01*
X0264934Y0196651D01*
X0264127Y0198599D01*
X0262636Y0200090D01*
X0261121Y0200717D01*
X0261591Y0200870D01*
X0262307Y0201235D01*
X0262956Y0201706D01*
X0263524Y0202274D01*
X0263995Y0202924D01*
X0264360Y0203639D01*
X0264608Y0204402D01*
X0264734Y0205195D01*
X0264734Y0205197D01*
X0260034Y0205197D01*
X0260034Y0205997D01*
X0264734Y0205997D01*
X0264734Y0205998D01*
X0264608Y0206791D01*
X0264360Y0207554D01*
X0263995Y0208270D01*
X0263524Y0208919D01*
X0262956Y0209487D01*
X0262307Y0209958D01*
X0261591Y0210323D01*
X0261121Y0210476D01*
X0262636Y0211103D01*
X0264127Y0212594D01*
X0264934Y0214542D01*
X0264934Y0216651D01*
X0264127Y0218599D01*
X0262636Y0220090D01*
X0261412Y0220597D01*
X0262636Y0221103D01*
X0264127Y0222594D01*
X0264934Y0224542D01*
X0264934Y0226651D01*
X0264127Y0228599D01*
X0262636Y0230090D01*
X0260688Y0230897D01*
X0258579Y0230897D01*
X0256631Y0230090D01*
X0255140Y0228599D01*
X0254634Y0227375D01*
X0254127Y0228599D01*
X0252636Y0230090D01*
X0250688Y0230897D01*
X0248579Y0230897D01*
X0246631Y0230090D01*
X0245963Y0229421D02*
X0112941Y0229421D01*
X0113241Y0228622D02*
X0245164Y0228622D01*
X0244820Y0227824D02*
X0113241Y0227824D01*
X0113241Y0227025D02*
X0244489Y0227025D01*
X0244334Y0226227D02*
X0113090Y0226227D01*
X0112760Y0225428D02*
X0244334Y0225428D01*
X0244334Y0224630D02*
X0112422Y0224630D01*
X0111624Y0223831D02*
X0244628Y0223831D01*
X0244959Y0223033D02*
X0110659Y0223033D01*
X0110707Y0222234D02*
X0245500Y0222234D01*
X0246299Y0221436D02*
X0111644Y0221436D01*
X0112437Y0220637D02*
X0247756Y0220637D01*
X0246381Y0219839D02*
X0112768Y0219839D01*
X0113099Y0219040D02*
X0245582Y0219040D01*
X0244993Y0218242D02*
X0113241Y0218242D01*
X0113241Y0217443D02*
X0244662Y0217443D01*
X0244334Y0216645D02*
X0113241Y0216645D01*
X0112933Y0215846D02*
X0244334Y0215846D01*
X0244334Y0215048D02*
X0112602Y0215048D01*
X0112041Y0214249D02*
X0244455Y0214249D01*
X0244786Y0213451D02*
X0111243Y0213451D01*
X0111226Y0211854D02*
X0245881Y0211854D01*
X0245116Y0212652D02*
X0109740Y0212652D01*
X0112024Y0211055D02*
X0246748Y0211055D01*
X0247035Y0210257D02*
X0112595Y0210257D01*
X0112926Y0209458D02*
X0246000Y0209458D01*
X0245201Y0208660D02*
X0113241Y0208660D01*
X0113241Y0207861D02*
X0244835Y0207861D01*
X0244504Y0207063D02*
X0113241Y0207063D01*
X0113106Y0206264D02*
X0244334Y0206264D01*
X0244334Y0205466D02*
X0112775Y0205466D01*
X0112444Y0204667D02*
X0244334Y0204667D01*
X0244613Y0203869D02*
X0111661Y0203869D01*
X0110748Y0203070D02*
X0244943Y0203070D01*
X0245463Y0202272D02*
X0112693Y0202272D01*
X0113041Y0201473D02*
X0246262Y0201473D01*
X0246418Y0199876D02*
X0113041Y0199876D01*
X0113041Y0199078D02*
X0245619Y0199078D01*
X0245008Y0198279D02*
X0113041Y0198279D01*
X0113041Y0196682D02*
X0244347Y0196682D01*
X0244334Y0195884D02*
X0113041Y0195884D01*
X0113041Y0195085D02*
X0244334Y0195085D01*
X0244439Y0194287D02*
X0113041Y0194287D01*
X0112968Y0193488D02*
X0244770Y0193488D01*
X0245101Y0192689D02*
X0112268Y0192689D01*
X0111189Y0191891D02*
X0245844Y0191891D01*
X0246658Y0191092D02*
X0111987Y0191092D01*
X0112580Y0190294D02*
X0247619Y0190294D01*
X0246323Y0189495D02*
X0112910Y0189495D01*
X0113241Y0188697D02*
X0245582Y0188697D01*
X0245083Y0187898D02*
X0113241Y0187898D01*
X0113241Y0187100D02*
X0244760Y0187100D01*
X0244582Y0186301D02*
X0113121Y0186301D01*
X0112791Y0185503D02*
X0249233Y0185503D01*
X0244611Y0184704D02*
X0112460Y0184704D01*
X0111698Y0183906D02*
X0244820Y0183906D01*
X0245178Y0183107D02*
X0110838Y0183107D01*
X0105043Y0183107D02*
X0081230Y0183107D01*
X0081031Y0183260D02*
X0080305Y0183680D01*
X0079530Y0184001D01*
X0078719Y0184218D01*
X0077888Y0184327D01*
X0077868Y0184327D01*
X0077868Y0178327D01*
X0083868Y0178327D01*
X0083868Y0178347D01*
X0083759Y0179179D01*
X0083542Y0179989D01*
X0083220Y0180764D01*
X0082801Y0181491D01*
X0082290Y0182156D01*
X0081697Y0182749D01*
X0081031Y0183260D01*
X0079759Y0183906D02*
X0104183Y0183906D01*
X0103421Y0184704D02*
X0049541Y0184704D01*
X0049541Y0183906D02*
X0075178Y0183906D01*
X0075407Y0184001D02*
X0074631Y0183680D01*
X0073905Y0183260D01*
X0073239Y0182749D01*
X0072646Y0182156D01*
X0072135Y0181491D01*
X0071716Y0180764D01*
X0071395Y0179989D01*
X0071178Y0179179D01*
X0071068Y0178347D01*
X0071068Y0178327D01*
X0077068Y0178327D01*
X0077068Y0177527D01*
X0077868Y0177527D01*
X0077868Y0171527D01*
X0077888Y0171527D01*
X0078719Y0171637D01*
X0079530Y0171854D01*
X0080305Y0172175D01*
X0081031Y0172594D01*
X0081697Y0173105D01*
X0082290Y0173698D01*
X0082801Y0174364D01*
X0083220Y0175091D01*
X0083542Y0175866D01*
X0083759Y0176676D01*
X0083868Y0177508D01*
X0083868Y0177527D01*
X0077868Y0177527D01*
X0077868Y0178327D01*
X0077068Y0178327D01*
X0077068Y0184327D01*
X0077049Y0184327D01*
X0076217Y0184218D01*
X0075407Y0184001D01*
X0077068Y0183906D02*
X0077868Y0183906D01*
X0077868Y0183107D02*
X0077068Y0183107D01*
X0077068Y0182309D02*
X0077868Y0182309D01*
X0077868Y0181510D02*
X0077068Y0181510D01*
X0077068Y0180712D02*
X0077868Y0180712D01*
X0077868Y0179913D02*
X0077068Y0179913D01*
X0077068Y0179115D02*
X0077868Y0179115D01*
X0077868Y0178316D02*
X0245023Y0178316D01*
X0245656Y0179115D02*
X0083767Y0179115D01*
X0083562Y0179913D02*
X0246455Y0179913D01*
X0246581Y0181510D02*
X0082786Y0181510D01*
X0083242Y0180712D02*
X0248133Y0180712D01*
X0245718Y0182309D02*
X0082138Y0182309D01*
X0083868Y0177518D02*
X0146986Y0177518D01*
X0146188Y0176719D02*
X0083764Y0176719D01*
X0083556Y0175921D02*
X0145389Y0175921D01*
X0144591Y0175122D02*
X0083234Y0175122D01*
X0082770Y0174324D02*
X0143792Y0174324D01*
X0142994Y0173525D02*
X0082117Y0173525D01*
X0081204Y0172727D02*
X0142195Y0172727D01*
X0141397Y0171928D02*
X0079709Y0171928D01*
X0077868Y0171928D02*
X0077068Y0171928D01*
X0077068Y0171527D02*
X0077068Y0177527D01*
X0071068Y0177527D01*
X0071068Y0177508D01*
X0071178Y0176676D01*
X0071395Y0175866D01*
X0071716Y0175091D01*
X0072135Y0174364D01*
X0072646Y0173698D01*
X0073239Y0173105D01*
X0073905Y0172594D01*
X0074631Y0172175D01*
X0075407Y0171854D01*
X0076217Y0171637D01*
X0077049Y0171527D01*
X0077068Y0171527D01*
X0077068Y0172727D02*
X0077868Y0172727D01*
X0077868Y0173525D02*
X0077068Y0173525D01*
X0077068Y0174324D02*
X0077868Y0174324D01*
X0077868Y0175122D02*
X0077068Y0175122D01*
X0077068Y0175921D02*
X0077868Y0175921D01*
X0077868Y0176719D02*
X0077068Y0176719D01*
X0077068Y0177518D02*
X0077868Y0177518D01*
X0077068Y0178316D02*
X0049541Y0178316D01*
X0049541Y0177518D02*
X0071068Y0177518D01*
X0071172Y0176719D02*
X0049541Y0176719D01*
X0049541Y0175921D02*
X0071380Y0175921D01*
X0071703Y0175122D02*
X0049541Y0175122D01*
X0049541Y0174324D02*
X0072166Y0174324D01*
X0072819Y0173525D02*
X0049541Y0173525D01*
X0049541Y0172727D02*
X0073733Y0172727D01*
X0075227Y0171928D02*
X0049541Y0171928D01*
X0049541Y0171130D02*
X0140598Y0171130D01*
X0139800Y0170331D02*
X0049541Y0170331D01*
X0049541Y0169533D02*
X0139001Y0169533D01*
X0138203Y0168734D02*
X0049541Y0168734D01*
X0049541Y0167936D02*
X0137404Y0167936D01*
X0136606Y0167137D02*
X0049541Y0167137D01*
X0049541Y0166339D02*
X0135807Y0166339D01*
X0136112Y0166644D02*
X0136112Y0166644D01*
X0135009Y0165540D02*
X0049541Y0165540D01*
X0049541Y0164742D02*
X0134941Y0164742D01*
X0134941Y0163943D02*
X0049541Y0163943D01*
X0049541Y0163145D02*
X0134941Y0163145D01*
X0134941Y0162346D02*
X0049541Y0162346D01*
X0049541Y0161548D02*
X0134941Y0161548D01*
X0134941Y0160749D02*
X0049541Y0160749D01*
X0049541Y0159951D02*
X0134941Y0159951D01*
X0134941Y0159152D02*
X0049541Y0159152D01*
X0049541Y0158353D02*
X0134941Y0158353D01*
X0134941Y0157555D02*
X0049541Y0157555D01*
X0049541Y0156756D02*
X0134941Y0156756D01*
X0134941Y0155958D02*
X0049541Y0155958D01*
X0049541Y0155159D02*
X0134941Y0155159D01*
X0134941Y0154361D02*
X0049541Y0154361D01*
X0049541Y0153562D02*
X0134941Y0153562D01*
X0134941Y0152764D02*
X0049541Y0152764D01*
X0049541Y0151965D02*
X0134941Y0151965D01*
X0134941Y0151167D02*
X0049541Y0151167D01*
X0049541Y0150368D02*
X0134941Y0150368D01*
X0134941Y0149570D02*
X0049541Y0149570D01*
X0049541Y0148771D02*
X0134941Y0148771D01*
X0134941Y0147973D02*
X0049541Y0147973D01*
X0049541Y0147174D02*
X0134941Y0147174D01*
X0134941Y0146376D02*
X0049541Y0146376D01*
X0049541Y0145577D02*
X0134941Y0145577D01*
X0134941Y0144779D02*
X0049541Y0144779D01*
X0049541Y0143980D02*
X0134941Y0143980D01*
X0134941Y0143182D02*
X0049541Y0143182D01*
X0049541Y0142383D02*
X0134941Y0142383D01*
X0134941Y0141585D02*
X0049541Y0141585D01*
X0049541Y0140786D02*
X0134941Y0140786D01*
X0134941Y0139988D02*
X0049541Y0139988D01*
X0049541Y0139189D02*
X0076024Y0139189D01*
X0076155Y0139244D02*
X0073730Y0138239D01*
X0071873Y0136382D01*
X0070868Y0133957D01*
X0070868Y0131331D01*
X0071873Y0128905D01*
X0073730Y0127049D01*
X0076155Y0126044D01*
X0078781Y0126044D01*
X0081207Y0127049D01*
X0083063Y0128905D01*
X0084068Y0131331D01*
X0084068Y0133957D01*
X0083063Y0136382D01*
X0081207Y0138239D01*
X0078781Y0139244D01*
X0076155Y0139244D01*
X0074096Y0138391D02*
X0049541Y0138391D01*
X0049541Y0137592D02*
X0073083Y0137592D01*
X0072284Y0136794D02*
X0049541Y0136794D01*
X0049541Y0135995D02*
X0071713Y0135995D01*
X0071382Y0135197D02*
X0049541Y0135197D01*
X0049541Y0134398D02*
X0071051Y0134398D01*
X0070868Y0133600D02*
X0049541Y0133600D01*
X0049541Y0132801D02*
X0070868Y0132801D01*
X0070868Y0132003D02*
X0049541Y0132003D01*
X0049541Y0131204D02*
X0070921Y0131204D01*
X0071251Y0130406D02*
X0049541Y0130406D01*
X0049541Y0129607D02*
X0071582Y0129607D01*
X0071970Y0128809D02*
X0049541Y0128809D01*
X0049541Y0128010D02*
X0072768Y0128010D01*
X0073567Y0127212D02*
X0049541Y0127212D01*
X0049541Y0126413D02*
X0075264Y0126413D01*
X0079672Y0126413D02*
X0134941Y0126413D01*
X0134941Y0125615D02*
X0049541Y0125615D01*
X0049541Y0124816D02*
X0134941Y0124816D01*
X0134941Y0124018D02*
X0049541Y0124018D01*
X0049541Y0123219D02*
X0134941Y0123219D01*
X0134941Y0122420D02*
X0049541Y0122420D01*
X0049541Y0121622D02*
X0134941Y0121622D01*
X0134941Y0120823D02*
X0049541Y0120823D01*
X0049541Y0120025D02*
X0134941Y0120025D01*
X0134941Y0119226D02*
X0078823Y0119226D01*
X0078781Y0119244D02*
X0076155Y0119244D01*
X0073730Y0118239D01*
X0071873Y0116382D01*
X0070868Y0113957D01*
X0070868Y0111331D01*
X0071873Y0108905D01*
X0073730Y0107049D01*
X0076155Y0106044D01*
X0078781Y0106044D01*
X0081207Y0107049D01*
X0083063Y0108905D01*
X0084068Y0111331D01*
X0084068Y0113957D01*
X0083063Y0116382D01*
X0081207Y0118239D01*
X0078781Y0119244D01*
X0080751Y0118428D02*
X0134941Y0118428D01*
X0134941Y0117629D02*
X0081816Y0117629D01*
X0082615Y0116831D02*
X0134941Y0116831D01*
X0134941Y0116032D02*
X0083208Y0116032D01*
X0083539Y0115234D02*
X0134941Y0115234D01*
X0134941Y0114435D02*
X0083870Y0114435D01*
X0084068Y0113637D02*
X0134941Y0113637D01*
X0134941Y0112838D02*
X0084068Y0112838D01*
X0084068Y0112040D02*
X0134941Y0112040D01*
X0134941Y0111241D02*
X0084031Y0111241D01*
X0083700Y0110443D02*
X0134941Y0110443D01*
X0134941Y0109644D02*
X0083370Y0109644D01*
X0083004Y0108846D02*
X0134941Y0108846D01*
X0134941Y0108047D02*
X0082205Y0108047D01*
X0081407Y0107249D02*
X0134941Y0107249D01*
X0134941Y0106450D02*
X0079762Y0106450D01*
X0075174Y0106450D02*
X0049541Y0106450D01*
X0049541Y0105652D02*
X0134941Y0105652D01*
X0134941Y0104853D02*
X0049541Y0104853D01*
X0049541Y0104055D02*
X0134941Y0104055D01*
X0134941Y0103256D02*
X0049541Y0103256D01*
X0049541Y0102458D02*
X0134941Y0102458D01*
X0134941Y0101659D02*
X0049541Y0101659D01*
X0049541Y0100861D02*
X0134941Y0100861D01*
X0134941Y0100062D02*
X0049541Y0100062D01*
X0049541Y0099264D02*
X0134941Y0099264D01*
X0134941Y0098465D02*
X0080138Y0098465D01*
X0080305Y0098396D02*
X0079530Y0098717D01*
X0078719Y0098934D01*
X0077888Y0099044D01*
X0077868Y0099044D01*
X0077868Y0093044D01*
X0077068Y0093044D01*
X0077068Y0099044D01*
X0077049Y0099044D01*
X0076217Y0098934D01*
X0075407Y0098717D01*
X0074631Y0098396D01*
X0073905Y0097977D01*
X0073239Y0097466D01*
X0072646Y0096873D01*
X0072135Y0096207D01*
X0071716Y0095480D01*
X0071395Y0094705D01*
X0071178Y0093895D01*
X0071068Y0093063D01*
X0071068Y0093044D01*
X0077068Y0093044D01*
X0077068Y0092244D01*
X0071068Y0092244D01*
X0071068Y0092224D01*
X0071178Y0091393D01*
X0071395Y0090582D01*
X0071716Y0089807D01*
X0072135Y0089080D01*
X0072646Y0088415D01*
X0073239Y0087822D01*
X0073905Y0087311D01*
X0074631Y0086891D01*
X0075407Y0086570D01*
X0076217Y0086353D01*
X0077049Y0086244D01*
X0077068Y0086244D01*
X0077068Y0092244D01*
X0077868Y0092244D01*
X0077868Y0093044D01*
X0083868Y0093044D01*
X0083868Y0093063D01*
X0083759Y0093895D01*
X0083542Y0094705D01*
X0083220Y0095480D01*
X0082801Y0096207D01*
X0082290Y0096873D01*
X0081697Y0097466D01*
X0081031Y0097977D01*
X0080305Y0098396D01*
X0081435Y0097667D02*
X0134941Y0097667D01*
X0134941Y0096868D02*
X0082294Y0096868D01*
X0082880Y0096070D02*
X0134941Y0096070D01*
X0134941Y0095271D02*
X0083307Y0095271D01*
X0083604Y0094473D02*
X0134941Y0094473D01*
X0134941Y0093674D02*
X0083788Y0093674D01*
X0083868Y0092244D02*
X0077868Y0092244D01*
X0077868Y0086244D01*
X0077888Y0086244D01*
X0078719Y0086353D01*
X0079530Y0086570D01*
X0080305Y0086891D01*
X0081031Y0087311D01*
X0081697Y0087822D01*
X0082290Y0088415D01*
X0082801Y0089080D01*
X0083220Y0089807D01*
X0083542Y0090582D01*
X0083759Y0091393D01*
X0083868Y0092224D01*
X0083868Y0092244D01*
X0083849Y0092077D02*
X0134941Y0092077D01*
X0134941Y0091279D02*
X0083728Y0091279D01*
X0083499Y0090480D02*
X0134941Y0090480D01*
X0134941Y0089682D02*
X0083148Y0089682D01*
X0082649Y0088883D02*
X0134941Y0088883D01*
X0134941Y0088084D02*
X0081960Y0088084D01*
X0080988Y0087286D02*
X0134941Y0087286D01*
X0134941Y0086487D02*
X0079220Y0086487D01*
X0077868Y0086487D02*
X0077068Y0086487D01*
X0077068Y0087286D02*
X0077868Y0087286D01*
X0077868Y0088084D02*
X0077068Y0088084D01*
X0077068Y0088883D02*
X0077868Y0088883D01*
X0077868Y0089682D02*
X0077068Y0089682D01*
X0077068Y0090480D02*
X0077868Y0090480D01*
X0077868Y0091279D02*
X0077068Y0091279D01*
X0077068Y0092077D02*
X0077868Y0092077D01*
X0077868Y0092876D02*
X0134941Y0092876D01*
X0138941Y0092876D02*
X0145941Y0092876D01*
X0145941Y0093674D02*
X0138941Y0093674D01*
X0138941Y0094473D02*
X0145941Y0094473D01*
X0145941Y0095271D02*
X0138941Y0095271D01*
X0138941Y0096070D02*
X0145941Y0096070D01*
X0145941Y0096868D02*
X0138941Y0096868D01*
X0138941Y0097667D02*
X0145941Y0097667D01*
X0145941Y0098465D02*
X0138941Y0098465D01*
X0138941Y0099264D02*
X0145941Y0099264D01*
X0145941Y0100062D02*
X0138941Y0100062D01*
X0138941Y0100861D02*
X0145941Y0100861D01*
X0145941Y0101659D02*
X0138941Y0101659D01*
X0138941Y0102458D02*
X0145941Y0102458D01*
X0145941Y0103256D02*
X0138941Y0103256D01*
X0138941Y0104055D02*
X0145941Y0104055D01*
X0145941Y0104853D02*
X0138941Y0104853D01*
X0138941Y0105652D02*
X0145941Y0105652D01*
X0145941Y0106450D02*
X0138941Y0106450D01*
X0138941Y0107249D02*
X0145941Y0107249D01*
X0145941Y0108047D02*
X0138941Y0108047D01*
X0138941Y0108846D02*
X0145941Y0108846D01*
X0145941Y0109644D02*
X0138941Y0109644D01*
X0138941Y0110443D02*
X0145941Y0110443D01*
X0145941Y0111241D02*
X0138941Y0111241D01*
X0138941Y0112040D02*
X0145941Y0112040D01*
X0145941Y0112838D02*
X0138941Y0112838D01*
X0138941Y0113637D02*
X0145941Y0113637D01*
X0145941Y0114435D02*
X0138941Y0114435D01*
X0138941Y0115234D02*
X0145941Y0115234D01*
X0145941Y0116032D02*
X0138941Y0116032D01*
X0138941Y0116831D02*
X0145941Y0116831D01*
X0145941Y0117629D02*
X0138941Y0117629D01*
X0138941Y0118428D02*
X0145941Y0118428D01*
X0145941Y0119226D02*
X0138941Y0119226D01*
X0138941Y0120025D02*
X0145941Y0120025D01*
X0145941Y0120823D02*
X0138941Y0120823D01*
X0138941Y0121622D02*
X0145941Y0121622D01*
X0145941Y0122420D02*
X0138941Y0122420D01*
X0138941Y0123219D02*
X0145941Y0123219D01*
X0145941Y0124018D02*
X0138941Y0124018D01*
X0138941Y0124816D02*
X0145941Y0124816D01*
X0145941Y0125615D02*
X0138941Y0125615D01*
X0138941Y0126413D02*
X0145941Y0126413D01*
X0145941Y0127212D02*
X0138941Y0127212D01*
X0138941Y0128010D02*
X0145941Y0128010D01*
X0145941Y0128809D02*
X0138941Y0128809D01*
X0138941Y0129607D02*
X0145886Y0129607D01*
X0145088Y0130406D02*
X0138941Y0130406D01*
X0138941Y0131204D02*
X0144640Y0131204D01*
X0144341Y0132003D02*
X0138941Y0132003D01*
X0138941Y0132801D02*
X0144341Y0132801D01*
X0144440Y0133600D02*
X0138941Y0133600D01*
X0138941Y0134398D02*
X0144771Y0134398D01*
X0145402Y0135197D02*
X0138941Y0135197D01*
X0138941Y0135995D02*
X0146624Y0135995D01*
X0149257Y0135995D02*
X0166624Y0135995D01*
X0165402Y0135197D02*
X0150479Y0135197D01*
X0147941Y0132644D02*
X0147941Y0079644D01*
X0152941Y0074644D01*
X0155502Y0072114D02*
X0245620Y0072114D01*
X0245009Y0072913D02*
X0156120Y0072913D01*
X0156451Y0073711D02*
X0244678Y0073711D01*
X0244347Y0074510D02*
X0156541Y0074510D01*
X0156541Y0075308D02*
X0244334Y0075308D01*
X0244334Y0076107D02*
X0156231Y0076107D01*
X0155770Y0076905D02*
X0244439Y0076905D01*
X0244770Y0077704D02*
X0154960Y0077704D01*
X0151910Y0078502D02*
X0245101Y0078502D01*
X0245843Y0079301D02*
X0151112Y0079301D01*
X0150313Y0080099D02*
X0246655Y0080099D01*
X0247128Y0080898D02*
X0149941Y0080898D01*
X0149941Y0081696D02*
X0246038Y0081696D01*
X0245240Y0082495D02*
X0149941Y0082495D01*
X0149941Y0083293D02*
X0244851Y0083293D01*
X0244520Y0084092D02*
X0149941Y0084092D01*
X0149941Y0084890D02*
X0244334Y0084890D01*
X0244334Y0085689D02*
X0149941Y0085689D01*
X0149941Y0086487D02*
X0244334Y0086487D01*
X0244597Y0087286D02*
X0149941Y0087286D01*
X0149941Y0088084D02*
X0244927Y0088084D01*
X0245425Y0088883D02*
X0149941Y0088883D01*
X0149941Y0089682D02*
X0246223Y0089682D01*
X0247574Y0090480D02*
X0149941Y0090480D01*
X0149941Y0091279D02*
X0246456Y0091279D01*
X0245658Y0092077D02*
X0149941Y0092077D01*
X0149941Y0092876D02*
X0245024Y0092876D01*
X0244693Y0093674D02*
X0149941Y0093674D01*
X0149941Y0094473D02*
X0244362Y0094473D01*
X0244334Y0095271D02*
X0149941Y0095271D01*
X0149941Y0096070D02*
X0244334Y0096070D01*
X0244424Y0096868D02*
X0149941Y0096868D01*
X0149941Y0097667D02*
X0244754Y0097667D01*
X0245085Y0098465D02*
X0149941Y0098465D01*
X0149941Y0099264D02*
X0245805Y0099264D01*
X0246604Y0100062D02*
X0149941Y0100062D01*
X0149941Y0100861D02*
X0247705Y0100861D01*
X0246376Y0101659D02*
X0149941Y0101659D01*
X0149941Y0102458D02*
X0245610Y0102458D01*
X0245102Y0103256D02*
X0149941Y0103256D01*
X0149941Y0104055D02*
X0244772Y0104055D01*
X0244588Y0104853D02*
X0149941Y0104853D01*
X0149941Y0105652D02*
X0249233Y0105652D01*
X0244605Y0106450D02*
X0149941Y0106450D01*
X0149941Y0107249D02*
X0244808Y0107249D01*
X0245158Y0108047D02*
X0149941Y0108047D01*
X0149941Y0108846D02*
X0245690Y0108846D01*
X0246528Y0109644D02*
X0149941Y0109644D01*
X0149941Y0110443D02*
X0248045Y0110443D01*
X0246493Y0111241D02*
X0149941Y0111241D01*
X0149941Y0112040D02*
X0245695Y0112040D01*
X0245039Y0112838D02*
X0149941Y0112838D01*
X0149941Y0113637D02*
X0244709Y0113637D01*
X0244378Y0114435D02*
X0149941Y0114435D01*
X0149941Y0115234D02*
X0244334Y0115234D01*
X0244334Y0116032D02*
X0149941Y0116032D01*
X0149941Y0116831D02*
X0244408Y0116831D01*
X0244739Y0117629D02*
X0149941Y0117629D01*
X0149941Y0118428D02*
X0245070Y0118428D01*
X0245768Y0119226D02*
X0149941Y0119226D01*
X0149941Y0120025D02*
X0246567Y0120025D01*
X0247307Y0120823D02*
X0149941Y0120823D01*
X0149941Y0121622D02*
X0246113Y0121622D01*
X0245314Y0122420D02*
X0149941Y0122420D01*
X0149941Y0123219D02*
X0244882Y0123219D01*
X0244551Y0124018D02*
X0149941Y0124018D01*
X0149941Y0124816D02*
X0244334Y0124816D01*
X0244334Y0125615D02*
X0149941Y0125615D01*
X0149941Y0126413D02*
X0244334Y0126413D01*
X0244566Y0127212D02*
X0149941Y0127212D01*
X0149941Y0128010D02*
X0244897Y0128010D01*
X0245350Y0128809D02*
X0149941Y0128809D01*
X0149995Y0129607D02*
X0165886Y0129607D01*
X0165088Y0130406D02*
X0150794Y0130406D01*
X0147941Y0132644D02*
X0167941Y0132644D01*
X0180893Y0145597D01*
X0249634Y0145597D01*
X0246112Y0149570D02*
X0138941Y0149570D01*
X0138941Y0150368D02*
X0247304Y0150368D01*
X0246568Y0151167D02*
X0138941Y0151167D01*
X0138941Y0151965D02*
X0245769Y0151965D01*
X0245070Y0152764D02*
X0138941Y0152764D01*
X0138941Y0153562D02*
X0244739Y0153562D01*
X0244409Y0154361D02*
X0138941Y0154361D01*
X0138941Y0155159D02*
X0244334Y0155159D01*
X0244334Y0155958D02*
X0138941Y0155958D01*
X0138941Y0156756D02*
X0244377Y0156756D01*
X0244708Y0157555D02*
X0138941Y0157555D01*
X0138941Y0158353D02*
X0245039Y0158353D01*
X0245694Y0159152D02*
X0138941Y0159152D01*
X0138941Y0159951D02*
X0246492Y0159951D01*
X0247487Y0160749D02*
X0138941Y0160749D01*
X0138941Y0161548D02*
X0246187Y0161548D01*
X0245389Y0162346D02*
X0138941Y0162346D01*
X0138941Y0163145D02*
X0244913Y0163145D01*
X0244582Y0163943D02*
X0139068Y0163943D01*
X0139867Y0164742D02*
X0244334Y0164742D01*
X0244334Y0165540D02*
X0140665Y0165540D01*
X0141464Y0166339D02*
X0244334Y0166339D01*
X0244535Y0167137D02*
X0142262Y0167137D01*
X0143061Y0167936D02*
X0244866Y0167936D01*
X0245276Y0168734D02*
X0143859Y0168734D01*
X0144658Y0169533D02*
X0246074Y0169533D01*
X0247214Y0170331D02*
X0145456Y0170331D01*
X0146255Y0171130D02*
X0246605Y0171130D01*
X0245807Y0171928D02*
X0147053Y0171928D01*
X0147852Y0172727D02*
X0245086Y0172727D01*
X0244755Y0173525D02*
X0148650Y0173525D01*
X0147893Y0175597D02*
X0136941Y0164644D01*
X0136941Y0075644D01*
X0139978Y0076905D02*
X0147851Y0076905D01*
X0148649Y0076107D02*
X0140230Y0076107D01*
X0140230Y0075308D02*
X0149341Y0075308D01*
X0149341Y0074510D02*
X0140031Y0074510D01*
X0139659Y0073711D02*
X0149430Y0073711D01*
X0149761Y0072913D02*
X0138861Y0072913D01*
X0135020Y0072913D02*
X0049541Y0072913D01*
X0049541Y0073711D02*
X0134222Y0073711D01*
X0133850Y0074510D02*
X0049541Y0074510D01*
X0049541Y0075308D02*
X0133652Y0075308D01*
X0133652Y0076107D02*
X0049541Y0076107D01*
X0049541Y0076905D02*
X0133903Y0076905D01*
X0134349Y0077704D02*
X0049541Y0077704D01*
X0049541Y0078502D02*
X0134941Y0078502D01*
X0134941Y0079301D02*
X0049541Y0079301D01*
X0049541Y0080099D02*
X0134941Y0080099D01*
X0134941Y0080898D02*
X0049541Y0080898D01*
X0049541Y0081696D02*
X0134941Y0081696D01*
X0134941Y0082495D02*
X0049541Y0082495D01*
X0049541Y0083293D02*
X0134941Y0083293D01*
X0134941Y0084092D02*
X0049541Y0084092D01*
X0049541Y0084890D02*
X0134941Y0084890D01*
X0134941Y0085689D02*
X0049541Y0085689D01*
X0049541Y0086487D02*
X0075716Y0086487D01*
X0073948Y0087286D02*
X0049541Y0087286D01*
X0049541Y0088084D02*
X0072977Y0088084D01*
X0072287Y0088883D02*
X0049541Y0088883D01*
X0049541Y0089682D02*
X0071788Y0089682D01*
X0071437Y0090480D02*
X0049541Y0090480D01*
X0049541Y0091279D02*
X0071208Y0091279D01*
X0071088Y0092077D02*
X0049541Y0092077D01*
X0049541Y0092876D02*
X0077068Y0092876D01*
X0077068Y0093674D02*
X0077868Y0093674D01*
X0077868Y0094473D02*
X0077068Y0094473D01*
X0077068Y0095271D02*
X0077868Y0095271D01*
X0077868Y0096070D02*
X0077068Y0096070D01*
X0077068Y0096868D02*
X0077868Y0096868D01*
X0077868Y0097667D02*
X0077068Y0097667D01*
X0077068Y0098465D02*
X0077868Y0098465D01*
X0074798Y0098465D02*
X0049541Y0098465D01*
X0049541Y0097667D02*
X0073501Y0097667D01*
X0072643Y0096868D02*
X0049541Y0096868D01*
X0049541Y0096070D02*
X0072056Y0096070D01*
X0071629Y0095271D02*
X0049541Y0095271D01*
X0049541Y0094473D02*
X0071332Y0094473D01*
X0071149Y0093674D02*
X0049541Y0093674D01*
X0049541Y0107249D02*
X0073529Y0107249D01*
X0072731Y0108047D02*
X0049541Y0108047D01*
X0049541Y0108846D02*
X0071932Y0108846D01*
X0071567Y0109644D02*
X0049541Y0109644D01*
X0049541Y0110443D02*
X0071236Y0110443D01*
X0070905Y0111241D02*
X0049541Y0111241D01*
X0049541Y0112040D02*
X0070868Y0112040D01*
X0070868Y0112838D02*
X0049541Y0112838D01*
X0049541Y0113637D02*
X0070868Y0113637D01*
X0071067Y0114435D02*
X0049541Y0114435D01*
X0049541Y0115234D02*
X0071397Y0115234D01*
X0071728Y0116032D02*
X0049541Y0116032D01*
X0049541Y0116831D02*
X0072322Y0116831D01*
X0073120Y0117629D02*
X0049541Y0117629D01*
X0049541Y0118428D02*
X0074186Y0118428D01*
X0076114Y0119226D02*
X0049541Y0119226D01*
X0078913Y0139189D02*
X0134941Y0139189D01*
X0134941Y0138391D02*
X0080841Y0138391D01*
X0081854Y0137592D02*
X0134941Y0137592D01*
X0134941Y0136794D02*
X0082652Y0136794D01*
X0083224Y0135995D02*
X0134941Y0135995D01*
X0134941Y0135197D02*
X0083555Y0135197D01*
X0083885Y0134398D02*
X0134941Y0134398D01*
X0134941Y0133600D02*
X0084068Y0133600D01*
X0084068Y0132801D02*
X0134941Y0132801D01*
X0134941Y0132003D02*
X0084068Y0132003D01*
X0084016Y0131204D02*
X0134941Y0131204D01*
X0134941Y0130406D02*
X0083685Y0130406D01*
X0083354Y0129607D02*
X0134941Y0129607D01*
X0134941Y0128809D02*
X0082967Y0128809D01*
X0082168Y0128010D02*
X0134941Y0128010D01*
X0134941Y0127212D02*
X0081370Y0127212D01*
X0138941Y0136794D02*
X0169262Y0136794D01*
X0170061Y0137592D02*
X0138941Y0137592D01*
X0138941Y0138391D02*
X0170859Y0138391D01*
X0171658Y0139189D02*
X0138941Y0139189D01*
X0138941Y0139988D02*
X0172456Y0139988D01*
X0173255Y0140786D02*
X0138941Y0140786D01*
X0138941Y0141585D02*
X0174053Y0141585D01*
X0174852Y0142383D02*
X0138941Y0142383D01*
X0138941Y0143182D02*
X0175650Y0143182D01*
X0176449Y0143980D02*
X0138941Y0143980D01*
X0138941Y0144779D02*
X0177247Y0144779D01*
X0178046Y0145577D02*
X0138941Y0145577D01*
X0138941Y0146376D02*
X0178844Y0146376D01*
X0179643Y0147174D02*
X0138941Y0147174D01*
X0138941Y0147973D02*
X0244881Y0147973D01*
X0245313Y0148771D02*
X0138941Y0148771D01*
X0147893Y0175597D02*
X0249634Y0175597D01*
X0261566Y0170331D02*
X0266813Y0170331D01*
X0266813Y0169533D02*
X0262893Y0169533D01*
X0263658Y0168734D02*
X0266813Y0168734D01*
X0266813Y0167936D02*
X0264166Y0167936D01*
X0264495Y0167137D02*
X0266813Y0167137D01*
X0266813Y0166339D02*
X0264680Y0166339D01*
X0264662Y0164742D02*
X0266813Y0164742D01*
X0266813Y0165540D02*
X0260034Y0165540D01*
X0264459Y0163943D02*
X0266813Y0163943D01*
X0266813Y0163145D02*
X0264108Y0163145D01*
X0263576Y0162346D02*
X0266813Y0162346D01*
X0266813Y0161548D02*
X0262737Y0161548D01*
X0262775Y0159951D02*
X0266813Y0159951D01*
X0266813Y0160749D02*
X0261218Y0160749D01*
X0263573Y0159152D02*
X0266813Y0159152D01*
X0266813Y0158353D02*
X0264228Y0158353D01*
X0264559Y0157555D02*
X0266813Y0157555D01*
X0266813Y0156756D02*
X0264890Y0156756D01*
X0264934Y0155958D02*
X0266813Y0155958D01*
X0266813Y0155159D02*
X0264934Y0155159D01*
X0264858Y0154361D02*
X0266813Y0154361D01*
X0266813Y0153562D02*
X0264528Y0153562D01*
X0264197Y0152764D02*
X0266813Y0152764D01*
X0266813Y0151965D02*
X0263498Y0151965D01*
X0262699Y0151167D02*
X0266813Y0151167D01*
X0266813Y0150368D02*
X0261963Y0150368D01*
X0263156Y0149570D02*
X0266813Y0149570D01*
X0266813Y0148771D02*
X0263954Y0148771D01*
X0264386Y0147973D02*
X0266813Y0147973D01*
X0266813Y0147174D02*
X0264717Y0147174D01*
X0264934Y0146376D02*
X0266813Y0146376D01*
X0266813Y0145577D02*
X0264934Y0145577D01*
X0264934Y0144779D02*
X0266813Y0144779D01*
X0266813Y0143980D02*
X0264701Y0143980D01*
X0264370Y0143182D02*
X0266813Y0143182D01*
X0266813Y0142383D02*
X0263916Y0142383D01*
X0263117Y0141585D02*
X0266813Y0141585D01*
X0266813Y0140786D02*
X0261870Y0140786D01*
X0262249Y0139988D02*
X0266813Y0139988D01*
X0266813Y0139189D02*
X0263253Y0139189D01*
X0263907Y0138391D02*
X0266813Y0138391D01*
X0266813Y0137592D02*
X0264341Y0137592D01*
X0264607Y0136794D02*
X0266813Y0136794D01*
X0266813Y0134398D02*
X0264607Y0134398D01*
X0264340Y0133600D02*
X0266813Y0133600D01*
X0266813Y0132801D02*
X0263906Y0132801D01*
X0263252Y0132003D02*
X0266813Y0132003D01*
X0266813Y0131204D02*
X0262247Y0131204D01*
X0261873Y0130406D02*
X0266813Y0130406D01*
X0266813Y0129607D02*
X0263118Y0129607D01*
X0263917Y0128809D02*
X0266813Y0128809D01*
X0266813Y0128010D02*
X0264371Y0128010D01*
X0264701Y0127212D02*
X0266813Y0127212D01*
X0266813Y0126413D02*
X0264934Y0126413D01*
X0264934Y0125615D02*
X0266813Y0125615D01*
X0266813Y0124816D02*
X0264934Y0124816D01*
X0264716Y0124018D02*
X0266813Y0124018D01*
X0266813Y0123219D02*
X0264385Y0123219D01*
X0263953Y0122420D02*
X0266813Y0122420D01*
X0266813Y0121622D02*
X0263154Y0121622D01*
X0261960Y0120823D02*
X0266813Y0120823D01*
X0266813Y0120025D02*
X0262700Y0120025D01*
X0263499Y0119226D02*
X0266813Y0119226D01*
X0266813Y0118428D02*
X0264197Y0118428D01*
X0264528Y0117629D02*
X0266813Y0117629D01*
X0266813Y0116831D02*
X0264859Y0116831D01*
X0264934Y0116032D02*
X0266813Y0116032D01*
X0266813Y0115234D02*
X0264934Y0115234D01*
X0264889Y0114435D02*
X0266813Y0114435D01*
X0266813Y0113637D02*
X0264558Y0113637D01*
X0264228Y0112838D02*
X0266813Y0112838D01*
X0266813Y0112040D02*
X0263572Y0112040D01*
X0262774Y0111241D02*
X0266813Y0111241D01*
X0266813Y0110443D02*
X0261783Y0110443D01*
X0263081Y0109644D02*
X0266813Y0109644D01*
X0266813Y0108846D02*
X0263880Y0108846D01*
X0264355Y0108047D02*
X0266813Y0108047D01*
X0266813Y0107249D02*
X0264686Y0107249D01*
X0264934Y0106450D02*
X0266813Y0106450D01*
X0266813Y0105652D02*
X0264934Y0105652D01*
X0264934Y0104853D02*
X0266813Y0104853D01*
X0266813Y0104055D02*
X0264732Y0104055D01*
X0264401Y0103256D02*
X0266813Y0103256D01*
X0266813Y0102458D02*
X0263990Y0102458D01*
X0263192Y0101659D02*
X0266813Y0101659D01*
X0266813Y0100861D02*
X0262050Y0100861D01*
X0262663Y0100062D02*
X0266813Y0100062D01*
X0266813Y0099264D02*
X0263462Y0099264D01*
X0264182Y0098465D02*
X0266813Y0098465D01*
X0266813Y0097667D02*
X0264513Y0097667D01*
X0264844Y0096868D02*
X0266813Y0096868D01*
X0266813Y0096070D02*
X0264934Y0096070D01*
X0264934Y0095271D02*
X0266813Y0095271D01*
X0266813Y0094473D02*
X0264905Y0094473D01*
X0264574Y0093674D02*
X0266813Y0093674D01*
X0266813Y0092876D02*
X0264243Y0092876D01*
X0263609Y0092077D02*
X0266813Y0092077D01*
X0266813Y0091279D02*
X0262811Y0091279D01*
X0262688Y0089682D02*
X0266813Y0089682D01*
X0266813Y0090480D02*
X0261131Y0090480D01*
X0263550Y0088883D02*
X0266813Y0088883D01*
X0266813Y0088084D02*
X0264090Y0088084D01*
X0264447Y0087286D02*
X0266813Y0087286D01*
X0266813Y0086487D02*
X0264656Y0086487D01*
X0264685Y0084890D02*
X0266813Y0084890D01*
X0266813Y0084092D02*
X0264507Y0084092D01*
X0264184Y0083293D02*
X0266813Y0083293D01*
X0266813Y0082495D02*
X0263684Y0082495D01*
X0262942Y0081696D02*
X0266813Y0081696D01*
X0266813Y0080898D02*
X0261646Y0080898D01*
X0262612Y0080099D02*
X0266813Y0080099D01*
X0266813Y0079301D02*
X0263425Y0079301D01*
X0264167Y0078502D02*
X0266813Y0078502D01*
X0266813Y0077704D02*
X0264497Y0077704D01*
X0264828Y0076905D02*
X0266813Y0076905D01*
X0266813Y0076107D02*
X0264934Y0076107D01*
X0264934Y0075308D02*
X0266813Y0075308D01*
X0266813Y0074510D02*
X0264920Y0074510D01*
X0264589Y0073711D02*
X0266813Y0073711D01*
X0266813Y0072913D02*
X0264259Y0072913D01*
X0263647Y0072114D02*
X0266813Y0072114D01*
X0266813Y0071316D02*
X0262848Y0071316D01*
X0262636Y0069719D02*
X0266813Y0069719D01*
X0266813Y0070517D02*
X0261221Y0070517D01*
X0263522Y0068920D02*
X0266813Y0068920D01*
X0266813Y0068122D02*
X0264071Y0068122D01*
X0264435Y0067323D02*
X0266813Y0067323D01*
X0266813Y0066525D02*
X0264650Y0066525D01*
X0264691Y0064928D02*
X0266813Y0064928D01*
X0266813Y0065726D02*
X0260034Y0065726D01*
X0264519Y0064129D02*
X0266813Y0064129D01*
X0266813Y0063331D02*
X0264203Y0063331D01*
X0263711Y0062532D02*
X0266813Y0062532D01*
X0266813Y0061734D02*
X0262983Y0061734D01*
X0261719Y0060935D02*
X0266813Y0060935D01*
X0266813Y0060137D02*
X0262522Y0060137D01*
X0263387Y0059338D02*
X0266813Y0059338D01*
X0266813Y0058540D02*
X0264151Y0058540D01*
X0264482Y0057741D02*
X0266813Y0057741D01*
X0266813Y0056943D02*
X0264813Y0056943D01*
X0264934Y0056144D02*
X0266813Y0056144D01*
X0266813Y0055346D02*
X0264934Y0055346D01*
X0264934Y0054547D02*
X0266813Y0054547D01*
X0266813Y0053749D02*
X0264605Y0053749D01*
X0264274Y0052950D02*
X0266813Y0052950D01*
X0266813Y0052151D02*
X0263684Y0052151D01*
X0262885Y0051353D02*
X0266813Y0051353D01*
X0266813Y0050554D02*
X0261514Y0050554D01*
X0262969Y0049756D02*
X0266813Y0049756D01*
X0266813Y0048957D02*
X0263768Y0048957D01*
X0264309Y0048159D02*
X0266813Y0048159D01*
X0266813Y0047360D02*
X0264640Y0047360D01*
X0264934Y0046562D02*
X0266813Y0046562D01*
X0266813Y0045763D02*
X0264934Y0045763D01*
X0264934Y0044965D02*
X0266813Y0044965D01*
X0266813Y0044166D02*
X0264778Y0044166D01*
X0264447Y0043368D02*
X0266813Y0043368D01*
X0266813Y0042569D02*
X0264102Y0042569D01*
X0263303Y0041771D02*
X0266813Y0041771D01*
X0266813Y0040972D02*
X0262319Y0040972D01*
X0262433Y0040174D02*
X0266813Y0040174D01*
X0266813Y0039375D02*
X0263350Y0039375D01*
X0264136Y0038577D02*
X0266813Y0038577D01*
X0266813Y0037778D02*
X0264467Y0037778D01*
X0264797Y0036980D02*
X0266813Y0036980D01*
X0266813Y0036181D02*
X0264934Y0036181D01*
X0264934Y0035383D02*
X0266813Y0035383D01*
X0266813Y0034584D02*
X0264934Y0034584D01*
X0264620Y0033786D02*
X0266813Y0033786D01*
X0266813Y0032987D02*
X0264289Y0032987D01*
X0263721Y0032189D02*
X0266813Y0032189D01*
X0266813Y0031390D02*
X0262923Y0031390D01*
X0261400Y0030592D02*
X0266813Y0030592D01*
X0266813Y0029793D02*
X0049541Y0029793D01*
X0049541Y0028995D02*
X0266813Y0028995D01*
X0257867Y0030592D02*
X0250636Y0030592D01*
X0250034Y0030592D02*
X0249234Y0030592D01*
X0248631Y0030592D02*
X0049541Y0030592D01*
X0049541Y0031390D02*
X0246746Y0031390D01*
X0245829Y0032189D02*
X0049541Y0032189D01*
X0049541Y0032987D02*
X0245239Y0032987D01*
X0244859Y0033786D02*
X0049541Y0033786D01*
X0049541Y0034584D02*
X0244630Y0034584D01*
X0244563Y0036181D02*
X0049541Y0036181D01*
X0049541Y0035383D02*
X0249233Y0035383D01*
X0249234Y0034584D02*
X0250034Y0034584D01*
X0250034Y0033786D02*
X0249234Y0033786D01*
X0249234Y0032987D02*
X0250034Y0032987D01*
X0250034Y0032189D02*
X0249234Y0032189D01*
X0249234Y0031390D02*
X0250034Y0031390D01*
X0252521Y0031390D02*
X0256345Y0031390D01*
X0255546Y0032189D02*
X0253438Y0032189D01*
X0254028Y0032987D02*
X0254978Y0032987D01*
X0254647Y0033786D02*
X0254408Y0033786D01*
X0247383Y0040174D02*
X0049541Y0040174D01*
X0049541Y0040972D02*
X0246948Y0040972D01*
X0245964Y0041771D02*
X0049541Y0041771D01*
X0049541Y0042569D02*
X0245165Y0042569D01*
X0244820Y0043368D02*
X0049541Y0043368D01*
X0049541Y0044166D02*
X0244489Y0044166D01*
X0244334Y0044965D02*
X0049541Y0044965D01*
X0049541Y0045763D02*
X0244334Y0045763D01*
X0244334Y0046562D02*
X0049541Y0046562D01*
X0049541Y0047360D02*
X0244627Y0047360D01*
X0244958Y0048159D02*
X0049541Y0048159D01*
X0049541Y0048957D02*
X0245499Y0048957D01*
X0246298Y0049756D02*
X0049541Y0049756D01*
X0049541Y0050554D02*
X0247754Y0050554D01*
X0246382Y0051353D02*
X0049541Y0051353D01*
X0049541Y0052151D02*
X0245583Y0052151D01*
X0244993Y0052950D02*
X0049541Y0052950D01*
X0049541Y0053749D02*
X0244662Y0053749D01*
X0244334Y0054547D02*
X0049541Y0054547D01*
X0049541Y0055346D02*
X0244334Y0055346D01*
X0244334Y0056144D02*
X0049541Y0056144D01*
X0049541Y0056943D02*
X0244454Y0056943D01*
X0244785Y0057741D02*
X0049541Y0057741D01*
X0049541Y0058540D02*
X0245116Y0058540D01*
X0245880Y0059338D02*
X0049541Y0059338D01*
X0049541Y0060137D02*
X0246745Y0060137D01*
X0247038Y0060935D02*
X0049541Y0060935D01*
X0049541Y0061734D02*
X0246001Y0061734D01*
X0245203Y0062532D02*
X0049541Y0062532D01*
X0049541Y0063331D02*
X0244835Y0063331D01*
X0244505Y0064129D02*
X0049541Y0064129D01*
X0049541Y0064928D02*
X0244334Y0064928D01*
X0244334Y0065726D02*
X0049541Y0065726D01*
X0049541Y0066525D02*
X0244334Y0066525D01*
X0244612Y0067323D02*
X0049541Y0067323D01*
X0049541Y0068122D02*
X0244943Y0068122D01*
X0245462Y0068920D02*
X0049541Y0068920D01*
X0049541Y0069719D02*
X0246260Y0069719D01*
X0246419Y0071316D02*
X0154313Y0071316D01*
X0151568Y0071316D02*
X0049541Y0071316D01*
X0049541Y0072114D02*
X0150379Y0072114D01*
X0147052Y0077704D02*
X0139532Y0077704D01*
X0138941Y0078502D02*
X0146254Y0078502D01*
X0145941Y0079301D02*
X0138941Y0079301D01*
X0138941Y0080099D02*
X0145941Y0080099D01*
X0145941Y0080898D02*
X0138941Y0080898D01*
X0138941Y0081696D02*
X0145941Y0081696D01*
X0145941Y0082495D02*
X0138941Y0082495D01*
X0138941Y0083293D02*
X0145941Y0083293D01*
X0145941Y0084092D02*
X0138941Y0084092D01*
X0138941Y0084890D02*
X0145941Y0084890D01*
X0145941Y0085689D02*
X0138941Y0085689D01*
X0138941Y0086487D02*
X0145941Y0086487D01*
X0145941Y0087286D02*
X0138941Y0087286D01*
X0138941Y0088084D02*
X0145941Y0088084D01*
X0145941Y0088883D02*
X0138941Y0088883D01*
X0138941Y0089682D02*
X0145941Y0089682D01*
X0145941Y0090480D02*
X0138941Y0090480D01*
X0138941Y0091279D02*
X0145941Y0091279D01*
X0145941Y0092077D02*
X0138941Y0092077D01*
X0169995Y0129607D02*
X0246149Y0129607D01*
X0247394Y0130406D02*
X0170794Y0130406D01*
X0171241Y0131204D02*
X0246531Y0131204D01*
X0245732Y0132003D02*
X0171541Y0132003D01*
X0171541Y0132801D02*
X0245055Y0132801D01*
X0244724Y0133600D02*
X0171725Y0133600D01*
X0172523Y0134398D02*
X0244393Y0134398D01*
X0244334Y0135197D02*
X0173322Y0135197D01*
X0174120Y0135995D02*
X0244334Y0135995D01*
X0244393Y0136794D02*
X0174919Y0136794D01*
X0175717Y0137592D02*
X0244724Y0137592D01*
X0245054Y0138391D02*
X0176516Y0138391D01*
X0177314Y0139189D02*
X0245731Y0139189D01*
X0246529Y0139988D02*
X0178113Y0139988D01*
X0178912Y0140786D02*
X0247397Y0140786D01*
X0246150Y0141585D02*
X0179710Y0141585D01*
X0180509Y0142383D02*
X0245351Y0142383D01*
X0244897Y0143182D02*
X0181307Y0143182D01*
X0244677Y0197481D02*
X0108341Y0197481D01*
X0107541Y0197481D02*
X0083865Y0197481D01*
X0083868Y0197508D02*
X0083868Y0197527D01*
X0077868Y0197527D01*
X0077868Y0191527D01*
X0077888Y0191527D01*
X0078719Y0191637D01*
X0079530Y0191854D01*
X0080305Y0192175D01*
X0081031Y0192594D01*
X0081697Y0193105D01*
X0082290Y0193698D01*
X0082801Y0194364D01*
X0083220Y0195091D01*
X0083542Y0195866D01*
X0083759Y0196676D01*
X0083868Y0197508D01*
X0083868Y0198327D02*
X0083868Y0198347D01*
X0083759Y0199179D01*
X0083542Y0199989D01*
X0083220Y0200764D01*
X0082801Y0201491D01*
X0082290Y0202156D01*
X0081697Y0202749D01*
X0081031Y0203260D01*
X0080305Y0203680D01*
X0079530Y0204001D01*
X0078719Y0204218D01*
X0077888Y0204327D01*
X0077868Y0204327D01*
X0077868Y0198327D01*
X0083868Y0198327D01*
X0083772Y0199078D02*
X0102841Y0199078D01*
X0102841Y0199876D02*
X0083572Y0199876D01*
X0083258Y0200675D02*
X0102841Y0200675D01*
X0102841Y0201473D02*
X0082811Y0201473D01*
X0082175Y0202272D02*
X0103189Y0202272D01*
X0104220Y0203869D02*
X0079848Y0203869D01*
X0081279Y0203070D02*
X0105133Y0203070D01*
X0103437Y0204667D02*
X0049541Y0204667D01*
X0049541Y0203869D02*
X0075088Y0203869D01*
X0075407Y0204001D02*
X0074631Y0203680D01*
X0073905Y0203260D01*
X0073239Y0202749D01*
X0072646Y0202156D01*
X0072135Y0201491D01*
X0071716Y0200764D01*
X0071395Y0199989D01*
X0071178Y0199179D01*
X0071068Y0198347D01*
X0071068Y0198327D01*
X0077068Y0198327D01*
X0077068Y0197527D01*
X0077868Y0197527D01*
X0077868Y0198327D01*
X0077068Y0198327D01*
X0077068Y0204327D01*
X0077049Y0204327D01*
X0076217Y0204218D01*
X0075407Y0204001D01*
X0077068Y0203869D02*
X0077868Y0203869D01*
X0077868Y0203070D02*
X0077068Y0203070D01*
X0077068Y0202272D02*
X0077868Y0202272D01*
X0077868Y0201473D02*
X0077068Y0201473D01*
X0077068Y0200675D02*
X0077868Y0200675D01*
X0077868Y0199876D02*
X0077068Y0199876D01*
X0077068Y0199078D02*
X0077868Y0199078D01*
X0077868Y0198279D02*
X0102841Y0198279D01*
X0102841Y0196682D02*
X0083759Y0196682D01*
X0083546Y0195884D02*
X0102841Y0195884D01*
X0102841Y0195085D02*
X0083217Y0195085D01*
X0082742Y0194287D02*
X0102841Y0194287D01*
X0102913Y0193488D02*
X0082080Y0193488D01*
X0081155Y0192689D02*
X0103613Y0192689D01*
X0104692Y0191891D02*
X0079619Y0191891D01*
X0077868Y0191891D02*
X0077068Y0191891D01*
X0077068Y0191527D02*
X0077068Y0197527D01*
X0071068Y0197527D01*
X0071068Y0197508D01*
X0071178Y0196676D01*
X0071395Y0195866D01*
X0071716Y0195091D01*
X0072135Y0194364D01*
X0072646Y0193698D01*
X0073239Y0193105D01*
X0073905Y0192594D01*
X0074631Y0192175D01*
X0075407Y0191854D01*
X0076217Y0191637D01*
X0077049Y0191527D01*
X0077068Y0191527D01*
X0077068Y0192689D02*
X0077868Y0192689D01*
X0077868Y0193488D02*
X0077068Y0193488D01*
X0077068Y0194287D02*
X0077868Y0194287D01*
X0077868Y0195085D02*
X0077068Y0195085D01*
X0077068Y0195884D02*
X0077868Y0195884D01*
X0077868Y0196682D02*
X0077068Y0196682D01*
X0077068Y0197481D02*
X0077868Y0197481D01*
X0077068Y0198279D02*
X0049541Y0198279D01*
X0049541Y0197481D02*
X0071072Y0197481D01*
X0071177Y0196682D02*
X0049541Y0196682D01*
X0049541Y0195884D02*
X0071390Y0195884D01*
X0071719Y0195085D02*
X0049541Y0195085D01*
X0049541Y0194287D02*
X0072195Y0194287D01*
X0072856Y0193488D02*
X0049541Y0193488D01*
X0049541Y0192689D02*
X0073781Y0192689D01*
X0075317Y0191891D02*
X0049541Y0191891D01*
X0049541Y0191092D02*
X0103894Y0191092D01*
X0103302Y0190294D02*
X0049541Y0190294D01*
X0049541Y0189495D02*
X0102971Y0189495D01*
X0102641Y0188697D02*
X0049541Y0188697D01*
X0049541Y0187898D02*
X0102641Y0187898D01*
X0102641Y0187100D02*
X0049541Y0187100D01*
X0049541Y0186301D02*
X0102760Y0186301D01*
X0103091Y0185503D02*
X0049541Y0185503D01*
X0049541Y0183107D02*
X0073706Y0183107D01*
X0072799Y0182309D02*
X0049541Y0182309D01*
X0049541Y0181510D02*
X0072151Y0181510D01*
X0071694Y0180712D02*
X0049541Y0180712D01*
X0049541Y0179913D02*
X0071375Y0179913D01*
X0071169Y0179115D02*
X0049541Y0179115D01*
X0049541Y0199078D02*
X0071164Y0199078D01*
X0071365Y0199876D02*
X0049541Y0199876D01*
X0049541Y0200675D02*
X0071679Y0200675D01*
X0072125Y0201473D02*
X0049541Y0201473D01*
X0049541Y0202272D02*
X0072762Y0202272D01*
X0073657Y0203070D02*
X0049541Y0203070D01*
X0049541Y0205466D02*
X0103106Y0205466D01*
X0102775Y0206264D02*
X0049541Y0206264D01*
X0049541Y0207063D02*
X0102641Y0207063D01*
X0102641Y0207861D02*
X0049541Y0207861D01*
X0049541Y0208660D02*
X0102641Y0208660D01*
X0102956Y0209458D02*
X0049541Y0209458D01*
X0049541Y0210257D02*
X0103286Y0210257D01*
X0103857Y0211055D02*
X0049541Y0211055D01*
X0049541Y0211854D02*
X0074884Y0211854D01*
X0073730Y0212332D02*
X0076155Y0211327D01*
X0078781Y0211327D01*
X0081207Y0212332D01*
X0083063Y0214189D01*
X0084068Y0216614D01*
X0084068Y0219240D01*
X0083063Y0221666D01*
X0081207Y0223522D01*
X0078781Y0224527D01*
X0076155Y0224527D01*
X0073730Y0223522D01*
X0071873Y0221666D01*
X0070868Y0219240D01*
X0070868Y0216614D01*
X0071873Y0214189D01*
X0073730Y0212332D01*
X0073409Y0212652D02*
X0049541Y0212652D01*
X0049541Y0213451D02*
X0072611Y0213451D01*
X0071848Y0214249D02*
X0049541Y0214249D01*
X0049541Y0215048D02*
X0071517Y0215048D01*
X0071186Y0215846D02*
X0049541Y0215846D01*
X0049541Y0216645D02*
X0070868Y0216645D01*
X0070868Y0217443D02*
X0049541Y0217443D01*
X0049541Y0218242D02*
X0070868Y0218242D01*
X0070868Y0219040D02*
X0049541Y0219040D01*
X0049541Y0219839D02*
X0071116Y0219839D01*
X0071447Y0220637D02*
X0049541Y0220637D01*
X0049541Y0221436D02*
X0071778Y0221436D01*
X0072442Y0222234D02*
X0049541Y0222234D01*
X0049541Y0223033D02*
X0073240Y0223033D01*
X0074476Y0223831D02*
X0049541Y0223831D01*
X0049541Y0224630D02*
X0103459Y0224630D01*
X0103122Y0225428D02*
X0049541Y0225428D01*
X0049541Y0226227D02*
X0102791Y0226227D01*
X0102641Y0227025D02*
X0049541Y0227025D01*
X0049541Y0227824D02*
X0102641Y0227824D01*
X0102641Y0228622D02*
X0049541Y0228622D01*
X0049541Y0229421D02*
X0102940Y0229421D01*
X0103271Y0230220D02*
X0049541Y0230220D01*
X0049541Y0231018D02*
X0103820Y0231018D01*
X0104258Y0223831D02*
X0080461Y0223831D01*
X0081696Y0223033D02*
X0105223Y0223033D01*
X0105174Y0222234D02*
X0082495Y0222234D01*
X0083159Y0221436D02*
X0104237Y0221436D01*
X0103444Y0220637D02*
X0083489Y0220637D01*
X0083820Y0219839D02*
X0103113Y0219839D01*
X0102782Y0219040D02*
X0084068Y0219040D01*
X0084068Y0218242D02*
X0102641Y0218242D01*
X0102641Y0217443D02*
X0084068Y0217443D01*
X0084068Y0216645D02*
X0102641Y0216645D01*
X0102948Y0215846D02*
X0083750Y0215846D01*
X0083419Y0215048D02*
X0103279Y0215048D01*
X0103840Y0214249D02*
X0083089Y0214249D01*
X0082326Y0213451D02*
X0104638Y0213451D01*
X0104655Y0211854D02*
X0080052Y0211854D01*
X0081527Y0212652D02*
X0106142Y0212652D01*
X0113041Y0200675D02*
X0247667Y0200675D01*
X0260034Y0205466D02*
X0266813Y0205466D01*
X0266813Y0206264D02*
X0264691Y0206264D01*
X0264520Y0207063D02*
X0266813Y0207063D01*
X0266813Y0207861D02*
X0264204Y0207861D01*
X0263712Y0208660D02*
X0266813Y0208660D01*
X0266813Y0209458D02*
X0262984Y0209458D01*
X0261721Y0210257D02*
X0266813Y0210257D01*
X0266813Y0211055D02*
X0262519Y0211055D01*
X0263386Y0211854D02*
X0266813Y0211854D01*
X0266813Y0212652D02*
X0264151Y0212652D01*
X0264481Y0213451D02*
X0266813Y0213451D01*
X0266813Y0214249D02*
X0264812Y0214249D01*
X0264934Y0215048D02*
X0266813Y0215048D01*
X0266813Y0215846D02*
X0264934Y0215846D01*
X0264934Y0216645D02*
X0266813Y0216645D01*
X0266813Y0217443D02*
X0264605Y0217443D01*
X0264274Y0218242D02*
X0266813Y0218242D01*
X0266813Y0219040D02*
X0263685Y0219040D01*
X0262887Y0219839D02*
X0266813Y0219839D01*
X0266813Y0220637D02*
X0261511Y0220637D01*
X0262968Y0221436D02*
X0266813Y0221436D01*
X0266813Y0222234D02*
X0263767Y0222234D01*
X0264308Y0223033D02*
X0266813Y0223033D01*
X0266813Y0223831D02*
X0264639Y0223831D01*
X0264934Y0224630D02*
X0266813Y0224630D01*
X0266813Y0225428D02*
X0264934Y0225428D01*
X0264934Y0226227D02*
X0266813Y0226227D01*
X0266813Y0227025D02*
X0264778Y0227025D01*
X0264448Y0227824D02*
X0266813Y0227824D01*
X0266813Y0228622D02*
X0264103Y0228622D01*
X0263304Y0229421D02*
X0266813Y0229421D01*
X0266813Y0230220D02*
X0262322Y0230220D01*
X0256945Y0230220D02*
X0252322Y0230220D01*
X0253304Y0229421D02*
X0255963Y0229421D01*
X0255164Y0228622D02*
X0254103Y0228622D01*
X0254448Y0227824D02*
X0254820Y0227824D01*
X0264650Y0204667D02*
X0266813Y0204667D01*
X0266813Y0203869D02*
X0264435Y0203869D01*
X0264070Y0203070D02*
X0266813Y0203070D01*
X0266813Y0202272D02*
X0263521Y0202272D01*
X0262635Y0201473D02*
X0266813Y0201473D01*
X0266813Y0200675D02*
X0261224Y0200675D01*
X0262849Y0199876D02*
X0266813Y0199876D01*
X0266813Y0199078D02*
X0263648Y0199078D01*
X0264259Y0198279D02*
X0266813Y0198279D01*
X0266813Y0197481D02*
X0264590Y0197481D01*
X0264921Y0196682D02*
X0266813Y0196682D01*
X0266813Y0195884D02*
X0264934Y0195884D01*
X0264934Y0195085D02*
X0266813Y0195085D01*
X0266813Y0194287D02*
X0264828Y0194287D01*
X0264497Y0193488D02*
X0266813Y0193488D01*
X0266813Y0192689D02*
X0264166Y0192689D01*
X0263423Y0191891D02*
X0266813Y0191891D01*
X0266813Y0191092D02*
X0262609Y0191092D01*
X0262143Y0190294D02*
X0266813Y0190294D01*
X0266813Y0189495D02*
X0263230Y0189495D01*
X0264028Y0188697D02*
X0266813Y0188697D01*
X0266813Y0187898D02*
X0264417Y0187898D01*
X0264748Y0187100D02*
X0266813Y0187100D01*
X0266813Y0186301D02*
X0264934Y0186301D01*
X0264934Y0185503D02*
X0266813Y0185503D01*
X0266813Y0184704D02*
X0264934Y0184704D01*
X0264670Y0183906D02*
X0266813Y0183906D01*
X0266813Y0183107D02*
X0264339Y0183107D01*
X0263841Y0182309D02*
X0266813Y0182309D01*
X0266813Y0181510D02*
X0263043Y0181510D01*
X0261690Y0180712D02*
X0266813Y0180712D01*
X0266813Y0179913D02*
X0262812Y0179913D01*
X0263611Y0179115D02*
X0266813Y0179115D01*
X0266813Y0178316D02*
X0264244Y0178316D01*
X0264574Y0177518D02*
X0266813Y0177518D01*
X0266813Y0176719D02*
X0264905Y0176719D01*
X0264934Y0175921D02*
X0266813Y0175921D01*
X0266813Y0175122D02*
X0264934Y0175122D01*
X0264843Y0174324D02*
X0266813Y0174324D01*
X0266813Y0173525D02*
X0264512Y0173525D01*
X0264181Y0172727D02*
X0266813Y0172727D01*
X0266813Y0171928D02*
X0263461Y0171928D01*
X0262662Y0171130D02*
X0266813Y0171130D01*
X0260034Y0135997D02*
X0260034Y0135197D01*
X0260034Y0085689D02*
X0266813Y0085689D01*
X0247664Y0070517D02*
X0049541Y0070517D01*
X0049541Y0039375D02*
X0246200Y0039375D01*
X0245495Y0038577D02*
X0049541Y0038577D01*
X0049541Y0037778D02*
X0245021Y0037778D01*
X0244721Y0036980D02*
X0049541Y0036980D01*
X0073925Y0028196D02*
X0242429Y0028196D01*
X0242429Y0027398D02*
X0073925Y0027398D01*
X0073925Y0026599D02*
X0242429Y0026599D01*
X0242429Y0025801D02*
X0073925Y0025801D01*
X0073925Y0025002D02*
X0242429Y0025002D01*
X0242429Y0024204D02*
X0073925Y0024204D01*
X0073925Y0023405D02*
X0242429Y0023405D01*
X0242429Y0022607D02*
X0073925Y0022607D01*
X0073925Y0021808D02*
X0242429Y0021808D01*
X0242429Y0021010D02*
X0073925Y0021010D01*
X0073925Y0020211D02*
X0242429Y0020211D01*
X0242429Y0019413D02*
X0073925Y0019413D01*
X0073925Y0018614D02*
X0242429Y0018614D01*
X0242429Y0017816D02*
X0073925Y0017816D01*
X0073925Y0017017D02*
X0242429Y0017017D01*
X0242429Y0016218D02*
X0073925Y0016218D01*
X0073925Y0015420D02*
X0242429Y0015420D01*
X0242429Y0014621D02*
X0073925Y0014621D01*
X0073925Y0013823D02*
X0242429Y0013823D01*
X0242429Y0013024D02*
X0073925Y0013024D01*
X0073925Y0012226D02*
X0242429Y0012226D01*
X0242429Y0011427D02*
X0073925Y0011427D01*
X0073925Y0010629D02*
X0242429Y0010629D01*
X0242429Y0009830D02*
X0073925Y0009830D01*
X0073925Y0009032D02*
X0242429Y0009032D01*
X0242429Y0008233D02*
X0073925Y0008233D01*
X0073925Y0007435D02*
X0242429Y0007435D01*
X0242429Y0006636D02*
X0073925Y0006636D01*
X0073925Y0005838D02*
X0242429Y0005838D01*
X0242429Y0005039D02*
X0073925Y0005039D01*
X0073925Y0237406D02*
X0127205Y0237406D01*
X0125415Y0238205D02*
X0073925Y0238205D01*
X0073925Y0239003D02*
X0124617Y0239003D01*
X0123899Y0239802D02*
X0073925Y0239802D01*
X0073925Y0240600D02*
X0123568Y0240600D01*
X0123237Y0241399D02*
X0073925Y0241399D01*
X0073925Y0242197D02*
X0123112Y0242197D01*
X0123112Y0242996D02*
X0073925Y0242996D01*
X0073925Y0243794D02*
X0123112Y0243794D01*
X0123112Y0244593D02*
X0073925Y0244593D01*
X0073925Y0245391D02*
X0123112Y0245391D01*
X0123112Y0246190D02*
X0073925Y0246190D01*
X0073925Y0246988D02*
X0123112Y0246988D01*
X0123112Y0247787D02*
X0073925Y0247787D01*
X0073925Y0248585D02*
X0123112Y0248585D01*
X0123112Y0249384D02*
X0073925Y0249384D01*
X0073925Y0250182D02*
X0123112Y0250182D01*
X0123112Y0250981D02*
X0073925Y0250981D01*
X0073925Y0251779D02*
X0123112Y0251779D01*
X0123112Y0252578D02*
X0073925Y0252578D01*
X0073925Y0253376D02*
X0123112Y0253376D01*
X0123112Y0254175D02*
X0073925Y0254175D01*
X0073925Y0254973D02*
X0123077Y0254973D01*
X0122776Y0255772D02*
X0073925Y0255772D01*
X0073925Y0256570D02*
X0122038Y0256570D01*
D14*
X0147941Y0132644D03*
X0167941Y0132644D03*
X0207941Y0107644D03*
X0152941Y0074644D03*
D15*
X0136941Y0075644D03*
M02*
